<?xml version="1.0" encoding="utf-8"?>
<!-- Generated by IcoMoon.io -->
<!DOCTYPE svg PUBLIC "-//W3C//DTD SVG 1.1//EN" "http://www.w3.org/Graphics/SVG/1.1/DTD/svg11.dtd">
<svg version="1.1" xmlns="http://www.w3.org/2000/svg" xmlns:xlink="http://www.w3.org/1999/xlink" width="32" height="32" viewBox="0 0 32 32">
	<path d="M10 29c-3.866 0-7-3.134-7-7 0-2.741 1.575-5.113 3.869-6.262l-1.342-2.684c-3.277 1.642-5.527 5.031-5.527 8.945 0 5.523 4.477 10 10 10s10-4.477 10-10h-3c0 3.866-3.134 7-7 7zM30 22l-2 2-6.829-6.828h-7.171v-3.172h8v-2h-8v-4h-4v12h10l8 8 4-4zM9 3c0-1.657 1.343-3 3-3s3 1.343 3 3c0 1.657-1.343 3-3 3-1.657 0-3-1.343-3-3z" />
</svg>
