<?xml version="1.0" encoding="utf-8"?>
<!-- Generated by IcoMoon.io -->
<!DOCTYPE svg PUBLIC "-//W3C//DTD SVG 1.1//EN" "http://www.w3.org/Graphics/SVG/1.1/DTD/svg11.dtd">
<svg version="1.1" xmlns="http://www.w3.org/2000/svg" xmlns:xlink="http://www.w3.org/1999/xlink" width="32" height="32" viewBox="0 0 32 32">
	<path d="M30 8c1.105 0 2-0.895 2-2v-4h-4v-2h-26c-1.1 0-2 0.9-2 2v28c0 1.1 0.9 2 2 2h26v-8h2c1.105 0 2-0.895 2-2v-4h-4v-2h2c1.105 0 2-0.895 2-2v-4h-4v-2h2zM18 8.010c2.203 0 3.99 1.786 3.99 3.99s-1.786 3.99-3.99 3.99c-2.203 0-3.99-1.786-3.99-3.99s1.786-3.99 3.99-3.99zM8 30h-2v-28h2v28zM24 24h-12v-2c0-2.209 1.791-4 4-4v0h4c2.209 0 4 1.791 4 4v2z" />
</svg>
