<?xml version="1.0" encoding="utf-8"?>
<!-- Generated by IcoMoon.io -->
<!DOCTYPE svg PUBLIC "-//W3C//DTD SVG 1.1//EN" "http://www.w3.org/Graphics/SVG/1.1/DTD/svg11.dtd">
<svg version="1.1" xmlns="http://www.w3.org/2000/svg" xmlns:xlink="http://www.w3.org/1999/xlink" width="32" height="32" viewBox="0 0 32 32">
	<path d="M18 17.172l3.414 3.414-2.828 2.828-4.586-4.586v-6.828h4zM26 2c3.314 0 6 2.686 6 6 0 2.031-1.009 3.826-2.553 4.911-1.456-3.845-4.513-6.902-8.358-8.358 1.086-1.544 2.881-2.553 4.911-2.553zM10.911 4.553c-3.845 1.456-6.902 4.513-8.358 8.358-1.544-1.086-2.553-2.88-2.553-4.911 0-3.314 2.686-6 6-6 2.031 0 3.826 1.009 4.911 2.553zM16 6c-6.627 0-12 5.373-12 12 0 2.896 1.026 5.552 2.734 7.626l-0.734 6.374h2l2-3.606c1.765 1.021 3.814 1.606 6 1.606 2.186 0 4.235-0.585 6-1.606l-0 0 2 3.606h2l-0.734-6.374c1.708-2.073 2.734-4.73 2.734-7.626 0-6.627-5.373-12-12-12zM16 26c-4.418 0-8-3.582-8-8s3.582-8 8-8 8 3.582 8 8-3.582 8-8 8z" />
</svg>
