<?xml version="1.0" encoding="utf-8"?>
<!-- Generated by IcoMoon.io -->
<!DOCTYPE svg PUBLIC "-//W3C//DTD SVG 1.1//EN" "http://www.w3.org/Graphics/SVG/1.1/DTD/svg11.dtd">
<svg version="1.1" xmlns="http://www.w3.org/2000/svg" xmlns:xlink="http://www.w3.org/1999/xlink" width="32" height="32" viewBox="0 0 32 32">
	<path d="M28 18v4.131c-2.516 2.57-6.032 5.052-10 5.703v-11.835h6v-2l-6-2.342c2.33-0.824 4-3.046 4-5.658 0-3.314-2.686-6-6-6-3.314 0-6 2.686-6 6 0 2.612 1.67 4.834 4 5.658v0l-6 2.342v2h6v11.834c-3.968-0.652-7.484-3.133-10-5.703v-4.131h-4v2c0 4 8 12 16 12s16-8 16-12v-2h-4zM18 6c0 1.105-0.895 2-2 2s-2-0.895-2-2 0.895-2 2-2c1.105 0 2 0.895 2 2z" />
</svg>
