<?xml version="1.0" encoding="utf-8"?>
<!-- Generated by IcoMoon.io -->
<!DOCTYPE svg PUBLIC "-//W3C//DTD SVG 1.1//EN" "http://www.w3.org/Graphics/SVG/1.1/DTD/svg11.dtd">
<svg version="1.1" xmlns="http://www.w3.org/2000/svg" xmlns:xlink="http://www.w3.org/1999/xlink" width="32" height="32" viewBox="0 0 32 32">
	<path d="M16 9.916c-2.642-2.701-14-4.439-14 8.386 0 7.924 10.032 16.697 13.998 12.7h0.004c3.965 3.997 13.998-4.776 13.998-12.7 0-12.825-11.358-11.087-14-8.386zM26.035 21.328c-0.753 2.9-3.244 5.596-6.172 7.501 3.060-3.643 4.945-9.809 3.122-14.591-0.543-1.424-1.166-2.63-1.846-3.645 3.595 1.205 6.558 4.332 4.896 10.735zM15.010 6.377c0.426-0.102 0.831-0.235 1.216-0.391-0.14 0.646-0.226 1.326-0.226 2.014h0.667c0.58-2.711 2.762-5.875 5.67-5.875 0-1.49-1.010-2.125-2.147-2.125-1.082 0.536-2.026 1.498-2.789 2.857-0.412 0.734-0.841 1.74-1.115 2.866-0.055-0.318-0.136-0.637-0.249-0.955-1.234-3.471-5.535-5.496-9.606-4.525-0.461 0.11-0.898 0.255-1.311 0.429 0.052 0.392 0.144 0.787 0.284 1.18 1.234 3.471 5.535 5.497 9.606 4.525z" />
</svg>
