<?xml version="1.0" encoding="utf-8"?>
<!-- Generated by IcoMoon.io -->
<!DOCTYPE svg PUBLIC "-//W3C//DTD SVG 1.1//EN" "http://www.w3.org/Graphics/SVG/1.1/DTD/svg11.dtd">
<svg version="1.1" xmlns="http://www.w3.org/2000/svg" xmlns:xlink="http://www.w3.org/1999/xlink" width="32" height="32" viewBox="0 0 32 32">
	<path d="M16 0l-16 16h10v16l12 0v-16h10l-16-16zM17.922 4.75l0.5 0.5h-4.843l0.5-0.5h3.843zM14.579 4.25l0.5-0.5h1.843l0.5 0.5h-2.843zM18.922 5.75l0.5 0.5h-6.843l0.5-0.5h5.843zM19.922 6.75l0.5 0.5h-8.843l0.5-0.5h7.843zM20.922 7.75l0.5 0.5h-10.843l0.5-0.5h9.843zM21.922 8.75l0.5 0.5h-12.843l0.5-0.5h11.843zM22.922 9.75l0.5 0.5h-14.843l0.5-0.5h13.843zM23.922 10.75l0.5 0.5h-16.843l0.5-0.5h15.843zM24.922 11.75l0.5 0.5h-18.843l0.5-0.5h17.843zM25.922 12.75l0.5 0.5h-20.843l0.5-0.5h19.843zM16.422 3.25h-0.843l0.422-0.422 0.422 0.422zM12 14.75h8v0.5h-8v-0.5zM12 15.75h8v0.5h-8v-0.5zM12 16.75h8v0.5h-8v-0.5zM12 17.75h8v0.5h-8v-0.5zM12 18.75h8v0.5h-8v-0.5zM12 19.75h8v0.5h-8v-0.5zM12 20.75h8v0.5h-8v-0.5zM12 21.75h8v0.5h-8v-0.5zM12 22.75h8v0.5h-8v-0.5zM12 23.75h8v0.5h-8v-0.5zM12 24.75h8v0.5h-8v-0.5zM12 25.75h8v0.5h-8v-0.5zM12 26.75h8v0.5h-8v-0.5zM12 27.75h8v0.5h-8v-0.5zM12 28.75h8v0.5h-8v-0.5zM12 30v-0.25h8v0.25l-8-0zM20 14v0.25h-8v-0.25h-7.172l0.25-0.25h21.843l0.25 0.25h-7.172z" />
</svg>
