<?xml version="1.0" encoding="utf-8"?>
<!-- Generated by IcoMoon.io -->
<!DOCTYPE svg PUBLIC "-//W3C//DTD SVG 1.1//EN" "http://www.w3.org/Graphics/SVG/1.1/DTD/svg11.dtd">
<svg version="1.1" xmlns="http://www.w3.org/2000/svg" xmlns:xlink="http://www.w3.org/1999/xlink" width="32" height="32" viewBox="0 0 32 32">
	<path d="M0 16l16 16v-10h16l0-12h-16v-10l-16 16zM4.75 14.078l0.5-0.5v4.843l-0.5-0.5v-3.843zM4.25 17.422l-0.5-0.5v-1.843l0.5-0.5v2.843zM5.75 13.078l0.5-0.5v6.843l-0.5-0.5v-5.843zM6.75 12.078l0.5-0.5v8.843l-0.5-0.5v-7.843zM7.75 11.078l0.5-0.5v10.843l-0.5-0.5v-9.843zM8.75 10.078l0.5-0.5v12.843l-0.5-0.5v-11.843zM9.75 9.078l0.5-0.5v14.843l-0.5-0.5v-13.843zM10.75 8.078l0.5-0.5v16.843l-0.5-0.5v-15.843zM11.75 7.078l0.5-0.5v18.843l-0.5-0.5v-17.843zM12.75 6.078l0.5-0.5v20.843l-0.5-0.5v-19.843zM3.25 15.578v0.843l-0.422-0.422 0.422-0.422zM14.75 20v-8h0.5v8h-0.5zM15.75 20v-8h0.5v8h-0.5zM16.75 20v-8h0.5v8h-0.5zM17.75 20v-8h0.5v8h-0.5zM18.75 20v-8h0.5v8h-0.5zM19.75 20v-8h0.5v8h-0.5zM20.75 20v-8h0.5v8h-0.5zM21.75 20v-8h0.5v8h-0.5zM22.75 20v-8h0.5v8h-0.5zM23.75 20v-8h0.5v8h-0.5zM24.75 20v-8h0.5v8h-0.5zM25.75 20v-8h0.5v8h-0.5zM26.75 20v-8h0.5v8h-0.5zM27.75 20v-8h0.5v8h-0.5zM28.75 20v-8h0.5v8h-0.5zM30 20h-0.25v-8h0.25l-0 8zM14 12h0.25v8h-0.25v7.172l-0.25-0.25v-21.843l0.25-0.25v7.172z" />
</svg>
