<?xml version="1.0" encoding="utf-8"?>
<!-- Generated by IcoMoon.io -->
<!DOCTYPE svg PUBLIC "-//W3C//DTD SVG 1.1//EN" "http://www.w3.org/Graphics/SVG/1.1/DTD/svg11.dtd">
<svg version="1.1" xmlns="http://www.w3.org/2000/svg" xmlns:xlink="http://www.w3.org/1999/xlink" width="32" height="32" viewBox="0 0 32 32">
	<path d="M16 0c8.837 0 16 7.163 16 16s-7.163 16-16 16-16-7.163-16-16 7.163-16 16-16zM16 29c7.18 0 13-5.82 13-13s-5.82-13-13-13-13 5.82-13 13 5.82 13 13 13zM20 8c1.105 0 2 0.895 2 2s-0.895 2-2 2h-5.171l8.586 8.586c0.781 0.781 0.781 2.047 0 2.829-0.39 0.39-0.902 0.586-1.414 0.586s-1.024-0.195-1.414-0.586l-8.586-8.586v5.172c0 1.105-0.895 2-2 2s-2-0.895-2-2v-12h12z" />
</svg>
