<?xml version="1.0" encoding="utf-8"?>
<!-- Generated by IcoMoon.io -->
<!DOCTYPE svg PUBLIC "-//W3C//DTD SVG 1.1//EN" "http://www.w3.org/Graphics/SVG/1.1/DTD/svg11.dtd">
<svg version="1.1" xmlns="http://www.w3.org/2000/svg" xmlns:xlink="http://www.w3.org/1999/xlink" width="32" height="32" viewBox="0 0 32 32">
	<path d="M16 32l16-16h-10v-16l-12-0v16h-10l16 16zM14.078 27.25l-0.5-0.5h4.843l-0.5 0.5h-3.843zM17.422 27.75l-0.5 0.5h-1.843l-0.5-0.5h2.843zM13.078 26.25l-0.5-0.5h6.843l-0.5 0.5h-5.843zM12.078 25.25l-0.5-0.5h8.843l-0.5 0.5h-7.843zM11.078 24.25l-0.5-0.5h10.843l-0.5 0.5h-9.843zM10.078 23.25l-0.5-0.5h12.843l-0.5 0.5h-11.843zM9.078 22.25l-0.5-0.5h14.843l-0.5 0.5h-13.843zM8.078 21.25l-0.5-0.5h16.843l-0.5 0.5h-15.843zM7.078 20.25l-0.5-0.5h18.843l-0.5 0.5h-17.843zM6.078 19.25l-0.5-0.5h20.843l-0.5 0.5h-19.843zM15.578 28.75h0.843l-0.422 0.422-0.422-0.422zM20 17.25h-8v-0.5h8v0.5zM20 16.25h-8v-0.5h8v0.5zM20 15.25h-8v-0.5h8v0.5zM20 14.25h-8v-0.5h8v0.5zM20 13.25h-8v-0.5h8v0.5zM20 12.25h-8v-0.5h8v0.5zM20 11.25h-8v-0.5h8v0.5zM20 10.25h-8v-0.5h8v0.5zM20 9.25h-8v-0.5h8v0.5zM20 8.25h-8v-0.5h8v0.5zM20 7.25h-8v-0.5h8v0.5zM20 6.25h-8v-0.5h8v0.5zM20 5.25h-8v-0.5h8v0.5zM20 4.25h-8v-0.5h8v0.5zM20 3.25h-8v-0.5h8v0.5zM20 2v0.25h-8v-0.25l8 0zM12 18v-0.25h8v0.25h7.172l-0.25 0.25h-21.843l-0.25-0.25h7.172z" />
</svg>
