<?xml version="1.0" encoding="utf-8"?>
<!-- Generated by IcoMoon.io -->
<!DOCTYPE svg PUBLIC "-//W3C//DTD SVG 1.1//EN" "http://www.w3.org/Graphics/SVG/1.1/DTD/svg11.dtd">
<svg version="1.1" xmlns="http://www.w3.org/2000/svg" xmlns:xlink="http://www.w3.org/1999/xlink" width="32" height="32" viewBox="0 0 32 32">
	<path d="M32 16l-16-16v10h-16l-0 12h16v10l16-16zM27.25 17.922l-0.5 0.5v-4.843l0.5 0.5v3.843zM27.75 14.579l0.5 0.5v1.843l-0.5 0.5v-2.843zM26.25 18.922l-0.5 0.5v-6.843l0.5 0.5v5.843zM25.25 19.922l-0.5 0.5v-8.843l0.5 0.5v7.843zM24.25 20.922l-0.5 0.5v-10.843l0.5 0.5v9.843zM23.25 21.922l-0.5 0.5v-12.843l0.5 0.5v11.843zM22.25 22.922l-0.5 0.5v-14.843l0.5 0.5v13.843zM21.25 23.922l-0.5 0.5v-16.843l0.5 0.5v15.843zM20.25 24.922l-0.5 0.5v-18.843l0.5 0.5v17.843zM19.25 25.922l-0.5 0.5v-20.843l0.5 0.5v19.843zM28.75 16.422v-0.843l0.422 0.422-0.422 0.422zM17.25 12v8h-0.5v-8h0.5zM16.25 12v8h-0.5v-8h0.5zM15.25 12v8h-0.5v-8h0.5zM14.25 12v8h-0.5v-8h0.5zM13.25 12v8h-0.5v-8h0.5zM12.25 12v8h-0.5v-8h0.5zM11.25 12v8h-0.5v-8h0.5zM10.25 12v8h-0.5v-8h0.5zM9.25 12v8h-0.5v-8h0.5zM8.25 12v8h-0.5v-8h0.5zM7.25 12v8h-0.5v-8h0.5zM6.25 12v8h-0.5v-8h0.5zM5.25 12v8h-0.5v-8h0.5zM4.25 12v8h-0.5v-8h0.5zM3.25 12v8h-0.5v-8h0.5zM2 12h0.25v8h-0.25l0-8zM18 20h-0.25v-8h0.25v-7.172l0.25 0.25v21.843l-0.25 0.25v-7.172z" />
</svg>
