<?xml version="1.0" encoding="utf-8"?>
<!-- Generated by IcoMoon.io -->
<!DOCTYPE svg PUBLIC "-//W3C//DTD SVG 1.1//EN" "http://www.w3.org/Graphics/SVG/1.1/DTD/svg11.dtd">
<svg version="1.1" xmlns="http://www.w3.org/2000/svg" xmlns:xlink="http://www.w3.org/1999/xlink" width="32" height="32" viewBox="0 0 32 32">
	<path d="M22.586 11.414l2.586 2.586h-18.343l2.586-2.586c0.39-0.391 0.586-0.902 0.586-1.414s-0.195-1.024-0.586-1.414c-0.781-0.781-2.047-0.781-2.828 0l-6 6c-0.781 0.781-0.781 2.047 0 2.828l6 6c0.781 0.781 2.047 0.781 2.828 0 0.781-0.781 0.781-2.047 0-2.828l-2.586-2.586h18.343l-2.586 2.586c-0.781 0.781-0.781 2.047 0 2.828 0.781 0.781 2.047 0.781 2.829 0l6-6c0.39-0.39 0.586-0.902 0.586-1.414s-0.195-1.024-0.586-1.414l-6-6c-0.781-0.781-2.047-0.781-2.829 0-0.781 0.781-0.781 2.047 0 2.829z" />
</svg>
