<?xml version="1.0" encoding="utf-8"?>
<!-- Generated by IcoMoon.io -->
<!DOCTYPE svg PUBLIC "-//W3C//DTD SVG 1.1//EN" "http://www.w3.org/Graphics/SVG/1.1/DTD/svg11.dtd">
<svg version="1.1" xmlns="http://www.w3.org/2000/svg" xmlns:xlink="http://www.w3.org/1999/xlink" width="32" height="32" viewBox="0 0 32 32">
	<path d="M25.998 6.46v0 0zM26.064 16c3.262-3.119 4.846-6.174 3.792-8-0.602-1.042-1.98-1.54-3.859-1.54v1.5c1.317 0 2.274 0.296 2.56 0.79 0.226 0.391 0.1 0.992-0.045 1.427-0.278 0.835-0.884 1.833-1.751 2.888-0.526 0.64-1.133 1.285-1.809 1.926-0.93-0.803-1.965-1.602-3.087-2.377-0.11-1.359-0.284-2.654-0.514-3.86 1.756-0.521 3.35-0.794 4.646-0.794l0.001-1.5c-0 0-0.001 0-0.001 0-1.412 0-3.106 0.282-4.965 0.825-1.070-4.385-2.924-7.285-5.032-7.285-2.108 0-3.962 2.9-5.032 7.284-1.859-0.543-3.553-0.825-4.965-0.825-1.879 0-3.258 0.498-3.86 1.541-1.054 1.826 0.53 4.881 3.792 8-3.262 3.119-4.846 6.174-3.792 8 0.602 1.043 1.98 1.54 3.86 1.54 1.412 0 3.106-0.282 4.965-0.825 1.070 4.385 2.924 7.285 5.032 7.285 2.108 0 3.962-2.9 5.032-7.284 1.859 0.543 3.553 0.825 4.965 0.825 1.879 0 3.258-0.498 3.86-1.541 1.054-1.826-0.53-4.881-3.792-8zM23.829 16c-0.582 0.496-1.202 0.987-1.855 1.468 0.017-0.484 0.026-0.973 0.026-1.468 0-0.495-0.009-0.985-0.025-1.468 0.653 0.481 1.273 0.972 1.855 1.468zM19.915 22.777c-0.72-0.256-1.455-0.547-2.196-0.871 0.426-0.227 0.853-0.463 1.28-0.71 0.429-0.248 0.848-0.5 1.259-0.756-0.090 0.805-0.205 1.586-0.343 2.337zM18.25 19.897c-0.743 0.429-1.496 0.832-2.25 1.207-0.754-0.374-1.507-0.778-2.25-1.207-0.749-0.433-1.475-0.882-2.172-1.344-0.052-0.835-0.078-1.688-0.078-2.553s0.027-1.718 0.078-2.553c0.697-0.462 1.423-0.912 2.172-1.344 0.743-0.429 1.496-0.832 2.25-1.207 0.754 0.374 1.507 0.778 2.25 1.207 0.749 0.433 1.475 0.882 2.172 1.344 0.052 0.835 0.078 1.688 0.078 2.553s-0.027 1.718-0.078 2.553c-0.697 0.462-1.423 0.912-2.172 1.344zM11.741 20.44c0.411 0.256 0.83 0.509 1.259 0.756 0.428 0.247 0.855 0.483 1.28 0.71-0.741 0.323-1.475 0.615-2.196 0.871-0.138-0.751-0.254-1.532-0.344-2.337zM10.025 17.468c-0.653-0.481-1.273-0.972-1.855-1.468 0.582-0.496 1.202-0.987 1.855-1.468-0.017 0.484-0.025 0.973-0.025 1.468s0.009 0.985 0.025 1.468zM12.085 9.223c0.72 0.256 1.455 0.547 2.196 0.871-0.426 0.227-0.853 0.463-1.28 0.71-0.429 0.248-0.848 0.5-1.259 0.756 0.090-0.805 0.205-1.586 0.344-2.337zM19 10.804c-0.427-0.247-0.855-0.483-1.28-0.71 0.741-0.323 1.475-0.615 2.196-0.871 0.138 0.751 0.253 1.532 0.343 2.337-0.411-0.256-0.83-0.509-1.259-0.756zM13.162 5.213c0.479-1.278 1.041-2.302 1.625-2.961 0.304-0.343 0.762-0.752 1.213-0.752 0.451 0 0.909 0.409 1.213 0.752 0.584 0.658 1.146 1.682 1.625 2.961 0.291 0.776 0.546 1.624 0.764 2.53-1.16 0.404-2.37 0.901-3.602 1.485-1.232-0.585-2.442-1.082-3.602-1.486 0.218-0.905 0.473-1.754 0.764-2.53zM5.239 13.064c-0.867-1.054-1.473-2.053-1.751-2.888-0.145-0.435-0.271-1.036-0.045-1.427 0.286-0.495 1.243-0.79 2.561-0.79h0c1.297 0 2.89 0.274 4.646 0.794-0.23 1.206-0.404 2.501-0.514 3.86-1.123 0.775-2.157 1.574-3.088 2.377-0.675-0.641-1.282-1.286-1.809-1.926zM6.003 24.040c-1.318 0-2.275-0.296-2.561-0.79-0.226-0.391-0.1-0.992 0.045-1.427 0.278-0.835 0.884-1.833 1.751-2.887 0.527-0.64 1.133-1.285 1.809-1.926 0.93 0.803 1.965 1.602 3.087 2.377 0.11 1.359 0.284 2.654 0.514 3.86-1.756 0.521-3.349 0.794-4.646 0.794zM18.838 26.787c-0.479 1.278-1.041 2.302-1.625 2.961-0.304 0.343-0.762 0.752-1.213 0.752-0.451 0-0.909-0.409-1.213-0.752-0.584-0.658-1.146-1.682-1.625-2.96-0.291-0.776-0.546-1.624-0.764-2.53 1.161-0.404 2.37-0.901 3.602-1.485 1.232 0.585 2.442 1.082 3.602 1.486-0.218 0.905-0.473 1.754-0.764 2.53zM28.512 21.823c0.145 0.435 0.271 1.036 0.045 1.427-0.286 0.495-1.243 0.791-2.561 0.791-1.297 0-2.89-0.274-4.646-0.794 0.23-1.206 0.404-2.501 0.514-3.86 1.122-0.775 2.157-1.574 3.087-2.377 0.675 0.641 1.282 1.286 1.809 1.926 0.867 1.055 1.473 2.053 1.751 2.888zM13.5 16c0-1.381 1.119-2.5 2.5-2.5s2.5 1.119 2.5 2.5c0 1.381-1.119 2.5-2.5 2.5-1.381 0-2.5-1.119-2.5-2.5z" />
</svg>
