<?xml version="1.0" encoding="utf-8"?>
<!-- Generated by IcoMoon.io -->
<!DOCTYPE svg PUBLIC "-//W3C//DTD SVG 1.1//EN" "http://www.w3.org/Graphics/SVG/1.1/DTD/svg11.dtd">
<svg version="1.1" xmlns="http://www.w3.org/2000/svg" xmlns:xlink="http://www.w3.org/1999/xlink" width="32" height="32" viewBox="0 0 32 32">
	<path d="M26 8h-18c-4.418 0-8 3.582-8 8s3.582 8 8 8h18v-2h-18c-3.314 0-6-2.686-6-6s2.686-6 6-6h18c2.209 0 4 1.791 4 4 0 2.209-1.791 4-4 4h-14c-1.105 0-2-0.895-2-2s0.895-2 2-2h14v-2h-14c-2.209 0-4 1.791-4 4 0 2.209 1.791 4 4 4h14c3.314 0 6-2.686 6-6s-2.686-6-6-6z" />
</svg>
