<?xml version="1.0" encoding="utf-8"?>
<!-- Generated by IcoMoon.io -->
<!DOCTYPE svg PUBLIC "-//W3C//DTD SVG 1.1//EN" "http://www.w3.org/Graphics/SVG/1.1/DTD/svg11.dtd">
<svg version="1.1" xmlns="http://www.w3.org/2000/svg" xmlns:xlink="http://www.w3.org/1999/xlink" width="32" height="32" viewBox="0 0 32 32">
	<path d="M22 6v-1c0-2.761-2.239-5-5-5-1.126 0-2.164 0.372-3 1-0.836-0.628-1.874-1-3-1-2.761 0-5 2.239-5 5v3.4l-4 0.6v21h4l2 2 20-3v-21l-6-2zM6 28h-2v-17.278l2-0.3v17.578zM17 2c1.654 0 3 1.346 3 3v1.3l-4 0.6v-1.9c0-0.908-0.243-1.759-0.667-2.493 0.477-0.32 1.050-0.507 1.667-0.507zM8 5c0-1.654 1.346-3 3-3 0.616 0 1.19 0.187 1.667 0.507-0.423 0.734-0.667 1.585-0.667 2.493v2.5l-4 0.6v-3.1zM26 27.278l-16 2.4v-16.955l16-2.4v16.955z" />
</svg>
