<?xml version="1.0" encoding="utf-8"?>
<!-- Generated by IcoMoon.io -->
<!DOCTYPE svg PUBLIC "-//W3C//DTD SVG 1.1//EN" "http://www.w3.org/Graphics/SVG/1.1/DTD/svg11.dtd">
<svg version="1.1" xmlns="http://www.w3.org/2000/svg" xmlns:xlink="http://www.w3.org/1999/xlink" width="32" height="32" viewBox="0 0 32 32">
	<path d="M22 6v-1c0-2.761-2.239-5-5-5-1.126 0-2.164 0.372-3 1-0.836-0.628-1.874-1-3-1-2.761 0-5 2.239-5 5v3.4l-4 0.6v21h4l2 2 20-3v-21l-6-2zM4 26.25v-0.5h2v0.5h-2zM6 26.75v0.5h-2v-0.5h2zM4 25.25v-0.5h2v0.5h-2zM4 24.25v-0.5h2v0.5h-2zM4 23.25v-0.5h2v0.5h-2zM4 22.25v-0.5h2v0.5h-2zM4 21.25v-0.5h2v0.5h-2zM4 20.25v-0.5h2v0.5h-2zM4 19.25v-0.5h2v0.5h-2zM4 18.25v-0.5h2v0.5h-2zM4 17.25v-0.5h2v0.5h-2zM4 16.25v-0.5h2v0.5h-2zM4 15.25v-0.5h2v0.5h-2zM4 14.25v-0.5h2v0.5h-2zM4 13.25v-0.5h2v0.5h-2zM4 12.25v-0.5h2v0.5h-2zM4 11.25v-0.5h2v0.5h-2zM4 28v-0.25h2v0.25h-2zM23.75 10.66l0.5-0.075v16.955l-0.5 0.075v-16.955zM23.25 27.69l-0.5 0.075v-16.955l0.5-0.075v16.955zM24.75 10.51l0.5-0.075v16.955l-0.5 0.075v-16.955zM22.25 10.885v16.955l-0.5 0.075v-16.955l0.5-0.075zM15.75 11.86l0.5-0.075v16.955l-0.5 0.075v-16.955zM15.25 28.89l-0.5 0.075v-16.955l0.5-0.075v16.955zM16.75 11.71l0.5-0.075v16.955l-0.5 0.075v-16.955zM17.75 11.56l0.5-0.075v16.955l-0.5 0.075v-16.955zM18.75 11.41l0.5-0.075v16.955l-0.5 0.075v-16.955zM19.75 11.26l0.5-0.075v16.955l-0.5 0.075v-16.955zM20.75 11.11l0.5-0.075v16.955l-0.5 0.075v-16.955zM17 2c1.654 0 3 1.346 3 3v1.3l-4 0.6v-1.9c0-0.908-0.243-1.759-0.667-2.493 0.477-0.32 1.050-0.507 1.667-0.507zM14.25 12.085v16.955l-0.5 0.075v-16.955l0.5-0.075zM11.25 12.535v16.955l-0.5 0.075v-16.955l0.5-0.075zM11.75 12.46l0.5-0.075v16.955l-0.5 0.075v-16.955zM12.75 12.31l0.5-0.075v16.955l-0.5 0.075v-16.955zM8 5c0-1.654 1.346-3 3-3 0.616 0 1.19 0.187 1.667 0.507-0.423 0.734-0.667 1.585-0.667 2.493v2.5l-4 0.6v-3.1zM10 12.722l0.25-0.037v16.955l-0.25 0.038v-16.955zM26 27.278l-0.25 0.038v-16.955l0.25-0.037v16.955z" />
</svg>
