<?xml version="1.0" encoding="utf-8"?>
<!-- Generated by IcoMoon.io -->
<!DOCTYPE svg PUBLIC "-//W3C//DTD SVG 1.1//EN" "http://www.w3.org/Graphics/SVG/1.1/DTD/svg11.dtd">
<svg version="1.1" xmlns="http://www.w3.org/2000/svg" xmlns:xlink="http://www.w3.org/1999/xlink" width="32" height="32" viewBox="0 0 32 32">
	<path d="M1.769 14l3.231-5.17 3.231 5.17h1.769l-5-8-5 8zM8 20l2-2v-2h-10v2l2 2zM21.769 14l3.231-5.17 3.231 5.17h1.769l-5-8-5 8zM20 18l2 2h6l2-2v-2h-10zM16 26v-18.171c0.852-0.301 1.527-0.976 1.829-1.829h8.171v-2h-8.171c-0.412-1.165-1.522-2-2.829-2-1.306 0-2.417 0.835-2.829 2h-8.171v2h8.171c0.301 0.852 0.976 1.527 1.829 1.829v18.171h-10l-2 4h26l-2-4h-10zM13.55 5c0-0.801 0.649-1.45 1.45-1.45s1.45 0.649 1.45 1.45c0 0.801-0.649 1.45-1.45 1.45-0.801 0-1.45-0.649-1.45-1.45z" />
</svg>
