<?xml version="1.0" encoding="utf-8"?>
<!-- Generated by IcoMoon.io -->
<!DOCTYPE svg PUBLIC "-//W3C//DTD SVG 1.1//EN" "http://www.w3.org/Graphics/SVG/1.1/DTD/svg11.dtd">
<svg version="1.1" xmlns="http://www.w3.org/2000/svg" xmlns:xlink="http://www.w3.org/1999/xlink" width="32" height="32" viewBox="0 0 32 32">
	<path d="M28 14c0-7.732-5.373-14-12-14-6.627 0-12 6.268-12 14 0 6.956 4.348 12.726 10.046 13.814l-1.046 4.186h6l-1.046-4.186c5.698-1.089 10.046-6.858 10.046-13.814zM8.835 16h-3c-0.096-0.65-0.147-1.318-0.147-2 0-1.405 0.213-2.752 0.603-4h3.001c-0.39 1.248-0.604 2.595-0.604 4 0 0.682 0.051 1.35 0.147 2z" />
</svg>
