<?xml version="1.0" encoding="utf-8"?>
<!-- Generated by IcoMoon.io -->
<!DOCTYPE svg PUBLIC "-//W3C//DTD SVG 1.1//EN" "http://www.w3.org/Graphics/SVG/1.1/DTD/svg11.dtd">
<svg version="1.1" xmlns="http://www.w3.org/2000/svg" xmlns:xlink="http://www.w3.org/1999/xlink" width="32" height="32" viewBox="0 0 32 32">
	<path d="M20 8h-8v24h8v-24zM14 10.25v-0.25h4v0.25h-4zM14 11.25v-0.5h4v0.5h-4zM14 12.25v-0.5h4v0.5h-4zM14 13.25v-0.5h4v0.5h-4zM14 14.25v-0.5h4v0.5h-4zM14 15.25v-0.5h4v0.5h-4zM14 16.25v-0.5h4v0.5h-4zM14 17.25v-0.5h4v0.5h-4zM14 18.25v-0.5h4v0.5h-4zM14 19.25v-0.5h4v0.5h-4zM14 20.25v-0.5h4v0.5h-4zM14 21.25v-0.5h4v0.5h-4zM14 22.25v-0.5h4v0.5h-4zM14 23.25v-0.5h4v0.5h-4zM14 24.25v-0.5h4v0.5h-4zM14 25.25v-0.5h4v0.5h-4zM14 26.25v-0.5h4v0.5h-4zM14 27.25v-0.5h4v0.5h-4zM14 28.25v-0.5h4v0.5h-4zM14 29.25v-0.5h4v0.5h-4zM14 30v-0.25h4v0.25h-4zM0 18h8v14h-8zM24 0h8v32h-8z" />
</svg>
