<?xml version="1.0" encoding="utf-8"?>
<!-- Generated by IcoMoon.io -->
<!DOCTYPE svg PUBLIC "-//W3C//DTD SVG 1.1//EN" "http://www.w3.org/Graphics/SVG/1.1/DTD/svg11.dtd">
<svg version="1.1" xmlns="http://www.w3.org/2000/svg" xmlns:xlink="http://www.w3.org/1999/xlink" width="32" height="32" viewBox="0 0 32 32">
	<path d="M19 8h-6c-0.55 0-1 0.45-1 1v22c0 0.55 0.45 1 1 1h6c0.55 0 1-0.45 1-1v-22c0-0.55-0.45-1-1-1zM19 30h-6v-10.25h6v10.25zM19 19.25h-6v-0.5h6v0.5zM19 18.25h-6v-0.5h6v0.5zM19 17.25h-6v-0.5h6v0.5zM19 16.25h-6v-0.5h6v0.5zM19 15.25h-6v-0.5h6v0.5zM19 14.25h-6v-0.5h6v0.5zM19 13.25h-6v-0.5h6v0.5zM19 12.25h-6v-0.5h6v0.5zM19 11.25h-6v-0.5h6v0.5zM19 10.25h-6v-0.25h6v0.25zM9 12h-6c-0.55 0-1 0.45-1 1v18c0 0.55 0.45 1 1 1h6c0.55 0 1-0.45 1-1v-18c0-0.55-0.45-1-1-1zM9 30h-6v-8.25h6v8.25zM9 21.25h-6v-0.5h6v0.5zM9 20.25h-6v-0.5h6v0.5zM9 19.25h-6v-0.5h6v0.5zM9 18.25h-6v-0.5h6v0.5zM9 17.25h-6v-0.5h6v0.5zM9 16.25h-6v-0.5h6v0.5zM9 15.25h-6v-0.5h6v0.5zM9 14.25h-6v-0.25h6v0.25zM29 4h-6c-0.55 0-1 0.45-1 1v26c0 0.55 0.45 1 1 1h6c0.55 0 1-0.45 1-1v-26c0-0.55-0.45-1-1-1zM29 30h-6v-12.25h6v12.25zM29 17.25h-6v-0.5h6v0.5zM29 16.25h-6v-0.5h6v0.5zM29 15.25h-6v-0.5h6v0.5zM29 14.25h-6v-0.5h6v0.5zM29 13.25h-6v-0.5h6v0.5zM29 12.25h-6v-0.5h6v0.5zM29 11.25h-6v-0.5h6v0.5zM29 10.25h-6v-0.5h6v0.5zM29 9.25h-6v-0.5h6v0.5zM29 8.25h-6v-0.5h6v0.5zM29 7.25h-6v-0.5h6v0.5zM29 6.25h-6v-0.25h6v0.25z" />
</svg>
