<?xml version="1.0" encoding="utf-8"?>
<!-- Generated by IcoMoon.io -->
<!DOCTYPE svg PUBLIC "-//W3C//DTD SVG 1.1//EN" "http://www.w3.org/Graphics/SVG/1.1/DTD/svg11.dtd">
<svg version="1.1" xmlns="http://www.w3.org/2000/svg" xmlns:xlink="http://www.w3.org/1999/xlink" width="32" height="32" viewBox="0 0 32 32">
	<path d="M9 12h-6c-0.55 0-1 0.45-1 1v18c0 0.55 0.45 1 1 1h6c0.55 0 1-0.45 1-1v-18c0-0.55-0.45-1-1-1zM9 22v0.25h-6v-0.25h6zM3 28.25v-0.5h6v0.5h-6zM9 28.75v0.5h-6v-0.5h6zM3 27.25v-0.5h6v0.5h-6zM3 26.25v-0.5h6v0.5h-6zM3 25.25v-0.5h6v0.5h-6zM3 24.25v-0.5h6v0.5h-6zM3 23.25v-0.5h6v0.5h-6zM3 30v-0.25h6v0.25h-6zM19 8h-6c-0.55 0-1 0.45-1 1v22c0 0.55 0.45 1 1 1h6c0.55 0 1-0.45 1-1v-22c0-0.55-0.45-1-1-1zM19 20v0.25h-6v-0.25h6zM13 28.25v-0.5h6v0.5h-6zM19 28.75v0.5h-6v-0.5h6zM13 27.25v-0.5h6v0.5h-6zM13 26.25v-0.5h6v0.5h-6zM13 25.25v-0.5h6v0.5h-6zM13 24.25v-0.5h6v0.5h-6zM13 23.25v-0.5h6v0.5h-6zM13 22.25v-0.5h6v0.5h-6zM13 21.25v-0.5h6v0.5h-6zM13 30v-0.25h6v0.25h-6zM29 4h-6c-0.55 0-1 0.45-1 1v26c0 0.55 0.45 1 1 1h6c0.55 0 1-0.45 1-1v-26c0-0.55-0.45-1-1-1zM29 18v0.25h-6v-0.25h6zM23 28.25v-0.5h6v0.5h-6zM29 28.75v0.5h-6v-0.5h6zM23 27.25v-0.5h6v0.5h-6zM23 26.25v-0.5h6v0.5h-6zM23 25.25v-0.5h6v0.5h-6zM23 24.25v-0.5h6v0.5h-6zM23 23.25v-0.5h6v0.5h-6zM23 22.25v-0.5h6v0.5h-6zM23 21.25v-0.5h6v0.5h-6zM23 20.25v-0.5h6v0.5h-6zM23 19.25v-0.5h6v0.5h-6zM23 30v-0.25h6v0.25h-6z" />
</svg>
