<?xml version="1.0" encoding="utf-8"?>
<!-- Generated by IcoMoon.io -->
<!DOCTYPE svg PUBLIC "-//W3C//DTD SVG 1.1//EN" "http://www.w3.org/Graphics/SVG/1.1/DTD/svg11.dtd">
<svg version="1.1" xmlns="http://www.w3.org/2000/svg" xmlns:xlink="http://www.w3.org/1999/xlink" width="32" height="32" viewBox="0 0 32 32">
	<path d="M24.024 27.474c0-0-0-0-0-0-0.003-0.003-0.005-0.005-0.007-0.008-0-0-0-0-0.001-0.001-0.008-0.008-0.015-0.016-0.022-0.024-0-0-0-0-0.001-0.001-0.003-0.003-0.004-0.005-0.007-0.008-0-0-0-0-0-0.001-0.005-0.006-0.010-0.010-0.015-0.016-0-0-0.001-0.001-0.001-0.001-0.002-0.002-0.004-0.005-0.006-0.007-0-0.001-0.001-0.001-0.001-0.002-0.002-0.002-0.005-0.005-0.006-0.007-0-0-0-0.001-0.001-0.001-0.003-0.003-0.005-0.005-0.007-0.008-0-0-0.001-0.001-0.001-0.001-0.002-0.002-0.004-0.005-0.006-0.007-0.001-0.001-0.001-0.001-0.002-0.002-0.002-0.002-0.004-0.004-0.006-0.006-0.001-0-0.001-0.001-0.002-0.002-0.002-0.002-0.005-0.005-0.007-0.008h-0c-0.002-0.002-0.005-0.005-0.007-0.008-0.001-0.001-0.001-0.001-0.002-0.002-0.002-0.002-0.003-0.004-0.005-0.006-0.001-0.001-0.001-0.002-0.002-0.003-0.002-0.002-0.003-0.004-0.005-0.006-0.001-0.001-0.001-0.001-0.002-0.002-0.003-0.003-0.004-0.005-0.007-0.007-0.001-0.001-0.001-0.001-0.002-0.002-0.002-0.002-0.003-0.004-0.005-0.005-0.001-0.001-0.002-0.002-0.003-0.003-0.001-0.001-0.003-0.003-0.004-0.005-0.001-0.001-0.002-0.002-0.003-0.003-0.002-0.002-0.003-0.003-0.005-0.005-0.001-0.001-0.001-0.001-0.002-0.002-0.002-0.002-0.004-0.005-0.006-0.007-0.001-0.001-0.002-0.002-0.003-0.004-0.001-0.001-0.003-0.003-0.003-0.004-0.001-0.001-0.002-0.003-0.003-0.004-0.001-0.001-0.002-0.003-0.003-0.004-0.001-0.001-0.002-0.003-0.004-0.004-0.001-0.001-0.002-0.003-0.003-0.004-0.002-0.002-0.004-0.005-0.006-0.007-0.001-0.001-0.002-0.002-0.003-0.003-0.001-0.002-0.003-0.003-0.004-0.005-0.001-0.001-0.002-0.002-0.002-0.003-0.001-0.002-0.003-0.003-0.004-0.005-0.001-0.001-0.002-0.002-0.002-0.002-0.005-0.006-0.010-0.011-0.015-0.017-0.001-0.001-0.001-0.001-0.002-0.002-0.002-0.002-0.003-0.003-0.005-0.005-0.001-0.001-0.001-0.001-0.002-0.002-0.002-0.002-0.003-0.003-0.005-0.005-0.004-0.004-0.008-0.009-0.012-0.013l-0-0c-0.002-0.002-0.003-0.004-0.005-0.006-0-0-0.001-0.001-0.001-0.001-0.002-0.002-0.004-0.004-0.005-0.006l-0-0c-0.006-0.006-0.011-0.013-0.017-0.019-0-0-0-0-0.001-0.001-0.002-0.002-0.003-0.004-0.005-0.006-0-0-0.001-0.001-0.001-0.001-0.008-0.009-0.015-0.017-0.023-0.026l-0-0c-0.068-0.077-0.134-0.155-0.201-0.233l0.416-0.351c-0.388-0.468-0.747-0.96-1.077-1.473l-0.505 0.34c-0.106-0.157-0.209-0.317-0.309-0.478l-0-0c-0.001-0.002-0.003-0.005-0.004-0.007-0-0-0-0.001-0.001-0.001-0.006-0.009-0.012-0.019-0.017-0.028-0-0.001-0.001-0.001-0.001-0.002-0.001-0.002-0.002-0.004-0.004-0.006-0-0.001-0.001-0.002-0.002-0.003-0.003-0.004-0.005-0.008-0.008-0.012-0-0-0-0-0-0.001-0.001-0.002-0.002-0.004-0.003-0.005-0.001-0.001-0.001-0.002-0.002-0.003-0.001-0.002-0.002-0.003-0.003-0.005-0.001-0.001-0.002-0.003-0.002-0.004-0.001-0.002-0.002-0.003-0.003-0.005-0.001-0.002-0.002-0.003-0.003-0.005-0.001-0.002-0.003-0.005-0.004-0.007-0.001-0.002-0.002-0.003-0.003-0.005-0.001-0.001-0.002-0.003-0.003-0.004-0.001-0.002-0.002-0.003-0.003-0.005-0.001-0.001-0.002-0.003-0.002-0.004-0.001-0.002-0.002-0.004-0.004-0.006-0.001-0.001-0.001-0.002-0.002-0.003-0.002-0.003-0.003-0.006-0.005-0.008-0.001-0.001-0.001-0.002-0.002-0.003-0.001-0.002-0.002-0.004-0.004-0.006-0.001-0.001-0.001-0.002-0.002-0.003-0.001-0.002-0.003-0.004-0.004-0.007-0-0.001-0.001-0.002-0.001-0.002-0.002-0.003-0.004-0.006-0.005-0.009 0-0-0-0-0-0-0.002-0.003-0.004-0.006-0.005-0.009-0-0.001-0.001-0.001-0.001-0.002-0.001-0.002-0.003-0.005-0.005-0.008-0-0.001-0.001-0.001-0.001-0.002-0.002-0.003-0.004-0.006-0.005-0.009-0.002-0.003-0.004-0.006-0.006-0.009-0-0-0-0-0-0.001-0.002-0.003-0.003-0.006-0.005-0.009-0-0-0-0.001-0.001-0.001-0.006-0.009-0.011-0.019-0.017-0.028-0-0-0-0-0-0-0.002-0.003-0.004-0.006-0.006-0.009-0-0-0-0-0-0-0.006-0.010-0.011-0.019-0.017-0.029-0-0-0-0-0-0-0.23-0.39-0.442-0.79-0.637-1.201l0.588-0.278c-0.221-0.487-0.416-0.988-0.585-1.501l-0.617 0.213c-0.134-0.386-0.252-0.779-0.354-1.178 0-0 0-0-0-0-0.003-0.011-0.006-0.022-0.009-0.034 0-0 0-0-0-0-0.003-0.011-0.006-0.022-0.008-0.033-0-0-0-0.001-0-0.001-0.003-0.011-0.006-0.022-0.008-0.033 0-0-0-0-0-0-0.003-0.011-0.005-0.022-0.008-0.033 0-0-0-0-0-0.001-0.001-0.004-0.002-0.007-0.003-0.011 0-0 0-0-0-0-0.002-0.008-0.004-0.015-0.005-0.022 0-0-0-0-0-0-0.001-0.004-0.002-0.007-0.003-0.011-0-0-0-0-0-0-0.002-0.008-0.004-0.015-0.005-0.022 0-0-0-0-0-0-0.001-0.004-0.002-0.007-0.003-0.011-0-0-0-0-0-0.001-0.003-0.011-0.005-0.022-0.008-0.033-0-0-0-0.001-0-0.001-0.003-0.011-0.005-0.022-0.008-0.033 0-0-0-0-0-0.001-0.003-0.011-0.005-0.022-0.008-0.033-0-0-0-0-0-0-0.003-0.011-0.005-0.022-0.008-0.034-0-0-0-0-0-0-0.003-0.011-0.005-0.022-0.008-0.034-0-0-0-0-0-0-0.046-0.203-0.088-0.407-0.126-0.612l0.666-0.123c-0.089-0.505-0.152-1.018-0.188-1.539l-0.538 0.040v-2.222l0.538 0.040c0.037-0.521 0.1-1.034 0.188-1.539l-0.666-0.123c0.038-0.206 0.080-0.409 0.126-0.612 0-0 0-0 0-0 0.003-0.011 0.005-0.022 0.008-0.034 0-0 0-0 0-0 0.003-0.011 0.005-0.022 0.008-0.034 0-0 0-0 0-0 0.003-0.011 0.005-0.022 0.008-0.033 0-0 0-0 0-0.001 0.003-0.011 0.005-0.022 0.008-0.033 0-0 0-0.001 0-0.001 0.003-0.011 0.005-0.022 0.008-0.033 0-0 0-0 0-0.001 0.001-0.004 0.002-0.007 0.003-0.011 0-0 0-0 0-0 0.002-0.008 0.004-0.015 0.005-0.022 0-0 0-0 0-0 0.001-0.004 0.002-0.007 0.003-0.011 0 0 0-0 0-0 0.002-0.008 0.004-0.015 0.005-0.022 0-0 0-0 0-0 0.001-0.004 0.002-0.007 0.003-0.011 0-0 0-0 0-0.001 0.003-0.011 0.005-0.022 0.008-0.033 0-0 0-0 0-0.001 0.003-0.011 0.006-0.022 0.008-0.033 0-0 0-0.001 0-0.001 0.003-0.011 0.006-0.022 0.008-0.033 0 0 0-0 0-0 0.003-0.011 0.006-0.022 0.009-0.034 0-0 0-0 0-0 0.102-0.399 0.22-0.792 0.354-1.178l0.617 0.213c0.169-0.513 0.364-1.014 0.585-1.501l-0.588-0.278c0.195-0.411 0.407-0.811 0.637-1.201 0-0 0-0 0-0 0.006-0.010 0.011-0.019 0.017-0.029 0-0 0-0 0-0 0.002-0.003 0.004-0.006 0.006-0.009 0-0 0-0 0-0 0.006-0.009 0.011-0.019 0.017-0.028 0-0 0.001-0.001 0.001-0.001 0.002-0.003 0.003-0.006 0.005-0.009 0-0 0-0 0-0.001 0.002-0.003 0.004-0.006 0.006-0.009v0c0.002-0.003 0.004-0.006 0.005-0.009 0-0.001 0.001-0.001 0.001-0.002 0.001-0.002 0.003-0.005 0.005-0.008 0-0.001 0.001-0.001 0.001-0.002 0.002-0.003 0.004-0.006 0.005-0.009 0-0 0-0 0-0 0.002-0.003 0.004-0.006 0.005-0.009 0-0.001 0.001-0.002 0.001-0.002 0.001-0.002 0.003-0.004 0.004-0.007 0.001-0.001 0.001-0.002 0.002-0.003 0.001-0.002 0.002-0.004 0.004-0.006 0.001-0.001 0.001-0.002 0.002-0.003 0.002-0.003 0.003-0.006 0.005-0.008 0-0.001 0.001-0.002 0.002-0.003 0.001-0.002 0.002-0.004 0.004-0.006 0.001-0.001 0.002-0.003 0.002-0.004 0.001-0.002 0.002-0.003 0.003-0.005 0.001-0.001 0.002-0.003 0.003-0.004 0.001-0.002 0.002-0.003 0.003-0.005 0.001-0.002 0.003-0.004 0.004-0.007 0.001-0.002 0.002-0.003 0.003-0.005 0.001-0.002 0.002-0.003 0.003-0.005 0.001-0.001 0.002-0.003 0.002-0.004 0.001-0.002 0.002-0.003 0.003-0.005 0.001-0.001 0.001-0.002 0.002-0.003 0.001-0.002 0.002-0.003 0.003-0.005 0-0 0-0 0-0.001 0.003-0.004 0.005-0.008 0.008-0.012 0-0.001 0.001-0.002 0.002-0.003 0.001-0.002 0.002-0.004 0.004-0.006 0-0.001 0.001-0.002 0.001-0.002 0.006-0.009 0.012-0.019 0.017-0.028 0-0 0-0.001 0.001-0.001 0.001-0.002 0.003-0.005 0.004-0.007l0-0c0.1-0.162 0.203-0.321 0.309-0.478l0.505 0.34c0.329-0.513 0.689-1.005 1.077-1.473l-0.416-0.351c0.066-0.078 0.133-0.156 0.201-0.233l0-0c0.008-0.009 0.015-0.017 0.023-0.026 0-0 0.001-0.001 0.001-0.001 0.002-0.002 0.003-0.004 0.005-0.006 0-0 0-0 0.001-0.001 0.006-0.006 0.011-0.013 0.017-0.019l0-0c0.002-0.002 0.004-0.004 0.005-0.006 0-0 0.001-0.001 0.001-0.001 0.002-0.002 0.003-0.004 0.005-0.006l0-0c0.004-0.004 0.008-0.009 0.012-0.013 0.002-0.002 0.003-0.003 0.005-0.005 0.001-0.001 0.001-0.001 0.002-0.002 0.002-0.002 0.003-0.003 0.005-0.005 0.001-0.001 0.001-0.001 0.002-0.002 0.005-0.005 0.010-0.011 0.015-0.016 0.001-0.001 0.002-0.002 0.002-0.002 0.001-0.002 0.003-0.003 0.004-0.005 0.001-0.001 0.002-0.002 0.002-0.003 0.001-0.002 0.003-0.003 0.004-0.005 0.001-0.001 0.002-0.002 0.003-0.003 0.002-0.003 0.004-0.005 0.006-0.007 0.001-0.001 0.002-0.003 0.003-0.004 0.001-0.001 0.002-0.003 0.004-0.004 0.001-0.001 0.002-0.003 0.003-0.004 0.001-0.001 0.002-0.003 0.003-0.004 0.001-0.001 0.003-0.003 0.003-0.004 0.001-0.001 0.002-0.002 0.003-0.004 0.002-0.002 0.004-0.005 0.006-0.007 0.001-0.001 0.001-0.001 0.002-0.002 0.002-0.002 0.003-0.004 0.005-0.005 0.001-0.001 0.002-0.002 0.003-0.003 0.001-0.001 0.003-0.003 0.004-0.005 0.001-0.001 0.002-0.002 0.003-0.003 0.002-0.002 0.003-0.004 0.005-0.005 0.001-0.001 0.001-0.001 0.002-0.002 0.003-0.003 0.004-0.005 0.007-0.008 0-0.001 0.001-0.001 0.002-0.002 0.002-0.002 0.003-0.004 0.005-0.006 0.001-0.001 0.001-0.002 0.002-0.003 0.002-0.002 0.003-0.003 0.005-0.006 0.001-0.001 0.001-0.001 0.002-0.002 0.002-0.002 0.005-0.005 0.007-0.008h0c0.002-0.002 0.005-0.005 0.007-0.008 0.001-0.001 0.001-0.001 0.002-0.002 0.002-0.002 0.004-0.004 0.006-0.006 0.001-0.001 0.001-0.001 0.002-0.002 0.002-0.002 0.004-0.005 0.006-0.007 0-0 0.001-0.001 0.001-0.001 0.003-0.003 0.005-0.005 0.007-0.008 0-0 0-0 0.001-0.001 0.002-0.002 0.005-0.005 0.006-0.007 0-0.001 0.001-0.001 0.001-0.002 0.002-0.002 0.004-0.005 0.006-0.007 0-0 0.001-0.001 0.001-0.001 0.005-0.006 0.010-0.010 0.015-0.016 0-0 0-0 0-0 0.003-0.003 0.004-0.005 0.007-0.008 0-0 0-0 0.001-0.001 0.008-0.008 0.015-0.016 0.022-0.024 0-0 0-0 0.001-0.001 0.003-0.003 0.005-0.005 0.007-0.008 0-0 0-0 0-0 0.268-0.287 0.547-0.564 0.836-0.829-2.637-2.302-6.086-3.697-9.86-3.697-3.775 0-7.224 1.395-9.86 3.697 0.289 0.266 0.569 0.542 0.836 0.829 0 0 0 0 0 0 0.003 0.003 0.005 0.005 0.007 0.008 0 0 0 0 0.001 0.001 0.008 0.008 0.015 0.016 0.022 0.024 0 0 0 0 0.001 0.001 0.003 0.003 0.004 0.005 0.007 0.008 0 0 0 0 0 0 0.005 0.005 0.010 0.010 0.015 0.016 0 0 0.001 0.001 0.001 0.001 0.002 0.002 0.004 0.005 0.006 0.007 0 0 0.001 0.001 0.001 0.002 0.002 0.002 0.005 0.005 0.006 0.007 0 0 0 0 0.001 0.001 0.003 0.003 0.005 0.005 0.007 0.008 0 0 0.001 0.001 0.001 0.001 0.002 0.002 0.004 0.005 0.006 0.007 0 0.001 0.001 0.001 0.002 0.002 0.002 0.002 0.004 0.004 0.005 0.006 0.001 0.001 0.001 0.001 0.002 0.002 0.002 0.002 0.005 0.005 0.007 0.008v0c0.002 0.002 0.005 0.005 0.007 0.008 0.001 0.001 0.001 0.001 0.002 0.002 0.002 0.002 0.003 0.004 0.005 0.006 0.001 0.001 0.001 0.002 0.002 0.003 0.002 0.002 0.003 0.004 0.005 0.006 0.001 0.001 0.001 0.001 0.002 0.002 0.003 0.003 0.004 0.005 0.007 0.008 0.001 0.001 0.001 0.001 0.002 0.002 0.002 0.002 0.003 0.004 0.005 0.005 0.001 0.001 0.002 0.002 0.003 0.003 0.001 0.001 0.003 0.003 0.004 0.005 0.001 0.001 0.002 0.002 0.003 0.003 0.002 0.002 0.003 0.003 0.005 0.005 0.001 0.001 0.001 0.001 0.002 0.002 0.002 0.002 0.004 0.005 0.006 0.007 0.001 0.001 0.002 0.002 0.003 0.004 0.001 0.001 0.003 0.003 0.003 0.004 0.001 0.001 0.002 0.003 0.003 0.004 0.001 0.001 0.002 0.003 0.003 0.004 0.001 0.001 0.002 0.003 0.003 0.004 0.001 0.001 0.002 0.003 0.003 0.004 0.002 0.002 0.004 0.005 0.006 0.007 0.001 0.001 0.002 0.002 0.003 0.003 0.001 0.002 0.003 0.003 0.004 0.005 0.001 0.001 0.002 0.002 0.002 0.003 0.001 0.002 0.003 0.003 0.004 0.005 0.001 0.001 0.002 0.002 0.002 0.002 0.005 0.005 0.010 0.011 0.015 0.016 0.001 0.001 0.001 0.001 0.002 0.002 0.002 0.002 0.003 0.003 0.005 0.005 0.001 0.001 0.001 0.001 0.002 0.002 0.002 0.002 0.003 0.003 0.005 0.005v0c0.004 0.004 0.008 0.009 0.011 0.013l0 0c0.002 0.002 0.003 0.004 0.005 0.006 0 0 0.001 0.001 0.001 0.001 0.002 0.002 0.004 0.004 0.005 0.006l0 0c0.006 0.006 0.011 0.013 0.017 0.019 0 0 0 0 0.001 0.001 0.002 0.002 0.003 0.004 0.005 0.006 0 0 0.001 0.001 0.001 0.001 0.008 0.009 0.015 0.017 0.023 0.026l0 0c0.068 0.077 0.135 0.155 0.201 0.233l-0.416 0.351c0.388 0.468 0.747 0.96 1.077 1.473l0.505-0.34c0.106 0.157 0.209 0.317 0.309 0.478l0 0c0.001 0.002 0.003 0.005 0.004 0.007 0 0 0 0.001 0.001 0.001 0.006 0.009 0.012 0.019 0.017 0.028 0 0.001 0.001 0.002 0.001 0.002 0.001 0.002 0.002 0.004 0.003 0.006 0 0.001 0.001 0.002 0.002 0.003 0.003 0.004 0.005 0.008 0.008 0.012 0 0 0 0 0 0.001 0.001 0.002 0.002 0.004 0.003 0.005 0.001 0.001 0.001 0.002 0.002 0.003 0.001 0.002 0.002 0.003 0.003 0.005 0.001 0.001 0.002 0.003 0.002 0.004 0.001 0.002 0.002 0.003 0.003 0.005 0.001 0.002 0.002 0.003 0.003 0.005 0.001 0.002 0.003 0.005 0.004 0.007 0.001 0.002 0.002 0.003 0.003 0.005 0.001 0.001 0.002 0.003 0.002 0.004 0.001 0.002 0.002 0.003 0.003 0.005 0.001 0.001 0.002 0.003 0.002 0.004 0.001 0.002 0.002 0.004 0.004 0.006 0.001 0.001 0.001 0.002 0.002 0.003 0.002 0.003 0.003 0.005 0.005 0.008 0.001 0.001 0.001 0.002 0.002 0.003 0.001 0.002 0.002 0.004 0.004 0.006 0.001 0.001 0.001 0.002 0.002 0.003 0.001 0.002 0.003 0.004 0.004 0.007 0 0.001 0.001 0.002 0.001 0.002 0.002 0.003 0.004 0.006 0.005 0.009 0 0 0 0 0 0 0.002 0.003 0.004 0.006 0.005 0.009 0 0.001 0.001 0.001 0.001 0.002 0.001 0.002 0.003 0.005 0.005 0.008 0 0.001 0.001 0.001 0.001 0.002 0.002 0.003 0.004 0.006 0.005 0.009v0c0.002 0.003 0.004 0.006 0.006 0.009 0 0 0 0 0 0.001 0.002 0.003 0.003 0.006 0.005 0.009 0 0 0.001 0.001 0.001 0.001 0.005 0.009 0.011 0.019 0.017 0.028 0 0 0 0 0 0 0.002 0.003 0.004 0.006 0.005 0.009 0 0 0 0 0 0 0.006 0.010 0.011 0.019 0.017 0.029 0 0 0 0 0 0 0.23 0.39 0.442 0.79 0.637 1.201l-0.588 0.278c0.221 0.487 0.416 0.988 0.585 1.501l0.617-0.213c0.134 0.386 0.252 0.779 0.354 1.178 0 0 0 0 0 0 0.003 0.011 0.006 0.022 0.009 0.034 0 0 0 0 0 0 0.003 0.011 0.005 0.022 0.008 0.033 0 0 0 0.001 0 0.001 0.003 0.011 0.005 0.022 0.008 0.033 0 0 0 0 0 0.001 0.003 0.011 0.005 0.022 0.008 0.033 0 0 0 0.001 0 0.001 0.001 0.004 0.002 0.007 0.003 0.011 0 0 0 0 0 0 0.002 0.008 0.004 0.015 0.005 0.022 0 0 0 0 0 0 0.001 0.004 0.002 0.007 0.003 0.011 0 0 0 0 0 0 0.002 0.008 0.004 0.015 0.005 0.022 0 0 0 0 0 0 0.001 0.004 0.002 0.007 0.003 0.011 0 0 0 0 0 0.001 0.003 0.011 0.005 0.022 0.008 0.033 0 0 0 0.001 0 0.001 0.003 0.011 0.005 0.022 0.008 0.033 0 0 0 0 0 0.001 0.003 0.011 0.005 0.022 0.008 0.033 0 0 0 0 0 0 0.003 0.011 0.005 0.022 0.008 0.034 0 0 0 0 0 0 0.003 0.011 0.005 0.022 0.008 0.034 0 0 0 0 0 0 0.046 0.203 0.088 0.406 0.126 0.612l-0.666 0.123c0.089 0.505 0.152 1.018 0.188 1.539l0.539-0.040v2.222l-0.538-0.040c-0.037 0.521-0.1 1.034-0.188 1.539l0.666 0.123c-0.038 0.206-0.080 0.41-0.126 0.612 0 0-0 0-0 0-0.003 0.011-0.005 0.022-0.008 0.034 0 0-0 0-0 0-0.003 0.011-0.005 0.022-0.008 0.034 0 0-0 0-0 0-0.003 0.011-0.005 0.022-0.008 0.033 0 0-0 0-0 0.001-0.003 0.011-0.005 0.022-0.008 0.033-0 0-0 0.001-0 0.001-0.003 0.011-0.005 0.022-0.008 0.033-0 0-0 0-0 0.001-0.001 0.004-0.002 0.007-0.003 0.011-0 0-0 0-0 0-0.002 0.008-0.004 0.015-0.005 0.022-0 0-0 0-0 0-0.001 0.004-0.002 0.007-0.003 0.011 0 0 0 0 0 0-0.002 0.008-0.004 0.015-0.005 0.022 0 0-0 0-0 0-0.001 0.004-0.002 0.007-0.003 0.011-0 0-0 0-0 0.001-0.003 0.011-0.005 0.022-0.008 0.033 0 0-0 0-0 0-0.003 0.011-0.005 0.022-0.008 0.033-0 0-0 0.001-0 0.001-0.003 0.011-0.006 0.022-0.008 0.033 0 0 0 0 0 0-0.003 0.011-0.006 0.022-0.009 0.034 0 0-0 0-0 0-0.102 0.399-0.22 0.792-0.354 1.178l-0.617-0.213c-0.169 0.513-0.364 1.014-0.585 1.501l0.588 0.278c-0.195 0.411-0.407 0.811-0.637 1.201-0 0-0 0-0 0-0.006 0.010-0.011 0.019-0.017 0.029-0 0-0 0-0 0-0.002 0.003-0.004 0.006-0.005 0.009-0 0-0 0-0 0-0.005 0.009-0.011 0.019-0.017 0.028-0 0-0.001 0.001-0.001 0.001-0.002 0.003-0.003 0.006-0.005 0.009-0 0-0 0-0 0.001-0.002 0.003-0.004 0.006-0.006 0.009-0.002 0.003-0.004 0.006-0.005 0.009-0 0.001-0.001 0.001-0.001 0.002-0.001 0.003-0.003 0.005-0.005 0.008-0 0.001-0.001 0.001-0.001 0.002-0.002 0.003-0.004 0.006-0.005 0.009 0 0-0 0-0 0-0.002 0.003-0.004 0.006-0.005 0.009-0 0.001-0.001 0.002-0.001 0.002-0.001 0.003-0.003 0.004-0.004 0.007-0.001 0.001-0.001 0.002-0.002 0.003-0.001 0.002-0.002 0.004-0.004 0.006-0.001 0.001-0.001 0.002-0.002 0.003-0.002 0.003-0.003 0.006-0.005 0.008-0.001 0.001-0.001 0.002-0.002 0.003-0.001 0.002-0.002 0.004-0.004 0.006-0.001 0.001-0.002 0.003-0.002 0.004-0.001 0.002-0.002 0.003-0.003 0.005-0.001 0.001-0.002 0.003-0.002 0.004-0.001 0.002-0.002 0.003-0.003 0.005-0.001 0.002-0.003 0.004-0.004 0.007-0.001 0.002-0.002 0.003-0.003 0.005-0.001 0.001-0.002 0.003-0.003 0.005-0.001 0.001-0.002 0.003-0.002 0.004-0.001 0.002-0.002 0.003-0.003 0.005-0.001 0.001-0.001 0.002-0.002 0.003-0.001 0.002-0.002 0.003-0.003 0.005-0 0-0 0-0 0.001-0.003 0.004-0.005 0.008-0.008 0.012-0 0.001-0.001 0.002-0.002 0.003-0.001 0.002-0.002 0.004-0.003 0.006-0 0.001-0.001 0.002-0.001 0.002-0.006 0.009-0.012 0.019-0.017 0.028-0 0-0 0.001-0.001 0.001-0.001 0.002-0.003 0.005-0.004 0.007l-0 0c-0.1 0.162-0.203 0.321-0.309 0.478l-0.505-0.34c-0.329 0.513-0.689 1.005-1.077 1.473l0.416 0.351c-0.066 0.078-0.133 0.156-0.201 0.233l-0 0c-0.008 0.009-0.015 0.017-0.023 0.026-0 0-0.001 0.001-0.001 0.001-0.002 0.002-0.003 0.004-0.005 0.006-0 0-0 0-0.001 0.001-0.006 0.006-0.011 0.013-0.017 0.019l-0 0c-0.002 0.002-0.003 0.004-0.005 0.006-0 0-0.001 0.001-0.001 0.001-0.002 0.002-0.003 0.004-0.005 0.006l-0 0c-0.004 0.004-0.008 0.009-0.011 0.013v0c-0.002 0.002-0.003 0.004-0.005 0.005-0.001 0.001-0.001 0.001-0.002 0.002-0.002 0.002-0.003 0.003-0.005 0.005-0.001 0.001-0.001 0.001-0.002 0.002-0.005 0.006-0.010 0.011-0.015 0.017-0.001 0.001-0.002 0.002-0.002 0.002-0.001 0.002-0.003 0.003-0.004 0.005-0.001 0.001-0.002 0.002-0.002 0.003-0.001 0.002-0.003 0.003-0.004 0.005-0.001 0.001-0.002 0.002-0.003 0.003-0.002 0.002-0.004 0.005-0.006 0.007-0.001 0.001-0.002 0.002-0.003 0.004-0.001 0.001-0.002 0.003-0.003 0.004-0.001 0.001-0.002 0.003-0.003 0.004-0.001 0.001-0.002 0.003-0.003 0.004-0.001 0.001-0.003 0.003-0.003 0.004-0.001 0.001-0.002 0.002-0.003 0.004-0.002 0.002-0.004 0.005-0.006 0.007-0.001 0.001-0.001 0.001-0.002 0.002-0.002 0.002-0.003 0.004-0.005 0.005-0.001 0.001-0.002 0.002-0.003 0.003-0.001 0.001-0.003 0.003-0.004 0.005-0.001 0.001-0.002 0.002-0.003 0.003-0.002 0.002-0.003 0.004-0.005 0.005-0.001 0.001-0.001 0.001-0.002 0.002-0.003 0.003-0.004 0.005-0.007 0.007-0.001 0.001-0.001 0.001-0.002 0.002-0.002 0.002-0.003 0.004-0.005 0.006-0.001 0.001-0.001 0.002-0.002 0.003-0.002 0.002-0.003 0.004-0.005 0.006-0.001 0.001-0.001 0.001-0.002 0.002-0.002 0.002-0.005 0.005-0.007 0.008v0c-0.002 0.002-0.005 0.005-0.007 0.008-0.001 0.001-0.001 0.001-0.002 0.002-0.002 0.002-0.004 0.004-0.005 0.006-0.001 0.001-0.001 0.001-0.002 0.002-0.002 0.002-0.004 0.005-0.006 0.007-0 0-0.001 0.001-0.001 0.001-0.003 0.003-0.005 0.005-0.007 0.008-0 0-0 0.001-0.001 0.001-0.002 0.002-0.005 0.005-0.006 0.007-0 0-0.001 0.001-0.001 0.002-0.002 0.002-0.004 0.005-0.006 0.007-0 0-0.001 0.001-0.001 0.001-0.005 0.006-0.010 0.010-0.015 0.016-0 0-0 0-0 0.001-0.003 0.003-0.004 0.005-0.007 0.008-0 0-0 0-0.001 0.001-0.008 0.008-0.015 0.016-0.022 0.024-0 0-0 0-0.001 0.001-0.003 0.003-0.005 0.005-0.007 0.008-0 0-0 0-0 0-0.268 0.287-0.547 0.564-0.836 0.829 2.636 2.302 6.085 3.697 9.86 3.697 3.775 0 7.224-1.395 9.86-3.697-0.289-0.266-0.569-0.542-0.836-0.829zM6.307 24.529l-0.533-0.358c0.355-0.528 0.673-1.087 0.945-1.66l0.542 0.257c0.048-0.105 0.094-0.211 0.139-0.317 0.151-0.356 0.285-0.718 0.405-1.083l-0.565-0.196c0.208-0.6 0.371-1.221 0.486-1.845l0.564 0.104c0.082-0.472 0.14-0.95 0.174-1.431l-0.562-0.041c0.023-0.316 0.034-0.637 0.034-0.956 0-0.319-0.011-0.64-0.034-0.956l0.562-0.041c-0.034-0.482-0.091-0.959-0.174-1.431l-0.564 0.104c-0.115-0.625-0.279-1.246-0.486-1.845l0.565-0.196c-0.12-0.365-0.255-0.727-0.405-1.083-0.045-0.107-0.091-0.212-0.139-0.317l-0.542 0.257c-0.272-0.574-0.59-1.132-0.945-1.66l0.533-0.358c-0.308-0.482-0.646-0.945-1.012-1.387l-0.54 0.455c-0.369-0.438-0.771-0.854-1.195-1.239-2.22 2.615-3.559 6.001-3.559 9.7s1.34 7.084 3.559 9.7c0.425-0.385 0.827-0.801 1.195-1.239l0.54 0.455c0.366-0.442 0.704-0.905 1.012-1.387zM26.441 7.3c-0.425 0.385-0.826 0.801-1.195 1.239l-0.54-0.455c-0.366 0.442-0.704 0.905-1.012 1.387l0.533 0.358c-0.355 0.528-0.673 1.087-0.945 1.66l-0.542-0.257c-0.048 0.105-0.094 0.211-0.139 0.317-0.151 0.356-0.285 0.718-0.405 1.083l0.565 0.196c-0.208 0.6-0.371 1.221-0.486 1.845l-0.564-0.104c-0.082 0.472-0.14 0.95-0.174 1.431l0.562 0.042c-0.023 0.316-0.034 0.637-0.034 0.956-0 0.319 0.011 0.64 0.034 0.956l-0.562 0.041c0.034 0.482 0.091 0.959 0.174 1.431l0.564-0.104c0.115 0.625 0.279 1.246 0.486 1.845l-0.565 0.196c0.12 0.365 0.255 0.727 0.405 1.083 0.045 0.107 0.091 0.212 0.139 0.317l0.542-0.257c0.272 0.574 0.59 1.132 0.945 1.66l-0.533 0.358c0.308 0.482 0.646 0.945 1.012 1.387l0.54-0.455c0.369 0.438 0.771 0.854 1.195 1.239 2.22-2.615 3.559-6.001 3.559-9.7s-1.34-7.084-3.559-9.7z" />
</svg>
