<?xml version="1.0" encoding="utf-8"?>
<!-- Generated by IcoMoon.io -->
<!DOCTYPE svg PUBLIC "-//W3C//DTD SVG 1.1//EN" "http://www.w3.org/Graphics/SVG/1.1/DTD/svg11.dtd">
<svg version="1.1" xmlns="http://www.w3.org/2000/svg" xmlns:xlink="http://www.w3.org/1999/xlink" width="32" height="32" viewBox="0 0 32 32">
	<path d="M4 32h23.966c0 0 2.034-4 4-16h-31.966c2 12 4 16 4 16zM23 18h3v12h-3v-12zM17.333 18h3v12h-3v-12zM11.667 18h3v12h-3v-12zM6 18h3v12h-3v-12zM27.36 10l-5.617-7.021c0.163-0.289 0.256-0.623 0.256-0.979 0-1.105-0.895-2-2-2-1.105 0-2 0.895-2 2s0.895 2 2 2c0.199 0 0.391-0.030 0.573-0.084l4.867 6.084h-18.879l4.867-6.084c0.181 0.054 0.373 0.084 0.573 0.084 1.105 0 2-0.895 2-2s-0.895-2-2-2-2 0.895-2 2c0 0.356 0.093 0.69 0.256 0.979l-5.617 7.021h-4.639v4h32v-4h-4.64z" />
</svg>
