<?xml version="1.0" encoding="utf-8"?>
<!-- Generated by IcoMoon.io -->
<!DOCTYPE svg PUBLIC "-//W3C//DTD SVG 1.1//EN" "http://www.w3.org/Graphics/SVG/1.1/DTD/svg11.dtd">
<svg version="1.1" xmlns="http://www.w3.org/2000/svg" xmlns:xlink="http://www.w3.org/1999/xlink" width="32" height="32" viewBox="0 0 32 32">
	<path d="M29.966 16c-0.216-3.286-1.491-6.282-3.485-8.652-0.234 0.203-0.463 0.415-0.684 0.636-2.171 2.171-3.462 4.987-3.695 8.016h7.865zM24.906 5.738c-2.408-2.12-5.502-3.48-8.906-3.704v13.966h3.846c0.269-4.083 2.171-7.719 5.059-10.262zM4.203 7.984c-0.221-0.221-0.45-0.434-0.684-0.636-1.995 2.37-3.269 5.366-3.485 8.652h7.865c-0.233-3.029-1.525-5.845-3.695-8.016zM10.154 16h3.846v-13.966c-3.404 0.224-6.498 1.584-8.906 3.704 2.889 2.543 4.791 6.179 5.059 10.262zM25.797 26.016c0.221 0.221 0.45 0.433 0.684 0.636 1.995-2.37 3.269-5.366 3.485-8.652h-7.865c0.233 3.029 1.525 5.845 3.695 8.016zM19.846 18h-3.846v13.966c3.404-0.224 6.498-1.584 8.906-3.704-2.889-2.543-4.791-6.179-5.059-10.262zM0.034 18c0.216 3.286 1.491 6.282 3.485 8.652 0.234-0.203 0.463-0.415 0.684-0.636 2.171-2.171 3.462-4.987 3.696-8.016h-7.865zM5.094 28.262c2.408 2.12 5.502 3.48 8.906 3.704v-13.966h-3.846c-0.269 4.083-2.171 7.719-5.059 10.262z" />
</svg>
