<?xml version="1.0" encoding="utf-8"?>
<!-- Generated by IcoMoon.io -->
<!DOCTYPE svg PUBLIC "-//W3C//DTD SVG 1.1//EN" "http://www.w3.org/Graphics/SVG/1.1/DTD/svg11.dtd">
<svg version="1.1" xmlns="http://www.w3.org/2000/svg" xmlns:xlink="http://www.w3.org/1999/xlink" width="32" height="32" viewBox="0 0 32 32">
	<path d="M25.406 12l-5.558-7.235c0.098-0.236 0.152-0.494 0.152-0.765 0-1.105-0.895-2-2-2-1.105 0-2 0.895-2 2s0.895 2 2 2c0.089 0 0.176-0.006 0.262-0.018l4.622 6.018h-13.768l4.622-6.018c0.086 0.011 0.173 0.018 0.262 0.018 1.105 0 2-0.895 2-2s-0.895-2-2-2-2 0.895-2 2c0 0.271 0.054 0.529 0.152 0.765l-5.558 7.235h-6.594v4h2l2 16h24l2-16h2v-4h-6.594zM10 28h-4v-4h4v4zM10 20h-4v-4h4v4zM18 28h-4v-4h4v4zM18 20h-4v-4h4v4zM26 28h-4v-4h4v4zM26 20h-4v-4h4v4z" />
</svg>
