<?xml version="1.0" encoding="utf-8"?>
<!-- Generated by IcoMoon.io -->
<!DOCTYPE svg PUBLIC "-//W3C//DTD SVG 1.1//EN" "http://www.w3.org/Graphics/SVG/1.1/DTD/svg11.dtd">
<svg version="1.1" xmlns="http://www.w3.org/2000/svg" xmlns:xlink="http://www.w3.org/1999/xlink" width="32" height="32" viewBox="0 0 32 32">
	<path d="M30 10c-1.105 0-2 0.895-2 2v4c0-1.657-1.343-3-3-3h-12c-1.657 0-3 1.343-3 3v1h18v1h-21c-1.657 0-3-1.343-3-3v-9c0-1.105-0.895-2-2-2s-2 0.895-2 2v20h4v-4h24v4h4v-14c0-1.105-0.895-2-2-2zM4 14c0-1.657 1.343-3 3-3s3 1.343 3 3c0 1.657-1.343 3-3 3-1.657 0-3-1.343-3-3z" />
</svg>
