<?xml version="1.0" encoding="utf-8"?>
<!-- Generated by IcoMoon.io -->
<!DOCTYPE svg PUBLIC "-//W3C//DTD SVG 1.1//EN" "http://www.w3.org/Graphics/SVG/1.1/DTD/svg11.dtd">
<svg version="1.1" xmlns="http://www.w3.org/2000/svg" xmlns:xlink="http://www.w3.org/1999/xlink" width="32" height="32" viewBox="0 0 32 32">
	<path d="M0 28h4v4h4v-4h16v4h4v-4h4v-2h-32zM26 10h-20l-6 14h32zM11 8c2.761 0 5 0.895 5 2 0-1.105 2.239-2 5-2s5 0.895 5 2v-8c0-1.105-0.895-2-2-2h-16c-1.105 0-2 0.895-2 2v8c0-1.105 2.239-2 5-2z" />
</svg>
