<?xml version="1.0" encoding="utf-8"?>
<!-- Generated by IcoMoon.io -->
<!DOCTYPE svg PUBLIC "-//W3C//DTD SVG 1.1//EN" "http://www.w3.org/Graphics/SVG/1.1/DTD/svg11.dtd">
<svg version="1.1" xmlns="http://www.w3.org/2000/svg" xmlns:xlink="http://www.w3.org/1999/xlink" width="32" height="32" viewBox="0 0 32 32">
	<path d="M32 26c-3.314 0-6-2.686-6-6v-8.909c0-4.398-3.436-8.066-8-8.909v-2.182h-4v2.182c-4.564 0.842-8 4.511-8 8.909v8.909c0 3.314-2.686 6-6 6v2h13.425c-0.163 0.357-0.253 0.754-0.253 1.172 0 1.562 1.266 2.828 2.829 2.828 1.562 0 2.828-1.266 2.828-2.828 0-0.418-0.091-0.815-0.253-1.172h13.425v-2z" />
</svg>
