<?xml version="1.0" encoding="utf-8"?>
<!-- Generated by IcoMoon.io -->
<!DOCTYPE svg PUBLIC "-//W3C//DTD SVG 1.1//EN" "http://www.w3.org/Graphics/SVG/1.1/DTD/svg11.dtd">
<svg version="1.1" xmlns="http://www.w3.org/2000/svg" xmlns:xlink="http://www.w3.org/1999/xlink" width="32" height="32" viewBox="0 0 32 32">
	<path d="M26 14c-0.697 0-1.367 0.119-1.989 0.338l-1.65-3.826 1.532-2.794h1.248c0.466 0 0.844-0.378 0.844-0.844s-0.378-0.844-0.844-0.844h-4.299c-0.466 0-0.844 0.378-0.844 0.844s0.378 0.844 0.844 0.844h1.34l-1.251 2.281h-11.713l0.494-2.281h3.382c0.466 0 0.844-0.378 0.844-0.844s-0.378-0.844-0.844-0.844h-4.743l-1.732 8c-0.203-0.021-0.41-0.031-0.618-0.031-3.314 0-6 2.686-6 6s2.686 6 6 6 6-2.686 6-6c0-2.515-1.548-4.669-3.743-5.561l0.514-2.374 6.676 9.031c0.13 0.175 0.335 0.279 0.553 0.279h4.159c0.622 2.651 3.001 4.625 5.841 4.625 3.314 0 6-2.686 6-6s-2.686-6-6-6zM10.313 20c0 2.378-1.935 4.313-4.313 4.313s-4.313-1.935-4.313-4.313 1.935-4.313 4.313-4.313c0.087 0 0.173 0.003 0.258 0.008l-1.083 5.001c-0.099 0.455 0.191 0.905 0.646 1.003 0.060 0.013 0.12 0.019 0.179 0.019 0.389 0 0.738-0.27 0.824-0.665l1.067-4.928c1.432 0.702 2.421 2.175 2.421 3.875zM20.177 11.375l-4.347 7.926-5.86-7.926h10.207zM17.158 20l4.365-7.959 1.251 2.9c-1.668 1.066-2.773 2.933-2.773 5.059h-2.842zM23.455 16.522l1.5 3.478h-3.267c0-1.427 0.697-2.693 1.767-3.478zM26 24.313c-1.897 0-3.511-1.232-4.086-2.938h4.086c0.231 0 0.447-0.116 0.574-0.31 0.127-0.193 0.148-0.438 0.057-0.65l-1.95-4.521c0.416-0.134 0.859-0.207 1.318-0.207 2.378 0 4.313 1.935 4.313 4.312s-1.935 4.313-4.313 4.313z" />
</svg>
