<?xml version="1.0" encoding="utf-8"?>
<!-- Generated by IcoMoon.io -->
<!DOCTYPE svg PUBLIC "-//W3C//DTD SVG 1.1//EN" "http://www.w3.org/Graphics/SVG/1.1/DTD/svg11.dtd">
<svg version="1.1" xmlns="http://www.w3.org/2000/svg" xmlns:xlink="http://www.w3.org/1999/xlink" width="32" height="32" viewBox="0 0 32 32">
	<path d="M24.8 24h-19.6c0.927 2.282 4.962 4 9.8 4s8.873-1.718 9.8-4zM0 32h2.813c0-0.081 0.088-0.351 0.348-0.629s0.514-0.371 0.589-0.371h8.438c1.67-0.031 2.813-1.969 2.813-3 0 0-9.375 0-11.25 0s-3.75 2-3.75 4zM26.25 28c-1.875 0-11.25 0-11.25 0 0 1.031 1.143 2.969 2.813 3h8.438c0.076 0 0.329 0.093 0.589 0.371 0.261 0.278 0.348 0.548 0.348 0.629h2.813c0-2-1.875-4-3.75-4zM15 22h9.8c-0.406-1.001-1.41-1.893-2.818-2.579 0.648-0.875 1.018-2.001 1.018-3.421 0-5.029-3.654-8.299-6.21-9.493 1.024-0.611 1.71-1.729 1.71-3.007 0-1.933-1.567-3.5-3.5-3.5-1.933 0-3.5 1.567-3.5 3.5 0 1.279 0.686 2.397 1.71 3.007-2.555 1.194-6.21 4.463-6.21 9.493 0 1.419 0.37 2.545 1.018 3.421-1.407 0.686-2.412 1.579-2.818 2.579h9.8c0 0 0 0 0 0zM10 14v-2h4v-4h2v4h4v2h-4v4h-2v-4h-4z" />
</svg>
