<?xml version="1.0" encoding="utf-8"?>
<!-- Generated by IcoMoon.io -->
<!DOCTYPE svg PUBLIC "-//W3C//DTD SVG 1.1//EN" "http://www.w3.org/Graphics/SVG/1.1/DTD/svg11.dtd">
<svg version="1.1" xmlns="http://www.w3.org/2000/svg" xmlns:xlink="http://www.w3.org/1999/xlink" width="32" height="32" viewBox="0 0 32 32">
	<path d="M0 16c0 8.837 7.163 16 16 16 8.837 0 16-7.163 16-16s-7.163-16-16-16c-8.837 0-16 7.163-16 16zM28 16c0 2.289-0.641 4.428-1.753 6.247l-16.494-16.494c1.82-1.112 3.959-1.753 6.247-1.753 6.627 0 12 5.373 12 12zM4 16c0-2.289 0.641-4.427 1.753-6.247l16.494 16.494c-1.82 1.112-3.959 1.753-6.247 1.753-6.627 0-12-5.373-12-12z" />
</svg>
