<?xml version="1.0" encoding="utf-8"?>
<!-- Generated by IcoMoon.io -->
<!DOCTYPE svg PUBLIC "-//W3C//DTD SVG 1.1//EN" "http://www.w3.org/Graphics/SVG/1.1/DTD/svg11.dtd">
<svg version="1.1" xmlns="http://www.w3.org/2000/svg" xmlns:xlink="http://www.w3.org/1999/xlink" width="32" height="32" viewBox="0 0 32 32">
	<path d="M12 6c7.732 0 14 6.268 14 14h-3c0-2.938-1.144-5.701-3.222-7.778-2.078-2.078-4.84-3.222-7.778-3.222v-3zM12 0c11.046 0 20 8.954 20 20h-3c0-2.296-0.449-4.522-1.335-6.616-0.856-2.024-2.082-3.842-3.645-5.405-1.562-1.562-3.381-2.788-5.405-3.644-2.094-0.886-4.32-1.335-6.616-1.335v-3zM17.95 14.050c1.367 1.367 2.050 3.16 2.049 4.952-1.999 3-1.999 6.998-1.999 6.998-8 0-14 6-14 6l-1.16-1.16 8.862-8.862c0.097 0.015 0.197 0.022 0.298 0.022 1.105 0 2-0.895 2-2 0-1.105-0.895-2-2-2-1.105 0-2 0.895-2 2 0 0.101 0.008 0.201 0.022 0.298l-8.862 8.862-1.16-1.16c0 0 6-6 6-14 0 0 4 0 7-2 1.792 0 3.583 0.683 4.95 2.050z" />
</svg>
