<?xml version="1.0" encoding="utf-8"?>
<!-- Generated by IcoMoon.io -->
<!DOCTYPE svg PUBLIC "-//W3C//DTD SVG 1.1//EN" "http://www.w3.org/Graphics/SVG/1.1/DTD/svg11.dtd">
<svg version="1.1" xmlns="http://www.w3.org/2000/svg" xmlns:xlink="http://www.w3.org/1999/xlink" width="32" height="32" viewBox="0 0 32 32">
	<path d="M12 6v3c2.938 0 5.701 1.144 7.778 3.222s3.222 4.84 3.222 7.778h3c0-7.732-6.268-14-14-14zM12 0v3c2.296 0 4.522 0.449 6.616 1.335 2.024 0.856 3.842 2.082 5.405 3.644 1.562 1.562 2.788 3.381 3.645 5.405 0.886 2.094 1.335 4.32 1.335 6.616h3c0-11.046-8.954-20-20-20zM11.172 15.172l-8.41 8.41 5.657 5.657 8.41-8.41c1.562-1.562 1.562-4.095 0-5.657-1.562-1.562-4.095-1.562-5.657-0zM0 32l6.675-1.145-5.53-5.53z" />
</svg>
