<?xml version="1.0" encoding="utf-8"?>
<!-- Generated by IcoMoon.io -->
<!DOCTYPE svg PUBLIC "-//W3C//DTD SVG 1.1//EN" "http://www.w3.org/Graphics/SVG/1.1/DTD/svg11.dtd">
<svg version="1.1" xmlns="http://www.w3.org/2000/svg" xmlns:xlink="http://www.w3.org/1999/xlink" width="32" height="32" viewBox="0 0 32 32">
	<path d="M20.048 14.906v-0.269c3.634-0.673 7.908-2.524 7.908-7.302 0-2.423-1.144-4.441-2.995-5.619-1.918-1.245-4.408-1.716-8.244-1.716h-14.705v1.75c3.533 0.336 4.038 0.639 4.038 4.846v18.776c0 4.118-0.477 4.49-4.050 4.847v1.781h12.53c4.206 0 8.008-0.74 10.532-2.12 2.894-1.514 4.711-4.105 4.711-7.336 0-4.711-3.836-6.999-9.724-7.638zM12 4.812c0-1.009 0.101-1.716 0.438-2.086 0.303-0.269 1.178-0.639 2.288-0.639 2.759 0 5.451 1.682 5.451 6.158 0 4.004-2.221 5.855-7.066 5.855l-1.111-0v-9.287zM15.769 29.88c-2.759 0.067-3.769-0.976-3.769-4.644h0v-9.119h0.976c5.822 0 8.782 2.355 8.782 6.965 0 4.745-3.196 6.763-5.989 6.797z" />
</svg>
