<?xml version="1.0" encoding="utf-8"?>
<!-- Generated by IcoMoon.io -->
<!DOCTYPE svg PUBLIC "-//W3C//DTD SVG 1.1//EN" "http://www.w3.org/Graphics/SVG/1.1/DTD/svg11.dtd">
<svg version="1.1" xmlns="http://www.w3.org/2000/svg" xmlns:xlink="http://www.w3.org/1999/xlink" width="32" height="32" viewBox="0 0 32 32">
	<path d="M32 2v0.828l-1.172 1.172 1.172 1.172v0.828h-2v2h-0.828l-1.172-1.172-1.172 1.172h-0.828v-2h-2v-0.024c-0.407-0.014-0.795-0.096-1.166-0.247-0.926-0.378-1.56-1.095-2.174-1.79-0.605-0.684-1.176-1.33-1.977-1.597-1.011-0.337-2.413-0.596-3.354 0.082-0.445 0.321-0.783 0.853-1.006 1.575h0.177c0.825 0 1.5 0.675 1.5 1.5v0.849c5.733 1.354 10 6.504 10 12.651 0 7.18-5.82 13-13 13-7.18 0-13-5.82-13-13 0-6.147 4.267-11.297 10-12.651v-0.849c0-0.825 0.675-1.5 1.5-1.5h0.755c0.326-1.447 0.963-2.518 1.905-3.198 1.288-0.929 3.072-1.052 5.156-0.357 1.311 0.437 2.125 1.358 2.843 2.17 0.949 1.073 1.484 1.679 2.828 1.2l-0.987-0.987v-0.828h2v-2h0.828l1.172 1.172 1.172-1.172h0.828v2h2z" />
</svg>
