<?xml version="1.0" encoding="utf-8"?>
<!-- Generated by IcoMoon.io -->
<!DOCTYPE svg PUBLIC "-//W3C//DTD SVG 1.1//EN" "http://www.w3.org/Graphics/SVG/1.1/DTD/svg11.dtd">
<svg version="1.1" xmlns="http://www.w3.org/2000/svg" xmlns:xlink="http://www.w3.org/1999/xlink" width="32" height="32" viewBox="0 0 32 32">
	<path d="M24 4c-3.074 0-5.877 1.156-8 3.057-2.123-1.9-4.926-3.057-8-3.057s-5.877 1.156-8 3.056v17.886c0.021 0.019 0.042 0.039 0.064 0.058 0.513 0.453 1.065 0.862 1.65 1.223 0.589-0.477 1.234-0.889 1.923-1.223 1.319-0.64 2.799-1 4.363-1s3.045 0.36 4.363 1c0.689 0.335 1.333 0.746 1.923 1.223 0.115 0.093 0.228 0.189 0.339 0.287 0.507 0.449 0.968 0.947 1.375 1.489 0.407-0.542 0.868-1.041 1.375-1.489 0.111-0.098 0.224-0.194 0.339-0.287 0.589-0.477 1.234-0.889 1.923-1.223 1.319-0.64 2.799-1 4.363-1s3.045 0.36 4.363 1c0.689 0.335 1.333 0.746 1.923 1.223 0.585-0.361 1.137-0.77 1.65-1.223 0.021-0.019 0.042-0.039 0.064-0.058v-17.886c-2.123-1.9-4.926-3.056-8-3.056zM8 22c-2.186 0-4.235 0.585-6 1.607v-15.607c1.671-1.255 3.749-2 6-2 2.252 0 4.329 0.745 6 2.001v15.606c-1.765-1.021-3.814-1.607-6-1.607zM24 22c-2.186 0-4.235 0.585-6 1.607v-15.606c1.671-1.256 3.748-2.001 6-2.001 2.251 0 4.329 0.744 6 2v15.607c-1.765-1.021-3.814-1.607-6-1.607z" />
</svg>
