<?xml version="1.0" encoding="utf-8"?>
<!-- Generated by IcoMoon.io -->
<!DOCTYPE svg PUBLIC "-//W3C//DTD SVG 1.1//EN" "http://www.w3.org/Graphics/SVG/1.1/DTD/svg11.dtd">
<svg version="1.1" xmlns="http://www.w3.org/2000/svg" xmlns:xlink="http://www.w3.org/1999/xlink" width="32" height="32" viewBox="0 0 32 32">
	<path d="M18 10v-8h0.5c0.275 0 0.5-0.225 0.5-0.5v-1c0-0.275-0.225-0.5-0.5-0.5h-5c-0.275 0-0.5 0.225-0.5 0.5v1c0 0.275 0.225 0.5 0.5 0.5h0.5v8c0 3.177-4 4-4 7.017v13.983c0 0.552 0.448 1 1 1h10c0.552 0 1-0.448 1-1v-13.983c0-3.017-4-3.84-4-7.017zM20 29.491c-1.061 0.317-2.463 0.509-4 0.509s-2.938-0.193-4-0.509v-10c1.062 0.317 2.463 0.509 4 0.509s2.939-0.193 4-0.509v10z" />
</svg>
