<?xml version="1.0" encoding="utf-8"?>
<!-- Generated by IcoMoon.io -->
<!DOCTYPE svg PUBLIC "-//W3C//DTD SVG 1.1//EN" "http://www.w3.org/Graphics/SVG/1.1/DTD/svg11.dtd">
<svg version="1.1" xmlns="http://www.w3.org/2000/svg" xmlns:xlink="http://www.w3.org/1999/xlink" width="32" height="32" viewBox="0 0 32 32">
	<path d="M28.746 13.308c-0.657-1.386-1.335-2.819-1.335-4.64 0-0.724 0.11-1.565 0.226-2.456 0.264-2.025 0.536-4.119-0.49-5.326-0.331-0.389-0.764-0.652-1.293-0.784v-0.102h-0.766c-0.020 0-0.038 0.001-0.057 0.001h-0.001c-0.019-0.001-0.038-0.001-0.058-0.001l-0.766 0.003v0.1c-0.529 0.133-0.962 0.395-1.293 0.784-1.026 1.207-0.753 3.301-0.49 5.326 0.116 0.891 0.226 1.732 0.226 2.456 0 1.821-0.679 3.254-1.335 4.64-0.544 1.148-1.103 2.329-1.267 3.697-0.243-0.617-0.524-1.21-0.802-1.796-0.75-1.584-1.526-3.222-1.526-5.303 0-0.827 0.125-1.788 0.258-2.806 0.301-2.314 0.613-4.707-0.56-6.087-0.378-0.445-0.873-0.745-1.477-0.896v-0.117h-0.875c-0.022 0-0.044 0.001-0.066 0.001h-0.001c-0.022-0.001-0.043-0.001-0.066-0.001l-0.875 0.003v0.114c-0.604 0.152-1.099 0.452-1.477 0.896-1.173 1.38-0.861 3.773-0.56 6.087 0.133 1.018 0.258 1.98 0.258 2.806 0 2.081-0.776 3.719-1.526 5.303-0.26 0.549-0.523 1.105-0.755 1.68-0.181-1.32-0.724-2.466-1.252-3.581-0.657-1.386-1.335-2.819-1.335-4.64 0-0.724 0.11-1.565 0.226-2.456 0.264-2.025 0.536-4.119-0.49-5.326-0.331-0.389-0.764-0.652-1.293-0.784v-0.102h-0.766c-0.019 0-0.038 0.001-0.057 0.001h-0.001c-0.019-0.001-0.038-0.001-0.058-0.001l-0.766 0.003v0.1c-0.529 0.133-0.962 0.395-1.293 0.784-1.026 1.207-0.753 3.301-0.49 5.326 0.116 0.891 0.226 1.732 0.226 2.456 0 1.82-0.679 3.254-1.335 4.64-0.646 1.365-1.315 2.776-1.315 4.495 0 3.331 1.411 7.647 1.79 8.508 0.366 0.832 1.29 1.429 2.449 1.621v0.068h0.766c0.009 0 0.017-0 0.026-0 0.009 0 0.018 0 0.026 0l0.766-0.001v-0.066c1.159-0.192 2.083-0.79 2.449-1.622 0.205-0.465 0.711-1.94 1.133-3.722 0.413 3.286 1.54 6.683 1.892 7.481 0.419 0.951 1.474 1.633 2.799 1.853v0.077h0.875c0.010 0 0.020-0 0.030-0 0.010 0 0.020 0 0.030 0l0.875-0.002v-0.076c1.325-0.22 2.38-0.902 2.799-1.853 0.358-0.812 1.518-4.315 1.913-7.654 0.43 1.86 0.962 3.415 1.173 3.895 0.366 0.832 1.29 1.429 2.449 1.621v0.068h0.766c0.009 0 0.017-0 0.026-0 0.009 0 0.018 0 0.026 0l0.766-0.001v-0.066c1.159-0.192 2.082-0.79 2.449-1.622 0.379-0.861 1.79-5.178 1.79-8.508 0-1.718-0.668-3.13-1.315-4.495zM13.915 2.146c0.135-0.159 0.391-0.373 1.047-0.394l0.028-0.001 0.010 0 0.008-0 0.030 0.001c0.657 0.021 0.912 0.235 1.047 0.394 0.566 0.666 0.46 2.262 0.269 3.854h-2.707c-0.191-1.592-0.298-3.187 0.269-3.854zM15.971 10h-1.943c0-0.031 0.001-0.062 0.001-0.094 0-0.599-0.056-1.248-0.132-1.906h2.204c-0.076 0.658-0.132 1.307-0.132 1.906-0 0.031 0.001 0.062 0.001 0.094zM17.102 29.364c-0.184 0.418-0.977 0.87-2.083 0.884l-0.019 0-0.019-0c-1.106-0.014-1.899-0.466-2.083-0.884-0.386-0.877-1.897-5.54-1.897-9.019 0-1.57 0.648-2.939 1.334-4.387 0.555-1.171 1.16-2.451 1.476-3.958h2.378c0.316 1.508 0.921 2.788 1.476 3.958 0.686 1.449 1.334 2.817 1.334 4.387 0 3.479-1.511 8.141-1.897 9.019z" />
</svg>
