<?xml version="1.0" encoding="utf-8"?>
<!-- Generated by IcoMoon.io -->
<!DOCTYPE svg PUBLIC "-//W3C//DTD SVG 1.1//EN" "http://www.w3.org/Graphics/SVG/1.1/DTD/svg11.dtd">
<svg version="1.1" xmlns="http://www.w3.org/2000/svg" xmlns:xlink="http://www.w3.org/1999/xlink" width="32" height="32" viewBox="0 0 32 32">
	<path d="M19.246 15.209c-0.75-1.584-1.526-3.222-1.526-5.303 0-0.827 0.125-1.788 0.258-2.806 0.301-2.314 0.613-4.707-0.56-6.087-0.378-0.445-0.873-0.745-1.477-0.896v-0.117h-0.875c-0.022 0-0.044 0.001-0.066 0.001h-0.001c-0.022-0.001-0.043-0.001-0.066-0.001l-0.875 0.003v0.114c-0.604 0.152-1.099 0.452-1.477 0.896-1.173 1.38-0.861 3.773-0.56 6.087 0.133 1.018 0.258 1.98 0.258 2.806 0 2.081-0.776 3.719-1.526 5.303-0.739 1.56-1.503 3.173-1.503 5.137 0 3.807 1.612 8.74 2.046 9.724 0.419 0.951 1.474 1.633 2.799 1.853v0.077h0.875c0.010 0 0.020-0 0.030-0 0.010 0 0.020 0 0.030 0l0.875-0.002v-0.076c1.325-0.22 2.38-0.902 2.799-1.853 0.433-0.984 2.046-5.917 2.046-9.724 0-1.964-0.764-3.577-1.503-5.137zM15.971 10h-1.943c0-0.031 0.001-0.062 0.001-0.094 0-0.599-0.056-1.248-0.132-1.906h2.204c-0.076 0.658-0.132 1.307-0.132 1.906-0 0.031 0.001 0.062 0.001 0.094zM13.915 2.146c0.135-0.159 0.391-0.373 1.047-0.394l0.028-0.001 0.010 0 0.008-0 0.030 0.001c0.657 0.021 0.912 0.235 1.047 0.394 0.566 0.666 0.46 2.262 0.269 3.854h-2.707c-0.191-1.592-0.298-3.187 0.269-3.854zM17.102 29.364c-0.184 0.418-0.977 0.87-2.083 0.884l-0.019 0-0.019-0c-1.106-0.014-1.899-0.466-2.083-0.884-0.386-0.877-1.897-5.54-1.897-9.019 0-1.57 0.648-2.939 1.334-4.387 0.555-1.171 1.16-2.451 1.476-3.958h2.378c0.316 1.508 0.921 2.788 1.476 3.958 0.686 1.449 1.334 2.817 1.334 4.387 0 3.479-1.511 8.141-1.897 9.019z" />
</svg>
