<?xml version="1.0" encoding="utf-8"?>
<!-- Generated by IcoMoon.io -->
<!DOCTYPE svg PUBLIC "-//W3C//DTD SVG 1.1//EN" "http://www.w3.org/Graphics/SVG/1.1/DTD/svg11.dtd">
<svg version="1.1" xmlns="http://www.w3.org/2000/svg" xmlns:xlink="http://www.w3.org/1999/xlink" width="32" height="32" viewBox="0 0 32 32">
	<path d="M25.577 9.283c2.714 2.74 1.649 8.163-6.77 6.156-2.108 0.319-6.616 0.965-7.185-2.192-0.801 0.506-4.852-2.337-1.56-6.641 3.888-5.083 13.534-3.794 15.515 2.678zM6.965 26.926c-1.483-1.692-1.145-5.583-0.946-6.972h-2.666c-0.685 0-1.265-0.356-1.515-0.929-0.337-0.772-0.011-1.734 0.872-2.573 1.48-1.407 2.143-2.864 2.143-3.685l-0-0.088c-0.003-0.527-0.013-2.129 0.417-4.037 0.553-2.449 1.601-4.424 3.115-5.872 1.923-1.839 4.556-2.771 7.824-2.771 3.689 0 8.728 0.866 11.785 4.993 1.246 1.683 2.019 3.752 2.235 5.985 0.194 2.009-0.077 4.117-0.763 5.936-0.817 2.165-2.416 3.321-3.165 4.341-1.276 1.737-2.29 4.714-2.34 10.744h-2c0.053-6.632 1.225-9.823 2.7-11.831 0.711-0.968 2.196-1.969 2.922-3.895 0.59-1.563 0.822-3.382 0.654-5.121-0.184-1.902-0.833-3.653-1.878-5.065-0.943-1.273-2.202-2.273-3.744-2.972-1.777-0.806-3.932-1.215-6.406-1.215-1.461 0-2.768 0.215-3.886 0.638-0.961 0.364-1.809 0.893-2.52 1.572-1.24 1.185-2.107 2.844-2.578 4.93-0.385 1.705-0.376 3.152-0.373 3.627 0 0.040 0 0.073 0 0.1 0 1.502-1.046 3.429-2.729 5.028-0.099 0.094-0.175 0.18-0.235 0.257h4.514l-0.326 1.683c-0.002 0.011-0.218 1.157-0.238 2.482-0.033 2.151 0.452 3.252 0.662 3.492 0.165 0.188 0.335 0.258 0.629 0.258 2.264 0 3.030 0.034 3.878 0.844 1.007 0.963 1.010 3.834 1.002 5.188h-2c0.007-1.071 0.007-3.44-0.42-3.848-0.425-0.407-0.823-0.284-2.46-0.284-0.889 0-1.618-0.317-2.167-0.942z" />
</svg>
