<?xml version="1.0" encoding="utf-8"?>
<!-- Generated by IcoMoon.io -->
<!DOCTYPE svg PUBLIC "-//W3C//DTD SVG 1.1//EN" "http://www.w3.org/Graphics/SVG/1.1/DTD/svg11.dtd">
<svg version="1.1" xmlns="http://www.w3.org/2000/svg" xmlns:xlink="http://www.w3.org/1999/xlink" width="32" height="32" viewBox="0 0 32 32">
	<path d="M29 10h-7v-4c0-1.1-0.9-2-2-2h-8c-1.1 0-2 0.9-2 2v4h-7c-1.65 0-3 1.35-3 3v14c0 1.65 1.35 3 3 3h26c1.65 0 3-1.35 3-3v-14c0-1.65-1.35-3-3-3zM12 6.004c0.001-0.001 0.002-0.003 0.004-0.004h7.993c0.001 0.001 0.003 0.002 0.004 0.004v3.996h-8v-3.996z" />
</svg>
