<?xml version="1.0" encoding="utf-8"?>
<!-- Generated by IcoMoon.io -->
<!DOCTYPE svg PUBLIC "-//W3C//DTD SVG 1.1//EN" "http://www.w3.org/Graphics/SVG/1.1/DTD/svg11.dtd">
<svg version="1.1" xmlns="http://www.w3.org/2000/svg" xmlns:xlink="http://www.w3.org/1999/xlink" width="32" height="32" viewBox="0 0 32 32">
	<path d="M16 13.188c-1.551 0-2.813 1.262-2.813 2.813s1.262 2.813 2.813 2.813c1.551 0 2.813-1.262 2.813-2.813 0-1.551-1.262-2.813-2.813-2.813zM16 10v0c3.314 0 6 2.686 6 6s-2.686 6-6 6c-3.314 0-6-2.686-6-6 0-3.314 2.686-6 6-6zM27.414 24.586c0.781 0.781 0.781 2.047 0 2.828-0.781 0.781-2.047 0.781-2.828 0l-2-2c-0.781-0.781-0.781-2.047 0-2.828 0.781-0.781 2.047-0.781 2.828 0l2 2zM9.414 6.586c0.781 0.781 0.781 2.047 0 2.828-0.781 0.781-2.047 0.781-2.828 0l-2-2c-0.781-0.781-0.781-2.047 0-2.828 0.781-0.781 2.047-0.781 2.828 0l2 2zM24.586 4.586c0.781-0.781 2.047-0.781 2.828 0 0.781 0.781 0.781 2.047 0 2.828l-2 2c-0.781 0.781-2.047 0.781-2.828 0-0.781-0.781-0.781-2.047 0-2.828l2-2zM6.586 22.586c0.781-0.781 2.047-0.781 2.828 0 0.781 0.781 0.781 2.047 0 2.828l-2 2c-0.781 0.781-2.047 0.781-2.828 0-0.781-0.781-0.781-2.047 0-2.828l2-2zM16 2c1.105 0 2 0.895 2 2v2c0 1.105-0.895 2-2 2s-2-0.895-2-2v-2c0-1.105 0.895-2 2-2zM16 24c1.105 0 2 0.895 2 2v2c0 1.105-0.895 2-2 2s-2-0.895-2-2v-2c0-1.105 0.895-2 2-2zM2 16c0-1.105 0.895-2 2-2h2c1.105 0 2 0.895 2 2 0 1.105-0.895 2-2 2h-2c-1.105 0-2-0.895-2-2zM24 16c0-1.105 0.895-2 2-2h2c1.105 0 2 0.895 2 2s-0.895 2-2 2h-2c-1.105 0-2-0.895-2-2z" />
</svg>
