<?xml version="1.0" encoding="utf-8"?>
<!-- Generated by IcoMoon.io -->
<!DOCTYPE svg PUBLIC "-//W3C//DTD SVG 1.1//EN" "http://www.w3.org/Graphics/SVG/1.1/DTD/svg11.dtd">
<svg version="1.1" xmlns="http://www.w3.org/2000/svg" xmlns:xlink="http://www.w3.org/1999/xlink" width="32" height="32" viewBox="0 0 32 32">
	<path d="M29 0h-26c-1.65 0-3 1.35-3 3v18c0 1.65 1.35 3 3 3h5v8l9.6-8h11.4c1.65 0 3-1.35 3-3v-18c0-1.65-1.35-3-3-3zM14 8.462c-1.864 0.428-3.449 1.75-4.405 3.559 0.133-0.013 0.269-0.020 0.405-0.020 2.209 0 4 1.791 4 4 0 2.209-1.791 4-4 4s-4-1.791-4-4c0-2.726 0.95-5.296 2.675-7.236 1.453-1.635 3.309-2.663 5.325-2.975v2.673zM26 8.462c-1.864 0.428-3.449 1.75-4.405 3.559 0.133-0.013 0.269-0.020 0.405-0.020 2.209 0 4 1.791 4 4 0 2.209-1.791 4-4 4s-4-1.791-4-4c0-2.726 0.95-5.296 2.675-7.236 1.453-1.635 3.309-2.663 5.325-2.975v2.673z" />
</svg>
