<?xml version="1.0" encoding="utf-8"?>
<!-- Generated by IcoMoon.io -->
<!DOCTYPE svg PUBLIC "-//W3C//DTD SVG 1.1//EN" "http://www.w3.org/Graphics/SVG/1.1/DTD/svg11.dtd">
<svg version="1.1" xmlns="http://www.w3.org/2000/svg" xmlns:xlink="http://www.w3.org/1999/xlink" width="32" height="32" viewBox="0 0 32 32">
	<path d="M29 0h-26c-1.65 0-3 1.35-3 3v18c0 1.65 1.35 3 3 3h5v8l9.6-8h11.4c1.65 0 3-1.35 3-3v-18c0-1.65-1.35-3-3-3zM26 16c0 1.1-0.72 1.46-1.6 0.8l-4.4-4.8v4c0 1.1-0.9 2-2 2h-10c-1.1 0-2-0.9-2-2v-8c0-1.1 0.9-2 2-2h10c1.1 0 2 0.9 2 2v4l4.4-4.8c0.88-0.66 1.6-0.3 1.6 0.8v8z" />
</svg>
