<?xml version="1.0" encoding="utf-8"?>
<!-- Generated by IcoMoon.io -->
<!DOCTYPE svg PUBLIC "-//W3C//DTD SVG 1.1//EN" "http://www.w3.org/Graphics/SVG/1.1/DTD/svg11.dtd">
<svg version="1.1" xmlns="http://www.w3.org/2000/svg" xmlns:xlink="http://www.w3.org/1999/xlink" width="32" height="32" viewBox="0 0 32 32">
	<path d="M26.125 2h-20.25c-3.231 0-5.875 2.644-5.875 5.875v22.125l6-6h20.125c3.231 0 5.875-2.644 5.875-5.875v-10.25c0-3.231-2.644-5.875-5.875-5.875zM28 18.125c0 1.016-0.859 1.875-1.875 1.875h-22.125v-12.125c0-1.016 0.859-1.875 1.875-1.875h20.25c1.016 0 1.875 0.859 1.875 1.875v10.25zM8 10h16v2h-16zM8 14h12v2h-12z" />
</svg>
