<?xml version="1.0" encoding="utf-8"?>
<!-- Generated by IcoMoon.io -->
<!DOCTYPE svg PUBLIC "-//W3C//DTD SVG 1.1//EN" "http://www.w3.org/Graphics/SVG/1.1/DTD/svg11.dtd">
<svg version="1.1" xmlns="http://www.w3.org/2000/svg" xmlns:xlink="http://www.w3.org/1999/xlink" width="32" height="32" viewBox="0 0 32 32">
	<path d="M29 0h-26c-1.65 0-3 1.35-3 3v18c0 1.65 1.35 3 3 3h5v8l9.6-8h11.4c1.65 0 3-1.35 3-3v-18c0-1.65-1.35-3-3-3zM28 10c0 2.2-1.8 4-4 4h-14c-1.1 0-2-0.9-2-2v-2c0-1.1 0.9-2 2-2h11c0.552 0 1 0.448 1 1s-0.448 1-1 1h-10.996c-0.001 0.001-0.003 0.002-0.004 0.004v1.993c0.001 0.001 0.002 0.003 0.004 0.004h13.996c0.53 0 1.031-0.209 1.411-0.589 0.38-0.38 0.589-0.881 0.589-1.411v-2c0-0.53-0.209-1.031-0.589-1.411-0.38-0.38-0.881-0.589-1.411-0.589h-16c-0.53 0-1.031 0.209-1.411 0.589-0.38 0.38-0.589 0.881-0.589 1.411v6c0 0.53 0.209 1.031 0.589 1.411 0.38 0.38 0.881 0.589 1.411 0.589h13c0.552 0 1 0.448 1 1s-0.448 1-1 1h-13c-2.2 0-4-1.8-4-4v-6c0-2.2 1.8-4 4-4h16c2.2 0 4 1.8 4 4v2z" />
</svg>
