<?xml version="1.0" encoding="utf-8"?>
<!-- Generated by IcoMoon.io -->
<!DOCTYPE svg PUBLIC "-//W3C//DTD SVG 1.1//EN" "http://www.w3.org/Graphics/SVG/1.1/DTD/svg11.dtd">
<svg version="1.1" xmlns="http://www.w3.org/2000/svg" xmlns:xlink="http://www.w3.org/1999/xlink" width="32" height="32" viewBox="0 0 32 32">
	<path d="M29 0h-26c-1.65 0-3 1.35-3 3v18c0 1.65 1.35 3 3 3h5v8l9.6-8h11.4c1.65 0 3-1.35 3-3v-18c0-1.65-1.35-3-3-3zM16 18c0 0-8-3.82-8-8.25 0-0.062 0.002-0.121 0.005-0.179 0-0.007 0.001-0.013 0.001-0.020 0.002-0.042 0.006-0.083 0.010-0.123 0.174-1.92 1.891-3.428 3.984-3.428 2.209 0 4 2.429 4 4.5 0-2.071 1.791-4.5 4-4.5 2.093 0 3.81 1.508 3.984 3.428 0.004 0.040 0.008 0.081 0.010 0.123 0 0.007 0.001 0.013 0.001 0.020 0.003 0.058 0.005 0.118 0.005 0.179 0 4.43-8 8.25-8 8.25z" />
</svg>
