<?xml version="1.0" encoding="utf-8"?>
<!-- Generated by IcoMoon.io -->
<!DOCTYPE svg PUBLIC "-//W3C//DTD SVG 1.1//EN" "http://www.w3.org/Graphics/SVG/1.1/DTD/svg11.dtd">
<svg version="1.1" xmlns="http://www.w3.org/2000/svg" xmlns:xlink="http://www.w3.org/1999/xlink" width="32" height="32" viewBox="0 0 32 32">
	<path d="M16 0c-8.837 0-16 5.82-16 13 0 4.080 2.314 7.72 5.932 10.103 0.044 0.293 0.068 0.592 0.068 0.897 0 2.184-1.858 4.096-4 5.145v0.841c3.966-0.090 8.069-0.707 11.505-4.144 0.813 0.104 1.646 0.158 2.495 0.158 8.837 0 16-5.82 16-13 0-7.18-7.163-13-16-13zM18 20h-4v-4h4v4zM18 12h-4v-8h4v8z" />
</svg>
