<?xml version="1.0" encoding="utf-8"?>
<!-- Generated by IcoMoon.io -->
<!DOCTYPE svg PUBLIC "-//W3C//DTD SVG 1.1//EN" "http://www.w3.org/Graphics/SVG/1.1/DTD/svg11.dtd">
<svg version="1.1" xmlns="http://www.w3.org/2000/svg" xmlns:xlink="http://www.w3.org/1999/xlink" width="32" height="32" viewBox="0 0 32 32">
	<path d="M29 0h-26c-1.65 0-3 1.35-3 3v18c0 1.65 1.35 3 3 3h5v8l9.6-8h11.4c1.65 0 3-1.35 3-3v-18c0-1.65-1.35-3-3-3zM14 14v6l-6.75-6c-1.25-1.111-1.25-1.719-1.25-2s0-0.889 1.25-2l6.75-6v5.785c3.055 0.619 6.039-0.084 7.973-2.184 0.9-0.977 1.478-2.155 1.754-3.438 0.173 0.59 0.265 1.205 0.265 1.837 0 4.418-4.474 8-9.992 8z" />
</svg>
