<?xml version="1.0" encoding="utf-8"?>
<!-- Generated by IcoMoon.io -->
<!DOCTYPE svg PUBLIC "-//W3C//DTD SVG 1.1//EN" "http://www.w3.org/Graphics/SVG/1.1/DTD/svg11.dtd">
<svg version="1.1" xmlns="http://www.w3.org/2000/svg" xmlns:xlink="http://www.w3.org/1999/xlink" width="32" height="32" viewBox="0 0 32 32">
	<path d="M16 5.969c2.223 0 4.031 1.808 4.031 4.031h-8.063c0-2.223 1.808-4.031 4.031-4.031zM29 0h-26c-1.65 0-3 1.35-3 3v18c0 1.65 1.35 3 3 3h5v8l9.6-8h11.4c1.65 0 3-1.35 3-3v-18c0-1.65-1.35-3-3-3zM24 19c0 0.55-0.45 1-1 1h-14c-0.55 0-1-0.45-1-1v-8c0-0.55 0.45-1 1-1h0.969c0-3.331 2.7-6.031 6.031-6.031 3.331 0 6.031 2.7 6.031 6.031h0.969c0.55 0 1 0.45 1 1v8zM14 16c0-1.105 0.895-2 2-2s2 0.895 2 2c0 1.105-0.895 2-2 2-1.105 0-2-0.895-2-2z" />
</svg>
