<?xml version="1.0" encoding="utf-8"?>
<!-- Generated by IcoMoon.io -->
<!DOCTYPE svg PUBLIC "-//W3C//DTD SVG 1.1//EN" "http://www.w3.org/Graphics/SVG/1.1/DTD/svg11.dtd">
<svg version="1.1" xmlns="http://www.w3.org/2000/svg" xmlns:xlink="http://www.w3.org/1999/xlink" width="32" height="32" viewBox="0 0 32 32">
	<path d="M29 6h-20c-1.65 0-3 1.35-3 3v14c0 1.65 1.35 3 3 3h4.857l5.143 6 5.143-6h4.857c1.65 0 3-1.35 3-3v-14c0-1.65-1.35-3-3-3zM28 22h-4.697l-4.303 4.854-4.303-4.854h-4.697v-12h18v12zM4 4v16h-1c-1.65 0-3-1.35-3-3v-14c0-1.65 1.35-3 3-3h20c1.65 0 3 1.35 3 3v1h-22z" />
</svg>
