<?xml version="1.0" encoding="utf-8"?>
<!-- Generated by IcoMoon.io -->
<!DOCTYPE svg PUBLIC "-//W3C//DTD SVG 1.1//EN" "http://www.w3.org/Graphics/SVG/1.1/DTD/svg11.dtd">
<svg version="1.1" xmlns="http://www.w3.org/2000/svg" xmlns:xlink="http://www.w3.org/1999/xlink" width="36" height="32" viewBox="0 0 36 32">
	<path d="M32 6c2.2 0 4 1.8 4 4v22l-6-6h-18c-2.2 0-4-1.8-4-4v-2h4v1.993c0.002 0.002 0.005 0.005 0.007 0.007h19.993v-11.993c-0.002-0.002-0.005-0.005-0.007-0.007h-1.993v-4h2zM24 0h-20c-2.2 0-4 1.8-4 4v20l6-6h18c2.2 0 4-1.8 4-4v-10c0-2.2-1.8-4-4-4zM24 13.993c-0.002 0.002-0.005 0.005-0.007 0.007h-19.993v-9.993c0.002-0.003 0.005-0.005 0.007-0.007h19.986c0.002 0.002 0.005 0.005 0.007 0.007v9.986z" />
</svg>
