<?xml version="1.0" encoding="utf-8"?>
<!-- Generated by IcoMoon.io -->
<!DOCTYPE svg PUBLIC "-//W3C//DTD SVG 1.1//EN" "http://www.w3.org/Graphics/SVG/1.1/DTD/svg11.dtd">
<svg version="1.1" xmlns="http://www.w3.org/2000/svg" xmlns:xlink="http://www.w3.org/1999/xlink" width="32" height="32" viewBox="0 0 32 32">
	<path d="M16 6.375c1.122 0 2.168 0.33 3.047 0.899l-7.773 7.773c-0.568-0.879-0.899-1.925-0.899-3.047 0-3.102 2.523-5.625 5.625-5.625zM12.953 16.726l7.773-7.773c0.568 0.879 0.899 1.925 0.899 3.047 0 3.102-2.523 5.625-5.625 5.625-1.122 0-2.168-0.33-3.047-0.899zM29 0h-26c-1.65 0-3 1.35-3 3v18c0 1.65 1.35 3 3 3h5v8l9.6-8h11.4c1.65 0 3-1.35 3-3v-18c0-1.65-1.35-3-3-3zM16 20c-4.418 0-8-3.582-8-8s3.582-8 8-8 8 3.582 8 8-3.582 8-8 8z" />
</svg>
