<?xml version="1.0" encoding="utf-8"?>
<!-- Generated by IcoMoon.io -->
<!DOCTYPE svg PUBLIC "-//W3C//DTD SVG 1.1//EN" "http://www.w3.org/Graphics/SVG/1.1/DTD/svg11.dtd">
<svg version="1.1" xmlns="http://www.w3.org/2000/svg" xmlns:xlink="http://www.w3.org/1999/xlink" width="32" height="32" viewBox="0 0 32 32">
	<path d="M30 10l2-4v-4l-3 6h-3.556c-0.267-0.293-0.66-0.573-1.233-0.894l-4.422-2.211c-0.984-0.492-2.689-0.894-3.789-0.894-1.1 0-2.805 0.402-3.789 0.895l-4.422 2.211c-0.574 0.321-0.966 0.601-1.233 0.894h-3.555l-3-6v4l2 4h4v4l-6 2v2l6-2v6h-2l-4 10h2l3.2-8h1.045c0.278 0.78 0.765 1.542 1.317 1.983l6.876 5.501c0.43 0.344 0.996 0.515 1.562 0.515 0.566 0 1.132-0.172 1.562-0.515l6.876-5.501c0.552-0.442 1.039-1.203 1.317-1.983h1.045l3.2 8h2l-4-10h-2v-6l6 2v-2l-6-2v-4h4zM17 28h-2v-20h2v20zM20 3.889v-1.889c0-1.1-0.9-2-2-2h-4c-1.1 0-2 0.9-2 2v1.889c1.133-0.507 2.83-0.889 4-0.889 1.17 0 2.867 0.382 4 0.889z" />
</svg>
