<?xml version="1.0" encoding="utf-8"?>
<!-- Generated by IcoMoon.io -->
<!DOCTYPE svg PUBLIC "-//W3C//DTD SVG 1.1//EN" "http://www.w3.org/Graphics/SVG/1.1/DTD/svg11.dtd">
<svg version="1.1" xmlns="http://www.w3.org/2000/svg" xmlns:xlink="http://www.w3.org/1999/xlink" width="32" height="32" viewBox="0 0 32 32">
	<path d="M21.677 19.649c-2.338-1.521-3.677-2.375-3.677-3.649 0-1.274 1.339-2.127 3.677-3.649 3.764-2.365 6.323-7.009 6.323-12.351h-24c0 5.342 2.559 9.986 6.323 12.351 2.337 1.521 3.677 2.375 3.677 3.649 0 1.274-1.339 2.127-3.677 3.649-3.764 2.365-6.323 7.009-6.323 12.351h24c0-5.342-2.559-9.986-6.323-12.351zM8.113 6.057c-0.548-1.050-0.947-2.194-1.186-3.39h18.144c-0.238 1.196-0.637 2.341-1.186 3.39-0.368 0.705-0.798 1.356-1.279 1.943h-13.215c-0.481-0.587-0.911-1.238-1.279-1.943zM15.5 23.926c0 1.361-5.5 3.408-5.5 5.408h-3.072c0.238-1.196 0.637-2.341 1.185-3.39 0.894-1.711 2.149-3.107 3.629-4.036l0.018-0.011 0.018-0.012 0.097-0.063c1.46-0.95 2.752-1.791 3.626-2.798v4.903zM25.072 29.333h-3.072c0-2-5.5-4.046-5.5-5.408v-4.902c0.874 1.006 2.166 1.848 3.626 2.798l0.114 0.075 0.018 0.011c1.48 0.93 2.734 2.325 3.629 4.036 0.549 1.049 0.947 2.194 1.186 3.39z" />
</svg>
