<?xml version="1.0" encoding="utf-8"?>
<!-- Generated by IcoMoon.io -->
<!DOCTYPE svg PUBLIC "-//W3C//DTD SVG 1.1//EN" "http://www.w3.org/Graphics/SVG/1.1/DTD/svg11.dtd">
<svg version="1.1" xmlns="http://www.w3.org/2000/svg" xmlns:xlink="http://www.w3.org/1999/xlink" width="32" height="32" viewBox="0 0 32 32">
	<path d="M11.877 19.064c-2.981 1.621-5.181 4.944-5.739 8.936h19.723c-0.558-3.992-2.759-7.316-5.739-8.936-2.122-1.509-2.122-2.231-2.122-3.064s0-1.555 2.122-3.064c2.98-1.62 5.181-4.944 5.739-8.936h-19.723c0.558 3.992 2.759 7.316 5.739 8.936 2.122 1.509 2.123 2.231 2.123 3.064s-0.001 1.555-2.123 3.064zM4 30h24v2h-24zM4 0h24v2h-24z" />
</svg>
