<?xml version="1.0" encoding="utf-8"?>
<!-- Generated by IcoMoon.io -->
<!DOCTYPE svg PUBLIC "-//W3C//DTD SVG 1.1//EN" "http://www.w3.org/Graphics/SVG/1.1/DTD/svg11.dtd">
<svg version="1.1" xmlns="http://www.w3.org/2000/svg" xmlns:xlink="http://www.w3.org/1999/xlink" width="32" height="32" viewBox="0 0 32 32">
	<path d="M18 10.039v-3.039c0-0.55-0.45-1-1-1h-2c-0.55 0-1 0.45-1 1v3.039c-7.893 0.308-14 2.411-14 4.961v12c0 2.761 7.163 5 16 5s16-2.239 16-5v-12c0-2.55-6.107-4.654-14-4.961zM3.344 14.55c0.759-0.398 1.797-0.775 3.003-1.090 2.17-0.567 4.833-0.927 7.653-1.043v2.584c0 0.55 0.45 1 1 1h2c0.55 0 1-0.45 1-1v-2.584c2.82 0.116 5.483 0.477 7.653 1.043 1.206 0.315 2.244 0.692 3.003 1.090 0.335 0.176 0.566 0.329 0.724 0.45-0.158 0.121-0.389 0.275-0.724 0.45-0.759 0.398-1.797 0.776-3.003 1.090-2.678 0.699-6.106 1.084-9.653 1.084s-6.975-0.385-9.653-1.084c-1.206-0.315-2.244-0.692-3.003-1.090-0.335-0.176-0.566-0.329-0.724-0.45 0.158-0.121 0.389-0.275 0.724-0.45zM30 23.859c-2.729 1.537-7.975 2.578-14 2.578s-11.271-1.041-14-2.578v-2.813c2.729 1.537 7.975 2.578 14 2.578s11.271-1.041 14-2.578v2.813zM16 5c-1.105 0-2-0.895-2-2 0-0.039 0.001-0.078 0.004-0.116 0.076-1.922 1.996-2.884 1.996-2.884 0 0 1.921 0.962 1.996 2.884 0.002 0.038 0.004 0.077 0.004 0.116 0 1.105-0.895 2-2 2z" />
</svg>
