<?xml version="1.0" encoding="utf-8"?>
<!-- Generated by IcoMoon.io -->
<!DOCTYPE svg PUBLIC "-//W3C//DTD SVG 1.1//EN" "http://www.w3.org/Graphics/SVG/1.1/DTD/svg11.dtd">
<svg version="1.1" xmlns="http://www.w3.org/2000/svg" xmlns:xlink="http://www.w3.org/1999/xlink" width="32" height="32" viewBox="0 0 32 32">
	<path d="M24 0h-16c-1.1 0-2 0.9-2 2v28c0 1.1 0.9 2 2 2h16c1.1 0 2-0.9 2-2v-28c0-1.1-0.9-2-2-2zM12 30h-4v-4h4v4zM12 24h-4v-4h4v4zM12 18h-4v-4h4v4zM18 30h-4v-4h4v4zM18 24h-4v-4h4v4zM18 18h-4v-4h4v4zM24 30h-4v-4h4v4zM24 24h-4v-4h4v4zM24 18h-4v-4h4v4zM24 12h-16v-10h16v10z" />
</svg>
