<?xml version="1.0" encoding="utf-8"?>
<!-- Generated by IcoMoon.io -->
<!DOCTYPE svg PUBLIC "-//W3C//DTD SVG 1.1//EN" "http://www.w3.org/Graphics/SVG/1.1/DTD/svg11.dtd">
<svg version="1.1" xmlns="http://www.w3.org/2000/svg" xmlns:xlink="http://www.w3.org/1999/xlink" width="32" height="32" viewBox="0 0 32 32">
	<path d="M28 4h-3v1c0 1.103-0.897 2-2 2s-2-0.897-2-2v-1h-10v1c0 1.103-0.897 2-2 2s-2-0.897-2-2v-1h-3c-1.1 0-2 0.9-2 2v22c0 1.1 0.9 2 2 2h24c1.1 0 2-0.9 2-2v-22c0-1.1-0.9-2-2-2zM28 27.996c-0.001 0.001-0.002 0.003-0.004 0.004h-23.993c-0.001-0.001-0.003-0.002-0.004-0.004v-17.996h24v17.996zM9 6c0.552 0 1-0.448 1-1v-4c0-0.552-0.448-1-1-1s-1 0.448-1 1v4c0 0.552 0.448 1 1 1zM23 6c0.552 0 1-0.448 1-1v-4c0-0.552-0.448-1-1-1s-1 0.448-1 1v4c0 0.552 0.448 1 1 1zM18 12h-10v2h8v4h-8v2h8v4h-8v2h10zM22 26h2v-14h-4v2h2zM27.25 30.75h-22.5c-1.1 0-2-0.65-2-1.75v1c0 1.1 0.9 2 2 2h22.5c1.1 0 2-0.9 2-2v-1c0 1.1-0.9 1.75-2 1.75z" />
</svg>
