<?xml version="1.0" encoding="utf-8"?>
<!-- Generated by IcoMoon.io -->
<!DOCTYPE svg PUBLIC "-//W3C//DTD SVG 1.1//EN" "http://www.w3.org/Graphics/SVG/1.1/DTD/svg11.dtd">
<svg version="1.1" xmlns="http://www.w3.org/2000/svg" xmlns:xlink="http://www.w3.org/1999/xlink" width="32" height="32" viewBox="0 0 32 32">
	<path d="M0 30c0 1.105 0.895 2 2 2h28c1.105 0 2-0.895 2-2v-18h-32v18zM22 14h8v4h-8v-4zM22 20h8v4h-8v-4zM22 26h8v4h-8v-4zM12 14h8v4h-8v-4zM12 20h8v4h-8v-4zM12 26h8v4h-8v-4zM2 14h8v4h-8v-4zM2 20h8v4h-8v-4zM2 26h8v4h-8v-4zM30 4h-4v-2.857c0-0.631-0.448-1.143-1-1.143-0.552 0-1 0.512-1 1.143v2.857h-16v-2.857c0-0.631-0.448-1.143-1-1.143s-1 0.512-1 1.143v2.857h-4c-1.105 0-2 0.895-2 2v4h32v-4c0-1.105-0.895-2-2-2zM7 9c-1.105 0-2-0.895-2-2 0-0.74 0.402-1.386 1-1.732v1.732c0 0.552 0.448 1 1 1s1-0.448 1-1v-1.732c0.598 0.346 1 0.992 1 1.732 0 1.105-0.895 2-2 2zM25 9c-1.105 0-2-0.895-2-2 0-0.74 0.402-1.386 1-1.732v1.732c0 0.552 0.448 1 1 1 0.552 0 1-0.448 1-1v-1.732c0.598 0.346 1 0.992 1 1.732 0 1.105-0.895 2-2 2z" />
</svg>
