<?xml version="1.0" encoding="utf-8"?>
<!-- Generated by IcoMoon.io -->
<!DOCTYPE svg PUBLIC "-//W3C//DTD SVG 1.1//EN" "http://www.w3.org/Graphics/SVG/1.1/DTD/svg11.dtd">
<svg version="1.1" xmlns="http://www.w3.org/2000/svg" xmlns:xlink="http://www.w3.org/1999/xlink" width="32" height="32" viewBox="0 0 32 32">
	<path d="M4 10h2v2h-2zM8 10h2v2h-2zM12 10h2v2h-2zM16 10h2v2h-2zM20 10h2v2h-2zM24 10h2v2h-2zM4 14h2v2h-2zM8 14h2v2h-2zM12 14h2v2h-2zM16 14h2v2h-2zM20 14h2v2h-2zM24 14h2v2h-2zM4 18h2v2h-2zM8 18h2v2h-2zM12 18h2v2h-2zM16 18h2v2h-2zM20 18h2v2h-2zM24 18h2v2h-2zM4 22h2v2h-2zM8 22h2v2h-2zM12 22h2v2h-2zM16 22h2v2h-2zM20 22h2v2h-2zM24 22h2v2h-2zM4 26h2v2h-2zM8 26h2v2h-2zM12 26h2v2h-2zM16 26h2v2h-2zM20 26h2v2h-2zM24 26h2v2h-2zM26 2v-2h-4v4h-2v-2h-10v2h-2v-4h-4v2h-4v30h30v-30h-4zM28 30h-26v-22h26v22z" />
</svg>
