<?xml version="1.0" encoding="utf-8"?>
<!-- Generated by IcoMoon.io -->
<!DOCTYPE svg PUBLIC "-//W3C//DTD SVG 1.1//EN" "http://www.w3.org/Graphics/SVG/1.1/DTD/svg11.dtd">
<svg version="1.1" xmlns="http://www.w3.org/2000/svg" xmlns:xlink="http://www.w3.org/1999/xlink" width="32" height="32" viewBox="0 0 32 32">
	<path d="M26 6h-2v4h-6v-4h-6v4h-6v-4h-2c-1.1 0-2 0.9-2 2v22c0 1.1 0.9 2 2 2h22c1.1 0 2-0.9 2-2v-22c0-1.1-0.9-2-2-2zM8 30h-3.996c-0.001-0.001-0.003-0.002-0.004-0.004v-3.996h4v4zM8 24h-4v-4h4v4zM8 18h-4v-4h4v4zM14 30h-4v-4h4v4zM14 24h-4v-4h4v4zM14 18h-4v-4h4v4zM20 30h-4v-4h4v4zM20 24h-4v-4h4v4zM20 18h-4v-4h4v4zM26 29.996c-0.001 0.001-0.002 0.003-0.004 0.004h-3.996v-4h4v3.996zM26 24h-4v-4h4v4zM26 18h-4v-4h4v4zM10 4c0-0.552-0.448-1-1-1s-1 0.448-1 1v4h2v-4zM22 4c0-0.552-0.448-1-1-1s-1 0.448-1 1v4h2v-4z" />
</svg>
