<?xml version="1.0" encoding="utf-8"?>
<!-- Generated by IcoMoon.io -->
<!DOCTYPE svg PUBLIC "-//W3C//DTD SVG 1.1//EN" "http://www.w3.org/Graphics/SVG/1.1/DTD/svg11.dtd">
<svg version="1.1" xmlns="http://www.w3.org/2000/svg" xmlns:xlink="http://www.w3.org/1999/xlink" width="32" height="32" viewBox="0 0 32 32">
	<path d="M22 20c2-2 8 4 8 6s-6 6-6 6c-4 0-12.109-4.109-16-8-3.891-3.891-8-12-8-16 0 0 4-6 6-6 2 0 8 6 6 8-2 2-4 2-4 4 0 2 2 4 4 6 2 2 4 4 6 4 2 0 2-2 4-4zM16 16v-11l4.086 4.086 5.086-5.086h2.828v2.828l-5.086 5.086 4.086 4.086z" />
</svg>
