<?xml version="1.0" encoding="utf-8"?>
<!-- Generated by IcoMoon.io -->
<!DOCTYPE svg PUBLIC "-//W3C//DTD SVG 1.1//EN" "http://www.w3.org/Graphics/SVG/1.1/DTD/svg11.dtd">
<svg version="1.1" xmlns="http://www.w3.org/2000/svg" xmlns:xlink="http://www.w3.org/1999/xlink" width="32" height="32" viewBox="0 0 32 32">
	<path d="M18.223 26h-12.438c-2.087 0-3.786-1.645-3.786-3.667v-10.667c0-2.022 1.698-3.667 3.786-3.667h12.438c2.087 0 3.786 1.645 3.786 3.667v1.356l4.349-3.767c0.599-0.568 1.207-0.856 1.805-0.856 0.848 0 1.837 0.623 1.837 2.377v12.444c0 0.63-0.129 1.154-0.383 1.558-0.328 0.521-0.858 0.819-1.454 0.819-0 0-0 0-0 0-0.598-0-1.205-0.288-1.805-0.855l-4.349-3.767v1.356c0 2.022-1.698 3.667-3.786 3.667zM5.786 10c-0.985 0-1.786 0.748-1.786 1.667v10.667c0 0.919 0.801 1.667 1.786 1.667h12.438c0.985 0 1.786-0.748 1.786-1.667v-3.563c0-0.411 0.252-0.781 0.635-0.931 0.383-0.15 0.819-0.051 1.098 0.25 0.020 0.022 0.039 0.041 0.056 0.059l5.887 5.099c0.012 0.011 0.025 0.022 0.037 0.034 0.101 0.097 0.189 0.167 0.261 0.216 0.010-0.072 0.017-0.163 0.017-0.275v-12.444c0-0.111-0.007-0.202-0.017-0.274-0.072 0.049-0.159 0.119-0.261 0.216-0.012 0.011-0.024 0.023-0.037 0.034l-5.887 5.099c-0.017 0.017-0.036 0.036-0.057 0.059-0.28 0.301-0.715 0.4-1.098 0.25-0.383-0.15-0.634-0.52-0.634-0.931v-3.563c0-0.919-0.801-1.667-1.786-1.667h-12.438z" />
</svg>
