<?xml version="1.0" encoding="utf-8"?>
<!-- Generated by IcoMoon.io -->
<!DOCTYPE svg PUBLIC "-//W3C//DTD SVG 1.1//EN" "http://www.w3.org/Graphics/SVG/1.1/DTD/svg11.dtd">
<svg version="1.1" xmlns="http://www.w3.org/2000/svg" xmlns:xlink="http://www.w3.org/1999/xlink" width="32" height="32" viewBox="0 0 32 32">
	<path d="M30.589 8.008c-0.331 0-0.671 0.116-0.982 0.336l-5.606 3.957v-3.301c0-1.65-1.35-3-3-3h-18c-1.65 0-3 1.35-3 3v14c0 1.65 1.35 3 3 3h18c1.65 0 3-1.35 3-3v-3.301l5.606 3.957c0.312 0.22 0.651 0.336 0.982 0.336 0 0 0 0 0 0 0.44 0 0.842-0.203 1.103-0.557 0.202-0.274 0.308-0.627 0.308-1.020v-12.831c-0-1.035-0.71-1.577-1.411-1.577z" />
</svg>
