<?xml version="1.0" encoding="utf-8"?>
<!-- Generated by IcoMoon.io -->
<!DOCTYPE svg PUBLIC "-//W3C//DTD SVG 1.1//EN" "http://www.w3.org/Graphics/SVG/1.1/DTD/svg11.dtd">
<svg version="1.1" xmlns="http://www.w3.org/2000/svg" xmlns:xlink="http://www.w3.org/1999/xlink" width="32" height="32" viewBox="0 0 32 32">
	<path d="M16 13.5c2.929 0 5.313 2.467 5.313 5.5s-2.383 5.5-5.313 5.5c-2.929 0-5.313-2.467-5.313-5.5 0-3.033 2.383-5.5 5.313-5.5zM30 6h-6l-1.011-2.545c-0.2-0.8-1.039-1.455-1.864-1.455h-10.25c-0.825 0-1.664 0.655-1.864 1.455l-1.011 2.545h-6c-1.1 0-2 0.9-2 2v22c0 1.1 0.9 2 2 2h28c1.1 0 2-0.9 2-2v-22c0-1.1-0.9-2-2-2zM16 27.5c-4.584 0-8.313-3.813-8.313-8.5 0-4.687 3.729-8.5 8.313-8.5 4.584 0 8.313 3.813 8.313 8.5 0 4.687-3.729 8.5-8.313 8.5z" />
</svg>
