<?xml version="1.0" encoding="utf-8"?>
<!-- Generated by IcoMoon.io -->
<!DOCTYPE svg PUBLIC "-//W3C//DTD SVG 1.1//EN" "http://www.w3.org/Graphics/SVG/1.1/DTD/svg11.dtd">
<svg version="1.1" xmlns="http://www.w3.org/2000/svg" xmlns:xlink="http://www.w3.org/1999/xlink" width="32" height="32" viewBox="0 0 32 32">
	<path d="M26 2h-20c-2.2 0-4 1.8-4 4v20c0 2.2 1.8 4 4 4h20c2.2 0 4-1.8 4-4v-20c0-2.2-1.8-4-4-4zM21 18c0 2.757-2.243 5-5 5s-5-2.243-5-5c0-1.634 0.788-3.087 2.003-4h5.993c1.216 0.913 2.003 2.366 2.003 4zM10 6h2v4h-2v-4zM6 6h2v4h-2v-4zM26 25.993c-0.002 0.002-0.005 0.005-0.007 0.007h-19.986c-0.003-0.002-0.005-0.005-0.007-0.007v-11.993h3.071c-0.681 1.177-1.070 2.543-1.070 4 0 4.418 3.582 8 8 8s8-3.582 8-8c0-1.457-0.39-2.823-1.070-4h3.070v11.993z" />
</svg>
