<?xml version="1.0" encoding="utf-8"?>
<!-- Generated by IcoMoon.io -->
<!DOCTYPE svg PUBLIC "-//W3C//DTD SVG 1.1//EN" "http://www.w3.org/Graphics/SVG/1.1/DTD/svg11.dtd">
<svg version="1.1" xmlns="http://www.w3.org/2000/svg" xmlns:xlink="http://www.w3.org/1999/xlink" width="32" height="32" viewBox="0 0 32 32">
	<path d="M23 0h-14l-9 9v14l9 9h14l9-9v-14l-9-9zM24.556 23l-1.556 1.556c-0.428 0.428-1.128 0.428-1.556 0l-5.445-5.445-5.445 5.445c-0.428 0.428-1.128 0.428-1.556 0l-1.556-1.556c-0.428-0.428-0.428-1.128 0-1.556l5.445-5.445-5.445-5.445c-0.428-0.428-0.428-1.128 0-1.556l1.556-1.556c0.428-0.428 1.128-0.428 1.556 0l5.445 5.445 5.445-5.445c0.428-0.428 1.128-0.428 1.556 0l1.556 1.556c0.428 0.428 0.428 1.128 0 1.556l-5.445 5.445 5.445 5.445c0.428 0.428 0.428 1.128 0 1.556zM32 23" />
</svg>
