<?xml version="1.0" encoding="utf-8"?>
<!-- Generated by IcoMoon.io -->
<!DOCTYPE svg PUBLIC "-//W3C//DTD SVG 1.1//EN" "http://www.w3.org/Graphics/SVG/1.1/DTD/svg11.dtd">
<svg version="1.1" xmlns="http://www.w3.org/2000/svg" xmlns:xlink="http://www.w3.org/1999/xlink" width="32" height="32" viewBox="0 0 32 32">
	<path d="M26.387 10l-2.36-7.079c-0.181-0.542-0.706-0.921-1.278-0.921h-13.5c-0.572 0-1.097 0.379-1.278 0.921l-2.36 7.079h-5.613v14h4v5c0 0.55 0.45 1 1 1h4c0.55 0 1-0.45 1-1v-5h12v5c0 0.55 0.45 1 1 1h4c0.55 0 1-0.45 1-1v-5h4v-14h-5.613zM7 20c-1.657 0-3-1.343-3-3s1.343-3 3-3 3 1.343 3 3-1.343 3-3 3zM8.221 10l2-6h11.559l2 6h-15.559zM25 20c-1.657 0-3-1.343-3-3s1.343-3 3-3 3 1.343 3 3-1.343 3-3 3z" />
</svg>
