<?xml version="1.0" encoding="utf-8"?>
<!-- Generated by IcoMoon.io -->
<!DOCTYPE svg PUBLIC "-//W3C//DTD SVG 1.1//EN" "http://www.w3.org/Graphics/SVG/1.1/DTD/svg11.dtd">
<svg version="1.1" xmlns="http://www.w3.org/2000/svg" xmlns:xlink="http://www.w3.org/1999/xlink" width="32" height="32" viewBox="0 0 32 32">
	<path d="M30.549 6.077c-1.062-0.303-2.169 0.312-2.473 1.374l-0.157 0.549h-18.654l-0.281-2.248c-0.125-1.001-0.976-1.752-1.985-1.752h-5c-1.105 0-2 0.895-2 2s0.895 2 2 2h3.234l1.781 14.248c0.125 1.001 0.976 1.752 1.985 1.752h17c0.893 0 1.678-0.592 1.923-1.451l4-14c0.303-1.062-0.312-2.169-1.374-2.473zM27.349 10l-0.572 2h-17.012l-0.25-2h17.833zM26.206 14l-0.571 2h-15.369l-0.25-2h16.19zM10.766 20l-0.25-2h14.547l-0.571 2h-13.726zM8 29c0-1.657 1.343-3 3-3s3 1.343 3 3c0 1.657-1.343 3-3 3-1.657 0-3-1.343-3-3zM20 29c0-1.657 1.343-3 3-3s3 1.343 3 3c0 1.657-1.343 3-3 3-1.657 0-3-1.343-3-3z" />
</svg>
