<?xml version="1.0" encoding="utf-8"?>
<!-- Generated by IcoMoon.io -->
<!DOCTYPE svg PUBLIC "-//W3C//DTD SVG 1.1//EN" "http://www.w3.org/Graphics/SVG/1.1/DTD/svg11.dtd">
<svg version="1.1" xmlns="http://www.w3.org/2000/svg" xmlns:xlink="http://www.w3.org/1999/xlink" width="32" height="32" viewBox="0 0 32 32">
	<path d="M30.549 6.077c-1.062-0.303-2.169 0.312-2.473 1.374l-0.157 0.549h-18.654l-0.281-2.248c-0.125-1.001-0.976-1.752-1.985-1.752h-5c-1.105 0-2 0.895-2 2s0.895 2 2 2h3.234l1.781 14.248c0.125 1.001 0.976 1.752 1.985 1.752h17c0.893 0 1.678-0.592 1.923-1.451l4-14c0.303-1.062-0.312-2.169-1.374-2.473zM24.491 20h-13.726l-0.031-0.25h13.828l-0.071 0.25zM24.706 19.25h-14.034l-0.063-0.5h14.239l-0.143 0.5zM24.991 18.25h-14.445l-0.063-0.5h14.65l-0.143 0.5zM25.277 17.25h-14.855l-0.063-0.5h15.061l-0.143 0.5zM25.563 16.25h-15.266l-0.063-0.5h15.471l-0.143 0.5zM25.849 15.25h-15.677l-0.063-0.5h15.882l-0.143 0.5zM26.134 14.25h-16.087l-0.063-0.5h16.293l-0.143 0.5zM26.42 13.25h-16.498l-0.063-0.5h16.703l-0.143 0.5zM26.706 12.25h-16.909l-0.063-0.5h17.114l-0.143 0.5zM26.991 11.25h-17.32l-0.063-0.5h17.525l-0.143 0.5zM9.547 10.25l-0.031-0.25h17.833l-0.071 0.25h-17.73zM8 29c0-1.657 1.343-3 3-3s3 1.343 3 3c0 1.657-1.343 3-3 3-1.657 0-3-1.343-3-3zM20 29c0-1.657 1.343-3 3-3s3 1.343 3 3c0 1.657-1.343 3-3 3-1.657 0-3-1.343-3-3z" />
</svg>
