<?xml version="1.0" encoding="utf-8"?>
<!-- Generated by IcoMoon.io -->
<!DOCTYPE svg PUBLIC "-//W3C//DTD SVG 1.1//EN" "http://www.w3.org/Graphics/SVG/1.1/DTD/svg11.dtd">
<svg version="1.1" xmlns="http://www.w3.org/2000/svg" xmlns:xlink="http://www.w3.org/1999/xlink" width="32" height="32" viewBox="0 0 32 32">
	<path d="M30.549 6.077c1.062 0.303 1.677 1.41 1.374 2.473l-4 14c-0.245 0.859-1.030 1.451-1.923 1.451h-17c-1.009 0-1.859-0.751-1.985-1.752l-1.781-14.248h-3.234c-1.105 0-2-0.895-2-2s0.895-2 2-2h5c1.009 0 1.859 0.751 1.985 1.752l1.781 14.248h13.726l3.586-12.549c0.303-1.062 1.41-1.677 2.473-1.374zM8 29c0-1.657 1.343-3 3-3s3 1.343 3 3c0 1.657-1.343 3-3 3-1.657 0-3-1.343-3-3zM20 29c0-1.657 1.343-3 3-3s3 1.343 3 3c0 1.657-1.343 3-3 3-1.657 0-3-1.343-3-3z" />
</svg>
