<?xml version="1.0" encoding="utf-8"?>
<!-- Generated by IcoMoon.io -->
<!DOCTYPE svg PUBLIC "-//W3C//DTD SVG 1.1//EN" "http://www.w3.org/Graphics/SVG/1.1/DTD/svg11.dtd">
<svg version="1.1" xmlns="http://www.w3.org/2000/svg" xmlns:xlink="http://www.w3.org/1999/xlink" width="32" height="32" viewBox="0 0 32 32">
	<path d="M26.476 18c1.1 0 2.247-0.865 2.549-1.923l2.901-10.154c0.302-1.058-0.351-1.923-1.451-1.923h-20.476c0-2.209-1.791-4-4-4h-6v4h6v17c0 1.657 1.343 3 3 3h19c1.105 0 2-0.895 2-2s-0.895-2-2-2h-18v-2h16.476zM10 14v-0.25h16.445l-0.071 0.25h-16.373zM27.588 9.75l-0.143 0.5h-17.445v-0.5h17.588zM10 9.25v-0.5h17.873l-0.143 0.5h-17.731zM27.302 10.75l-0.143 0.5h-17.159v-0.5h17.302zM27.016 11.75l-0.143 0.5h-16.873v-0.5h17.016zM26.73 12.75l-0.143 0.5h-16.588v-0.5h16.73zM28.088 8l-0.071 0.25h-18.016v-0.25h18.088zM9.5 26c1.375 0 2.5 1.125 2.5 2.5v1c0 1.375-1.125 2.5-2.5 2.5h-1c-1.375 0-2.5-1.125-2.5-2.5v-1c0-1.375 1.125-2.5 2.5-2.5h1zM27.5 26c1.375 0 2.5 1.125 2.5 2.5v1c0 1.375-1.125 2.5-2.5 2.5h-1c-1.375 0-2.5-1.125-2.5-2.5v-1c0-1.375 1.125-2.5 2.5-2.5h1z" />
</svg>
