<?xml version="1.0" encoding="utf-8"?>
<!-- Generated by IcoMoon.io -->
<!DOCTYPE svg PUBLIC "-//W3C//DTD SVG 1.1//EN" "http://www.w3.org/Graphics/SVG/1.1/DTD/svg11.dtd">
<svg version="1.1" xmlns="http://www.w3.org/2000/svg" xmlns:xlink="http://www.w3.org/1999/xlink" width="32" height="32" viewBox="0 0 32 32">
	<path d="M15.978 0c-4.383 0-8.241 1.622-11.222 4.647-3.068 3.112-4.733 7.145-4.733 11.354 0 4.252 1.621 8.197 4.69 11.266 3.068 3.068 7.057 4.734 11.266 4.734 4.208 0 8.285-1.666 11.441-4.778 2.981-2.937 4.559-6.838 4.559-11.222 0-4.34-1.578-8.285-4.603-11.31-3.068-3.068-7.014-4.691-11.397-4.691zM16.022 2.893c3.595 0 6.794 1.359 9.293 3.858 2.454 2.455 3.769 5.699 3.769 9.25 0 3.594-1.271 6.75-3.726 9.162-2.587 2.542-5.918 3.901-9.337 3.901-3.463 0-6.707-1.359-9.206-3.857-2.498-2.499-3.902-5.787-3.902-9.206 0-3.463 1.403-6.751 3.902-9.294 2.455-2.498 5.611-3.814 9.206-3.814zM15.815 13.342c-0.903-1.648-2.446-2.304-4.236-2.304-2.605 0-4.679 1.843-4.679 4.963 0 3.172 1.95 4.962 4.768 4.962 1.808 0 3.35-0.993 4.2-2.499l-1.985-1.010c-0.443 1.064-1.117 1.382-1.967 1.382-1.471 0-2.144-1.223-2.144-2.835 0-1.613 0.567-2.836 2.144-2.836 0.425 0 1.276 0.231 1.773 1.294l2.126-1.116zM25.045 13.342c-0.904-1.648-2.446-2.304-4.235-2.304-2.605 0-4.679 1.843-4.679 4.963 0 3.172 1.95 4.962 4.768 4.962 1.808 0 3.349-0.993 4.2-2.499l-1.985-1.010c-0.443 1.064-1.116 1.382-1.967 1.382-1.47 0-2.144-1.223-2.144-2.835 0-1.613 0.567-2.836 2.144-2.836 0.426 0 1.276 0.231 1.773 1.294l2.126-1.116z" />
</svg>
