<?xml version="1.0" encoding="utf-8"?>
<!-- Generated by IcoMoon.io -->
<!DOCTYPE svg PUBLIC "-//W3C//DTD SVG 1.1//EN" "http://www.w3.org/Graphics/SVG/1.1/DTD/svg11.dtd">
<svg version="1.1" xmlns="http://www.w3.org/2000/svg" xmlns:xlink="http://www.w3.org/1999/xlink" width="32" height="32" viewBox="0 0 32 32">
	<path d="M16 13.015c-1.646 0-2.985 1.339-2.985 2.985s1.339 2.985 2.985 2.985c1.646 0 2.985-1.339 2.985-2.985 0-1.646-1.339-2.985-2.985-2.985zM16 0c-8.837 0-16 7.163-16 16s7.163 16 16 16 16-7.163 16-16-7.163-16-16-16zM27.465 7.749c-0.12-0.167-0.244-0.331-0.371-0.493 0.128 0.162 0.251 0.326 0.371 0.493zM26.672 6.748c-0.071-0.082-0.143-0.163-0.217-0.244 0.073 0.081 0.145 0.162 0.217 0.244zM26.433 6.48c-0.070-0.077-0.141-0.154-0.213-0.229 0.072 0.076 0.143 0.152 0.213 0.229zM6.282 26.25c0.087 0.083 0.175 0.164 0.264 0.244-0.089-0.080-0.177-0.161-0.264-0.244zM6.558 26.505c0.092 0.082 0.184 0.163 0.278 0.243-0.094-0.080-0.186-0.161-0.278-0.243zM8.512 27.98c-0.12-0.075-0.238-0.152-0.355-0.23h0.499l-0.144 0.23zM8.969 27.25h-1.511c0.112 0.085 0.226 0.169 0.341 0.251-0.33-0.236-0.651-0.487-0.961-0.751h2.443l-0.313 0.5zM8.156 27.749c-0.118-0.079-0.235-0.16-0.351-0.243 0.116 0.083 0.233 0.164 0.351 0.243zM9.594 26.25h-3.312c-0.091-0.086-0.181-0.173-0.27-0.262-0.153-0.153-0.3-0.309-0.445-0.468 0.070 0.077 0.141 0.154 0.214 0.23h4.125l-0.313 0.5zM5.326 25.25c0.072 0.082 0.144 0.164 0.218 0.245-0.074-0.081-0.146-0.163-0.218-0.245zM10.219 25.25h-4.892c-0.279-0.322-0.543-0.655-0.791-0.999 0.122 0.169 0.247 0.335 0.376 0.499h5.62l-0.313 0.5zM10.844 24.25h-6.31c-0.179-0.249-0.351-0.503-0.514-0.762 0.055 0.088 0.112 0.175 0.17 0.262h6.967l-0.313 0.5zM11.469 23.25h-7.069l0.8-0.5h6.581l-0.313 0.5zM12.094 22.25h-6.094l0.8-0.5h5.606l-0.313 0.5zM26.497 9.439l0.303-0.189h-6.581l-0.313 0.5h6.094l-0.8 0.5h-5.606l-0.313 0.5h5.119l-0.8 0.5h-4.472c0.229 0.151 0.447 0.318 0.651 0.5h3.021l-0.8 0.5h-1.725c0.14 0.159 0.271 0.326 0.392 0.5h0.533l-0.376 0.235c0.547 0.874 0.864 1.907 0.864 3.015 0 3.141-2.546 5.688-5.688 5.688-1.107 0-2.141-0.317-3.015-0.864l-0.267 0.426h-5.119l0.8-0.5h4.472c-0.229-0.151-0.447-0.318-0.651-0.5h-3.021l1.976-1.235c-0.547-0.874-0.864-1.907-0.864-3.015 0-3.141 2.546-5.688 5.688-5.688 1.107 0 2.141 0.317 3.015 0.864l4.473-7.157c0.241 0.151 0.476 0.309 0.707 0.474-0.116-0.083-0.234-0.164-0.352-0.244l-0.811 0.5h1.511c-0.113-0.086-0.227-0.17-0.342-0.252 0.331 0.236 0.651 0.487 0.962 0.752h-2.443l-0.313 0.5h3.312c-0.087-0.082-0.175-0.163-0.263-0.243 0.181 0.163 0.359 0.331 0.533 0.505 0.078 0.078 0.155 0.158 0.231 0.238h-4.125l-0.313 0.5h4.892c0.142 0.164 0.281 0.33 0.415 0.5h-5.62l-0.313 0.5h6.31c0.179 0.249 0.351 0.503 0.514 0.763l-1.483 0.927zM25.165 5.252c0.093 0.080 0.186 0.161 0.277 0.243-0.092-0.082-0.184-0.163-0.277-0.243zM20.844 8.25l-0.313 0.5h7.069l0.38-0.238c-0.055-0.088-0.112-0.175-0.17-0.262h-6.967zM10.8 19.25l-0.8 0.5h1.725c-0.14-0.159-0.271-0.326-0.392-0.5h-0.533z" />
</svg>
