<?xml version="1.0" encoding="utf-8"?>
<!-- Generated by IcoMoon.io -->
<!DOCTYPE svg PUBLIC "-//W3C//DTD SVG 1.1//EN" "http://www.w3.org/Graphics/SVG/1.1/DTD/svg11.dtd">
<svg version="1.1" xmlns="http://www.w3.org/2000/svg" xmlns:xlink="http://www.w3.org/1999/xlink" width="32" height="32" viewBox="0 0 32 32">
	<path d="M31 30h-7v-1h-1v1h-10v-1h-1v1h-7v-1h-1v1h-2v-9h1v-1h-1v-7h1v-1h-1v-7h1v-1h-1v-4h-2v32h32v-3h-1zM13.75 12.25l-0.5 0.5v7.879l0.5-0.5zM12.75 13.25l-0.5 0.5v7.879l0.5-0.5zM11.75 22.129v-8.254l-0.5-0.25v8.323l0.454 0.227zM16.75 9.25l-0.5 0.5v7.879l0.5-0.5zM14.75 11.25l-0.5 0.5v7.879l0.5-0.5zM10.75 13.375l-0.5-0.25v8.323l0.5 0.25zM15.75 10.25l-0.5 0.5v7.879l0.5-0.5zM7.75 11.875l-0.5-0.25v8.323l0.5 0.25zM5.75 10.875l-0.5-0.25v8.323l0.5 0.25zM9.75 12.875l-0.5-0.25v8.323l0.5 0.25zM6.75 11.375l-0.5-0.25v8.323l0.5 0.25zM4.75 10.375l-0.5-0.25v8.323l0.5 0.25zM17.75 8.25l-0.5 0.5v7.879l0.5-0.5zM8.75 12.375l-0.5-0.25v8.323l0.5 0.25zM25.75 10.25l-0.5 0.5v10.671l0.5-0.75zM26.75 9.25l-0.5 0.5v10.171l0.5-0.75zM27.75 8.25l-0.5 0.5v9.671l0.5-0.75zM29.75 6.25l-0.5 0.5v8.671l0.5-0.75zM28.75 7.25l-0.5 0.5v9.171l0.5-0.75zM31.75 4.25l-0.5 0.5v7.671l0.5-0.75zM30.75 5.25l-0.5 0.5v8.171l0.5-0.75zM21.75 10.5l-0.5-0.333v9.667l0.5 0.667zM20.75 9.833l-0.5-0.333v9l0.5 0.667zM18.75 8.5l-0.5-0.333v7.667l0.5 0.667zM19.75 9.167l-0.5-0.333v8.333l0.5 0.667zM22.75 11.167l-0.5-0.333v10.333l0.5 0.667zM24.75 11.25l-0.5 0.5v11.171l0.5-0.75zM23.75 11.833l-0.5-0.333v11l0.5 0.667zM24 26l-6-8-6 6-8-4v8h28v-14z" />
</svg>
