<?xml version="1.0" encoding="utf-8"?>
<!-- Generated by IcoMoon.io -->
<!DOCTYPE svg PUBLIC "-//W3C//DTD SVG 1.1//EN" "http://www.w3.org/Graphics/SVG/1.1/DTD/svg11.dtd">
<svg version="1.1" xmlns="http://www.w3.org/2000/svg" xmlns:xlink="http://www.w3.org/1999/xlink" width="32" height="32" viewBox="0 0 32 32">
	<path d="M28 0h4v4h-4zM28 8h4v4h-4zM28 16h4v4h-4zM28 24h4v4h-4zM24 4h4v4h-4zM24 12h4v4h-4zM24 20h4v4h-4zM24 28h4v4h-4zM20 0h4v4h-4zM20 8h4v4h-4zM20 16h4v4h-4zM20 24h4v4h-4zM16 4h4v4h-4zM16 12h4v4h-4zM16 20h4v4h-4zM16 28h4v4h-4zM12 0h4v4h-4zM12 8h4v4h-4zM12 16h4v4h-4zM12 24h4v4h-4zM8 4h4v4h-4zM8 12h4v4h-4zM8 20h4v4h-4zM8 28h4v4h-4zM4 0h4v4h-4zM4 8h4v4h-4zM4 16h4v4h-4zM4 24h4v4h-4zM0 4h4v4h-4zM0 12h4v4h-4zM0 20h4v4h-4zM0 28h4v4h-4z" />
</svg>
