<?xml version="1.0" encoding="utf-8"?>
<!-- Generated by IcoMoon.io -->
<!DOCTYPE svg PUBLIC "-//W3C//DTD SVG 1.1//EN" "http://www.w3.org/Graphics/SVG/1.1/DTD/svg11.dtd">
<svg version="1.1" xmlns="http://www.w3.org/2000/svg" xmlns:xlink="http://www.w3.org/1999/xlink" width="32" height="32" viewBox="0 0 32 32">
	<path d="M18 3c0-1.657-1.343-3-3-3-1.657 0-3 1.343-3 3 0 3-6 1-6 5h18c0-4-6-2-6-5zM15 4.45c-0.801 0-1.45-0.649-1.45-1.45s0.649-1.45 1.45-1.45c0.801 0 1.45 0.649 1.45 1.45s-0.649 1.45-1.45 1.45zM28 6h-2v4h-22v-4h-2c-1.105 0-2 0.895-2 2v22c0 1.105 0.895 2 2 2h26c1.105 0 2-0.895 2-2v-22c0-1.105-0.895-2-2-2zM26 28h-22v-2h22v2zM26 22h-22v-2h22v2zM26 16h-22v-2h22v2z" />
</svg>
