<?xml version="1.0" encoding="utf-8"?>
<!-- Generated by IcoMoon.io -->
<!DOCTYPE svg PUBLIC "-//W3C//DTD SVG 1.1//EN" "http://www.w3.org/Graphics/SVG/1.1/DTD/svg11.dtd">
<svg version="1.1" xmlns="http://www.w3.org/2000/svg" xmlns:xlink="http://www.w3.org/1999/xlink" width="32" height="32" viewBox="0 0 32 32">
	<path d="M16 4c-3.205 0-6.219 1.248-8.485 3.515-2.266 2.267-3.515 5.28-3.515 8.485 0 3.205 1.248 6.219 3.515 8.485 2.267 2.266 5.28 3.515 8.485 3.515 3.205 0 6.219-1.248 8.485-3.515 2.266-2.267 3.515-5.28 3.515-8.485 0-3.205-1.248-6.219-3.515-8.485-2.267-2.266-5.28-3.515-8.485-3.515zM16 0v0c8.837 0 16 7.163 16 16s-7.163 16-16 16c-8.837 0-16-7.163-16-16 0-8.837 7.163-16 16-16zM19.464 14c-0.351-0.607-0.857-1.112-1.464-1.464v-6.536h-4v6.536c-1.195 0.692-2 1.983-2 3.464 0 2.209 1.791 4 4 4 1.48 0 2.772-0.805 3.464-2h4.536v-4h-4.536zM16 18c-1.105 0-2-0.895-2-2s0.895-2 2-2c1.105 0 2 0.895 2 2s-0.895 2-2 2z" />
</svg>
