<?xml version="1.0" encoding="utf-8"?>
<!-- Generated by IcoMoon.io -->
<!DOCTYPE svg PUBLIC "-//W3C//DTD SVG 1.1//EN" "http://www.w3.org/Graphics/SVG/1.1/DTD/svg11.dtd">
<svg version="1.1" xmlns="http://www.w3.org/2000/svg" xmlns:xlink="http://www.w3.org/1999/xlink" width="32" height="32" viewBox="0 0 32 32">
	<path d="M15 2c-8.284 0-15 6.716-15 15 0 8.284 6.716 15 15 15 8.284 0 15-6.716 15-15 0-8.284-6.716-15-15-15zM24 18h-6.171c-0.412 1.165-1.522 2-2.829 2-1.657 0-3-1.343-3-3 0-1.306 0.835-2.417 2-2.829v-8.171h2v8.171c0.852 0.301 1.527 0.976 1.829 1.829h6.171v2z" />
</svg>
