<?xml version="1.0" encoding="utf-8"?>
<!-- Generated by IcoMoon.io -->
<!DOCTYPE svg PUBLIC "-//W3C//DTD SVG 1.1//EN" "http://www.w3.org/Graphics/SVG/1.1/DTD/svg11.dtd">
<svg version="1.1" xmlns="http://www.w3.org/2000/svg" xmlns:xlink="http://www.w3.org/1999/xlink" width="32" height="32" viewBox="0 0 32 32">
	<path d="M17.922 11.25l-0.5 0.5h-2.843l-0.5-0.5zM19.422 9.75h-6.843l-0.5-0.5h7.843zM18.422 10.75h-4.843l-0.5-0.5h5.843zM20.422 8.75h-8.843l-0.5-0.5h9.843zM15.578 12.75l-0.5-0.5h1.843l-0.5 0.5zM15.078 19.75l0.5-0.5h0.843l0.5 0.5zM13.078 21.75l0.5-0.5h4.843l0.5 0.5zM11.578 23.25h8.843l0.5 0.5h-9.843zM12.578 22.25h6.843l0.5 0.5h-7.843zM14.578 20.25h2.843l0.5 0.5h-3.843zM16 2c-7.732 0-14 6.268-14 14s6.268 14 14 14c7.732 0 14-6.268 14-14s-6.268-14-14-14zM28 16c0 0.084-0.001 0.167-0.003 0.25h-8.919l0.5 0.5h8.398c-0.010 0.167-0.024 0.334-0.041 0.5h-7.857l0.5 0.5h7.295c-0.024 0.168-0.053 0.334-0.084 0.5h-6.711l0.5 0.5h6.106c-0.039 0.168-0.081 0.335-0.128 0.5h-5.478l0.5 0.5h4.827c-0.055 0.168-0.114 0.335-0.177 0.5h-4.15l0.5 0.5h3.448c-0.073 0.168-0.149 0.335-0.229 0.5h-2.718l0.336 0.336-0.164 0.164h2.288c-0.092 0.169-0.189 0.335-0.29 0.5h-2.498l-0.5 0.5h2.675c-0.116 0.169-0.236 0.336-0.361 0.5h-2.814l-0.5 0.5h2.912c-0.144 0.17-0.293 0.337-0.448 0.5h-2.964l-0.164 0.164-0.164-0.164h-10.843l-0.164 0.164-0.164-0.164h-2.964c-0.155-0.163-0.304-0.33-0.448-0.5h2.912l-0.5-0.5h-2.814c-0.125-0.164-0.245-0.331-0.361-0.5h2.675l-0.5-0.5h-2.498c-0.101-0.165-0.197-0.331-0.29-0.5h2.288l-0.164-0.164 0.336-0.336h-2.718c-0.080-0.165-0.157-0.332-0.229-0.5h3.448l0.5-0.5h-4.15c-0.063-0.165-0.122-0.332-0.177-0.5h4.827l0.5-0.5h-5.478c-0.046-0.165-0.089-0.332-0.128-0.5h6.106l0.5-0.5h-6.711c-0.031-0.166-0.060-0.332-0.084-0.5h7.295l0.5-0.5h-7.857c-0.017-0.166-0.030-0.333-0.041-0.5h8.398l0.5-0.5h-8.918c-0.002-0.083-0.003-0.166-0.003-0.25s0.001-0.167 0.003-0.25h8.918l-0.5-0.5h-8.398c0.010-0.167 0.024-0.334 0.041-0.5h7.857l-0.5-0.5h-7.295c0.024-0.168 0.053-0.334 0.084-0.5h6.711l-0.5-0.5h-6.106c0.039-0.168 0.081-0.335 0.128-0.5h5.478l-0.5-0.5h-4.827c0.055-0.168 0.114-0.335 0.177-0.5h4.15l-0.5-0.5h-3.448c0.073-0.168 0.149-0.335 0.229-0.5h2.718l-0.336-0.336 0.164-0.164h-2.288c0.092-0.169 0.189-0.335 0.29-0.5h2.498l0.5-0.5h-2.675c0.116-0.169 0.236-0.336 0.361-0.5h2.814l0.5-0.5h-2.912c0.144-0.17 0.293-0.337 0.448-0.5h2.964l0.164-0.164 0.164 0.164h10.843l0.164-0.164 0.164 0.164h2.964c0.155 0.163 0.304 0.33 0.448 0.5h-2.912l0.5 0.5h2.814c0.125 0.164 0.245 0.331 0.361 0.5h-2.675l0.5 0.5h2.498c0.101 0.165 0.197 0.331 0.29 0.5h-2.288l0.164 0.164-0.336 0.336h2.718c0.080 0.165 0.157 0.332 0.23 0.5h-3.448l-0.5 0.5h4.15c0.063 0.165 0.122 0.332 0.177 0.5h-4.827l-0.5 0.5h5.478c0.046 0.165 0.089 0.332 0.128 0.5h-6.106l-0.5 0.5h6.711c0.031 0.166 0.060 0.332 0.084 0.5h-7.295l-0.5 0.5h7.857c0.017 0.166 0.030 0.333 0.041 0.5h-8.398l-0.5 0.5h8.919c0.002 0.083 0.003 0.166 0.003 0.25zM11.808 27.25c-0.393-0.146-0.778-0.313-1.154-0.5h10.691c-0.376 0.187-0.761 0.354-1.154 0.5h-8.383zM18.452 27.75c-0.798 0.165-1.618 0.25-2.452 0.25s-1.654-0.085-2.452-0.25h4.904zM9.753 26.25c-0.256-0.157-0.507-0.323-0.752-0.5h13.998c-0.245 0.177-0.495 0.343-0.751 0.5h-12.495zM8.355 25.25c-0.193-0.16-0.382-0.327-0.566-0.5h16.422c-0.184 0.173-0.373 0.34-0.566 0.5h-15.291zM20.192 4.75c0.393 0.146 0.778 0.313 1.154 0.5h-10.691c0.376-0.187 0.761-0.354 1.154-0.5h8.383zM13.548 4.25c0.798-0.165 1.618-0.25 2.452-0.25s1.654 0.085 2.452 0.25h-4.904zM22.247 5.75c0.256 0.157 0.507 0.323 0.751 0.5h-13.998c0.245-0.177 0.495-0.343 0.752-0.5h12.495zM23.645 6.75c0.193 0.16 0.382 0.327 0.566 0.5h-16.422c0.184-0.173 0.373-0.34 0.566-0.5h15.291z" />
</svg>
