<?xml version="1.0" encoding="utf-8"?>
<!-- Generated by IcoMoon.io -->
<!DOCTYPE svg PUBLIC "-//W3C//DTD SVG 1.1//EN" "http://www.w3.org/Graphics/SVG/1.1/DTD/svg11.dtd">
<svg version="1.1" xmlns="http://www.w3.org/2000/svg" xmlns:xlink="http://www.w3.org/1999/xlink" width="32" height="32" viewBox="0 0 32 32">
	<path d="M23.789 20.961l-2.829 2.829-4.961-4.961-4.961 4.961-2.828-2.828 4.961-4.961-4.961-4.961 2.828-2.828 4.961 4.961 4.961-4.961 2.828 2.828-4.961 4.961 4.961 4.961zM16 4.625c-3.038 0-5.895 1.183-8.043 3.332-2.149 2.148-3.332 5.005-3.332 8.043 0 3.038 1.183 5.895 3.332 8.043 2.148 2.148 5.005 3.332 8.043 3.332 3.038 0 5.895-1.183 8.043-3.332 2.148-2.148 3.332-5.005 3.332-8.043 0-3.038-1.183-5.895-3.332-8.043-2.148-2.149-5.005-3.332-8.043-3.332zM16 2v0c7.732 0 14 6.268 14 14s-6.268 14-14 14c-7.732 0-14-6.268-14-14 0-7.732 6.268-14 14-14z" />
</svg>
