<?xml version="1.0" encoding="utf-8"?>
<!-- Generated by IcoMoon.io -->
<!DOCTYPE svg PUBLIC "-//W3C//DTD SVG 1.1//EN" "http://www.w3.org/Graphics/SVG/1.1/DTD/svg11.dtd">
<svg version="1.1" xmlns="http://www.w3.org/2000/svg" xmlns:xlink="http://www.w3.org/1999/xlink" width="32" height="32" viewBox="0 0 32 32">
	<path d="M27.883 16.078c0.076-0.347 0.117-0.708 0.117-1.078 0-2.761-2.239-5-5-5-0.445 0-0.875 0.058-1.285 0.167-0.775-2.417-3.040-4.167-5.715-4.167-2.73 0-5.033 1.823-5.76 4.318-0.711-0.207-1.462-0.318-2.24-0.318-4.418 0-8 3.582-8 8 0 4.418 3.582 8 8 8h19c2.761 0 5-2.239 5-5 0-2.46-1.777-4.505-4.117-4.922zM27 24.005v-0.005h-19c-3.314 0-6-2.686-6-6 0-3.314 2.686-6 6-6 1.963 0 3.706 0.943 4.8 2.4l1.6-1.2c-0.625-0.832-1.408-1.537-2.304-2.073 0.398-1.789 1.995-3.127 3.904-3.127 2.209 0 4 1.791 4 4 0 0.559-0.115 1.091-0.322 1.574l1.839 0.787c0.289-0.675 0.458-1.413 0.48-2.189 0.314-0.111 0.651-0.172 1.003-0.172 1.657 0 3 1.343 3 3 0 0.409-0.082 0.798-0.23 1.153-0.558 0.141-1.078 0.376-1.544 0.686l1.106 1.66c0.477-0.319 1.051-0.505 1.668-0.505 1.66 0 3.005 1.345 3.005 3.005 0 1.66-1.345 3.005-3.005 3.005z" />
</svg>
