<?xml version="1.0" encoding="utf-8"?>
<!-- Generated by IcoMoon.io -->
<!DOCTYPE svg PUBLIC "-//W3C//DTD SVG 1.1//EN" "http://www.w3.org/Graphics/SVG/1.1/DTD/svg11.dtd">
<svg version="1.1" xmlns="http://www.w3.org/2000/svg" xmlns:xlink="http://www.w3.org/1999/xlink" width="32" height="32" viewBox="0 0 32 32">
	<path d="M19.786 32h-7.572l-0.763-4.576c-0.105-0.042-0.209-0.085-0.313-0.13l-3.775 2.696-5.354-5.354 2.691-3.768c-0.046-0.107-0.091-0.214-0.134-0.322l-4.566-0.761v-7.572l4.554-0.759c0.044-0.112 0.091-0.224 0.138-0.335l-2.683-3.757 5.354-5.354 3.749 2.678c0.114-0.049 0.228-0.097 0.344-0.143l0.757-4.545h7.572l0.757 4.545c0.115 0.046 0.23 0.093 0.344 0.143l3.749-2.678 5.354 5.354-2.683 3.757c0.048 0.111 0.094 0.223 0.138 0.335l4.554 0.759v7.572l-4.566 0.761c-0.043 0.108-0.088 0.215-0.134 0.322l2.691 3.768-5.354 5.354-3.775-2.696c-0.104 0.045-0.208 0.088-0.313 0.13l-0.763 4.576zM14.226 29.625h3.548l0.664-3.982 0.681-0.225c0.457-0.151 0.907-0.337 1.337-0.553l0.64-0.322 3.284 2.346 2.509-2.509-2.342-3.279 0.324-0.641c0.218-0.432 0.406-0.884 0.559-1.344l0.226-0.68 3.97-0.662v-3.548l-3.963-0.66-0.224-0.682c-0.152-0.464-0.341-0.92-0.56-1.356l-0.322-0.641 2.333-3.267-2.509-2.509-3.262 2.33-0.641-0.325c-0.437-0.221-0.896-0.412-1.363-0.566l-0.681-0.225-0.659-3.951h-3.548l-0.659 3.951-0.681 0.225c-0.467 0.154-0.925 0.344-1.362 0.566l-0.641 0.325-3.262-2.33-2.509 2.509 2.333 3.267-0.322 0.641c-0.219 0.436-0.408 0.892-0.56 1.356l-0.224 0.683-3.963 0.66v3.548l3.97 0.662 0.225 0.68c0.152 0.459 0.34 0.911 0.559 1.343l0.324 0.641-2.343 3.28 2.509 2.509 3.284-2.346 0.64 0.322c0.43 0.216 0.88 0.402 1.337 0.553l0.681 0.225 0.664 3.981zM17 12h-2c-1.65 0-3 1.35-3 3v2c0 1.65 1.35 3 3 3h2c1.65 0 3-1.35 3-3v-2c0-1.65-1.35-3-3-3zM18 17c0 0.55-0.45 1-1 1h-2c-0.55 0-1-0.45-1-1v-2c0-0.55 0.45-1 1-1h2c0.55 0 1 0.45 1 1v2z" />
</svg>
