<?xml version="1.0" encoding="utf-8"?>
<!-- Generated by IcoMoon.io -->
<!DOCTYPE svg PUBLIC "-//W3C//DTD SVG 1.1//EN" "http://www.w3.org/Graphics/SVG/1.1/DTD/svg11.dtd">
<svg version="1.1" xmlns="http://www.w3.org/2000/svg" xmlns:xlink="http://www.w3.org/1999/xlink" width="32" height="32" viewBox="0 0 32 32">
	<path d="M32 13l-7.054-0.705 4.489-5.487-4.243-4.243-5.487 4.489-0.705-7.054h-6l-0.705 7.054-5.487-4.489-4.243 4.243 4.489 5.487-7.054 0.705v6l7.054 0.705-4.489 5.487 4.243 4.243 5.487-4.489 0.705 7.054h6l0.705-7.054 5.487 4.489 4.243-4.243-4.489-5.487 7.054-0.705v-6zM22 13.515v4.971l-3.515 3.515h-4.971l-3.515-3.515v-4.971l3.515-3.515h4.971l3.515 3.515zM14 14h4v4h-4z" />
</svg>
