<?xml version="1.0" encoding="utf-8"?>
<!-- Generated by IcoMoon.io -->
<!DOCTYPE svg PUBLIC "-//W3C//DTD SVG 1.1//EN" "http://www.w3.org/Graphics/SVG/1.1/DTD/svg11.dtd">
<svg version="1.1" xmlns="http://www.w3.org/2000/svg" xmlns:xlink="http://www.w3.org/1999/xlink" width="32" height="32" viewBox="0 0 32 32">
	<path d="M25 31.5c-3.584 0-6.5-2.916-6.5-6.5v-3.5h-5v3.5c0 3.584-2.916 6.5-6.5 6.5s-6.5-2.916-6.5-6.5 2.916-6.5 6.5-6.5h3.5v-5h-3.5c-3.584 0-6.5-2.916-6.5-6.5s2.916-6.5 6.5-6.5 6.5 2.916 6.5 6.5v3.5h5v-3.5c0-3.584 2.916-6.5 6.5-6.5s6.5 2.916 6.5 6.5-2.916 6.5-6.5 6.5h-3.5v5h3.5c3.584 0 6.5 2.916 6.5 6.5s-2.916 6.5-6.5 6.5zM21.5 25c0 1.93 1.57 3.5 3.5 3.5s3.5-1.57 3.5-3.5-1.57-3.5-3.5-3.5h-3.5v3.5zM7 21.5c-1.93 0-3.5 1.57-3.5 3.5s1.57 3.5 3.5 3.5 3.5-1.57 3.5-3.5v-3.5h-3.5zM18.5 18.5v-5h-5v5h5zM25 10.5c1.93 0 3.5-1.57 3.5-3.5s-1.57-3.5-3.5-3.5-3.5 1.57-3.5 3.5v3.5h3.5zM7 3.5c-1.93 0-3.5 1.57-3.5 3.5s1.57 3.5 3.5 3.5h3.5v-3.5c0-1.93-1.57-3.5-3.5-3.5z" />
</svg>
