<?xml version="1.0" encoding="utf-8"?>
<!-- Generated by IcoMoon.io -->
<!DOCTYPE svg PUBLIC "-//W3C//DTD SVG 1.1//EN" "http://www.w3.org/Graphics/SVG/1.1/DTD/svg11.dtd">
<svg version="1.1" xmlns="http://www.w3.org/2000/svg" xmlns:xlink="http://www.w3.org/1999/xlink" width="32" height="32" viewBox="0 0 32 32">
	<path d="M15 2c-8.284 0-15 6.716-15 15 0 8.284 6.716 15 15 15 8.284 0 15-6.716 15-15 0-8.284-6.716-15-15-15zM15 29c-6.627 0-12-5.373-12-12s5.373-12 12-12c6.627 0 12 5.373 12 12 0 6.627-5.373 12-12 12zM26 16.538l-6.654-1.536 2.654-3.591v-1.412h-1.412l-3.591 2.654-1.536-6.654h-0.923l-1.536 6.654-3.591-2.654h-1.412v1.412l2.654 3.591-6.654 1.536v0.923l6.654 1.536-2.654 3.591v1.412h1.412l3.591-2.654 1.536 6.654h0.923l1.536-6.654 3.591 2.654h1.412v-1.412l-2.654-3.591 6.654-1.536v-0.923zM16 17.25c0 0.413-0.338 0.75-0.75 0.75h-0.5c-0.412 0-0.75-0.337-0.75-0.75v-0.5c0-0.413 0.338-0.75 0.75-0.75h0.5c0.412 0 0.75 0.337 0.75 0.75v0.5z" />
</svg>
