<?xml version="1.0" encoding="utf-8"?>
<!-- Generated by IcoMoon.io -->
<!DOCTYPE svg PUBLIC "-//W3C//DTD SVG 1.1//EN" "http://www.w3.org/Graphics/SVG/1.1/DTD/svg11.dtd">
<svg version="1.1" xmlns="http://www.w3.org/2000/svg" xmlns:xlink="http://www.w3.org/1999/xlink" width="32" height="32" viewBox="0 0 32 32">
	<path d="M14 24c0-1.105 0.895-2 2-2s2 0.895 2 2c0 1.105-0.895 2-2 2-1.105 0-2-0.895-2-2zM16 4c-6.002 0-11.385 2.644-15.051 6.83l1.505 1.317c3.299-3.768 8.144-6.147 13.546-6.147s10.247 2.38 13.546 6.147l1.505-1.317c-3.666-4.186-9.049-6.83-15.051-6.83zM16 10c-4.201 0-7.97 1.851-10.536 4.781l1.505 1.317c2.2-2.512 5.43-4.098 9.031-4.098 3.601 0 6.831 1.586 9.031 4.098l1.505-1.317c-2.566-2.93-6.334-4.781-10.536-4.781zM16 16c-2.401 0-4.554 1.058-6.020 2.732l1.505 1.317c1.1-1.256 2.715-2.049 4.515-2.049s3.416 0.793 4.515 2.049l1.505-1.317c-1.466-1.675-3.62-2.732-6.020-2.732z" />
</svg>
