<?xml version="1.0" encoding="utf-8"?>
<!-- Generated by IcoMoon.io -->
<!DOCTYPE svg PUBLIC "-//W3C//DTD SVG 1.1//EN" "http://www.w3.org/Graphics/SVG/1.1/DTD/svg11.dtd">
<svg version="1.1" xmlns="http://www.w3.org/2000/svg" xmlns:xlink="http://www.w3.org/1999/xlink" width="40" height="32" viewBox="0 0 40 32">
	<path d="M18 28c0-1.105 0.895-2 2-2s2 0.895 2 2c0 1.105-0.895 2-2 2-1.105 0-2-0.895-2-2zM20 6c7.050 0 13.524 2.166 18.608 5.782-4.431-5.975-11.121-9.782-18.608-9.782-7.486 0-14.177 3.806-18.607 9.782 5.083-3.616 11.557-5.782 18.607-5.782zM20 14c4.803 0 9.243 1.285 12.845 3.462-2.878-4.52-7.559-7.462-12.845-7.462s-9.966 2.941-12.845 7.462c3.601-2.177 8.041-3.462 12.845-3.462zM20 22c2.547 0 4.963 0.329 7.133 0.917-1.441-2.943-4.096-4.917-7.133-4.917s-5.691 1.974-7.133 4.917c2.17-0.588 4.586-0.917 7.133-0.917z" />
</svg>
