<?xml version="1.0" encoding="utf-8"?>
<!-- Generated by IcoMoon.io -->
<!DOCTYPE svg PUBLIC "-//W3C//DTD SVG 1.1//EN" "http://www.w3.org/Graphics/SVG/1.1/DTD/svg11.dtd">
<svg version="1.1" xmlns="http://www.w3.org/2000/svg" xmlns:xlink="http://www.w3.org/1999/xlink" width="32" height="32" viewBox="0 0 32 32">
	<path d="M32 13v-8c0-0.55-0.45-1-1-1h-30c-0.55 0-1 0.45-1 1v8c0 0.55 0.45 1 1 1h3.761l-4.761 14h6l2.040-6h15.919l2.040 6h6l-4.761-14h3.761c0.55 0 1-0.45 1-1zM26 6l-6 6h-6l6-6h6zM8 6h6l-6 6h-6l6-6zM23.279 20h-14.559l2.040-6h10.478l2.040 6zM30 12h-4l4-4v4z" />
</svg>
