<?xml version="1.0" encoding="utf-8"?>
<!-- Generated by IcoMoon.io -->
<!DOCTYPE svg PUBLIC "-//W3C//DTD SVG 1.1//EN" "http://www.w3.org/Graphics/SVG/1.1/DTD/svg11.dtd">
<svg version="1.1" xmlns="http://www.w3.org/2000/svg" xmlns:xlink="http://www.w3.org/1999/xlink" width="32" height="32" viewBox="0 0 32 32">
	<path d="M22 20c2-2 8 4 8 6s-6 6-6 6c-4 0-12.109-4.109-16-8s-8-12-8-16c0 0 4-6 6-6s8 6 6 8-4 2-4 4 2 4 4 6 4 4 6 4 2-2 4-4zM23 0c-4.971 0-9 4.029-9 9s4.029 9 9 9 9-4.029 9-9-4.029-9-9-9zM27.992 10h-9.985v-2h9.985v2z" />
</svg>
