<?xml version="1.0" encoding="utf-8"?>
<!-- Generated by IcoMoon.io -->
<!DOCTYPE svg PUBLIC "-//W3C//DTD SVG 1.1//EN" "http://www.w3.org/Graphics/SVG/1.1/DTD/svg11.dtd">
<svg version="1.1" xmlns="http://www.w3.org/2000/svg" xmlns:xlink="http://www.w3.org/1999/xlink" width="32" height="32" viewBox="0 0 32 32">
	<path d="M8 24h16v4h-16zM30 6c-1.105 0-2 0.895-2 2 0 0.41 0.124 0.792 0.336 1.109l-7.336 4.891-0.752-6.016c0.987-0.122 1.752-0.964 1.752-1.984 0-1.105-0.895-2-2-2s-2 0.895-2 2c0 0.783 0.45 1.46 1.106 1.789l-3.106 6.211-3.106-6.211c0.655-0.328 1.106-1.006 1.106-1.789 0-1.105-0.895-2-2-2s-2 0.895-2 2c0 1.021 0.764 1.862 1.752 1.984l-0.752 6.016-7.336-4.891c0.212-0.317 0.336-0.699 0.336-1.109 0-1.105-0.895-2-2-2s-2 0.895-2 2 0.895 2 2 2c0.28 0 0.546-0.058 0.788-0.161l5.212 12.161h16l5.212-12.161c0.242 0.104 0.508 0.161 0.788 0.161 1.105 0 2-0.895 2-2s-0.895-2-2-2z" />
</svg>
