<?xml version="1.0" encoding="utf-8"?>
<!-- Generated by IcoMoon.io -->
<!DOCTYPE svg PUBLIC "-//W3C//DTD SVG 1.1//EN" "http://www.w3.org/Graphics/SVG/1.1/DTD/svg11.dtd">
<svg version="1.1" xmlns="http://www.w3.org/2000/svg" xmlns:xlink="http://www.w3.org/1999/xlink" width="32" height="32" viewBox="0 0 32 32">
	<path d="M15.251 0h-0.502l-14.749 7.901v14.258l14.696 9.841h0.608l14.696-9.841v-14.258l-14.749-7.901zM26.882 8.5l-4.782 2.562-5.313-2.846 4.782-2.562 5.313 2.846zM15 2.134l4.782 2.562-4.782 2.562-4.782-2.562 4.782-2.562zM8.431 5.654l4.782 2.562-5.313 2.846-4.782-2.562 5.313-2.846zM6.159 23.876l-4.159-2.785v-4.848l4.159 2.599v5.033zM6.159 16.853l-4.159-2.599v-4.083l4.159 2.228v4.455zM14 29.127l-6.154-4.121v-5.109l6.154 3.846v5.383zM14 21.753l-6.154-3.846v-4.605l6.154 3.297v5.155zM15 14.866l-5.313-2.846 5.313-2.846 5.313 2.846-5.313 2.846zM22.154 25.006l-6.154 4.121v-5.383l6.154-3.846v5.109zM22.154 17.907l-6.154 3.846v-5.155l6.154-3.297v4.605zM28 21.091l-4.159 2.785v-5.033l4.159-2.599v4.848zM28 14.253l-4.159 2.599v-4.454l4.159-2.228v4.083z" />
</svg>
