<?xml version="1.0" encoding="utf-8"?>
<!-- Generated by IcoMoon.io -->
<!DOCTYPE svg PUBLIC "-//W3C//DTD SVG 1.1//EN" "http://www.w3.org/Graphics/SVG/1.1/DTD/svg11.dtd">
<svg version="1.1" xmlns="http://www.w3.org/2000/svg" xmlns:xlink="http://www.w3.org/1999/xlink" width="32" height="32" viewBox="0 0 32 32">
	<path d="M15.251 0h-0.502l-14.749 7.901v14.258l14.696 9.841h0.608l14.696-9.841v-14.258l-14.749-7.901zM12.691 28.25l-0.747-0.5h2.056v0.5h-1.309zM14 28.75v0.377l-0.563-0.377h0.563zM11.197 27.25l-0.747-0.5h3.549v0.5h-2.803zM9.704 26.25l-0.747-0.5h5.043v0.5h-4.296zM8.211 25.25l-0.747-0.5h6.536v0.5h-5.789zM6.717 24.25l-0.747-0.5h8.029v0.5h-7.283zM5.224 23.25l-0.747-0.5h9.523v0.5h-8.776zM3.731 22.25l-0.747-0.5h11.016v0.5h-10.269zM2.237 21.25l-0.237-0.159v-0.341h12v0.5h-11.763zM2 20.25v-0.5h12v0.5h-12zM2 19.25v-0.5h12v0.5h-12zM2 18.25v-0.5h12v0.5h-12zM2 17.25v-0.5h12v0.5h-12zM2 16.25v-0.5h10.416l0.933 0.5h-11.349zM2 15.25v-0.5h8.549l0.933 0.5h-9.482zM2 14.25v-0.5h6.682l0.933 0.5h-7.616zM2 13.25v-0.5h4.816l0.933 0.5h-5.749zM2 12.25v-0.5h2.949l0.933 0.5h-3.882zM2 11.25v-0.5h1.082l0.933 0.5h-2.016zM2 10.25v-0.080l0.149 0.080h-0.149zM15 14.866l-11.882-6.366 11.882-6.366 11.882 6.366-11.882 6.366z" />
</svg>
