<?xml version="1.0" encoding="utf-8"?>
<!-- Generated by IcoMoon.io -->
<!DOCTYPE svg PUBLIC "-//W3C//DTD SVG 1.1//EN" "http://www.w3.org/Graphics/SVG/1.1/DTD/svg11.dtd">
<svg version="1.1" xmlns="http://www.w3.org/2000/svg" xmlns:xlink="http://www.w3.org/1999/xlink" width="32" height="32" viewBox="0 0 32 32">
	<path d="M27 16h-1.006c0.004-0.166 0.006-0.333 0.006-0.5 0-0.12-0.002-0.24-0.004-0.36 0.002-0.046 0.004-0.093 0.004-0.14 0-2.601-3.585-4.815-8.599-5.647-0.181-0.325-0.381-0.626-0.569-0.908-0.447-0.67-0.832-1.248-0.832-1.883 0-0.762 0.574-1.723 1.707-2.855 0.391-0.39 0.391-1.024 0-1.414-0.39-0.391-1.024-0.391-1.414 0-3.215 3.215-2.398 5.259-1.448 6.768-0.603-0.040-1.218-0.060-1.845-0.060-0.601 0-1.193 0.019-1.773 0.056-0.131-0.214-0.266-0.416-0.395-0.61-0.447-0.67-0.832-1.248-0.832-1.883 0-0.762 0.574-1.723 1.707-2.855 0.391-0.39 0.391-1.024 0-1.414-0.39-0.391-1.024-0.391-1.414 0-3.381 3.381-2.303 5.468-1.3 6.998-5.219 0.78-8.993 3.041-8.993 5.709 0 0.047 0.002 0.093 0.004 0.14-0.002 0.12-0.004 0.24-0.004 0.36 0 9.113 5.82 16.5 13 16.5 4.037 0 7.644-2.335 10.028-6h3.972c2.761 0 5-2.239 5-5s-2.239-5-5-5zM13 18c-4.971 0-9-1.343-9-3 0-1.286 2.428-2.383 5.839-2.81-0.243 0.612-0.759 1.316-1.546 2.103-0.391 0.39-0.391 1.024 0 1.414 0.195 0.195 0.451 0.293 0.707 0.293s0.512-0.098 0.707-0.293c1.447-1.447 2.077-2.656 2.246-3.687 0.344-0.013 0.693-0.020 1.047-0.020 0.997 0 1.956 0.054 2.853 0.154-0.236 0.62-0.757 1.336-1.56 2.139-0.391 0.39-0.391 1.024 0 1.414 0.195 0.195 0.451 0.293 0.707 0.293s0.512-0.098 0.707-0.293c1.24-1.24 1.88-2.306 2.144-3.234 2.495 0.533 4.149 1.466 4.149 2.527 0 1.657-4.029 3-9 3zM27 24h-2.856c0.856-1.804 1.448-3.833 1.708-6h1.148c1.447 0 2.625 1.553 2.625 3s-1.178 3-2.625 3z" />
</svg>
