<?xml version="1.0" encoding="utf-8"?>
<!-- Generated by IcoMoon.io -->
<!DOCTYPE svg PUBLIC "-//W3C//DTD SVG 1.1//EN" "http://www.w3.org/Graphics/SVG/1.1/DTD/svg11.dtd">
<svg version="1.1" xmlns="http://www.w3.org/2000/svg" xmlns:xlink="http://www.w3.org/1999/xlink" width="32" height="32" viewBox="0 0 32 32">
	<path d="M27 16h-1.006c0.004-0.166 0.006-0.333 0.006-0.5 0-0.12-0.002-0.24-0.004-0.36 0.002-0.046 0.004-0.093 0.004-0.14 0-3.314-5.82-6-13-6s-13 2.686-13 6c0 0.047 0.002 0.093 0.004 0.14-0.002 0.12-0.004 0.24-0.004 0.36 0 9.113 5.82 16.5 13 16.5 4.037 0 7.644-2.335 10.028-6h3.972c2.761 0 5-2.239 5-5s-2.239-5-5-5zM13 18c-4.971 0-9-1.343-9-3s4.029-3 9-3c4.971 0 9 1.343 9 3s-4.029 3-9 3zM27 24h-2.856c0.856-1.804 1.448-3.833 1.708-6h1.148c1.447 0 2.625 1.553 2.625 3s-1.178 3-2.625 3z" />
</svg>
