<?xml version="1.0" encoding="utf-8"?>
<!-- Generated by IcoMoon.io -->
<!DOCTYPE svg PUBLIC "-//W3C//DTD SVG 1.1//EN" "http://www.w3.org/Graphics/SVG/1.1/DTD/svg11.dtd">
<svg version="1.1" xmlns="http://www.w3.org/2000/svg" xmlns:xlink="http://www.w3.org/1999/xlink" width="32" height="32" viewBox="0 0 32 32">
	<path d="M28.011 5l-0.012 0.007c0-0.002 0-0.005 0-0.007 0-2.761-5.373-5-12-5-6.627 0-12 2.239-12 5 0 0.002 0 0.005 0 0.007l-0.011-0.007v21.75l0.028-0.018c-0.011 0.089-0.017 0.178-0.017 0.268 0 2.761 5.373 5 12 5 6.627 0 12-2.239 12-5 0-0.090-0.006-0.179-0.017-0.268l0.028 0.018v-21.75zM26 27c0 0.041-0.028 0.127-0.113 0.25h-19.774c-0.085-0.123-0.113-0.209-0.113-0.25s0.028-0.127 0.113-0.25h19.774c0.085 0.123 0.113 0.209 0.113 0.25zM9.941 29.25c-0.538-0.147-1.044-0.314-1.508-0.5h15.133c-0.464 0.186-0.97 0.353-1.508 0.5h-12.118zM19.6 29.75c-1.146 0.163-2.364 0.25-3.6 0.25s-2.453-0.087-3.6-0.25h7.199zM7.367 28.25c-0.326-0.181-0.574-0.351-0.761-0.5h18.788c-0.187 0.149-0.435 0.319-0.761 0.5h-17.265zM5.989 7.757c0.273 0.172 0.572 0.337 0.893 0.493h-0.893v-0.493zM5.989 8.75h2.075c0.502 0.185 1.042 0.352 1.613 0.5h-3.688v-0.5zM5.989 22.75h3.688c-0.572 0.148-1.111 0.315-1.613 0.5h-2.075v-0.5zM12.4 24.25c1.146-0.163 2.364-0.25 3.6-0.25s2.453 0.087 3.6 0.25h-7.199zM22.059 24.75c0.538 0.147 1.044 0.314 1.508 0.5h-15.133c0.464-0.186 0.97-0.353 1.508-0.5h12.118zM5.989 24.243v-0.493h0.893c-0.321 0.156-0.619 0.321-0.893 0.493zM6.606 26.25c0.187-0.149 0.435-0.319 0.761-0.5h17.265c0.326 0.181 0.574 0.351 0.761 0.5h-18.788zM26.011 24.243c-0.273-0.172-0.572-0.337-0.893-0.493h0.893v0.493zM26.011 23.25h-2.075c-0.502-0.185-1.042-0.352-1.613-0.5h3.688v0.5zM26.011 22.25h-6.256c-1.181-0.162-2.443-0.25-3.755-0.25-1.312 0-2.573 0.088-3.755 0.25h-6.256v-0.5h20.023v0.5zM26.011 21.25h-20.023v-0.5h20.023v0.5zM26.011 20.25h-20.023v-0.5h20.023v0.5zM26.011 19.25h-20.023v-0.5h20.023v0.5zM26.011 18.25h-20.023v-0.5h20.023v0.5zM26.011 17.25h-20.023v-0.5h20.023v0.5zM26.011 16.25h-20.023v-0.5h20.023v0.5zM26.011 15.25h-20.023v-0.5h20.023v0.5zM26.011 14.25h-20.023v-0.5h20.023v0.5zM26.011 13.25h-20.023v-0.5h20.023v0.5zM26.011 12.25h-20.023v-0.5h20.023v0.5zM26.011 11.25h-20.023v-0.5h20.023v0.5zM26.011 10.25h-20.023v-0.5h6.256c1.181 0.162 2.443 0.25 3.755 0.25 1.311 0 2.573-0.088 3.755-0.25h6.256v0.5zM26.011 9.25h-3.688c0.572-0.148 1.111-0.315 1.613-0.5h2.075v0.5zM26.011 7.757v0.493h-0.893c0.321-0.156 0.619-0.321 0.893-0.493zM6.347 4.479c0.289-0.285 0.861-0.719 1.937-1.168 1.999-0.833 4.811-1.311 7.716-1.311s5.717 0.478 7.716 1.311c1.077 0.449 1.648 0.883 1.937 1.168 0.274 0.269 0.347 0.455 0.347 0.521s-0.073 0.252-0.347 0.521c-0.29 0.285-0.861 0.719-1.937 1.168-1.999 0.833-4.811 1.311-7.716 1.311s-5.717-0.478-7.716-1.311c-1.077-0.449-1.648-0.883-1.937-1.168-0.274-0.269-0.347-0.455-0.347-0.521s0.073-0.252 0.347-0.521z" />
</svg>
