<?xml version="1.0" encoding="utf-8"?>
<!-- Generated by IcoMoon.io -->
<!DOCTYPE svg PUBLIC "-//W3C//DTD SVG 1.1//EN" "http://www.w3.org/Graphics/SVG/1.1/DTD/svg11.dtd">
<svg version="1.1" xmlns="http://www.w3.org/2000/svg" xmlns:xlink="http://www.w3.org/1999/xlink" width="32" height="32" viewBox="0 0 32 32">
	<path d="M16 0c-8.837 0-16 2.686-16 6v20c0 3.314 7.163 6 16 6s16-2.686 16-6v-20c0-3.314-7.163-6-16-6zM30 26c0 0.285-0.622 1.333-3.389 2.37-1.344 0.504-2.924 0.902-4.697 1.183-1.869 0.297-3.859 0.447-5.915 0.447-2.055 0-4.045-0.15-5.915-0.447-1.773-0.281-3.353-0.679-4.697-1.183-2.766-1.037-3.389-2.085-3.389-2.37v-7.094c2.729 1.845 7.975 3.094 14 3.094s11.271-1.249 14-3.094v7.094zM30 16c0 0.285-0.622 1.333-3.389 2.37-1.344 0.504-2.924 0.902-4.697 1.183-1.869 0.297-3.859 0.447-5.915 0.447-2.055 0-4.045-0.15-5.915-0.447-1.773-0.281-3.353-0.679-4.697-1.183-2.766-1.037-3.389-2.085-3.389-2.37v-7.094c2.729 1.845 7.975 3.094 14 3.094s11.271-1.249 14-3.094v7.094zM27.511 8c-0.271 0.123-0.57 0.246-0.899 0.37-1.344 0.504-2.924 0.902-4.697 1.183-1.869 0.296-3.859 0.447-5.915 0.447-2.055 0-4.045-0.15-5.915-0.447-1.773-0.281-3.353-0.679-4.697-1.183-0.33-0.124-0.628-0.247-0.899-0.37-2.005-0.906-2.489-1.749-2.489-2 0-0.285 0.623-1.333 3.389-2.37 1.344-0.504 2.924-0.902 4.697-1.183 1.869-0.296 3.859-0.447 5.915-0.447 2.055 0 4.045 0.15 5.915 0.447 1.773 0.281 3.353 0.679 4.697 1.183 2.766 1.037 3.389 2.085 3.389 2.37 0 0.251-0.484 1.094-2.489 2z" />
</svg>
