<?xml version="1.0" encoding="utf-8"?>
<!-- Generated by IcoMoon.io -->
<!DOCTYPE svg PUBLIC "-//W3C//DTD SVG 1.1//EN" "http://www.w3.org/Graphics/SVG/1.1/DTD/svg11.dtd">
<svg version="1.1" xmlns="http://www.w3.org/2000/svg" xmlns:xlink="http://www.w3.org/1999/xlink" width="32" height="32" viewBox="0 0 32 32">
	<path d="M24 4h-16l-8 8 16 18 16-18-8-8zM16 24.333v-0.083h-0.074l-0.444-0.5h0.518v-0.5h-0.963l-0.444-0.5h1.407v-0.5h-1.852l-0.444-0.5h2.296v-0.5h-2.741l-0.444-0.5h3.185v-0.5h-3.63l-0.444-0.5h4.074v-0.5h-4.518l-0.444-0.5h4.963v-0.5h-5.407l-0.444-0.5h5.852v-0.5h-6.296l-0.444-0.5h6.741v-0.5h-7.185l-0.444-0.5h7.63v-0.5h-8.074l-0.444-0.5h8.519v-0.5h-8.963l-0.444-0.5h9.407v-0.5h-9.852l-0.444-0.5h10.296v-0.5h-10.741l-0.229-0.258 4.346-4.346h6.624v0.104h6.729l0.5 0.5h-7.229v0.5h7.729l0.5 0.5h-8.229v0.5h8.729l0.5 0.5h-9.229v0.5h9.729l0.5 0.5h-10.229v0.5h10.728l0.242 0.242-10.97 12.341z" />
</svg>
