<?xml version="1.0" encoding="utf-8"?>
<!-- Generated by IcoMoon.io -->
<!DOCTYPE svg PUBLIC "-//W3C//DTD SVG 1.1//EN" "http://www.w3.org/Graphics/SVG/1.1/DTD/svg11.dtd">
<svg version="1.1" xmlns="http://www.w3.org/2000/svg" xmlns:xlink="http://www.w3.org/1999/xlink" width="32" height="32" viewBox="0 0 32 32">
	<path d="M25 12h-7v-8h-4v8h-7l9 8zM23.222 16.645l-1.050 0.924c3.492 0.699 5.829 1.974 5.829 3.431 0 2.209-5.373 4-12 4-6.627 0-12-1.791-12-4 0-1.457 2.337-2.732 5.828-3.431l-1.050-0.924c-5.208 0.99-8.778 3.016-8.778 5.355 0 3.314 7.163 6 16 6s16-2.686 16-6c0-2.339-3.57-4.366-8.778-5.355z" />
</svg>
