<?xml version="1.0" encoding="utf-8"?>
<!-- Generated by IcoMoon.io -->
<!DOCTYPE svg PUBLIC "-//W3C//DTD SVG 1.1//EN" "http://www.w3.org/Graphics/SVG/1.1/DTD/svg11.dtd">
<svg version="1.1" xmlns="http://www.w3.org/2000/svg" xmlns:xlink="http://www.w3.org/1999/xlink" width="32" height="32" viewBox="0 0 32 32">
	<path d="M6 32h20c3.314 0 6-2.686 6-6h-32c0 3.314 2.686 6 6 6zM26 28h2v2h-2v-2zM25 8l-9 9-9-9h7v-8h4v8zM31.962 23.038c0.153 0.529-0.178 0.962-0.736 0.962h-30.453c-0.558 0-0.89-0.433-0.736-0.962l3.503-10.077c0.153-0.529 0.736-0.962 1.294-0.962h2.166l8 8h2l8-8h2.166c0.558 0 1.141 0.433 1.294 0.962l3.503 10.077z" />
</svg>
