<?xml version="1.0" encoding="utf-8"?>
<!-- Generated by IcoMoon.io -->
<!DOCTYPE svg PUBLIC "-//W3C//DTD SVG 1.1//EN" "http://www.w3.org/Graphics/SVG/1.1/DTD/svg11.dtd">
<svg version="1.1" xmlns="http://www.w3.org/2000/svg" xmlns:xlink="http://www.w3.org/1999/xlink" width="32" height="32" viewBox="0 0 32 32">
	<path d="M28.078 0l2.101 17.861-2.359 0.277-1.877-15.951h-19.888l-1.877 15.951-2.359-0.277 2.101-17.861zM8 4h16v2h-16zM8 8h16v2h-16zM8 12h16v2h-16zM8 16h16v2h-16zM31 20h-30c-0.55 0-0.858 0.427-0.684 0.949l3.368 10.103c0.174 0.522 0.766 0.949 1.316 0.949h22c0.55 0 1.142-0.427 1.316-0.949l3.368-10.103c0.174-0.522-0.134-0.949-0.684-0.949zM20 24h-8v-2h8v2z" />
</svg>
