<?xml version="1.0" encoding="utf-8"?>
<!-- Generated by IcoMoon.io -->
<!DOCTYPE svg PUBLIC "-//W3C//DTD SVG 1.1//EN" "http://www.w3.org/Graphics/SVG/1.1/DTD/svg11.dtd">
<svg version="1.1" xmlns="http://www.w3.org/2000/svg" xmlns:xlink="http://www.w3.org/1999/xlink" width="32" height="32" viewBox="0 0 32 32">
	<path d="M7.502 19.71c-0-0.005-0-0.011-0-0.016-0.001-0.064-0.002-0.129-0.002-0.194 0-0.059 0.001-0.119 0.002-0.178 0-0.019 0.001-0.038 0.001-0.058 0.001-0.039 0.002-0.078 0.003-0.117 0.274-8.631 10.494-17.148 10.494-17.148 0 0 2.356 1.964 4.836 4.96l-15.037 15.037c-0.179-0.735-0.282-1.501-0.297-2.287zM28.497 19.265c-0.001-0.039-0.002-0.078-0.003-0.117-0.097-3.038-1.426-6.062-3.107-8.706l6.528-6.528-1.539-1.539-28 28 1.539 1.539 5.873-5.873c1.924 2.412 4.888 3.958 8.213 3.958 5.729 0 10.386-4.588 10.498-10.29 0-0.005 0-0.011 0-0.016 0.001-0.064 0.002-0.129 0.002-0.194 0-0.059-0.001-0.119-0.002-0.178-0-0.019-0.001-0.038-0.001-0.058zM24.999 19.63l-0 0.011c-0.036 1.84-0.78 3.564-2.095 4.855-1.317 1.293-3.058 2.004-4.903 2.004-0.341 0-0.678-0.024-1.010-0.072 3.802-2.265 6.35-6.418 6.35-11.165 0-0.532-0.032-1.056-0.095-1.572 1.101 2.022 1.697 3.905 1.75 5.568l0 0.004c0.001 0.026 0.001 0.052 0.002 0.078l0.001 0.040c0.001 0.040 0.001 0.080 0.001 0.12 0 0.043-0.001 0.087-0.001 0.13z" />
</svg>
