<?xml version="1.0" encoding="utf-8"?>
<!-- Generated by IcoMoon.io -->
<!DOCTYPE svg PUBLIC "-//W3C//DTD SVG 1.1//EN" "http://www.w3.org/Graphics/SVG/1.1/DTD/svg11.dtd">
<svg version="1.1" xmlns="http://www.w3.org/2000/svg" xmlns:xlink="http://www.w3.org/1999/xlink" width="32" height="32" viewBox="0 0 32 32">
	<path d="M27.998 19.797c-0-0.022-0.001-0.044-0.001-0.066-0.001-0.045-0.002-0.089-0.004-0.134-0.313-9.864-11.993-19.597-11.993-19.597s-11.68 9.733-11.993 19.598c-0.001 0.045-0.003 0.089-0.004 0.134-0 0.022-0.001 0.044-0.001 0.066-0.001 0.067-0.002 0.135-0.002 0.203 0 0.074 0.001 0.148 0.002 0.221 0 0.006 0 0.012 0 0.018 0.127 6.517 5.45 11.76 11.997 11.76 6.547 0 11.87-5.244 11.997-11.761 0-0.006 0-0.012 0-0.018 0.001-0.074 0.002-0.147 0.002-0.221 0-0.068-0.001-0.136-0.002-0.203zM23.998 20.148l-0 0.013c-0.041 2.103-0.892 4.073-2.395 5.548-1.504 1.477-3.495 2.291-5.604 2.291-0.389 0-0.775-0.028-1.154-0.082 4.346-2.589 7.257-7.335 7.257-12.76 0-0.608-0.037-1.207-0.108-1.796 1.259 2.311 1.939 4.462 2 6.363l0 0.005c0.001 0.030 0.002 0.059 0.002 0.089l0.001 0.045c0.001 0.046 0.002 0.091 0.002 0.137 0 0.049-0.001 0.099-0.002 0.148z" />
</svg>
