<?xml version="1.0" encoding="utf-8"?>
<!-- Generated by IcoMoon.io -->
<!DOCTYPE svg PUBLIC "-//W3C//DTD SVG 1.1//EN" "http://www.w3.org/Graphics/SVG/1.1/DTD/svg11.dtd">
<svg version="1.1" xmlns="http://www.w3.org/2000/svg" xmlns:xlink="http://www.w3.org/1999/xlink" width="32" height="32" viewBox="0 0 32 32">
	<path d="M16 5.501c-0.864 0.887-1.861 1.981-2.855 3.22-3.264 4.073-5.041 7.877-5.141 11.003-0.001 0.033-0.002 0.064-0.003 0.095l-0 0.020-0.001 0.028c-0.001 0.044-0.001 0.089-0.001 0.133 0 0.041 0 0.082 0.001 0.122l0.001 0.039c0.041 2.102 0.891 4.072 2.394 5.548 1.505 1.477 3.495 2.291 5.604 2.291 2.109 0 4.099-0.814 5.604-2.291 1.502-1.475 2.352-3.444 2.394-5.545l0-0.015c0.001-0.050 0.002-0.099 0.002-0.149 0-0.045-0.001-0.089-0.001-0.134l-0-0.005-0-0.014-0-0.028c-0.001-0.028-0.001-0.056-0.002-0.085l-0-0.005-0-0.005c-0.099-3.126-1.877-6.93-5.141-11.003-0.993-1.239-1.991-2.333-2.855-3.22zM16 0v0c0 0 11.68 9.733 11.993 19.597 0.002 0.045 0.003 0.089 0.004 0.134 0 0.022 0.001 0.044 0.001 0.066 0.001 0.068 0.002 0.135 0.002 0.203 0 0.074-0.001 0.148-0.002 0.221-0 0.006-0 0.012-0 0.018-0.128 6.517-5.45 11.761-11.997 11.761-6.547 0-11.87-5.244-11.997-11.76-0-0.006-0-0.012-0-0.018-0.001-0.074-0.002-0.147-0.002-0.221 0-0.068 0.001-0.136 0.002-0.203 0-0.022 0.001-0.044 0.001-0.066 0.001-0.045 0.002-0.089 0.004-0.134 0.313-9.864 11.993-19.598 11.993-19.598z" />
</svg>
