<?xml version="1.0" encoding="utf-8"?>
<!-- Generated by IcoMoon.io -->
<!DOCTYPE svg PUBLIC "-//W3C//DTD SVG 1.1//EN" "http://www.w3.org/Graphics/SVG/1.1/DTD/svg11.dtd">
<svg version="1.1" xmlns="http://www.w3.org/2000/svg" xmlns:xlink="http://www.w3.org/1999/xlink" width="32" height="32" viewBox="0 0 32 32">
	<path d="M16 4.083c-1.015 1-2.316 2.371-3.612 3.985-3.415 4.254-5.276 8.273-5.383 11.625-0.001 0.035-0.002 0.070-0.003 0.105l-0 0.024-0.001 0.028c-0.001 0.050-0.001 0.1-0.001 0.151 0 0.049 0.001 0.099 0.001 0.148l0 0.002 0.001 0.032c0.046 2.365 1.003 4.582 2.693 6.242 1.693 1.662 3.932 2.577 6.304 2.577 2.373 0 4.612-0.915 6.304-2.577 1.69-1.66 2.647-3.876 2.694-6.241l0-0.015c0.001-0.055 0.002-0.111 0.002-0.167 0-0.051-0.001-0.101-0.001-0.152l-0-0.021-0.001-0.029c-0.001-0.032-0.002-0.065-0.003-0.097l-0-0.008c-0.107-3.352-1.968-7.372-5.383-11.625-1.296-1.614-2.597-2.985-3.612-3.985zM16 0v0c0 0 11.68 9.733 11.993 19.597 0.002 0.045 0.003 0.089 0.004 0.134 0 0.022 0.001 0.044 0.001 0.066 0.001 0.068 0.002 0.135 0.002 0.203 0 0.074-0.001 0.148-0.002 0.221-0 0.006-0 0.012-0 0.018-0.128 6.517-5.45 11.761-11.997 11.761-6.547 0-11.87-5.244-11.997-11.76-0-0.006-0-0.012-0-0.018-0.001-0.074-0.002-0.147-0.002-0.221 0-0.068 0.001-0.136 0.002-0.203 0-0.022 0.001-0.044 0.001-0.066 0.001-0.045 0.002-0.089 0.004-0.134 0.313-9.864 11.993-19.598 11.993-19.598zM22.624 19.507c0.001 0.039 0.001 0.078 0.001 0.118 0 0.043-0.001 0.086-0.001 0.131l-0 0.010-0 0.005c-0.037 1.837-0.781 3.559-2.095 4.849-1.317 1.293-3.058 2.004-4.903 2.004-1.468 0-2.869-0.451-4.044-1.285 0.263 0.023 0.527 0.035 0.794 0.035 2.373 0 4.612-0.915 6.304-2.577 1.69-1.66 2.647-3.876 2.694-6.241l0-0.005 0-0.010c0.001-0.055 0.002-0.111 0.002-0.167 0-0.051-0.001-0.101-0.001-0.152l-0-0.021-0.001-0.029c-0.001-0.032-0.002-0.065-0.003-0.097l-0-0.008c-0.019-0.586-0.092-1.193-0.217-1.818 0.921 1.866 1.419 3.597 1.468 5.135l0 0.006 0 0.002c0.001 0.024 0.001 0.048 0.002 0.072l0 0.027 0 0.015z" />
</svg>
