<?xml version="1.0" encoding="utf-8"?>
<!-- Generated by IcoMoon.io -->
<!DOCTYPE svg PUBLIC "-//W3C//DTD SVG 1.1//EN" "http://www.w3.org/Graphics/SVG/1.1/DTD/svg11.dtd">
<svg version="1.1" xmlns="http://www.w3.org/2000/svg" xmlns:xlink="http://www.w3.org/1999/xlink" width="32" height="32" viewBox="0 0 32 32">
	<path d="M4.5 8h-1c-0.275 0-0.5 0.225-0.5 0.5v15c0 0.275 0.225 0.5 0.5 0.5h1c0.275 0 0.5-0.225 0.5-0.5v-15c0-0.275-0.225-0.5-0.5-0.5zM1.5 12h-1c-0.275 0-0.5 0.15-0.5 0.333v7.333c0 0.183 0.225 0.333 0.5 0.333h1c0.275 0 0.5-0.15 0.5-0.333v-7.333c0-0.183-0.225-0.333-0.5-0.333zM25 6h-2c-0.55 0-1 0.45-1 1v7h-12v-7c0-0.55-0.45-1-1-1h-2c-0.55 0-1 0.45-1 1v18c0 0.55 0.45 1 1 1h2c0.55 0 1-0.45 1-1v-7h12v7c0 0.55 0.45 1 1 1h2c0.55 0 1-0.45 1-1v-18c0-0.55-0.45-1-1-1zM28.5 8h-1c-0.275 0-0.5 0.225-0.5 0.5v15c0 0.275 0.225 0.5 0.5 0.5h1c0.275 0 0.5-0.225 0.5-0.5v-15c0-0.275-0.225-0.5-0.5-0.5zM31.5 12h-1c-0.275 0-0.5 0.15-0.5 0.333v7.333c0 0.183 0.225 0.333 0.5 0.333h1c0.275 0 0.5-0.15 0.5-0.333v-7.333c0-0.183-0.225-0.333-0.5-0.333z" />
</svg>
