<?xml version="1.0" encoding="utf-8"?>
<!-- Generated by IcoMoon.io -->
<!DOCTYPE svg PUBLIC "-//W3C//DTD SVG 1.1//EN" "http://www.w3.org/Graphics/SVG/1.1/DTD/svg11.dtd">
<svg version="1.1" xmlns="http://www.w3.org/2000/svg" xmlns:xlink="http://www.w3.org/1999/xlink" width="32" height="32" viewBox="0 0 32 32">
	<path d="M16 0c-8.837 0-16 7.163-16 16s7.163 16 16 16 16-7.163 16-16-7.163-16-16-16zM16 24c-4.418 0-8-3.582-8-8s3.582-8 8-8 8 3.582 8 8-3.582 8-8 8zM18.56 15.844c0.676-0.613 1.096-1.465 1.096-2.407 0-1.861-1.64-3.375-3.657-3.375-2.016 0-3.657 1.514-3.657 3.375 0 0.942 0.42 1.794 1.096 2.407-0.88 0.643-1.441 1.608-1.441 2.687 0 1.93 1.795 3.5 4.001 3.5 2.206 0 4.001-1.57 4.001-3.5 0-1.079-0.561-2.044-1.441-2.687zM14.093 13.438c0-0.896 0.855-1.625 1.907-1.625 1.051 0 1.907 0.729 1.907 1.625 0 0.809-0.697 1.482-1.606 1.605-0.099-0.007-0.199-0.011-0.3-0.011-0.101 0-0.201 0.004-0.3 0.011-0.909-0.123-1.606-0.796-1.606-1.605zM16 20.219c-1.207 0-2.188-0.757-2.188-1.688s0.982-1.688 2.188-1.688c1.207 0 2.189 0.757 2.189 1.688s-0.982 1.688-2.189 1.688z" />
</svg>
