<?xml version="1.0" encoding="utf-8"?>
<!-- Generated by IcoMoon.io -->
<!DOCTYPE svg PUBLIC "-//W3C//DTD SVG 1.1//EN" "http://www.w3.org/Graphics/SVG/1.1/DTD/svg11.dtd">
<svg version="1.1" xmlns="http://www.w3.org/2000/svg" xmlns:xlink="http://www.w3.org/1999/xlink" width="32" height="32" viewBox="0 0 32 32">
	<path d="M30 2h-28c-1.1 0-2 0.9-2 2v24c0 1.1 0.9 2 2 2h28c1.1 0 2-0.9 2-2v-24c0-1.1-0.9-2-2-2zM30 27.996c-0.001 0.001-0.002 0.003-0.004 0.004h-27.993c-0.001-0.001-0.002-0.002-0.003-0.004v-23.993c0.001-0.001 0.002-0.002 0.004-0.004h27.993c0.001 0.001 0.003 0.002 0.004 0.004l-0 23.993zM13.5 22h-1.5v-16h-4v16h-1.5c-0.275 0-0.5 0.225-0.5 0.5v3c0 0.275 0.225 0.5 0.5 0.5h7c0.275 0 0.5-0.225 0.5-0.5v-3c0-0.275-0.225-0.5-0.5-0.5zM18.5 10h1.5v16h4v-16h1.5c0.275 0 0.5-0.225 0.5-0.5v-3c0-0.275-0.225-0.5-0.5-0.5h-7c-0.275 0-0.5 0.225-0.5 0.5v3c0 0.275 0.225 0.5 0.5 0.5z" />
</svg>
