<?xml version="1.0" encoding="utf-8"?>
<!-- Generated by IcoMoon.io -->
<!DOCTYPE svg PUBLIC "-//W3C//DTD SVG 1.1//EN" "http://www.w3.org/Graphics/SVG/1.1/DTD/svg11.dtd">
<svg version="1.1" xmlns="http://www.w3.org/2000/svg" xmlns:xlink="http://www.w3.org/1999/xlink" width="32" height="32" viewBox="0 0 32 32">
	<path d="M9 10h-4c-0.55 0-1 0.45-1 1v2c0 0.55 0.45 1 1 1h4c0.55 0 1-0.45 1-1v-2c0-0.55-0.45-1-1-1zM6 4h2v5h-2zM6 15h2v13h-2zM17 18h-4c-0.55 0-1 0.45-1 1v2c0 0.55 0.45 1 1 1h4c0.55 0 1-0.45 1-1v-2c0-0.55-0.45-1-1-1zM14 4h2v13h-2zM14 23h2v5h-2zM25 12h-4c-0.55 0-1 0.45-1 1v2c0 0.55 0.45 1 1 1h4c0.55 0 1-0.45 1-1v-2c0-0.55-0.45-1-1-1zM22 4h2v7h-2zM22 17h2v11h-2zM27.5 0h-25c-1.379 0-2.5 1.121-2.5 2.5v27c0 1.378 1.121 2.5 2.5 2.5h25c1.378 0 2.5-1.122 2.5-2.5v-27c0-1.379-1.122-2.5-2.5-2.5zM28 29.5c0 0.275-0.225 0.5-0.5 0.5h-25c-0.275 0-0.5-0.225-0.5-0.5v-27c0-0.275 0.225-0.5 0.5-0.5h25c0.275 0 0.5 0.225 0.5 0.5v27z" />
</svg>
