<?xml version="1.0" encoding="utf-8"?>
<!-- Generated by IcoMoon.io -->
<!DOCTYPE svg PUBLIC "-//W3C//DTD SVG 1.1//EN" "http://www.w3.org/Graphics/SVG/1.1/DTD/svg11.dtd">
<svg version="1.1" xmlns="http://www.w3.org/2000/svg" xmlns:xlink="http://www.w3.org/1999/xlink" width="32" height="32" viewBox="0 0 32 32">
	<path d="M16 20c2.209 0 4-1.791 4-4 0-0.852-0.267-1.641-0.721-2.289l9.48-11.060-1.519-1.302-9.479 11.059c-0.532-0.261-1.129-0.408-1.761-0.408-2.209 0-4 1.791-4 4 0 0.852 0.267 1.641 0.721 2.289l-9.48 11.060 1.518 1.302 9.479-11.059c0.532 0.261 1.129 0.408 1.761 0.408zM10.34 17.994c-0.22-0.624-0.34-1.295-0.34-1.994 0-3.314 2.686-6 6-6 0.377 0 0.746 0.035 1.104 0.102l2.318-2.704c-1.125-0.253-2.273-0.398-3.422-0.398-8 0-16 7-16 9 0 1.176 2.766 4.080 6.671 6.274l3.668-4.28zM25.329 9.726l-3.668 4.28c0.22 0.624 0.34 1.295 0.34 1.994 0 3.314-2.686 6-6 6-0.377 0-0.746-0.035-1.104-0.102l-2.318 2.704c1.125 0.253 2.273 0.398 3.422 0.398 8 0 16-7 16-9-0-1.176-2.766-4.080-6.671-6.274z" />
</svg>
