<?xml version="1.0" encoding="utf-8"?>
<!-- Generated by IcoMoon.io -->
<!DOCTYPE svg PUBLIC "-//W3C//DTD SVG 1.1//EN" "http://www.w3.org/Graphics/SVG/1.1/DTD/svg11.dtd">
<svg version="1.1" xmlns="http://www.w3.org/2000/svg" xmlns:xlink="http://www.w3.org/1999/xlink" width="32" height="32" viewBox="0 0 32 32">
	<path d="M16 7c-8 0-16 7-16 9v0c0 2 8 9 16 9s16-7 16-9v0c-0-2-8-9-16-9zM16 22c-3.314 0-6-2.686-6-6s2.686-6 6-6c3.314 0 6 2.686 6 6 0 3.314-2.686 6-6 6zM12 16c0-2.209 1.791-4 4-4s4 1.791 4 4c0 2.209-1.791 4-4 4-2.209 0-4-1.791-4-4z" />
</svg>
