<?xml version="1.0" encoding="utf-8"?>
<!-- Generated by IcoMoon.io -->
<!DOCTYPE svg PUBLIC "-//W3C//DTD SVG 1.1//EN" "http://www.w3.org/Graphics/SVG/1.1/DTD/svg11.dtd">
<svg version="1.1" xmlns="http://www.w3.org/2000/svg" xmlns:xlink="http://www.w3.org/1999/xlink" width="32" height="32" viewBox="0 0 32 32">
	<path d="M16 25.594c-4.631 0-8.752-2.269-10.796-3.621-1.37-0.906-2.631-1.944-3.55-2.921-1.113-1.183-1.653-2.181-1.653-3.051 0-0.87 0.541-1.868 1.653-3.051 0.919-0.977 2.18-2.015 3.55-2.921 2.044-1.352 6.165-3.621 10.796-3.621 4.631 0 8.752 2.269 10.796 3.621 1.37 0.906 2.631 1.944 3.55 2.921 1.113 1.183 1.653 2.181 1.654 3.051-0 0.87-0.541 1.868-1.654 3.051-0.919 0.977-2.18 2.015-3.55 2.921-2.044 1.352-6.165 3.621-10.796 3.621zM3.051 16c0.344 0.634 1.766 2.185 4.189 3.717 1.7 1.074 5.099 2.877 8.76 2.877 3.661 0 7.060-1.802 8.76-2.877 2.423-1.531 3.845-3.083 4.189-3.717-0.345-0.634-1.766-2.185-4.189-3.717-1.7-1.074-5.099-2.877-8.76-2.877s-7.060 1.802-8.76 2.877c-2.423 1.531-3.845 3.083-4.189 3.717zM12 16c0-2.209 1.791-4 4-4s4 1.791 4 4c0 2.209-1.791 4-4 4-2.209 0-4-1.791-4-4z" />
</svg>
