<?xml version="1.0" encoding="utf-8"?>
<!-- Generated by IcoMoon.io -->
<!DOCTYPE svg PUBLIC "-//W3C//DTD SVG 1.1//EN" "http://www.w3.org/Graphics/SVG/1.1/DTD/svg11.dtd">
<svg version="1.1" xmlns="http://www.w3.org/2000/svg" xmlns:xlink="http://www.w3.org/1999/xlink" width="32" height="32" viewBox="0 0 32 32">
	<path d="M5.81 22.36c-0.218-0.135-0.421-0.265-0.606-0.388-1.37-0.906-2.631-1.944-3.55-2.921-1.113-1.183-1.653-2.181-1.653-3.051 0-0.87 0.541-1.868 1.653-3.051 0.919-0.977 2.18-2.015 3.55-2.921 2.044-1.352 6.165-3.621 10.796-3.621 0.394 0 0.785 0.018 1.171 0.049l-2.138 2.993c-3.284 0.273-6.244 1.856-7.793 2.835-2.423 1.531-3.845 3.083-4.189 3.717 0.344 0.634 1.766 2.185 4.189 3.717 0.1 0.063 0.206 0.129 0.318 0.197l-1.748 2.447zM30.346 12.949c-0.919-0.977-2.18-2.015-3.55-2.921-1.020-0.675-2.559-1.578-4.419-2.313l3.589-5.024-1.933-1.38-20 28 1.933 1.381 4.38-6.133c1.699 0.602 3.627 1.036 5.653 1.036 4.631 0 8.752-2.269 10.796-3.621 1.37-0.906 2.631-1.944 3.55-2.921 1.113-1.183 1.653-2.181 1.654-3.051-0-0.87-0.541-1.868-1.654-3.051zM24.76 19.717c-1.7 1.074-5.099 2.877-8.76 2.877-1.333 0-2.631-0.239-3.825-0.595l1.815-2.541c0.591 0.344 1.277 0.542 2.011 0.542 2.209 0 4-1.791 4-4 0-1.208-0.536-2.289-1.382-3.022l1.954-2.735c1.759 0.613 3.239 1.44 4.188 2.040 2.423 1.531 3.845 3.083 4.189 3.717-0.344 0.634-1.766 2.185-4.189 3.717z" />
</svg>
