<?xml version="1.0" encoding="utf-8"?>
<!-- Generated by IcoMoon.io -->
<!DOCTYPE svg PUBLIC "-//W3C//DTD SVG 1.1//EN" "http://www.w3.org/Graphics/SVG/1.1/DTD/svg11.dtd">
<svg version="1.1" xmlns="http://www.w3.org/2000/svg" xmlns:xlink="http://www.w3.org/1999/xlink" width="32" height="32" viewBox="0 0 32 32">
	<path d="M16 10c-6.543 0-12.351 3.142-16 8 3.649 4.858 9.457 8 16 8 6.543 0 12.351-3.142 16-8-3.649-4.858-9.457-8-16-8zM14 14c1.105 0 2 0.895 2 2s-0.895 2-2 2-2-0.895-2-2 0.895-2 2-2zM24.175 22.041c-1.239 0.633-2.552 1.121-3.901 1.449-1.39 0.339-2.828 0.51-4.274 0.51-1.446 0-2.884-0.172-4.274-0.51-1.35-0.329-2.662-0.816-3.901-1.449-1.969-1.006-3.757-2.388-5.239-4.041 1.482-1.653 3.269-3.034 5.239-4.041 1.011-0.516 2.070-0.936 3.159-1.251-0.621 0.945-0.983 2.076-0.983 3.292 0 3.314 2.686 6 6 6 3.314 0 6-2.686 6-6 0-1.216-0.362-2.347-0.983-3.292 1.089 0.316 2.148 0.735 3.159 1.251 1.969 1.006 3.757 2.388 5.239 4.041-1.482 1.653-3.269 3.034-5.239 4.041zM26.904 7.616c-3.398-1.736-7.066-2.616-10.904-2.616-3.838 0-7.506 0.88-10.904 2.616-1.837 0.938-3.554 2.122-5.096 3.502v3.413c1.729-1.83 3.772-3.367 6.006-4.509 3.113-1.591 6.476-2.397 9.994-2.397s6.881 0.807 9.994 2.397c2.234 1.142 4.277 2.679 6.006 4.509v-3.413c-1.542-1.38-3.26-2.564-5.096-3.502z" />
</svg>
