<?xml version="1.0" encoding="utf-8"?>
<!-- Generated by IcoMoon.io -->
<!DOCTYPE svg PUBLIC "-//W3C//DTD SVG 1.1//EN" "http://www.w3.org/Graphics/SVG/1.1/DTD/svg11.dtd">
<svg version="1.1" xmlns="http://www.w3.org/2000/svg" xmlns:xlink="http://www.w3.org/1999/xlink" width="32" height="32" viewBox="0 0 32 32">
	<path d="M11.125 16c0-2.692 2.183-4.875 4.875-4.875s4.875 2.183 4.875 4.875c0 2.692-2.183 4.875-4.875 4.875-2.692 0-4.875-2.183-4.875-4.875zM16 0c-8.837 0-16 7.163-16 16s7.163 16 16 16 16-7.163 16-16-7.163-16-16-16zM16 23.313c-6.5 0-13-5.687-13-7.313 0-1.625 6.5-7.313 13-7.313s13 5.687 13 7.313c-0 1.625-6.5 7.313-13 7.313z" />
</svg>
