<?xml version="1.0" encoding="utf-8"?>
<!-- Generated by IcoMoon.io -->
<!DOCTYPE svg PUBLIC "-//W3C//DTD SVG 1.1//EN" "http://www.w3.org/Graphics/SVG/1.1/DTD/svg11.dtd">
<svg version="1.1" xmlns="http://www.w3.org/2000/svg" xmlns:xlink="http://www.w3.org/1999/xlink" width="32" height="32" viewBox="0 0 32 32">
	<path d="M24 10h-3.5c-2 0-0.5-2-0.5-6 0-0.472-0.056-0.832-0.155-1.101-0.478-1.674-2.018-2.899-3.845-2.899-1.827 0-3.367 1.226-3.845 2.899-0.098 0.269-0.155 0.628-0.155 1.101 0 4 1.5 6-0.5 6h-3.5v4h4v15.5c0 0.275 0.225 0.5 0.5 0.5h1c0.275 0 0.5 0.225 0.5 0.5v1c0 0.275 0.225 0.5 0.5 0.5h3c0.275 0 0.5-0.225 0.5-0.5v-1c0-0.275 0.225-0.5 0.5-0.5h1c0.275 0 0.5-0.225 0.5-0.5v-15.5h4v-4zM18 28.050c-0.978 0.199-1.75 0.972-1.95 1.95h-0.1c-0.199-0.978-0.972-1.75-1.95-1.95v-14.050h4v14.050z" />
</svg>
