<?xml version="1.0" encoding="utf-8"?>
<!-- Generated by IcoMoon.io -->
<!DOCTYPE svg PUBLIC "-//W3C//DTD SVG 1.1//EN" "http://www.w3.org/Graphics/SVG/1.1/DTD/svg11.dtd">
<svg version="1.1" xmlns="http://www.w3.org/2000/svg" xmlns:xlink="http://www.w3.org/1999/xlink" width="32" height="32" viewBox="0 0 32 32">
	<path d="M30.683 1.317c4.401 4.401-3.482 7.085-5.339 8.942-0.344 0.344-0.676 0.675-0.987 0.987l1.895 1.895c0.387 0.387 0.387 1.021 0 1.408l-1.892 1.892c-0.387 0.387-1.021 0.387-1.408 0l-1.885-1.885-11.787 11.786c-2.018 2.018-5.888 3.78-7.766 5.658-0.563-0.563-0.757-0.757-0.757-0.757 0 0-0.194-0.194-0.757-0.757 1.877-1.878 3.64-5.747 5.658-7.766l11.787-11.787-1.885-1.885c-0.387-0.387-0.387-1.021 0-1.408l1.892-1.892c0.387-0.387 1.021-0.387 1.408 0l1.895 1.895c0.311-0.311 0.643-0.643 0.987-0.987 1.857-1.856 4.541-9.739 8.942-5.338zM8.364 25.425l11.988-11.988-1.789-1.789-11.988 11.988c-0.927 0.927-1.857 2.385-2.756 3.795l-0.004 0.006c-0.492 0.772-0.967 1.516-1.45 2.197 0.683-0.484 1.43-0.96 2.204-1.454 1.41-0.899 2.868-1.829 3.795-2.756z" />
</svg>
