<?xml version="1.0" encoding="utf-8"?>
<!-- Generated by IcoMoon.io -->
<!DOCTYPE svg PUBLIC "-//W3C//DTD SVG 1.1//EN" "http://www.w3.org/Graphics/SVG/1.1/DTD/svg11.dtd">
<svg version="1.1" xmlns="http://www.w3.org/2000/svg" xmlns:xlink="http://www.w3.org/1999/xlink" width="32" height="32" viewBox="0 0 32 32">
	<path d="M28.778 15.769c-1.587-1.587-3.538-2.587-5.585-3.001l6.41-6.41c1.362-1.363 2.12-3.101-0.447-4.823-4.221-2.506-9.758-1.944-13.388 1.687-1.587 1.587-2.587 3.538-3.001 5.585l-6.41-6.41c-1.363-1.362-3.101-2.12-4.823 0.446-2.506 4.221-1.944 9.758 1.687 13.388 1.587 1.587 3.538 2.587 5.585 3.001l-6.41 6.41c-1.362 1.363-2.12 3.101 0.446 4.823 4.221 2.506 9.758 1.944 13.388-1.686 1.587-1.587 2.587-3.538 3.001-5.585l6.41 6.41c1.363 1.362 3.101 2.12 4.823-0.446 2.506-4.221 1.944-9.758-1.687-13.388zM16 20c-2.209 0-4-1.791-4-4 0-2.209 1.791-4 4-4 2.209 0 4 1.791 4 4 0 2.209-1.791 4-4 4z" />
</svg>
