<?xml version="1.0" encoding="utf-8"?>
<!-- Generated by IcoMoon.io -->
<!DOCTYPE svg PUBLIC "-//W3C//DTD SVG 1.1//EN" "http://www.w3.org/Graphics/SVG/1.1/DTD/svg11.dtd">
<svg version="1.1" xmlns="http://www.w3.org/2000/svg" xmlns:xlink="http://www.w3.org/1999/xlink" width="32" height="32" viewBox="0 0 32 32">
	<path d="M18 19.8c4.564-0.927 8-4.962 8-9.8 0-5.523-4.477-10-10-10s-10 4.477-10 10c0 4.838 3.436 8.873 8 9.8v4.2h-6v4h6v4h4v-4h6v-4h-6v-4.2zM9.4 10c0-3.645 2.955-6.6 6.6-6.6 3.645 0 6.6 2.955 6.6 6.6 0 3.645-2.955 6.6-6.6 6.6-3.645 0-6.6-2.955-6.6-6.6z" />
</svg>
