<?xml version="1.0" encoding="utf-8"?>
<!-- Generated by IcoMoon.io -->
<!DOCTYPE svg PUBLIC "-//W3C//DTD SVG 1.1//EN" "http://www.w3.org/Graphics/SVG/1.1/DTD/svg11.dtd">
<svg version="1.1" xmlns="http://www.w3.org/2000/svg" xmlns:xlink="http://www.w3.org/1999/xlink" width="32" height="32" viewBox="0 0 32 32">
	<path d="M30.232 12.232c0.859 0.859 1.58 2.458 1.736 3.768h-9.968v-9.968c1.309 0.156 2.909 0.877 3.768 1.736l4.465 4.464zM20 18h12v11.5c0 1.375-1.125 2.5-2.5 2.5h-19c-1.375 0-2.5-1.125-2.5-2.5v-21c0-1.375 1.125-2.5 2.5-2.5h9.5v12zM6 4v22h-3.625c-1.306 0-2.375-1.069-2.375-2.375v-21.25c0-1.306 1.069-2.375 2.375-2.375h19.25c1.306 0 2.375 1.069 2.375 2.375v1.625h-18z" />
</svg>
