<?xml version="1.0" encoding="utf-8"?>
<!-- Generated by IcoMoon.io -->
<!DOCTYPE svg PUBLIC "-//W3C//DTD SVG 1.1//EN" "http://www.w3.org/Graphics/SVG/1.1/DTD/svg11.dtd">
<svg version="1.1" xmlns="http://www.w3.org/2000/svg" xmlns:xlink="http://www.w3.org/1999/xlink" width="32" height="32" viewBox="0 0 32 32">
	<path d="M28.232 6.232c0.859 0.859 1.58 2.458 1.736 3.768h-9.968v-9.968c1.309 0.156 2.909 0.877 3.768 1.736l4.465 4.464zM18 12v-12h-13.5c-1.375 0-2.5 1.125-2.5 2.5v27c0 1.375 1.125 2.5 2.5 2.5h23c1.375 0 2.5-1.125 2.5-2.5v-17.5h-12zM22 24h-4v4h-4v-4h-4v-4h4v-4h4v4h4v4z" />
</svg>
