<?xml version="1.0" encoding="utf-8"?>
<!-- Generated by IcoMoon.io -->
<!DOCTYPE svg PUBLIC "-//W3C//DTD SVG 1.1//EN" "http://www.w3.org/Graphics/SVG/1.1/DTD/svg11.dtd">
<svg version="1.1" xmlns="http://www.w3.org/2000/svg" xmlns:xlink="http://www.w3.org/1999/xlink" width="32" height="32" viewBox="0 0 32 32">
	<path d="M27.879 5.879l-3.757-3.757c-1.167-1.167-3.471-2.121-5.121-2.121h-14c-1.65 0-3 1.35-3 3v26c0 1.65 1.35 3 3 3h22c1.65 0 3-1.35 3-3v-18c0-1.65-0.955-3.955-2.121-5.121zM26 28h-20v-24h13c0.155 0 0.532 0.065 1 0.236v5.764h5.764c0.172 0.468 0.236 0.845 0.236 1v17z" />
</svg>
