<?xml version="1.0" encoding="utf-8"?>
<!-- Generated by IcoMoon.io -->
<!DOCTYPE svg PUBLIC "-//W3C//DTD SVG 1.1//EN" "http://www.w3.org/Graphics/SVG/1.1/DTD/svg11.dtd">
<svg version="1.1" xmlns="http://www.w3.org/2000/svg" xmlns:xlink="http://www.w3.org/1999/xlink" width="32" height="32" viewBox="0 0 32 32">
	<path d="M0 0v32h32v-32h-32zM20 2h4v4h-4v-4zM14 2h4v4h-4v-4zM8 2h4v4h-4v-4zM2 2h4v4h-4v-4zM2 8h12v16h-12v-16zM6 30h-4v-4h4v4zM12 30h-4v-4h4v4zM18 30h-4v-4h4v4zM24 30h-4v-4h4v4zM30 30h-4v-4h4v4zM30 24h-14v-16h14v16zM30 6h-4v-4h4v4z" />
</svg>
