<?xml version="1.0" encoding="utf-8"?>
<!-- Generated by IcoMoon.io -->
<!DOCTYPE svg PUBLIC "-//W3C//DTD SVG 1.1//EN" "http://www.w3.org/Graphics/SVG/1.1/DTD/svg11.dtd">
<svg version="1.1" xmlns="http://www.w3.org/2000/svg" xmlns:xlink="http://www.w3.org/1999/xlink" width="32" height="32" viewBox="0 0 32 32">
	<path d="M0 2v28h32v-28h-32zM6 28h-4v-4h4v4zM6 22h-4v-4h4v4zM6 14h-4v-4h4v4zM6 8h-4v-4h4v4zM24 28h-16v-10h16v10zM24 14h-16v-10h16v10zM30 28h-4v-4h4v4zM30 22h-4v-4h4v4zM30 14h-4v-4h4v4zM30 8h-4v-4h4v4z" />
</svg>
