<?xml version="1.0" encoding="utf-8"?>
<!-- Generated by IcoMoon.io -->
<!DOCTYPE svg PUBLIC "-//W3C//DTD SVG 1.1//EN" "http://www.w3.org/Graphics/SVG/1.1/DTD/svg11.dtd">
<svg version="1.1" xmlns="http://www.w3.org/2000/svg" xmlns:xlink="http://www.w3.org/1999/xlink" width="32" height="32" viewBox="0 0 32 32">
	<path d="M32 7c0-3.866-7.163-7-16-7s-16 3.134-16 7c0 1.23 0.727 2.387 2.001 3.391h-0.001l10 9.14v10.469c0 1.105 1.791 2 4 2 2.209 0 4-0.895 4-2v-10.469l9.999-9.14c1.274-1.005 2.001-2.161 2.001-3.391zM28.761 8.883l-10.761 9.767v10.944c-0.318 0.175-1.009 0.406-2 0.406s-1.682-0.23-2-0.406v-10.944l-10.761-9.767c-0.463-0.365-1.239-1.149-1.239-1.883 0-0.408 0.234-0.857 0.695-1.335 0.615-0.636 1.581-1.253 2.793-1.783 1.329-0.582 2.893-1.104 4.648-1.428 1.853-0.343 3.826-0.579 5.864-0.579 2.038 0 4.011 0.236 5.864 0.579 1.755 0.325 3.319 0.847 4.648 1.428 1.212 0.53 2.178 1.147 2.793 1.783 0.461 0.477 0.695 0.926 0.695 1.335 0 0.734-0.776 1.518-1.239 1.883zM6 7.266c0-1.51 4.477-2.734 10-2.734s10 1.224 10 2.734c0 1.51-4.477 2.734-10 2.734-5.523 0-10-1.224-10-2.734z" />
</svg>
