<?xml version="1.0" encoding="utf-8"?>
<!-- Generated by IcoMoon.io -->
<!DOCTYPE svg PUBLIC "-//W3C//DTD SVG 1.1//EN" "http://www.w3.org/Graphics/SVG/1.1/DTD/svg11.dtd">
<svg version="1.1" xmlns="http://www.w3.org/2000/svg" xmlns:xlink="http://www.w3.org/1999/xlink" width="32" height="32" viewBox="0 0 32 32">
	<path d="M18.509 32c3.111-2.245 5.067-5.178 5.258-8.813-0.992 1.99-3.036 2.612-3.036 2.612 1.095-2.848-0.355-7.6-5.378-9.556 1.422 3.111 0.411 5.053 0 5.733-1.156-2.533-3.417-3.391-3.417-3.391s2.217 9.168-3.072 4.946c-0.444 4.222 5.482 8.468 5.482 8.468-3.506 0-13.584-1.583-12.050-14.071 2.523 2.715 4.163 2.848 4.163 2.848 0.877-3.725 0.861-7.364-1.315-8.983 2.475-0.529 4.82 0.876 5.478 2.848 1.753-1.972 1.043-7.066-1.135-8.755 2.533 0.133 4.316 2.126 4.86 3.496 1.528-2.474 1.94-5.585 0-9.384 4.563 3.311 4.829 6.51 5.258 10.699 3.18-3.521 5.806-3.298 5.838-3.3-2.978 3.6-2.489 8.8-1.244 10.8 3.422-1.289 4.444-3.644 4.444-3.644s6.4 17.445-10.133 17.445z" />
</svg>
