<?xml version="1.0" encoding="utf-8"?>
<!-- Generated by IcoMoon.io -->
<!DOCTYPE svg PUBLIC "-//W3C//DTD SVG 1.1//EN" "http://www.w3.org/Graphics/SVG/1.1/DTD/svg11.dtd">
<svg version="1.1" xmlns="http://www.w3.org/2000/svg" xmlns:xlink="http://www.w3.org/1999/xlink" width="32" height="32" viewBox="0 0 32 32">
	<path d="M8 2.031c1.212 0.049 2.105 0.168 2.898 0.431 1.198 0.399 2.23 1.188 3.451 2.639 3.385 4.023 6.808 5.739 11.444 5.739 0.483 0 0.985-0.019 1.509-0.058-0.631 0.742-1.294 1.467-1.983 2.129-0.966 0.928-1.906 1.658-2.795 2.168-0.937 0.538-1.847 0.851-2.704 0.928-0.113 0.010-0.221 0.015-0.329 0.015-1.051 0-1.859-0.489-3.090-1.286-1.411-0.914-3.167-2.051-5.722-2.051-0.856 0-1.744 0.127-2.679 0.385v-11.041M6 0v16c1.912-0.954 3.421-1.313 4.679-1.313 3.834 0 5.335 3.336 8.812 3.336 0.166 0 0.335-0.008 0.509-0.023 4.983-0.451 9.189-6.223 12-10-2.388 0.552-4.42 0.841-6.207 0.841-4.17 0-7.005-1.571-9.914-5.027-3.011-3.578-5.293-3.814-9.879-3.814v0zM0 0h4v32h-4z" />
</svg>
