<?xml version="1.0" encoding="utf-8"?>
<!-- Generated by IcoMoon.io -->
<!DOCTYPE svg PUBLIC "-//W3C//DTD SVG 1.1//EN" "http://www.w3.org/Graphics/SVG/1.1/DTD/svg11.dtd">
<svg version="1.1" xmlns="http://www.w3.org/2000/svg" xmlns:xlink="http://www.w3.org/1999/xlink" width="32" height="32" viewBox="0 0 32 32">
	<path d="M4 0c1.105 0 2 0.895 2 2v30h-4v-30c0-1.105 0.895-2 2-2zM19 3.538v16.923c-1.344-0.894-3.31-1.538-5.5-1.538s-4.156 1.106-5.5 2v-16.923c1.344-0.894 3.31-2 5.5-2s4.156 0.644 5.5 1.538zM26 24c-2.39 0-4.534-0.644-6-1.538v-16.923c1.466 0.894 3.61 1.538 6 1.538s4.534-1.182 6-2.077v16.923c-1.466 0.894-3.61 2.077-6 2.077z" />
</svg>
