<?xml version="1.0" encoding="utf-8"?>
<!-- Generated by IcoMoon.io -->
<!DOCTYPE svg PUBLIC "-//W3C//DTD SVG 1.1//EN" "http://www.w3.org/Graphics/SVG/1.1/DTD/svg11.dtd">
<svg version="1.1" xmlns="http://www.w3.org/2000/svg" xmlns:xlink="http://www.w3.org/1999/xlink" width="32" height="32" viewBox="0 0 32 32">
	<path d="M26 5.385c2.39 0 4.534-1.301 6-2.285v18.615c-1.466 0.984-3.61 2.285-6 2.285s-4.534-0.708-6-1.692c-1.466-0.984-3.61-1.692-6-1.692-2.39 0-4.534 1.216-6 2.2v-18.615c1.466-0.984 3.61-2.2 6-2.2s4.534 0.708 6 1.692c1.466 0.984 3.61 1.692 6 1.692zM4 0c1.105 0 2 0.895 2 2v30h-4v-30c0-1.105 0.895-2 2-2z" />
</svg>
