<?xml version="1.0" encoding="utf-8"?>
<!-- Generated by IcoMoon.io -->
<!DOCTYPE svg PUBLIC "-//W3C//DTD SVG 1.1//EN" "http://www.w3.org/Graphics/SVG/1.1/DTD/svg11.dtd">
<svg version="1.1" xmlns="http://www.w3.org/2000/svg" xmlns:xlink="http://www.w3.org/1999/xlink" width="32" height="32" viewBox="0 0 32 32">
	<path d="M18.489 2.318c-0.707-2.103-9.052-1.449-11.598-1.387-0.242-0.549-0.765-0.932-1.367-0.932-0.832 0-1.513 0.727-1.513 1.616v28.768c0 0.889 0.681 1.616 1.513 1.616 0.832 0 1.513-0.727 1.513-1.616v-13.748c2.687-2.011 10.899-4.459 11.453-2.704 0.618 1.96 6.589 3.556 9.499 2.204 0 0 0-9.931 0-12.695-6.477 2.85-8.7 1.256-9.5-1.123zM7.037 15.919v-14.020c0.895 2.099 2.552 7.437 0 14.020z" />
</svg>
