<?xml version="1.0" encoding="utf-8"?>
<!-- Generated by IcoMoon.io -->
<!DOCTYPE svg PUBLIC "-//W3C//DTD SVG 1.1//EN" "http://www.w3.org/Graphics/SVG/1.1/DTD/svg11.dtd">
<svg version="1.1" xmlns="http://www.w3.org/2000/svg" xmlns:xlink="http://www.w3.org/1999/xlink" width="32" height="32" viewBox="0 0 32 32">
	<path d="M31.603 11.804c-1.669-5.137-6.736-5.655-10.647-1.752 2.504-4.925 0.444-9.584-4.957-9.584s-7.46 4.658-4.957 9.583c-3.91-3.903-8.977-3.383-10.646 1.753-1.669 5.136 2.125 8.535 7.582 7.676-4.92 2.513-5.992 7.492-1.623 10.667 4.369 3.174 8.773 0.616 9.643-4.84 0.87 5.456 5.274 8.014 9.643 4.84 4.369-3.174 3.297-8.153-1.623-10.667 5.458 0.859 9.252-2.539 7.583-7.676zM16 21.434c-2.555 0-4.625-2.071-4.625-4.626 0-2.555 2.071-4.626 4.625-4.626 2.555 0 4.626 2.071 4.626 4.626 0 2.555-2.071 4.626-4.626 4.626z" />
</svg>
