<?xml version="1.0" encoding="utf-8"?>
<!-- Generated by IcoMoon.io -->
<!DOCTYPE svg PUBLIC "-//W3C//DTD SVG 1.1//EN" "http://www.w3.org/Graphics/SVG/1.1/DTD/svg11.dtd">
<svg version="1.1" xmlns="http://www.w3.org/2000/svg" xmlns:xlink="http://www.w3.org/1999/xlink" width="32" height="32" viewBox="0 0 32 32">
	<path d="M18 8l-4-4h-14v26h32v-22h-14zM17.172 10h12.828v0.25h-28v-0.5h14.922l0.25 0.25zM2 28v-0.25h28v0.25h-28zM2 27.25v-0.5h28v0.5h-28zM2 26.25v-0.5h28v0.5h-28zM2 25.25v-0.5h28v0.5h-28zM2 24.25v-0.5h28v0.5h-28zM2 23.25v-0.5h28v0.5h-28zM2 22.25v-0.5h28v0.5h-28zM2 21.25v-0.5h28v0.5h-28zM2 20.25v-0.5h28v0.5h-28zM2 19.25v-0.5h28v0.5h-28zM2 18.25v-0.5h28v0.5h-28zM2 17.25v-0.5h28v0.5h-28zM2 16.25v-0.5h28v0.5h-28zM2 15.25v-0.5h28v0.5h-28zM2 14.25v-0.5h28v0.5h-28zM2 13.25v-0.5h28v0.5h-28zM2 12.25v-0.5h28v0.5h-28zM2 11.25v-0.5h28v0.5h-28zM13.172 6l0.25 0.25h-11.422v-0.25h11.172zM13.922 6.75l0.5 0.5h-12.422v-0.5h11.922zM14.922 7.75l0.5 0.5h-13.422v-0.5h12.922zM15.922 8.75l0.5 0.5h-14.422v-0.5h13.922z" />
</svg>
