<?xml version="1.0" encoding="utf-8"?>
<!-- Generated by IcoMoon.io -->
<!DOCTYPE svg PUBLIC "-//W3C//DTD SVG 1.1//EN" "http://www.w3.org/Graphics/SVG/1.1/DTD/svg11.dtd">
<svg version="1.1" xmlns="http://www.w3.org/2000/svg" xmlns:xlink="http://www.w3.org/1999/xlink" width="32" height="32" viewBox="0 0 32 32">
	<path d="M30.766 12h-2.766v-6.5c0-0.828-0.672-1.5-1.5-1.5h-13.5l-1-2h-6.5c-0.828 0-1.5 0.672-1.5 1.5v8.5h-2.766c-0.825 0-1.368 0.662-1.206 1.471l3.677 13.058c0.162 0.809 0.969 1.471 1.794 1.471h21c0.825 0 1.632-0.662 1.794-1.471l3.677-13.058c0.162-0.809-0.381-1.471-1.206-1.471zM6 4h4.764l1 2h14.236v6h-20v-8zM26.362 26h-20.725l-3.449-12h27.623l-3.449 12z" />
</svg>
