<?xml version="1.0" encoding="utf-8"?>
<!-- Generated by IcoMoon.io -->
<!DOCTYPE svg PUBLIC "-//W3C//DTD SVG 1.1//EN" "http://www.w3.org/Graphics/SVG/1.1/DTD/svg11.dtd">
<svg version="1.1" xmlns="http://www.w3.org/2000/svg" xmlns:xlink="http://www.w3.org/1999/xlink" width="32" height="32" viewBox="0 0 32 32">
	<path d="M30 8h-28l2-4h11l1 2h13zM15.625 25c0 1.837 0.532 3.552 1.448 5h-15.073l-2-20h32l-0.798 7.977c-1.654-1.462-3.826-2.351-6.202-2.351-5.169 0-9.375 4.206-9.375 9.375zM25 18c-3.866 0-7 3.134-7 7s3.134 7 7 7 7-3.134 7-7-3.134-7-7-7zM20 26v-2h10v2h-10z" />
</svg>
