<?xml version="1.0" encoding="utf-8"?>
<!-- Generated by IcoMoon.io -->
<!DOCTYPE svg PUBLIC "-//W3C//DTD SVG 1.1//EN" "http://www.w3.org/Graphics/SVG/1.1/DTD/svg11.dtd">
<svg version="1.1" xmlns="http://www.w3.org/2000/svg" xmlns:xlink="http://www.w3.org/1999/xlink" width="32" height="32" viewBox="0 0 32 32">
	<path d="M31.816 4.97c-0.262-2.381-2.405-4.523-4.785-4.785-6.465-0.713-14.848 0.492-20.601 6.245-5.753 5.753-6.958 14.136-6.245 20.601 0.262 2.381 2.405 4.523 4.785 4.785 6.465 0.713 14.848-0.492 20.601-6.245 5.753-5.753 6.958-14.136 6.245-20.601zM10.16 18.16c0.464-0.464 1.216-0.464 1.679 0l2 2c0.464 0.464 0.464 1.216 0 1.679-0.232 0.232-0.536 0.348-0.84 0.348s-0.608-0.116-0.84-0.348l-2-2c-0.464-0.464-0.464-1.216 0-1.679zM10.681 29.902c-1.813-0.921-3.49-2.134-4.97-3.613-1.482-1.482-2.695-3.16-3.617-4.976 0.113-1.369 0.336-2.839 0.725-4.352 0.133-0.516 0.281-1.019 0.443-1.511 0.589 3.285 2.161 6.308 4.571 8.718 2.408 2.408 5.429 3.979 8.71 4.569-2.096 0.69-4.133 1.021-5.862 1.166zM17.84 17.84c-0.232 0.232-0.536 0.348-0.84 0.348s-0.608-0.116-0.84-0.348l-2-2c-0.464-0.464-0.464-1.216 0-1.679s1.216-0.464 1.679 0l2 2c0.464 0.464 0.464 1.216 0 1.679zM21.84 13.84c-0.232 0.232-0.536 0.348-0.84 0.348s-0.608-0.116-0.84-0.348l-2-2c-0.464-0.464-0.464-1.216 0-1.679 0.464-0.464 1.216-0.464 1.679 0l2 2c0.464 0.464 0.464 1.216 0 1.679zM29.181 15.040c-0.133 0.516-0.28 1.019-0.443 1.511-0.59-3.285-2.161-6.308-4.571-8.718-2.408-2.408-5.429-3.979-8.71-4.569 2.096-0.69 4.133-1.021 5.862-1.166 1.813 0.921 3.49 2.133 4.97 3.613 1.482 1.482 2.695 3.16 3.617 4.976-0.113 1.369-0.335 2.838-0.725 4.352z" />
</svg>
