<?xml version="1.0" encoding="utf-8"?>
<!-- Generated by IcoMoon.io -->
<!DOCTYPE svg PUBLIC "-//W3C//DTD SVG 1.1//EN" "http://www.w3.org/Graphics/SVG/1.1/DTD/svg11.dtd">
<svg version="1.1" xmlns="http://www.w3.org/2000/svg" xmlns:xlink="http://www.w3.org/1999/xlink" width="32" height="32" viewBox="0 0 32 32">
	<path d="M31.99 0h-3.534l-7.738 10.622-3.064-3.064c-0.431-0.431-1.005-0.669-1.616-0.669-0.61 0-1.184 0.238-1.616 0.669l-1.391 1.391c-0.078-0.106-0.159-0.211-0.246-0.313-1.895-2.215-5.227-2.475-7.442-0.579-2.215 1.895-2.475 5.227-0.579 7.442 0.435 0.508 0.946 0.912 1.501 1.212 0.011 0.57 0.233 1.137 0.667 1.571l7.491 7.49c0.432 0.432 1.006 0.67 1.616 0.67 0.611 0 1.185-0.238 1.616-0.67l7.491-7.49c0.432-0.432 0.67-1.006 0.67-1.616s-0.238-1.185-0.67-1.616l-0.862-0.862 7.706-6.503v-7.684zM15.484 8.618c0.148-0.148 0.346-0.23 0.556-0.23 0.21 0 0.407 0.082 0.555 0.23l3.23 3.231-3.511 4.82c-0.347 0.387-0.652 0.183-0.773 0.040-0.041-0.049-0.865-1.127-1.93-2.524 0.529-1.211 0.586-2.588 0.152-3.844l1.721-1.721zM24.085 16.11c0.148 0.148 0.23 0.346 0.23 0.555s-0.082 0.407-0.23 0.555l-7.491 7.49c-0.148 0.148-0.345 0.23-0.555 0.23-0.21 0-0.407-0.082-0.556-0.23l-7.414-7.414c0.863 0.116 1.752 0.020 2.583-0.296l4.974 4.001c0 0 0.272 0.253 0.572 0.009l6.935-5.852 0.952 0.952z" />
</svg>
