<?xml version="1.0" encoding="utf-8"?>
<!-- Generated by IcoMoon.io -->
<!DOCTYPE svg PUBLIC "-//W3C//DTD SVG 1.1//EN" "http://www.w3.org/Graphics/SVG/1.1/DTD/svg11.dtd">
<svg version="1.1" xmlns="http://www.w3.org/2000/svg" xmlns:xlink="http://www.w3.org/1999/xlink" width="32" height="32" viewBox="0 0 32 32">
	<path d="M29.746 9.871c-0.812-1.326-1.781-2.377-2.879-3.122-1.253-0.85-2.641-1.282-4.127-1.282-2.035 0-3.177 0.644-4.185 1.211-0.821 0.463-1.47 0.828-2.555 0.828-1.085-0-1.734-0.366-2.555-0.828-1.008-0.568-2.15-1.211-4.184-1.211-1.486 0-2.874 0.431-4.127 1.282-1.098 0.746-2.067 1.796-2.879 3.122-1.412 2.305-2.254 5.329-2.254 8.089 0 2.651 0.143 4.538 0.451 5.937 0.417 1.898 1.174 2.972 2.314 3.283 0.251 0.069 0.515 0.104 0.785 0.104 1.965 0 4.070-1.827 6.058-3.699 1.761-1.659 2.073-1.659 3.107-1.659 0.079 0 0.16 0 0.245 0.001 0.093 0 0.189 0.001 0.291 0.001l2.75 0.061 2.75-0.061c0.101 0 0.198-0 0.291-0.001 0.085-0 0.167-0.001 0.245-0.001 1.034 0 1.346 0 3.107 1.659 1.988 1.872 4.093 3.699 6.058 3.699 0 0 0 0 0 0 0.27 0 0.534-0.035 0.784-0.103 1.14-0.311 1.897-1.385 2.314-3.283 0.307-1.399 0.451-3.286 0.451-5.937 0-2.76-0.843-5.784-2.254-8.089zM29.596 23.468c-0.222 1.011-0.562 1.694-0.889 1.783-0.079 0.021-0.165 0.032-0.257 0.032-1.336-0-3.599-2.131-4.686-3.155-1.065-1.003-1.695-1.489-2.325-1.795-0.841-0.408-1.538-0.408-2.154-0.408-0.082 0-0.168 0-0.256 0.001-0.089 0-0.183 0.001-0.28 0.001h-0.022l-2.728 0.060-2.75-0.060c-0.098 0-0.191-0-0.28-0.001-0.089-0.001-0.174-0.001-0.257-0.001-0.615 0-1.313 0-2.154 0.408-0.63 0.305-1.26 0.792-2.324 1.795-1.088 1.024-3.351 3.155-4.687 3.155-0.092 0-0.178-0.011-0.259-0.033-0.325-0.089-0.665-0.772-0.887-1.783-0.276-1.254-0.404-3.005-0.404-5.508 0-1.175 0.181-2.447 0.524-3.678 0.342-1.227 0.838-2.391 1.436-3.366 0.663-1.082 1.436-1.927 2.297-2.512 0.915-0.621 1.925-0.936 3.003-0.936 1.51 0 2.294 0.442 3.203 0.954 0.903 0.509 1.927 1.086 3.537 1.086 1.61-0 2.633-0.577 3.537-1.086 0.908-0.512 1.693-0.954 3.203-0.954 1.078 0 2.088 0.315 3.003 0.936 0.862 0.585 1.634 1.43 2.297 2.512 0.597 0.975 1.093 2.139 1.436 3.366 0.343 1.231 0.524 2.503 0.524 3.678-0 2.503-0.128 4.253-0.404 5.508zM20 12c0-1.105 0.895-2 2-2s2 0.895 2 2c0 1.105-0.895 2-2 2-1.105 0-2-0.895-2-2zM24 16c0-1.105 0.895-2 2-2s2 0.895 2 2c0 1.105-0.895 2-2 2-1.105 0-2-0.895-2-2zM8 12c1.103 0 2 0.897 2 2s-0.897 2-2 2-2-0.897-2-2 0.897-2 2-2M8 10c-2.206 0-4 1.794-4 4 0 2.206 1.794 4 4 4s4-1.794 4-4c0-2.206-1.794-4-4-4v0z" />
</svg>
