<?xml version="1.0" encoding="utf-8"?>
<!-- Generated by IcoMoon.io -->
<!DOCTYPE svg PUBLIC "-//W3C//DTD SVG 1.1//EN" "http://www.w3.org/Graphics/SVG/1.1/DTD/svg11.dtd">
<svg version="1.1" xmlns="http://www.w3.org/2000/svg" xmlns:xlink="http://www.w3.org/1999/xlink" width="32" height="32" viewBox="0 0 32 32">
	<path d="M25 10h-18c-3.866 0-7 3.134-7 7 0 3.866 3.134 7 7 7 2.792 0 5.202-1.635 6.326-4h5.348c1.124 2.365 3.534 4 6.326 4 3.866 0 7-3.134 7-7 0-3.866-3.134-7-7-7zM10.556 18h-2.556v2.556h-2v-2.556h-2.556v-2h2.556v-2.556h2v2.556h2.556v2zM23 20.556c-0.859 0-1.556-0.697-1.556-1.556s0.697-1.556 1.556-1.556c0.859 0 1.556 0.697 1.556 1.556s-0.697 1.556-1.556 1.556zM27 16.556c-0.859 0-1.556-0.697-1.556-1.556s0.697-1.556 1.556-1.556c0.859 0 1.556 0.697 1.556 1.556s-0.697 1.556-1.556 1.556z" />
</svg>
