<?xml version="1.0" encoding="utf-8"?>
<!-- Generated by IcoMoon.io -->
<!DOCTYPE svg PUBLIC "-//W3C//DTD SVG 1.1//EN" "http://www.w3.org/Graphics/SVG/1.1/DTD/svg11.dtd">
<svg version="1.1" xmlns="http://www.w3.org/2000/svg" xmlns:xlink="http://www.w3.org/1999/xlink" width="32" height="32" viewBox="0 0 32 32">
	<path d="M10 10h-2v2h-2v2h2v2h2v-2h2v-2h-2zM20 11.5c0-0.828 0.672-1.5 1.5-1.5s1.5 0.672 1.5 1.5c0 0.828-0.672 1.5-1.5 1.5-0.828 0-1.5-0.672-1.5-1.5zM23 14.5c0-0.828 0.672-1.5 1.5-1.5s1.5 0.672 1.5 1.5c0 0.828-0.672 1.5-1.5 1.5-0.828 0-1.5-0.672-1.5-1.5zM23.108 5.37c-3.632 0-4.199 2.151-7.108 2.151-2.91-0-3.477-2.151-7.108-2.151-5.859 0-8.892 7.171-8.892 12.301 0 4.853 0.456 8.385 2.272 8.88 1.816 0.497 4.13-1.461 6.386-3.585 2.255-2.124 2.636-1.986 4.452-1.986l2.891 0.064 2.891-0.064c1.816 0 2.197-0.138 4.452 1.986 2.256 2.124 4.569 4.082 6.386 3.585 1.816-0.496 2.271-4.027 2.271-8.88 0-5.13-3.033-12.301-8.892-12.301zM9 18c-2.761 0-5-2.239-5-5s2.239-5 5-5 5 2.239 5 5-2.239 5-5 5zM23 18c-2.761 0-5-2.239-5-5s2.239-5 5-5 5 2.239 5 5-2.239 5-5 5z" />
</svg>
