<?xml version="1.0" encoding="utf-8"?>
<!-- Generated by IcoMoon.io -->
<!DOCTYPE svg PUBLIC "-//W3C//DTD SVG 1.1//EN" "http://www.w3.org/Graphics/SVG/1.1/DTD/svg11.dtd">
<svg version="1.1" xmlns="http://www.w3.org/2000/svg" xmlns:xlink="http://www.w3.org/1999/xlink" width="32" height="32" viewBox="0 0 32 32">
	<path d="M30.656 8c-2.781-2.313-8.656-3.531-8.656-3.531v1.531c2.969 0.844 4 2.857 4 2.857v3.143c0 1.1 0.9 2 2 2h1v9h-3v-5.5c0-1.379-1.121-2.5-2.5-2.5h-3.5v-10c0-1.65-1.35-3-3-3h-12c-1.65 0-3 1.35-3 3v23h-2v4h22v-4h-2v-10h3v5.5c0 1.379 1.121 2.5 2.5 2.5h4c1.379 0 2.5-1.121 2.5-2.5v-12.5c0-1.844-1.344-3-1.344-3zM18 11c0 0.55-0.449 1-1 1h-12c-0.55 0-1-0.45-1-1v-6c0-0.55 0.45-1 1-1h12c0.551 0 1 0.45 1 1v6zM30 11.5c0 0.275-0.225 0.5-0.5 0.5h-1c-0.275 0-0.5-0.225-0.5-0.5v-1c0-0.275 0.225-0.5 0.5-0.5h1c0.275 0 0.5 0.225 0.5 0.5v1z" />
</svg>
