<?xml version="1.0" encoding="utf-8"?>
<!-- Generated by IcoMoon.io -->
<!DOCTYPE svg PUBLIC "-//W3C//DTD SVG 1.1//EN" "http://www.w3.org/Graphics/SVG/1.1/DTD/svg11.dtd">
<svg version="1.1" xmlns="http://www.w3.org/2000/svg" xmlns:xlink="http://www.w3.org/1999/xlink" width="32" height="32" viewBox="0 0 32 32">
	<path d="M22.785 21.854c-1.035 0-2.514-0.071-3.41-0.689-1.122-0.774-2.016-3.887-2.449-5.673-0.077-0.316-0.292-0.46-0.524-0.521l-0.403-0.034-0.408 0.035c-0.23 0.061-0.443 0.206-0.519 0.519-0.433 1.787-1.327 4.9-2.449 5.673-0.896 0.618-2.375 0.689-3.41 0.689-0.231 0-0.445-0.004-0.633-0.007-0.143-0.003-0.272-0.005-0.38-0.005-4.31 0-5.742-1.459-6.184-2.683-0.341-0.945-0.558-1.946-0.749-2.829-0.251-1.159-0.511-2.358-0.931-2.606l-0.141-0.084-0.061-0.152c-0.262-0.649-0.072-2.254-0.031-2.569l0.049-0.376 0.376-0.044c1.879-0.219 4.695-0.354 5.886-0.354 0.046 0 4.656 0.030 6.009 0.686 0.186 0.090 0.373 0.188 0.554 0.282 0.853 0.444 1.735 0.904 3.024 0.912 1.283-0.008 2.165-0.467 3.018-0.912 0.181-0.094 0.368-0.192 0.554-0.282 1.354-0.656 5.964-0.686 6.009-0.686 1.191 0 4.007 0.134 5.886 0.354l0.376 0.044 0.049 0.376c0.041 0.315 0.231 1.919-0.031 2.568l-0.061 0.153-0.142 0.084c-0.42 0.249-0.68 1.447-0.931 2.606-0.191 0.883-0.408 1.884-0.749 2.829-0.442 1.224-1.874 2.683-6.184 2.683-0.108 0-0.236 0.002-0.38 0.005-0.188 0.003-0.402 0.007-0.633 0.007zM25.87 12.218c-3.156 0-5.329 0.422-6.011 0.815-0.791 0.455-0.942 0.917-0.942 1.61 0 0.556 0.619 3.009 1.085 3.941 0.411 0.822 0.931 1.216 1.686 1.281 0.293 0.025 0.73 0.039 1.198 0.039 1.847 0 3.433-0.187 4.040-0.477 0.792-0.378 1.612-0.769 1.877-4.361 0.012-0.161 0.027-0.322 0.042-0.477 0.073-0.76 0.137-1.416-0.21-1.807-0.308-0.347-0.979-0.534-1.995-0.556-0.257-0.006-0.516-0.009-0.771-0.009zM6.129 12.218c-0.255 0-0.514 0.003-0.771 0.009-1.016 0.023-1.687 0.21-1.995 0.556-0.347 0.391-0.283 1.047-0.21 1.807 0.015 0.155 0.031 0.316 0.042 0.477 0.265 3.592 1.085 3.983 1.877 4.361 0.607 0.29 2.192 0.477 4.039 0.477 0.469 0 0.906-0.014 1.199-0.039 0.756-0.064 1.276-0.459 1.687-1.281 0.341-0.681 1.085-3.181 1.085-3.942 0-0.693-0.15-1.155-0.941-1.61-0.683-0.393-2.855-0.815-6.011-0.815z" />
</svg>
