<?xml version="1.0" encoding="utf-8"?>
<!-- Generated by IcoMoon.io -->
<!DOCTYPE svg PUBLIC "-//W3C//DTD SVG 1.1//EN" "http://www.w3.org/Graphics/SVG/1.1/DTD/svg11.dtd">
<svg version="1.1" xmlns="http://www.w3.org/2000/svg" xmlns:xlink="http://www.w3.org/1999/xlink" width="32" height="32" viewBox="0 0 32 32">
	<path d="M16 0c-8.837 0-16 7.163-16 16s7.163 16 16 16 16-7.163 16-16-7.163-16-16-16zM16.565 29.396c-0.236 0.521-0.433 0.812-0.565 0.97-0.131-0.158-0.329-0.449-0.565-0.97-0.362-0.8-0.703-1.908-0.986-3.205-0.017-0.080-0.034-0.16-0.051-0.241 0.527 0.033 1.061 0.050 1.602 0.050 0.541 0 1.075-0.017 1.602-0.050-0.017 0.081-0.034 0.162-0.051 0.241-0.283 1.297-0.624 2.405-0.986 3.205zM16 24.5c-0.634 0-1.262-0.024-1.882-0.072-0.222-1.377-0.388-2.887-0.491-4.472 0.774 0.029 1.566 0.044 2.373 0.044 0.806 0 1.599-0.015 2.373-0.044-0.104 1.585-0.269 3.095-0.491 4.472-0.62 0.048-1.248 0.072-1.882 0.072zM16 18.5c-0.827 0-1.646-0.016-2.452-0.048-0.032-0.806-0.048-1.625-0.048-2.452s0.016-1.646 0.048-2.452c0.806-0.032 1.625-0.048 2.452-0.048 0.827 0 1.646 0.016 2.452 0.048 0.032 0.806 0.048 1.625 0.048 2.452 0 0.827-0.016 1.646-0.048 2.452-0.806 0.032-1.625 0.048-2.452 0.048zM7.5 16c0-0.634 0.024-1.262 0.072-1.882 1.377-0.222 2.886-0.388 4.472-0.491-0.029 0.774-0.044 1.566-0.044 2.373 0 0.806 0.015 1.599 0.044 2.373-1.585-0.104-3.095-0.269-4.472-0.491-0.048-0.62-0.072-1.248-0.072-1.882zM6.050 17.602c-0.081-0.017-0.162-0.034-0.242-0.051-1.297-0.283-2.405-0.624-3.205-0.986-0.521-0.236-0.812-0.433-0.97-0.565 0.157-0.131 0.449-0.329 0.97-0.565 0.8-0.362 1.908-0.703 3.205-0.986 0.080-0.017 0.16-0.034 0.242-0.051-0.033 0.527-0.050 1.061-0.050 1.602 0 0.541 0.017 1.075 0.050 1.602zM15.435 2.604c0.236-0.521 0.433-0.812 0.565-0.97 0.131 0.157 0.329 0.449 0.565 0.97 0.362 0.8 0.703 1.908 0.986 3.205 0.017 0.080 0.035 0.16 0.051 0.242-0.527-0.033-1.061-0.050-1.602-0.050-0.541 0-1.075 0.017-1.602 0.050 0.017-0.081 0.034-0.162 0.051-0.242 0.283-1.297 0.623-2.405 0.986-3.205zM16 7.5c0.634 0 1.262 0.024 1.882 0.072 0.222 1.377 0.388 2.886 0.491 4.472-0.774-0.029-1.567-0.044-2.373-0.044-0.806 0-1.599 0.015-2.373 0.044 0.104-1.585 0.269-3.095 0.491-4.472 0.62-0.048 1.248-0.072 1.882-0.072zM19.956 13.627c1.585 0.104 3.095 0.269 4.472 0.491 0.048 0.62 0.072 1.248 0.072 1.882 0 0.634-0.024 1.262-0.072 1.882-1.377 0.222-2.887 0.388-4.472 0.491 0.029-0.774 0.044-1.567 0.044-2.373 0-0.806-0.015-1.599-0.044-2.373zM25.95 14.398c0.081 0.017 0.162 0.034 0.241 0.051 1.297 0.283 2.405 0.623 3.205 0.986 0.521 0.236 0.812 0.433 0.97 0.565-0.158 0.131-0.449 0.329-0.97 0.565-0.8 0.362-1.908 0.703-3.205 0.986-0.080 0.017-0.16 0.035-0.241 0.051 0.033-0.527 0.050-1.061 0.050-1.602 0-0.541-0.017-1.075-0.050-1.602zM25.804 12.839c-0.149-1.188-0.38-2.329-0.683-3.407 0.49 0.237 0.956 0.493 1.397 0.769 1.291 0.807 2.294 1.731 2.982 2.747 0.26 0.384 0.469 0.776 0.628 1.173-1.067-0.5-2.546-0.937-4.324-1.283zM23.764 10.155c0.208 0.786 0.371 1.593 0.492 2.418-1.342-0.203-2.813-0.357-4.374-0.454-0.097-1.561-0.252-3.032-0.454-4.374 0.824 0.12 1.632 0.284 2.418 0.492 0.506 0.134 0.996 0.284 1.47 0.45 0.166 0.474 0.316 0.964 0.45 1.47zM19.161 6.196c-0.345-1.779-0.782-3.258-1.283-4.324 0.397 0.159 0.789 0.368 1.174 0.628 1.016 0.688 1.941 1.691 2.747 2.982 0.276 0.441 0.532 0.908 0.769 1.397-1.077-0.303-2.218-0.534-3.407-0.683zM12.948 2.5c0.384-0.26 0.776-0.469 1.173-0.628-0.5 1.067-0.937 2.546-1.283 4.324-1.188 0.149-2.329 0.38-3.407 0.683 0.237-0.49 0.493-0.956 0.769-1.397 0.807-1.291 1.731-2.294 2.747-2.982zM10.155 8.236c0.786-0.208 1.593-0.371 2.418-0.492-0.203 1.342-0.357 2.813-0.454 4.374-1.561 0.097-3.032 0.252-4.374 0.454 0.12-0.825 0.284-1.632 0.492-2.418 0.134-0.506 0.284-0.996 0.45-1.47 0.474-0.166 0.964-0.316 1.47-0.45zM6.196 12.839c-1.779 0.345-3.258 0.782-4.324 1.283 0.159-0.397 0.368-0.789 0.628-1.174 0.688-1.016 1.691-1.941 2.982-2.747 0.441-0.276 0.908-0.532 1.397-0.769-0.303 1.077-0.534 2.218-0.683 3.407zM1.871 17.878c1.067 0.5 2.546 0.937 4.324 1.283 0.149 1.188 0.38 2.329 0.683 3.407-0.49-0.237-0.956-0.493-1.397-0.769-1.291-0.807-2.294-1.731-2.982-2.747-0.26-0.384-0.469-0.776-0.628-1.174zM8.236 21.845c-0.208-0.786-0.371-1.593-0.492-2.418 1.342 0.203 2.813 0.357 4.374 0.454 0.097 1.561 0.252 3.032 0.454 4.374-0.825-0.12-1.632-0.284-2.418-0.491-0.506-0.134-0.996-0.284-1.47-0.45-0.166-0.474-0.316-0.964-0.45-1.47zM12.839 25.804c0.345 1.779 0.782 3.258 1.283 4.324-0.397-0.159-0.789-0.368-1.174-0.628-1.016-0.688-1.941-1.691-2.747-2.982-0.276-0.441-0.532-0.908-0.769-1.397 1.077 0.304 2.218 0.534 3.407 0.683zM19.052 29.5c-0.385 0.26-0.776 0.469-1.174 0.628 0.5-1.067 0.937-2.546 1.283-4.324 1.188-0.149 2.329-0.38 3.407-0.683-0.237 0.49-0.493 0.956-0.769 1.397-0.807 1.291-1.731 2.294-2.747 2.982zM21.845 23.764c-0.786 0.208-1.593 0.371-2.418 0.491 0.202-1.342 0.357-2.813 0.454-4.374 1.561-0.097 3.032-0.252 4.374-0.454-0.12 0.824-0.284 1.632-0.491 2.418-0.134 0.506-0.284 0.996-0.45 1.47-0.474 0.166-0.964 0.316-1.47 0.45zM25.804 19.161c1.779-0.345 3.258-0.782 4.324-1.283-0.159 0.397-0.368 0.789-0.628 1.174-0.688 1.016-1.691 1.941-2.982 2.747-0.441 0.276-0.908 0.532-1.397 0.769 0.303-1.077 0.534-2.218 0.683-3.407zM26.253 5.747c1.332 1.332 2.378 2.883 3.108 4.609 0.032 0.077 0.063 0.154 0.094 0.231-1.276-1.237-2.978-2.286-4.975-3.068-0.782-1.997-1.831-3.699-3.068-4.975 0.077 0.031 0.154 0.062 0.231 0.094 1.727 0.73 3.277 1.776 4.61 3.108zM5.747 5.747c1.332-1.332 2.883-2.378 4.609-3.108 0.077-0.032 0.154-0.063 0.231-0.094-1.237 1.276-2.286 2.978-3.068 4.975-1.997 0.782-3.699 1.831-4.975 3.068 0.031-0.077 0.062-0.154 0.094-0.231 0.73-1.726 1.776-3.277 3.108-4.609zM5.747 26.253c-1.332-1.332-2.378-2.883-3.108-4.609-0.032-0.077-0.063-0.154-0.094-0.231 1.276 1.237 2.978 2.286 4.975 3.068 0.782 1.997 1.831 3.698 3.068 4.975-0.077-0.031-0.154-0.062-0.231-0.094-1.726-0.73-3.277-1.776-4.609-3.108zM26.253 26.253c-1.332 1.332-2.883 2.378-4.609 3.108-0.077 0.032-0.154 0.063-0.231 0.094 1.237-1.276 2.286-2.978 3.068-4.975 1.997-0.782 3.699-1.831 4.975-3.068-0.031 0.077-0.062 0.154-0.094 0.231-0.73 1.727-1.776 3.277-3.108 4.61z" />
</svg>
