<?xml version="1.0" encoding="utf-8"?>
<!-- Generated by IcoMoon.io -->
<!DOCTYPE svg PUBLIC "-//W3C//DTD SVG 1.1//EN" "http://www.w3.org/Graphics/SVG/1.1/DTD/svg11.dtd">
<svg version="1.1" xmlns="http://www.w3.org/2000/svg" xmlns:xlink="http://www.w3.org/1999/xlink" width="32" height="32" viewBox="0 0 32 32">
	<path d="M26.672 0h-21.383c-2.941 0-5.289 2.431-5.289 5.371v21.261c0 3.013 2.348 5.368 5.289 5.368h21.383c2.941 0 5.328-2.355 5.328-5.368v-21.261c0-2.94-2.387-5.371-5.328-5.371zM22 1v5h-5v-5h5zM15 1v5h-5v-5h5zM1 6v-0.629c0-2.41 1.924-4.371 4.289-4.371h2.711v5h-7zM24 20h-6v6h-4v-6h-6v-4h6v-6h4v6h6v4zM31 6h-7v-5h2.672c2.386 0 4.328 1.961 4.328 4.371v0.629z" />
</svg>
