<?xml version="1.0" encoding="utf-8"?>
<!-- Generated by IcoMoon.io -->
<!DOCTYPE svg PUBLIC "-//W3C//DTD SVG 1.1//EN" "http://www.w3.org/Graphics/SVG/1.1/DTD/svg11.dtd">
<svg version="1.1" xmlns="http://www.w3.org/2000/svg" xmlns:xlink="http://www.w3.org/1999/xlink" width="32" height="32" viewBox="0 0 32 32">
	<path d="M6 18.354v4.646c0 2 4.477 5 10 5 5.523 0 10-3 10-5v-4.646l-10 5-10-5zM16 4l-16 8 16 8 12.982-6.491-0.982 8.491h2v-9l2-1-16-8zM17 12.45c-0.801 0-1.45-0.649-1.45-1.45s0.649-1.45 1.45-1.45 1.45 0.649 1.45 1.45c0 0.801-0.649 1.45-1.45 1.45z" />
</svg>
