<?xml version="1.0" encoding="utf-8"?>
<!-- Generated by IcoMoon.io -->
<!DOCTYPE svg PUBLIC "-//W3C//DTD SVG 1.1//EN" "http://www.w3.org/Graphics/SVG/1.1/DTD/svg11.dtd">
<svg version="1.1" xmlns="http://www.w3.org/2000/svg" xmlns:xlink="http://www.w3.org/1999/xlink" width="32" height="32" viewBox="0 0 32 32">
	<path d="M6 2v0c2.209 0 4 1.791 4 4s-1.791 4-4 4c-2.209 0-4-1.791-4-4 0-2.209 1.791-4 4-4zM16 2v0c2.209 0 4 1.791 4 4s-1.791 4-4 4c-2.209 0-4-1.791-4-4 0-2.209 1.791-4 4-4zM26 2v0c2.209 0 4 1.791 4 4s-1.791 4-4 4c-2.209 0-4-1.791-4-4 0-2.209 1.791-4 4-4zM6 12v0c2.209 0 4 1.791 4 4s-1.791 4-4 4c-2.209 0-4-1.791-4-4 0-2.209 1.791-4 4-4zM16 12v0c2.209 0 4 1.791 4 4s-1.791 4-4 4c-2.209 0-4-1.791-4-4 0-2.209 1.791-4 4-4zM26 12v0c2.209 0 4 1.791 4 4s-1.791 4-4 4c-2.209 0-4-1.791-4-4 0-2.209 1.791-4 4-4zM6 22v0c2.209 0 4 1.791 4 4s-1.791 4-4 4c-2.209 0-4-1.791-4-4 0-2.209 1.791-4 4-4zM16 22v0c2.209 0 4 1.791 4 4s-1.791 4-4 4c-2.209 0-4-1.791-4-4 0-2.209 1.791-4 4-4zM26 22v0c2.209 0 4 1.791 4 4s-1.791 4-4 4c-2.209 0-4-1.791-4-4 0-2.209 1.791-4 4-4z" />
</svg>
