<?xml version="1.0" encoding="utf-8"?>
<!-- Generated by IcoMoon.io -->
<!DOCTYPE svg PUBLIC "-//W3C//DTD SVG 1.1//EN" "http://www.w3.org/Graphics/SVG/1.1/DTD/svg11.dtd">
<svg version="1.1" xmlns="http://www.w3.org/2000/svg" xmlns:xlink="http://www.w3.org/1999/xlink" width="32" height="32" viewBox="0 0 32 32">
	<path d="M0 0v32h32v-32h-32zM30 10h-8v-8h8v8zM12 20v-8h8v8h-8zM20 22v8h-8v-8h8zM10 20h-8v-8h8v8zM12 10v-8h8v8h-8zM22 12h8v8h-8v-8zM10 2v8h-8v-8h8zM2 22h8v8h-8v-8zM22 30v-8h8v8h-8z" />
</svg>
