<?xml version="1.0" encoding="utf-8"?>
<!-- Generated by IcoMoon.io -->
<!DOCTYPE svg PUBLIC "-//W3C//DTD SVG 1.1//EN" "http://www.w3.org/Graphics/SVG/1.1/DTD/svg11.dtd">
<svg version="1.1" xmlns="http://www.w3.org/2000/svg" xmlns:xlink="http://www.w3.org/1999/xlink" width="32" height="32" viewBox="0 0 32 32">
	<path d="M27.5 8l4.5-4c-0.377-2.021-1.979-3.623-4-4l-4 4.5v1.069l-5.671 5.671c-2.94-2.401-4.973-2.073-6.292-0.987-1.281 1.053-1.759 3.141-2.468 3.765-1.431 1.26-4.952-0.005-7.95 3.257-3.469 3.775-0.732 7.799 2.287 10.818 3.018 3.018 7.043 5.756 10.818 2.287 3.262-2.998 1.997-6.52 3.257-7.95 0.624-0.709 2.712-1.186 3.766-2.467 1.086-1.32 1.414-3.353-0.987-6.292l5.671-5.671h1.069zM9.16 26.84l-4-4 1.679-1.679 4 4-1.679 1.679zM15 20c-1.657 0-3-1.343-3-3s1.343-3 3-3 3 1.343 3 3-1.343 3-3 3z" />
</svg>
