<?xml version="1.0" encoding="utf-8"?>
<!-- Generated by IcoMoon.io -->
<!DOCTYPE svg PUBLIC "-//W3C//DTD SVG 1.1//EN" "http://www.w3.org/Graphics/SVG/1.1/DTD/svg11.dtd">
<svg version="1.1" xmlns="http://www.w3.org/2000/svg" xmlns:xlink="http://www.w3.org/1999/xlink" width="32" height="32" viewBox="0 0 32 32">
	<path d="M12.438 14h-10.188l-0.5-4h-1.75v-4h18.438zM32 12v-4c0-1.1-0.9-2-2-2h-4.625l4.5-6h-3.75l-21 28h3.75l6.002-8.003c0.041 0.002 0.082 0.003 0.123 0.003h5.714l1.841 6.444-0.141 0.141c-0.778 0.778-0.514 1.414 0.586 1.414h9v-4l-3.2-8.001c-1.059-2.649 2.2-3.999 3.2-3.999zM16.375 18l1.5-2h1.696l0.572 2h-3.768z" />
</svg>
