<?xml version="1.0" encoding="utf-8"?>
<!-- Generated by IcoMoon.io -->
<!DOCTYPE svg PUBLIC "-//W3C//DTD SVG 1.1//EN" "http://www.w3.org/Graphics/SVG/1.1/DTD/svg11.dtd">
<svg version="1.1" xmlns="http://www.w3.org/2000/svg" xmlns:xlink="http://www.w3.org/1999/xlink" width="32" height="32" viewBox="0 0 32 32">
	<path d="M29.417 12.583v0c-0.778-0.778-2.051-0.778-2.828-0l-0.87 0.87c-1.375 1.375-3.718 3.449-3.718 0.547v-10c0-1.1-0.9-2-2-2s-2 0.9-2 2v10c0 0.552-0.448 1-1 1s-1-0.448-1-1v-12c0-1.1-0.9-2-2-2s-2 0.9-2 2v12c0 0.552-0.448 1-1 1s-1-0.448-1-1v-10c0-1.1-0.9-2-2-2s-2 0.9-2 2v10c0 0.552-0.448 1-1 1s-1-0.448-1-1v-6c0-1.1-0.9-2-2-2s-2 0.9-2 2v10c0 4 2 14 12 14s11.789-10.961 16.828-16l0.588-0.588c0.778-0.778 0.778-2.051 0-2.828z" />
</svg>
