<?xml version="1.0" encoding="utf-8"?>
<!-- Generated by IcoMoon.io -->
<!DOCTYPE svg PUBLIC "-//W3C//DTD SVG 1.1//EN" "http://www.w3.org/Graphics/SVG/1.1/DTD/svg11.dtd">
<svg version="1.1" xmlns="http://www.w3.org/2000/svg" xmlns:xlink="http://www.w3.org/1999/xlink" width="32" height="32" viewBox="0 0 32 32">
	<path d="M31.114 26.338l-13.114-9.367v-2.471c0-1.5-0.484-2.063-1.938-2.063h-0.585c-0.488-0.089-0.999-0.258-1.357-0.612-0.427-0.422-0.725-1.211-0.725-1.92 0-0.708 0.298-1.498 0.725-1.92 0.468-0.462 1.089-0.716 1.751-0.716 0.661 0 1.283 0.254 1.751 0.716 0.641 0.632 1.679 0.632 2.32-0 0.641-0.633 0.64-1.658 0-2.29-1.087-1.074-2.533-1.665-4.070-1.665-1.538 0-2.983 0.591-4.071 1.665-1.040 1.027-1.686 2.64-1.686 4.21 0 1.57 0.646 3.183 1.686 4.21 0.63 0.622 1.381 1.081 2.199 1.358v1.497l-13.162 9.402c-0.708 0.505-1.007 1.41-0.742 2.238 0.265 0.828 1.035 1.39 1.905 1.39h28c0 0 0.001 0 0.001 0 1.105 0 2-0.895 2-2 0-0.693-0.352-1.303-0.888-1.662zM7.241 26l8.759-6.042 8.759 6.042h-17.518z" />
</svg>
