<?xml version="1.0" encoding="utf-8"?>
<!-- Generated by IcoMoon.io -->
<!DOCTYPE svg PUBLIC "-//W3C//DTD SVG 1.1//EN" "http://www.w3.org/Graphics/SVG/1.1/DTD/svg11.dtd">
<svg version="1.1" xmlns="http://www.w3.org/2000/svg" xmlns:xlink="http://www.w3.org/1999/xlink" width="32" height="32" viewBox="0 0 32 32">
	<path d="M16.041 32l-1.653-2.252c-2.030-2.765-4.425-4.753-6.741-6.675-1.946-1.615-3.784-3.141-5.183-4.97-1.658-2.169-2.464-4.503-2.464-7.138 0-4.943 4.194-8.964 9.35-8.964 1.802 0 3.597 0.633 5.191 1.832 0.519 0.39 1.010 0.837 1.459 1.325 0.45-0.488 0.94-0.934 1.459-1.325 1.593-1.198 3.388-1.832 5.19-1.832 5.156 0 9.35 4.021 9.35 8.964 0 2.533-0.808 4.811-2.469 6.964-1.389 1.801-3.203 3.325-5.124 4.938-2.364 1.986-4.809 4.039-6.767 6.843l-1.599 2.291zM9.35 6c-2.95 0-5.35 2.227-5.35 4.964 0 3.883 2.602 6.042 6.202 9.031 1.84 1.527 3.87 3.212 5.767 5.353 1.893-2.208 3.977-3.958 5.866-5.545 1.75-1.47 3.404-2.859 4.529-4.318 1.131-1.467 1.636-2.861 1.636-4.521 0-2.737-2.4-4.964-5.35-4.964-1.498 0-3.657 1.103-4.857 3.525l-1.791 3.617-1.793-3.617c-1.2-2.422-3.36-3.525-4.858-3.525z" />
</svg>
