<?xml version="1.0" encoding="utf-8"?>
<!-- Generated by IcoMoon.io -->
<!DOCTYPE svg PUBLIC "-//W3C//DTD SVG 1.1//EN" "http://www.w3.org/Graphics/SVG/1.1/DTD/svg11.dtd">
<svg version="1.1" xmlns="http://www.w3.org/2000/svg" xmlns:xlink="http://www.w3.org/1999/xlink" width="32" height="32" viewBox="0 0 32 32">
	<path d="M16 30l-0.873-0.424c-0.618-0.3-15.127-7.466-15.127-18.358 0-5.083 4.234-9.218 9.438-9.218 2.489 0 4.829 0.952 6.563 2.591 1.734-1.639 4.073-2.591 6.563-2.591 5.204 0 9.438 4.135 9.438 9.218 0 10.893-14.509 18.059-15.127 18.358l-0.873 0.424zM9.438 6c-2.998 0-5.438 2.341-5.438 5.218 0 4.248 3.383 7.976 6.22 10.355 2.266 1.899 4.566 3.272 5.78 3.943 1.213-0.671 3.514-2.043 5.78-3.943 2.838-2.379 6.22-6.107 6.22-10.355 0-2.877-2.439-5.218-5.438-5.218-2.021 0-3.864 1.067-4.811 2.784l-1.752 3.179-1.752-3.179c-0.946-1.718-2.79-2.784-4.811-2.784z" />
</svg>
