<?xml version="1.0" encoding="utf-8"?>
<!-- Generated by IcoMoon.io -->
<!DOCTYPE svg PUBLIC "-//W3C//DTD SVG 1.1//EN" "http://www.w3.org/Graphics/SVG/1.1/DTD/svg11.dtd">
<svg version="1.1" xmlns="http://www.w3.org/2000/svg" xmlns:xlink="http://www.w3.org/1999/xlink" width="32" height="32" viewBox="0 0 32 32">
	<path d="M21 3.005l7.495 6.495 0.005-0.005-6.5-7.49 7.497 6.492 1.503 1.503-10.511 10.511c-0.925 0.925-2.349 1.068-3.428 0.427l1.439-1.444-6.5-7.49 7.495 6.495 0.005-0.005-6.5-7.49 7.495 6.495 0.005-0.005-6.5-7.49 7.495 6.495 0.005-0.005-6.5-7.49 7.495 6.495 0.005-0.005-6.5-7.49 7.495 6.495 0.005-0.005-6.5-7.49 7.495 6.495 0.005-0.005-6.5-7.49 7.495 6.495 0.005-0.005-6.5-7.49 7.495 6.495 0.005-0.005-6.5-7.49 7.495 6.495 0.005-0.005-6.5-7.49zM22.503 1.503l-12.441 12.436c-0.262-0.441-0.393-0.94-0.393-1.439 0-0.721 0.273-1.442 0.82-1.989l10.511-10.511 1.503 1.503zM10.061 13.939l7 7-5.061 5.061h-12v-2z" />
</svg>
