<?xml version="1.0" encoding="utf-8"?>
<!-- Generated by IcoMoon.io -->
<!DOCTYPE svg PUBLIC "-//W3C//DTD SVG 1.1//EN" "http://www.w3.org/Graphics/SVG/1.1/DTD/svg11.dtd">
<svg version="1.1" xmlns="http://www.w3.org/2000/svg" xmlns:xlink="http://www.w3.org/1999/xlink" width="32" height="32" viewBox="0 0 32 32">
	<path d="M16 8v10h8v-2h-6v-8zM18 2c-7.732 0-14 6.268-14 14h-4l5 6 5-6h-4c0-6.627 5.373-12 12-12s12 5.373 12 12c0 6.627-5.373 12-12 12-0.681 0-1.349-0.058-2-0.167v2.024c0.653 0.093 1.321 0.143 2 0.143 7.732 0 14-6.268 14-14s-6.268-14-14-14z" />
</svg>
