<?xml version="1.0" encoding="utf-8"?>
<!-- Generated by IcoMoon.io -->
<!DOCTYPE svg PUBLIC "-//W3C//DTD SVG 1.1//EN" "http://www.w3.org/Graphics/SVG/1.1/DTD/svg11.dtd">
<svg version="1.1" xmlns="http://www.w3.org/2000/svg" xmlns:xlink="http://www.w3.org/1999/xlink" width="32" height="32" viewBox="0 0 32 32">
	<path d="M20 26.402v0.973c0 1.105 2.686 2 6 2s6-0.895 6-2v-0.973c-1.037 0.97-3.53 1.473-6 1.473s-4.963-0.502-6-1.473zM20 25.25c0-1.105 2.686-2 6-2s6 0.895 6 2c0 1.105-2.686 2-6 2-3.314 0-6-0.895-6-2zM28.4 6l-14.368 18.061c-0.98 1.126-7.898 0.806-11.56 0.244-0.001 0-0.002 0-0.003-0-1.665-0.184-2.109-0.855-2.379 0.636h-0c-0.308 2.357 0.27 4.396 0.27 4.396 1.223 1.279 12.476 0.525 13.672-0.715l17.968-22.621h-3.6z" />
</svg>
