<?xml version="1.0" encoding="utf-8"?>
<!-- Generated by IcoMoon.io -->
<!DOCTYPE svg PUBLIC "-//W3C//DTD SVG 1.1//EN" "http://www.w3.org/Graphics/SVG/1.1/DTD/svg11.dtd">
<svg version="1.1" xmlns="http://www.w3.org/2000/svg" xmlns:xlink="http://www.w3.org/1999/xlink" width="32" height="32" viewBox="0 0 32 32">
	<path d="M16 1l-16 16 3 3 3-3v15h8v-6h4v6h8v-15l3 3 3-3-16-16zM8.25 30h-0.25v-15l0.25-0.25v15.25zM9.25 30h-0.5v-15.75l0.5-0.5v16.25zM10.25 30h-0.5v-16.75l0.5-0.5v17.25zM11.25 30h-0.5v-17.75l0.5-0.5v18.25zM12.25 24h-0.25v6h-0.25v-18.75l0.5-0.5v13.25zM13.25 24h-0.5v-13.75l0.5-0.5v14.25zM14.25 24h-0.5v-14.75l0.5-0.5v15.25zM15.25 24h-0.5v-15.75l0.5-0.5v16.25zM16.25 24h-0.5v-16.75l0.25-0.25 0.25 0.25v16.75zM17.25 24h-0.5v-16.25l0.5 0.5v15.75zM18.25 24h-0.5v-15.25l0.5 0.5v14.75zM19.25 24h-0.5v-14.25l0.5 0.5v13.75zM20.25 30h-0.25v-6h-0.25v-13.25l0.5 0.5v18.75zM21.25 30h-0.5v-18.25l0.5 0.5v17.75zM22.25 30h-0.5v-17.25l0.5 0.5v16.75zM23.25 30h-0.5v-16.25l0.5 0.5v15.75zM24 30h-0.25v-15.25l0.25 0.25v15z" />
</svg>
