<?xml version="1.0" encoding="utf-8"?>
<!-- Generated by IcoMoon.io -->
<!DOCTYPE svg PUBLIC "-//W3C//DTD SVG 1.1//EN" "http://www.w3.org/Graphics/SVG/1.1/DTD/svg11.dtd">
<svg version="1.1" xmlns="http://www.w3.org/2000/svg" xmlns:xlink="http://www.w3.org/1999/xlink" width="32" height="32" viewBox="0 0 32 32">
	<path d="M0 2v28h32v-28h-32zM30 4v20.322l-7.871-9.183c-0.55-0.642-1.326-1.010-2.129-1.010s-1.578 0.368-2.129 1.010l-9.309 10.861h-5.841l4.557-5.696c0.204-0.256 0.461-0.396 0.722-0.396s0.518 0.141 0.722 0.396l0.992 1.24 1.143-1.372-0.769-0.961c-0.535-0.669-1.297-1.053-2.089-1.053s-1.553 0.384-2.089 1.053l-3.911 4.889v-20.099h28zM29.133 26h-18.267l8.333-9.722c0.221-0.257 0.505-0.399 0.8-0.399s0.579 0.142 0.8 0.399l8.333 9.722zM9 7.75c1.792 0 3.25 1.458 3.25 3.25s-1.458 3.25-3.25 3.25-3.25-1.458-3.25-3.25 1.458-3.25 3.25-3.25M9 6c-2.761 0-5 2.239-5 5s2.239 5 5 5 5-2.239 5-5-2.239-5-5-5v0z" />
</svg>
