<?xml version="1.0" encoding="utf-8"?>
<!-- Generated by IcoMoon.io -->
<!DOCTYPE svg PUBLIC "-//W3C//DTD SVG 1.1//EN" "http://www.w3.org/Graphics/SVG/1.1/DTD/svg11.dtd">
<svg version="1.1" xmlns="http://www.w3.org/2000/svg" xmlns:xlink="http://www.w3.org/1999/xlink" width="32" height="32" viewBox="0 0 32 32">
	<path d="M31 12l1-4-8-8-4 1 1.97 1.97-3.263 3.263-4.47-4.47-2.475 2.475 3.012 3.012c-0.065 0.051-0.128 0.105-0.188 0.165l-11.172 11.172c-0.778 0.778-0.778 2.051 0 2.828l0.586 0.586v2l1.293 1.293-5.293 5.293 1.414 1.414 5.293-5.293 1.293 1.293h2l0.586 0.586c0.389 0.389 0.902 0.583 1.414 0.583s1.025-0.194 1.414-0.583l11.172-11.172c0.060-0.060 0.115-0.123 0.165-0.188l3.012 3.012 2.475-2.475-4.47-4.47 3.263-3.263 1.97 1.97zM23.348 16.177l-11.172 11.172c-0.059 0.059-0.128 0.071-0.177 0.071s-0.118-0.012-0.177-0.071l-7.172-7.172c-0.059-0.058-0.071-0.128-0.071-0.177s0.012-0.118 0.071-0.177l11.172-11.172c0.059-0.059 0.128-0.071 0.177-0.071s0.118 0.012 0.177 0.071l7.172 7.172c0.094 0.094 0.094 0.259 0 0.354zM24.707 12.232l-4.939-4.939 3.263-3.263 4.939 4.939-3.263 3.263zM12.47 23.531l-4-4 1.061-1.061 4 4zM18.47 17.531l-4-4 1.061-1.061 4 4zM15.47 20.531l-4-4 1.061-1.061 4 4z" />
</svg>
