<?xml version="1.0" encoding="utf-8"?>
<!-- Generated by IcoMoon.io -->
<!DOCTYPE svg PUBLIC "-//W3C//DTD SVG 1.1//EN" "http://www.w3.org/Graphics/SVG/1.1/DTD/svg11.dtd">
<svg version="1.1" xmlns="http://www.w3.org/2000/svg" xmlns:xlink="http://www.w3.org/1999/xlink" width="32" height="32" viewBox="0 0 32 32">
	<path d="M22 8v-8h-22v22h8v10h24v-24h-10zM20 12.25h-8v-0.25h8v0.25zM20 20h-8v-0.25h8v0.25zM20 19.25h-8v-0.5h8v0.5zM20 18.25h-8v-0.5h8v0.5zM20 17.25h-8v-0.5h8v0.5zM20 16.25h-8v-0.5h8v0.5zM20 15.25h-8v-0.5h8v0.5zM20 14.25h-8v-0.5h8v0.5zM20 13.25h-8v-0.5h8v0.5zM8 20h-6v-18h18v6h-12v12zM30 30h-20v-6h14v-14h6v20z" />
</svg>
