<?xml version="1.0" encoding="utf-8"?>
<!-- Generated by IcoMoon.io -->
<!DOCTYPE svg PUBLIC "-//W3C//DTD SVG 1.1//EN" "http://www.w3.org/Graphics/SVG/1.1/DTD/svg11.dtd">
<svg version="1.1" xmlns="http://www.w3.org/2000/svg" xmlns:xlink="http://www.w3.org/1999/xlink" width="32" height="32" viewBox="0 0 32 32">
	<path d="M28 0h-24c-2.2 0-4 1.8-4 4v24c0 2.2 1.8 4 4 4h24c2.2 0 4-1.8 4-4v-24c0-2.2-1.8-4-4-4zM30.5 27.25h-4.876c-0 0-0 0-0 0 0.238-0.148 0.463-0.316 0.672-0.5l-0 0h4.204v0.5zM25.471 25.471c-0.664 0.664-1.541 1.029-2.471 1.029h-14c-0.929 0-1.807-0.366-2.471-1.029-0.664-0.664-1.029-1.541-1.029-2.471v-14c0-0.929 0.366-1.807 1.029-2.471 0.664-0.664 1.541-1.029 2.471-1.029h14c0.929 0 1.807 0.366 2.471 1.029 0.664 0.664 1.029 1.541 1.029 2.471v14c0 0.929-0.366 1.807-1.029 2.471zM30.5 26.25h-3.71c-0 0-0 0-0 0 0.137-0.159 0.264-0.326 0.38-0.501-0 0-0 0.001-0 0.001h3.331v0.5zM30.5 25.25h-3.040c0.082-0.162 0.157-0.329 0.221-0.5h2.819v0.5zM30.5 24.25h-2.659c-0.001 0.002-0.001 0.004-0.002 0.006 0.043-0.166 0.078-0.335 0.104-0.506h2.557v0.5zM30.5 23.25h-2.506c0 0-0 0-0 0.001 0.004-0.083 0.006-0.167 0.006-0.251v-0.25h2.5v0.5zM30.5 22.25h-2.5v-0.5h2.5v0.5zM30.5 21.25h-2.5v-0.5h2.5v0.5zM30.5 20.25h-2.5v-0.5h2.5v0.5zM30.5 19.25h-2.5v-0.5h2.5v0.5zM30.5 18.25h-2.5v-0.5h2.5v0.5zM30.5 17.25h-2.5v-0.5h2.5v0.5zM30.5 16.25h-2.5v-0.5h2.5v0.5zM30.5 15.25h-2.5v-0.5h2.5v0.5zM30.5 14.25h-2.5v-0.5h2.5v0.5zM30.5 13.25h-2.5v-0.5h2.5v0.5zM30.5 12.25h-2.5v-0.5h2.5v0.5zM30.5 11.25h-2.5v-0.5h2.5v0.5zM30.5 10.25h-2.5v-0.5h2.5v0.5zM30.5 9.25h-2.5v-0.25c0-0.084-0.002-0.168-0.006-0.251 0 0 0 0 0 0.001h2.506v0.5zM30.5 8.25h-2.557c-0.026-0.172-0.061-0.341-0.104-0.506 0.001 0.002 0.001 0.004 0.002 0.006h2.659v0.5zM30.5 7.25h-2.819c-0.065-0.171-0.139-0.338-0.221-0.5h3.040v0.5zM30.5 6.25h-3.331c0 0 0 0 0 0.001-0.116-0.175-0.243-0.342-0.379-0.501h3.71v0.5zM30.5 4.25h-2.75l-0.5 0.5h3.25v0.5h-3.75l-0.219 0.219c-0.906-0.906-2.156-1.469-3.531-1.469h-14c-2.75 0-5 2.25-5 5v14c0 1.375 0.563 2.625 1.469 3.531l-0.219 0.219h0.454c0.21 0.185 0.434 0.352 0.672 0.5 0 0-0-0-0-0h-1.626l-0.5 0.5h3.196c0.49 0.161 1.012 0.25 1.554 0.25h14c0.542 0 1.064-0.089 1.554-0.25h5.946v0.25c0 0.127-0.010 0.253-0.029 0.376 0.006-0.042 0.012-0.084 0.016-0.126h-26.737l-0.5 0.5h27.134c-0.086 0.272-0.22 0.528-0.396 0.758 0.063-0.083 0.121-0.169 0.173-0.258h-27.412l-0.5 0.5h27.528c-0.005 0.005-0.009 0.010-0.014 0.014-0.215 0.215-0.462 0.386-0.729 0.509h-26.070c-0.267-0.123-0.514-0.294-0.729-0.509-0.474-0.474-0.736-1.101-0.736-1.764v-24c0-0.663 0.261-1.29 0.736-1.764s1.101-0.736 1.764-0.736h24c0.663 0 1.29 0.261 1.764 0.736 0.005 0.005 0.009 0.010 0.014 0.014h-0.028l-0.5 0.5h0.911c-0.052-0.089-0.11-0.175-0.173-0.258 0.176 0.23 0.309 0.486 0.396 0.758h-1.634l-0.5 0.5h2.237c-0.004-0.042-0.010-0.084-0.016-0.126 0.019 0.124 0.029 0.249 0.029 0.376v0.25zM30.384 28.75c0.025-0.079 0.046-0.16 0.063-0.242-0.017 0.082-0.038 0.162-0.063 0.242zM30.449 28.503c0.008-0.038 0.015-0.076 0.021-0.115-0.006 0.038-0.013 0.077-0.021 0.115zM29.778 29.75c0.035-0.036 0.069-0.073 0.102-0.11-0.033 0.038-0.067 0.074-0.102 0.11zM29.894 29.624c0.031-0.036 0.061-0.072 0.089-0.11-0.029 0.037-0.058 0.074-0.089 0.11zM29.778 2.25c0.035 0.036 0.069 0.073 0.102 0.11-0.033-0.038-0.067-0.074-0.102-0.11zM29.894 2.376c0.031 0.036 0.061 0.072 0.090 0.11-0.029-0.037-0.059-0.074-0.090-0.11zM30.384 3.25c0.025 0.079 0.047 0.16 0.064 0.242-0.017-0.082-0.038-0.163-0.064-0.242zM30.449 3.497c0.008 0.038 0.015 0.077 0.021 0.115-0.006-0.039-0.013-0.077-0.021-0.115zM22 16l-6-6-6 6h4v6h4v-6z" />
</svg>
