<?xml version="1.0" encoding="utf-8"?>
<!-- Generated by IcoMoon.io -->
<!DOCTYPE svg PUBLIC "-//W3C//DTD SVG 1.1//EN" "http://www.w3.org/Graphics/SVG/1.1/DTD/svg11.dtd">
<svg version="1.1" xmlns="http://www.w3.org/2000/svg" xmlns:xlink="http://www.w3.org/1999/xlink" width="32" height="32" viewBox="0 0 32 32">
	<path d="M21 0c-4.971 0-9 4.029-9 9 0 1.975 0.637 3.801 1.715 5.285l-13.423 13.423c-0.389 0.389-0.389 1.025 0 1.414l0.586 0.586c0.389 0.389 1.025 0.389 1.414 0l3.708-3.708 2 2-1.708 1.708c-0.389 0.389-0.389 1.025 0 1.414l0.586 0.586c0.389 0.389 1.025 0.389 1.414 0l5.417-5.417c0.389-0.389 0.389-1.025 0-1.414l-0.586-0.586c-0.389-0.389-1.025-0.389-1.414 0l-1.708 1.708-2-2 7.715-7.715c1.484 1.078 3.31 1.715 5.285 1.715 4.971 0 9-4.029 9-9s-4.029-9-9-9zM21 15.65c-3.673 0-6.65-2.977-6.65-6.65s2.977-6.65 6.65-6.65 6.65 2.977 6.65 6.65-2.977 6.65-6.65 6.65z" />
</svg>
