<?xml version="1.0" encoding="utf-8"?>
<!-- Generated by IcoMoon.io -->
<!DOCTYPE svg PUBLIC "-//W3C//DTD SVG 1.1//EN" "http://www.w3.org/Graphics/SVG/1.1/DTD/svg11.dtd">
<svg version="1.1" xmlns="http://www.w3.org/2000/svg" xmlns:xlink="http://www.w3.org/1999/xlink" width="32" height="32" viewBox="0 0 32 32">
	<path d="M21 0.505c-4.684 0-8.495 3.811-8.495 8.495 0 1.801 0.564 3.473 1.524 4.849l-13.090 13.090c-0.586 0.586-0.586 1.535 0 2.121 0.293 0.293 0.677 0.439 1.061 0.439s0.768-0.146 1.061-0.439l0.689-0.689 3.189 3.189c0.293 0.293 0.677 0.439 1.061 0.439s0.768-0.146 1.061-0.439c0.586-0.586 0.586-1.535 0-2.121l-3.189-3.189 1.691-1.691 3.189 3.189c0.293 0.293 0.677 0.439 1.061 0.439s0.768-0.146 1.061-0.439c0.586-0.586 0.586-1.535 0-2.121l-3.189-3.189 6.467-6.467c1.376 0.96 3.048 1.524 4.849 1.524 4.684 0 8.495-3.811 8.495-8.495s-3.811-8.495-8.495-8.495zM21 14.495c-3.030 0-5.495-2.465-5.495-5.495s2.465-5.495 5.495-5.495 5.495 2.465 5.495 5.495-2.465 5.495-5.495 5.495z" />
</svg>
