<?xml version="1.0" encoding="utf-8"?>
<!-- Generated by IcoMoon.io -->
<!DOCTYPE svg PUBLIC "-//W3C//DTD SVG 1.1//EN" "http://www.w3.org/Graphics/SVG/1.1/DTD/svg11.dtd">
<svg version="1.1" xmlns="http://www.w3.org/2000/svg" xmlns:xlink="http://www.w3.org/1999/xlink" width="32" height="32" viewBox="0 0 32 32">
	<path d="M30 12h-15.070c-1.383-2.391-3.968-4-6.93-4-4.418 0-8 3.582-8 8 0 4.418 3.582 8 8 8 2.961 0 5.546-1.609 6.93-4h1.070l2-2h2v2h2l2-2h2v2h2l4-4-2-4zM6 18.828c-1.562 0-2.828-1.266-2.828-2.828 0-1.562 1.266-2.828 2.828-2.828s2.828 1.266 2.828 2.828c0 1.562-1.266 2.828-2.828 2.828zM16 15v-1h12l0.5 1h-12.5z" />
</svg>
