<?xml version="1.0" encoding="utf-8"?>
<!-- Generated by IcoMoon.io -->
<!DOCTYPE svg PUBLIC "-//W3C//DTD SVG 1.1//EN" "http://www.w3.org/Graphics/SVG/1.1/DTD/svg11.dtd">
<svg version="1.1" xmlns="http://www.w3.org/2000/svg" xmlns:xlink="http://www.w3.org/1999/xlink" width="32" height="32" viewBox="0 0 32 32">
	<path d="M28 8h-26c-1.1 0-2 0.9-2 2v14c0 1.1 0.9 2 2 2h26c1.1 0 2-0.9 2-2v-14c0-1.1-0.9-2-2-2zM28 23.996c-0.001 0.001-0.002 0.003-0.004 0.004h-25.993c-0.001-0.001-0.003-0.002-0.004-0.004v-13.993c0.001-0.001 0.002-0.003 0.004-0.004h25.993c0.001 0.001 0.003 0.002 0.004 0.004v13.993zM8 20h14v2h-14zM22 16h2v2h-2zM18 16h2v2h-2zM14 16h2v2h-2zM10 16h2v2h-2zM6 16h2v2h-2zM20 12h2v2h-2zM24 12h2v2h-2zM16 12h2v2h-2zM12 12h2v2h-2zM8 12h2v2h-2zM4 12h2v2h-2z" />
</svg>
