<?xml version="1.0" encoding="utf-8"?>
<!-- Generated by IcoMoon.io -->
<!DOCTYPE svg PUBLIC "-//W3C//DTD SVG 1.1//EN" "http://www.w3.org/Graphics/SVG/1.1/DTD/svg11.dtd">
<svg version="1.1" xmlns="http://www.w3.org/2000/svg" xmlns:xlink="http://www.w3.org/1999/xlink" width="32" height="32" viewBox="0 0 32 32">
	<path d="M30.439 8.297c-1.055-1.054-2.504-1.561-4.109-1.561-2.153 0-4.588 0.91-6.735 2.629-0.508-1.557-1.453-2.735-2.594-3.176v-2.189h3v-2h-3v-2h-2v2h-3v2h3v2.189c-1.142 0.441-2.086 1.619-2.594 3.176-2.148-1.719-4.583-2.629-6.735-2.629-1.606 0-3.055 0.506-4.109 1.561-2.734 2.734-1.784 8.116 2.121 12.021 0.73 0.73 1.512 1.356 2.318 1.875v2.93c2.739 0.549 6.216 0.878 10 0.878s7.261-0.329 10-0.878v-2.93c0.806-0.519 1.588-1.145 2.318-1.875 3.905-3.905 4.855-9.287 2.121-12.021zM5.097 11.833c0.034-0.023 0.214-0.097 0.574-0.097h0c0.995 0 2.738 0.581 4.375 2.218 1.080 1.080 1.854 2.386 2.122 3.583 0.191 0.854 0.048 1.297-0 1.367-0.034 0.022-0.213 0.097-0.574 0.097-0.995 0-2.739-0.581-4.376-2.218-1.080-1.081-1.854-2.387-2.122-3.583-0.191-0.854-0.048-1.296 0-1.366zM26.904 13.199c-0.268 1.197-1.041 2.502-2.122 3.583-1.637 1.637-3.38 2.218-4.376 2.218-0.36 0-0.54-0.074-0.574-0.097-0.048-0.070-0.192-0.513-0.001-1.366 0.268-1.197 1.041-2.503 2.122-3.583 1.637-1.637 3.38-2.218 4.376-2.218 0.36 0 0.54 0.074 0.574 0.097 0.048 0.070 0.192 0.513 0 1.367zM6 28.177v2.945c2.739 0.549 6.216 0.878 10 0.878s7.261-0.329 10-0.878v-2.945c-2.932 0.539-6.374 0.823-10 0.823s-7.068-0.284-10-0.823z" />
</svg>
