<?xml version="1.0" encoding="utf-8"?>
<!-- Generated by IcoMoon.io -->
<!DOCTYPE svg PUBLIC "-//W3C//DTD SVG 1.1//EN" "http://www.w3.org/Graphics/SVG/1.1/DTD/svg11.dtd">
<svg version="1.1" xmlns="http://www.w3.org/2000/svg" xmlns:xlink="http://www.w3.org/1999/xlink" width="32" height="32" viewBox="0 0 32 32">
	<path d="M31 30h-23l-1 2h25zM17.734 16c0.42 6.497-5.298 9.047-7.271 13h19.537c0-2.237 0-5.81 0-11 0-6.948-2.721-11.964-5.935-14.379-0.148-0.631-0.372-1.328-0.622-1.894l-0.386-0.876c-0.444-1.006-1.384-1.139-2.089-0.295l-1.207 1.445c-0.009-0-0.018-0.001-0.027-0.001-0.515 0-0.989 0.016-1.428 0.047l-2.642-1.761c-0.915-0.61-1.664-0.209-1.664 0.891v2.037c-0.811 0.459-1.491 1.015-2.266 1.606-2 1.525-6.808 7.567-10 11.181-2.953 3.344-1.358 6 1.438 5.375-0.14 2.625 2.047 1.781 3.563 0.625 3.494-2.666 11.297-1.406 11-6zM24.216 5.409c1.078 1.092 2.010 2.488 2.733 4.109 1.112 2.491 1.675 5.345 1.675 8.482v9l-3-3v-6c0-2.713-0.476-5.156-1.415-7.259-0.575-1.289-1.296-2.38-2.115-3.211l2.121-2.121zM5 18.414c-0.781 0-1.414-0.633-1.414-1.414 0-0.781 0.633-1.414 1.414-1.414 0.781 0 1.414 0.633 1.414 1.414 0 0.781-0.633 1.414-1.414 1.414zM15.061 8.998c-1.172 1.172-2.596 1.646-3.182 1.061-0.586-0.586-0.111-2.010 1.061-3.182 1.172-1.172 2.596-1.646 3.182-1.061 0.586 0.586 0.111 2.010-1.061 3.182z" />
</svg>
