<?xml version="1.0" encoding="utf-8"?>
<!-- Generated by IcoMoon.io -->
<!DOCTYPE svg PUBLIC "-//W3C//DTD SVG 1.1//EN" "http://www.w3.org/Graphics/SVG/1.1/DTD/svg11.dtd">
<svg version="1.1" xmlns="http://www.w3.org/2000/svg" xmlns:xlink="http://www.w3.org/1999/xlink" width="32" height="32" viewBox="0 0 32 32">
	<path d="M24 0c-1.105 0-2 0.895-2 2v4h-12v-4c0-1.105-0.895-2-2-2s-2 0.895-2 2v28c0 1.105 0.895 2 2 2s2-0.895 2-2v-4h12v4c0 1.105 0.895 2 2 2 1.105 0 2-0.895 2-2v-28c0-1.105-0.895-2-2-2zM22 22h-12v-4h12v4zM22 14h-12v-4h12v4z" />
</svg>
