<?xml version="1.0" encoding="utf-8"?>
<!-- Generated by IcoMoon.io -->
<!DOCTYPE svg PUBLIC "-//W3C//DTD SVG 1.1//EN" "http://www.w3.org/Graphics/SVG/1.1/DTD/svg11.dtd">
<svg version="1.1" xmlns="http://www.w3.org/2000/svg" xmlns:xlink="http://www.w3.org/1999/xlink" width="32" height="32" viewBox="0 0 32 32">
	<path d="M11.942 24.951c0.742 0.808 1.971 1.083 4.234 1.046 2.041-0.034 3.184-0.211 3.881-0.853v2.345c-1.247 0.405-2.618 0.63-4.058 0.63-1.439 0-2.811-0.225-4.058-0.631v-2.538zM11.985 29.066c1.802 0.551 2.623 0.581 4.016 0.581 1.392 0 2.214-0.030 4.016-0.581-0.157 0.857-0.831 2.934-4.016 2.934-3.184 0-3.859-2.077-4.016-2.934zM16 2.375c-4.020 0-7.291 3.211-7.291 7.159 0 1.963 1.369 4.399 3.022 7.15 0.66 1.098 0.976 2.182 1.231 3.054 0.197 0.676 0.383 1.314 0.625 1.54 0.113 0.105 0.615 0.449 2.352 0.449 0.067 0 0.134-0 0.203-0.002 1.926-0.028 2.385-0.378 2.431-0.418 0.148-0.128 0.308-0.704 0.449-1.212 0.227-0.817 0.509-1.833 1.132-2.924 1.249-2.186 3.137-5.488 3.137-7.637 0-1.905-0.755-3.698-2.125-5.049-1.379-1.36-3.214-2.109-5.166-2.109zM16 0v0c5.335 0 9.666 4.271 9.666 9.534 0 2.631-1.745 5.831-3.45 8.815-1.705 2.984-0.188 5.665-6.039 5.751-0.081 0.001-0.16 0.002-0.237 0.002-5.83 0-4.473-3.25-6.244-6.194-1.794-2.984-3.362-5.742-3.362-8.373 0-5.263 4.33-9.534 9.666-9.534z" />
</svg>
