<?xml version="1.0" encoding="utf-8"?>
<!-- Generated by IcoMoon.io -->
<!DOCTYPE svg PUBLIC "-//W3C//DTD SVG 1.1//EN" "http://www.w3.org/Graphics/SVG/1.1/DTD/svg11.dtd">
<svg version="1.1" xmlns="http://www.w3.org/2000/svg" xmlns:xlink="http://www.w3.org/1999/xlink" width="32" height="32" viewBox="0 0 32 32">
	<path d="M16 0c-6.627 0-12 5.373-12 12 0 4.442 2.413 8.319 6 10.394v5.606l4 4h4l4-4v-5.606c3.587-2.075 6-5.953 6-10.394 0-6.627-5.373-12-12-12zM14 21.25v-0.5h4v0.5h-4zM18 21.75v0.051c-0.651 0.131-1.32 0.199-2 0.199-0.68 0-1.349-0.068-2-0.199v-0.051h4zM14 20.25v-0.5h4v0.5h-4zM14 19.25v-0.5h4v0.5h-4zM14 18.25v-0.5h4v0.5h-4zM14 17.25v-0.5h4v0.5h-4zM14 16.25v-0.5h4v0.5h-4zM14 15.25v-0.5h4v0.5h-4zM14 14.25v-0.5h4v0.5h-4zM14 13.25v-0.5h4v0.5h-4zM14 12.25v-0.5h4v0.5h-4zM14 11.25v-0.5h4v0.5h-4zM14 10.25v-0.25c0-0.085-0.006-0.168-0.016-0.25h4.032c-0.010 0.082-0.016 0.165-0.016 0.25v0.25h-4zM18.146 9.25h-4.292c0 0 0 0 0 0-0.073-0.182-0.173-0.35-0.294-0.5 0 0 0 0 0 0h4.879c-0.121 0.15-0.22 0.319-0.293 0.5zM18.102 9.369c-0 0.001-0 0.001-0.001 0.002 0-0.001 0-0.001 0.001-0.002zM13.899 9.371c-0-0.001-0.001-0.002-0.001-0.002 0 0.001 0.001 0.002 0.001 0.002zM12.968 8.25c0 0 0 0 0.001 0-0.287-0.159-0.617-0.25-0.969-0.25s-0.682 0.091-0.969 0.25c0-0 0-0 0.001-0h-4.307c0.138-0.341 0.295-0.675 0.471-1-0.089 0.164-0.173 0.331-0.253 0.5h18.115c0.077 0.165 0.15 0.331 0.218 0.5h-4.307c0 0 0.001 0 0.001 0-0.287-0.159-0.617-0.25-0.969-0.25s-0.682 0.091-0.969 0.25c0-0 0.001-0 0.001-0h-6.063zM18.948 8.299c-0.001 0.001-0.002 0.001-0.003 0.002 0.001-0.001 0.002-0.001 0.003-0.002zM18.866 8.353c-0.001 0.001-0.002 0.001-0.003 0.002 0.001-0.001 0.002-0.001 0.003-0.002zM18.787 8.41c-0.001 0.001-0.002 0.001-0.003 0.002 0.001-0.001 0.002-0.001 0.003-0.002zM18.711 8.471c-0 0-0.001 0.001-0.001 0.001 0-0 0.001-0.001 0.001-0.001zM18.638 8.536c-0 0-0 0-0 0 0-0 0-0 0-0zM13.498 8.676c0 0 0-0 0 0 0-0 0 0 0 0zM13.432 8.604c-0-0-0-0-0-0 0 0 0 0 0 0zM13.363 8.537c-0-0-0.001-0.001-0.001-0.001 0 0 0.001 0.001 0.001 0.001zM13.291 8.473c-0.001-0.001-0.001-0.001-0.002-0.002 0.001 0.001 0.001 0.001 0.002 0.002zM13.216 8.412c-0.001-0.001-0.002-0.002-0.003-0.002 0.001 0.001 0.002 0.002 0.003 0.002zM13.137 8.355c-0.001-0.001-0.002-0.001-0.003-0.002 0.001 0.001 0.002 0.001 0.003 0.002zM13.055 8.301c-0.001-0.001-0.002-0.001-0.002-0.002 0.001 0.001 0.002 0.001 0.002 0.002zM10.016 10.25h-3.864c-0.014 0.082-0.028 0.165-0.040 0.248 0.038-0.252 0.085-0.501 0.142-0.748h3.763c-0.010 0.082-0.016 0.165-0.016 0.25s0.006 0.168 0.016 0.25zM6.381 9.25c-0.023 0.082-0.045 0.164-0.067 0.246 0.087-0.338 0.191-0.67 0.312-0.995-0.031 0.083-0.061 0.166-0.089 0.249h3.901c0-0 0-0 0-0-0.121 0.15-0.22 0.319-0.294 0.5 0-0 0-0 0-0h-3.764zM10.102 9.369c-0 0.001-0.001 0.002-0.001 0.002 0-0.001 0.001-0.002 0.001-0.002zM6.254 9.748c0.019-0.083 0.039-0.165 0.060-0.248-0.021 0.082-0.041 0.165-0.060 0.248zM10.948 8.299c-0.001 0.001-0.002 0.001-0.002 0.002 0.001-0.001 0.002-0.001 0.002-0.002zM10.866 8.353c-0.001 0.001-0.002 0.001-0.003 0.002 0.001-0.001 0.002-0.001 0.003-0.002zM10.787 8.41c-0.001 0.001-0.002 0.002-0.003 0.002 0.001-0.001 0.002-0.002 0.003-0.002zM10.711 8.471c-0.001 0.001-0.001 0.001-0.002 0.002 0.001-0.001 0.001-0.001 0.002-0.002zM10.638 8.536c-0 0-0.001 0.001-0.001 0.001 0-0 0.001-0.001 0.001-0.001zM10.568 8.604c-0 0-0 0-0 0 0-0 0-0 0-0zM10.502 8.675c-0 0-0 0 0 0-0 0-0 0 0 0zM6.629 8.497c0.031-0.083 0.063-0.165 0.096-0.247-0.033 0.082-0.065 0.164-0.096 0.247zM21.898 10.629c-0 0.001-0 0.001-0.001 0.002 0-0.001 0-0.001 0.001-0.002zM21.898 9.369c0 0.001 0 0.001 0.001 0.002-0-0.001-0-0.001-0.001-0.002zM21.854 10.75h4.069c-0.021-0.167-0.046-0.334-0.075-0.499 0.058 0.329 0.099 0.663 0.124 0.999h-4.412c0.121-0.15 0.22-0.319 0.293-0.5zM21.984 10.25c0.010-0.082 0.016-0.165 0.016-0.25s-0.006-0.168-0.016-0.25h3.763c0.038 0.165 0.072 0.332 0.101 0.5h-3.864zM21.854 9.25c-0.073-0.181-0.173-0.35-0.293-0.5h3.901c0.056 0.165 0.109 0.332 0.157 0.5h-3.764zM25.619 9.25c0.023 0.082 0.046 0.165 0.067 0.247-0.021-0.083-0.044-0.165-0.067-0.247zM25.686 9.5c0.021 0.083 0.042 0.167 0.061 0.25-0.019-0.084-0.040-0.167-0.061-0.25zM25.276 8.251c0.033 0.081 0.065 0.163 0.095 0.245-0.031-0.082-0.062-0.164-0.095-0.245zM25.373 8.502c0.030 0.082 0.060 0.164 0.088 0.246-0.028-0.082-0.058-0.165-0.088-0.246zM21.362 8.536c-0-0-0-0-0-0 0 0 0 0 0 0zM21.29 8.472c-0-0-0.001-0.001-0.001-0.001 0 0 0.001 0.001 0.001 0.001zM21.215 8.412c-0.001-0.001-0.002-0.001-0.003-0.002 0.001 0.001 0.002 0.001 0.003 0.002zM21.137 8.355c-0.001-0.001-0.002-0.001-0.003-0.002 0.001 0.001 0.002 0.001 0.003 0.002zM21.055 8.301c-0.001-0.001-0.002-0.001-0.003-0.002 0.001 0.001 0.002 0.001 0.003 0.002zM20 17.75h4.185c-0.12 0.17-0.246 0.337-0.378 0.5h-3.807v-0.5zM20 16.75h4.805c0.089-0.164 0.173-0.331 0.253-0.5-0.161 0.343-0.342 0.676-0.543 1h-4.515v-0.5zM20 16.25v-0.5h5.275c-0.068 0.169-0.141 0.335-0.218 0.5h-5.058zM20 15.25v-0.5h5.619c-0.048 0.168-0.1 0.335-0.157 0.5h-5.462zM25.461 15.252c-0.028 0.083-0.058 0.165-0.088 0.246 0.030-0.082 0.060-0.164 0.088-0.246zM25.371 15.504c-0.031 0.082-0.063 0.164-0.095 0.246 0.033-0.082 0.065-0.163 0.095-0.246zM20 14.25v-0.5h5.848c-0.044 0.253-0.099 0.503-0.162 0.751 0.021-0.083 0.042-0.167 0.061-0.251h-5.747zM25.686 14.502c-0.021 0.083-0.044 0.165-0.067 0.247 0.023-0.082 0.046-0.165 0.067-0.247zM20 13.25v-0.5h5.973c-0.025 0.337-0.067 0.67-0.124 0.999 0.029-0.165 0.054-0.332 0.075-0.499h-5.923zM20 12.25v-0.25c0.352 0 0.682-0.091 0.969-0.25-0 0-0.001 0-0.001 0h5.029c-0.002-0.084-0.005-0.167-0.009-0.251 0.008 0.166 0.012 0.333 0.012 0.501s-0.004 0.334-0.012 0.501c0.004-0.083 0.007-0.167 0.009-0.251h-5.997zM25.987 12.507c-0.004 0.081-0.009 0.161-0.015 0.242 0.006-0.080 0.011-0.161 0.015-0.242zM21.362 11.464c-0 0-0 0-0 0 0-0 0-0 0-0zM21.29 11.528c-0 0-0.001 0.001-0.001 0.001 0-0 0.001-0.001 0.001-0.001zM21.215 11.588c-0.001 0.001-0.002 0.001-0.003 0.002 0.001-0.001 0.002-0.001 0.003-0.002zM21.137 11.645c-0.001 0.001-0.002 0.001-0.003 0.002 0.001-0.001 0.002-0.001 0.003-0.002zM21.055 11.699c-0.001 0.001-0.002 0.001-0.003 0.002 0.001-0.001 0.002-0.001 0.003-0.002zM25.973 11.251c0.006 0.080 0.011 0.161 0.015 0.242-0.004-0.081-0.009-0.161-0.015-0.242zM24.514 6.749c-0.050-0.081-0.102-0.162-0.155-0.242 0.053 0.080 0.104 0.161 0.155 0.242zM21.655 3.75c-0.13-0.090-0.263-0.176-0.397-0.26 0.465 0.289 0.909 0.617 1.327 0.984-0.087-0.076-0.175-0.151-0.264-0.224h-12.642c0.216-0.177 0.438-0.343 0.666-0.5h11.31zM10.345 3.75c0.065-0.045 0.131-0.089 0.197-0.132-0.066 0.043-0.132 0.087-0.197 0.132zM10.543 3.617c0.066-0.043 0.132-0.085 0.199-0.127-0.067 0.042-0.133 0.084-0.199 0.127zM10.744 3.489c0.066-0.041 0.133-0.082 0.2-0.121-0.067 0.039-0.134 0.080-0.2 0.121zM10.947 3.366c0.403-0.237 0.822-0.445 1.253-0.622-0.004 0.002-0.009 0.003-0.013 0.005h7.627c0.426 0.176 0.84 0.382 1.239 0.616-0.067-0.040-0.135-0.078-0.203-0.116h-9.698c-0.068 0.038-0.136 0.077-0.203 0.116zM21.056 3.368c0.067 0.040 0.134 0.080 0.201 0.121-0.067-0.041-0.133-0.082-0.201-0.121zM22.886 4.748c-0.082-0.078-0.166-0.155-0.251-0.23 0.085 0.075 0.169 0.151 0.251 0.23zM19.62 2.673c-0.037-0.014-0.075-0.028-0.113-0.042 0.038 0.014 0.075 0.028 0.113 0.042zM19.411 2.594c-0.039-0.014-0.079-0.028-0.118-0.042 0.039 0.014 0.079 0.027 0.118 0.042zM19.2 2.521c-0.041-0.014-0.082-0.027-0.123-0.040 0.041 0.013 0.082 0.027 0.123 0.040zM18.99 2.453c-0.043-0.013-0.085-0.026-0.128-0.039 0.043 0.013 0.086 0.026 0.128 0.039zM18.783 2.391c-0.046-0.013-0.092-0.026-0.138-0.039 0.046 0.013 0.092 0.026 0.138 0.039zM18.597 2.339c-0.118-0.031-0.237-0.061-0.356-0.088 0.119 0.027 0.238 0.057 0.356 0.088zM18.237 2.25h-4.474c0.725-0.165 1.475-0.25 2.237-0.25 0.762 0 1.511 0.085 2.237 0.25zM12.38 2.673c0.038-0.015 0.076-0.029 0.114-0.043-0.038 0.014-0.076 0.028-0.114 0.043zM12.589 2.595c0.039-0.014 0.079-0.028 0.119-0.042-0.040 0.014-0.079 0.027-0.119 0.042zM12.8 2.521c0.041-0.014 0.082-0.027 0.123-0.040-0.041 0.013-0.082 0.027-0.123 0.040zM13.010 2.453c0.043-0.013 0.086-0.027 0.129-0.039-0.043 0.013-0.086 0.026-0.129 0.039zM13.217 2.391c0.046-0.013 0.092-0.027 0.139-0.039-0.046 0.013-0.093 0.026-0.139 0.039zM13.401 2.34c0.119-0.032 0.239-0.062 0.36-0.089-0.12 0.027-0.24 0.057-0.36 0.089zM9.365 4.518c-0.085 0.076-0.17 0.153-0.253 0.232h13.775c0.062 0.059 0.123 0.118 0.184 0.179 0.105 0.105 0.207 0.212 0.307 0.321h-14.756c-0.149 0.163-0.292 0.329-0.429 0.5h15.614c-0.137-0.17-0.28-0.337-0.428-0.499 0.359 0.392 0.684 0.808 0.973 1.244-0.054-0.082-0.11-0.164-0.166-0.244h-16.369c-0.057 0.080-0.112 0.162-0.166 0.243 0.369-0.557 0.796-1.081 1.28-1.564 0.142-0.142 0.288-0.278 0.436-0.411zM9.679 4.25c-0.089 0.073-0.177 0.148-0.263 0.224 0.087-0.076 0.174-0.151 0.263-0.224zM7.64 6.508c-0.053 0.080-0.104 0.161-0.154 0.242h17.029c0.2 0.323 0.381 0.657 0.543 0.999-0.079-0.169-0.164-0.335-0.252-0.499h-17.609c0.137-0.253 0.285-0.501 0.444-0.742zM6.111 10.499c-0.012 0.083-0.024 0.166-0.034 0.249 0.010-0.083 0.022-0.167 0.034-0.249zM6.077 10.75h4.069c0-0-0-0-0-0 0.073 0.182 0.173 0.35 0.294 0.5 0-0-0-0-0-0h-4.412c-0.012 0.166-0.020 0.333-0.024 0.5h5.029c-0-0-0-0-0.001-0 0.287 0.159 0.617 0.25 0.969 0.25v0.25h-5.997c0.004 0.167 0.012 0.334 0.024 0.5h5.972v0.5h-5.923c0.021 0.168 0.046 0.334 0.075 0.5h5.848v0.5h-5.747c-0.167-0.73-0.253-1.483-0.253-2.25 0-0.421 0.026-0.838 0.077-1.25zM10.101 10.629c0 0.001 0.001 0.002 0.001 0.002-0-0.001-0.001-0.002-0.001-0.002zM10.502 11.324c0 0 0 0 0 0 0 0 0 0 0 0zM10.568 11.396c0 0 0 0 0 0-0-0-0-0-0-0zM10.637 11.463c0 0 0.001 0.001 0.001 0.001-0-0-0.001-0.001-0.001-0.001zM10.709 11.527c0.001 0.001 0.001 0.001 0.002 0.002-0.001-0.001-0.001-0.001-0.002-0.002zM10.784 11.588c0.001 0.001 0.002 0.002 0.003 0.002-0.001-0.001-0.002-0.002-0.003-0.002zM10.863 11.645c0.001 0.001 0.002 0.001 0.003 0.002-0.001-0.001-0.002-0.001-0.003-0.002zM10.945 11.699c0.001 0.001 0.002 0.001 0.002 0.002-0.001-0.001-0.002-0.001-0.002-0.002zM12 14.75v0.5h-5.462c-0.057-0.165-0.109-0.332-0.157-0.5h5.619zM6.381 14.749c-0.023-0.082-0.045-0.164-0.067-0.246 0.021 0.082 0.043 0.164 0.067 0.246zM6.314 14.5c-0.021-0.083-0.041-0.166-0.060-0.249 0.019 0.083 0.039 0.166 0.060 0.249zM6.629 15.503c0.031 0.083 0.063 0.165 0.096 0.247h5.275v0.5h-5.057c0.079 0.169 0.164 0.336 0.253 0.5h4.805v0.5h-4.515c0.050 0.081 0.102 0.162 0.154 0.241-0.412-0.625-0.751-1.292-1.011-1.989zM6.538 15.25c0.029 0.083 0.058 0.166 0.089 0.249-0.031-0.083-0.061-0.166-0.089-0.249zM12 17.75v0.5h-3.807c-0.193-0.24-0.375-0.488-0.543-0.743 0.054 0.082 0.109 0.163 0.166 0.243h4.185zM8.193 18.25c0.137 0.171 0.28 0.337 0.429 0.5h3.378v0.5h-2.887c0.088 0.084 0.177 0.165 0.268 0.245-0.154-0.136-0.305-0.277-0.451-0.424-0.262-0.262-0.507-0.536-0.736-0.821zM9.4 19.512c0.092 0.081 0.185 0.16 0.28 0.238h2.32v0.5h-1.655c0.195 0.134 0.395 0.261 0.598 0.381-0.544-0.32-1.061-0.694-1.543-1.119zM12 20.75v0.421c-0.361-0.158-0.713-0.337-1.055-0.538 0.068 0.040 0.136 0.079 0.205 0.117h0.849zM19 28h-6c-0.55 0-1-0.45-1-1s0.45-1 1-1h6c0.55 0 1 0.45 1 1s-0.45 1-1 1zM20 20.75h0.849c0.069-0.038 0.137-0.077 0.205-0.117-0.341 0.2-0.693 0.38-1.054 0.538v-0.421zM21.059 20.63c0.203-0.119 0.402-0.246 0.596-0.38h-1.655v-0.5h2.32c-0.4 0.327-0.822 0.621-1.262 0.88zM22.32 19.75c0.095-0.077 0.188-0.157 0.28-0.238-0.092 0.081-0.186 0.16-0.28 0.238zM22.62 19.495c0.090-0.079 0.179-0.161 0.266-0.244-0.087 0.083-0.176 0.164-0.266 0.244zM22.887 19.25h-2.887v-0.5h3.378c-0.1 0.109-0.202 0.216-0.307 0.321-0.061 0.061-0.122 0.12-0.184 0.179zM23.807 18.25c-0.137 0.17-0.28 0.337-0.428 0.499 0.149-0.162 0.291-0.329 0.428-0.499zM24.361 17.491c0.052-0.079 0.104-0.16 0.154-0.24-0.050 0.081-0.101 0.161-0.154 0.24zM24.185 17.749c0.056-0.080 0.111-0.161 0.165-0.242-0.054 0.081-0.109 0.162-0.165 0.242z" />
</svg>
