<?xml version="1.0" encoding="utf-8"?>
<!-- Generated by IcoMoon.io -->
<!DOCTYPE svg PUBLIC "-//W3C//DTD SVG 1.1//EN" "http://www.w3.org/Graphics/SVG/1.1/DTD/svg11.dtd">
<svg version="1.1" xmlns="http://www.w3.org/2000/svg" xmlns:xlink="http://www.w3.org/1999/xlink" width="32" height="32" viewBox="0 0 32 32">
	<path d="M22.358 3.595c1.017 1.68 2.070 3.654 2.935 5.885 1.702 4.389 2.11 8.403 1.212 11.93-0.488 1.917-1.447 3.472-2.775 4.498-1.188 0.919-2.631 1.404-4.172 1.404-2.139 0-4.168-0.94-5.567-2.58l-1.092-1.28-1.233 0.73c-0.026 0.002-0.058 0.003-0.095 0.003-0.31 0-1.208-0.080-2.864-0.819-1.507-0.673-2.619-2.179-2.973-4.028-0.215-1.118-0.135-2.32 0.231-3.474 0.423-1.338 1.212-2.606 2.344-3.769 2.331-2.395 4.285-2.998 6.354-3.637 1.488-0.46 3.027-0.935 4.641-2.017 1.098-0.737 2.099-1.666 3.056-2.846M22.423 0c-5.274 8.718-9.447 4.431-15.55 10.701-5.386 5.533-3.427 12.508 1.016 14.492 1.797 0.802 2.971 0.993 3.679 0.993 0.639 0 0.899-0.154 0.899-0.154 1.845 2.161 4.474 3.281 7.088 3.281 3.819 0 7.608-2.388 8.886-7.409 2.341-9.196-3.762-18.559-6.019-21.903v0zM3.032 30.195c0.004 0.091 0.107 1.805 2.355 1.805 2.9 0 12.613-8 16.613-22-4.432 11-16.906 19.844-18.968 20.195z" />
</svg>
