<?xml version="1.0" encoding="utf-8"?>
<!-- Generated by IcoMoon.io -->
<!DOCTYPE svg PUBLIC "-//W3C//DTD SVG 1.1//EN" "http://www.w3.org/Graphics/SVG/1.1/DTD/svg11.dtd">
<svg version="1.1" xmlns="http://www.w3.org/2000/svg" xmlns:xlink="http://www.w3.org/1999/xlink" width="34" height="32" viewBox="0 0 34 32">
	<path d="M17 0l-17 8h34zM8.031 12v-2h-6v2h2v12h-2v2h6v-2h-2v-12zM16.031 12v-2h-6v2h2v12h-2v2h6v-2h-2v-12zM24.031 12v-2h-6v2h2v12h-2v2h6v-2h-2v-12zM32.031 12v-2h-6v2h2v12h-2v2h6v-2h-2v-12zM2.031 28l-2 4h33.969l-2-4z" />
</svg>
