<?xml version="1.0" encoding="utf-8"?>
<!-- Generated by IcoMoon.io -->
<!DOCTYPE svg PUBLIC "-//W3C//DTD SVG 1.1//EN" "http://www.w3.org/Graphics/SVG/1.1/DTD/svg11.dtd">
<svg version="1.1" xmlns="http://www.w3.org/2000/svg" xmlns:xlink="http://www.w3.org/1999/xlink" width="32" height="32" viewBox="0 0 32 32">
	<path d="M16 0l-16 10h32l-16-10zM25 12l1 2v12h4v-12l1-2h-6zM17 12l1 2v12h4v-12l1-2h-6zM9 12l1 2v12h4v-12l1-2h-6zM1 12l1 2v12h4v-12l1-2h-6zM1 28l-1 4h32l-1-4h-30zM18 6c0 1.105-0.895 2-2 2s-2-0.895-2-2 0.895-2 2-2c1.105 0 2 0.895 2 2z" />
</svg>
