<?xml version="1.0" encoding="utf-8"?>
<!-- Generated by IcoMoon.io -->
<!DOCTYPE svg PUBLIC "-//W3C//DTD SVG 1.1//EN" "http://www.w3.org/Graphics/SVG/1.1/DTD/svg11.dtd">
<svg version="1.1" xmlns="http://www.w3.org/2000/svg" xmlns:xlink="http://www.w3.org/1999/xlink" width="32" height="32" viewBox="0 0 32 32">
	<path d="M9.998 22.002c0.55 0.55 1.451 0.55 2.001 0l10.004-10.004c0.55-0.55 0.55-1.45 0-2.001-0.55-0.55-1.451-0.55-2.001 0l-10.004 10.004c-0.55 0.55-0.55 1.451 0 2.001zM30.591 4.582l-3.173-3.173c-1.878-1.879-4.952-1.879-6.831 0l-5.173 5.173c-1.375 1.375-1.743 3.389-1.106 5.107l7.479-7.479c0.778-0.778 2.051-0.778 2.829 0l3.173 3.173c0.778 0.778 0.778 2.051 0 2.829l-7.479 7.479c1.718 0.637 3.733 0.269 5.107-1.106l5.173-5.173c1.879-1.879 1.879-4.952 0-6.831zM10.213 27.79c-0.778 0.778-2.051 0.778-2.829 0l-3.173-3.173c-0.778-0.778-0.778-2.051 0-2.829l7.479-7.479c-1.718-0.637-3.733-0.269-5.107 1.106l-5.173 5.173c-1.879 1.879-1.879 4.953 0 6.831l3.173 3.173c1.878 1.879 4.952 1.879 6.831 0l5.174-5.173c1.375-1.375 1.743-3.389 1.106-5.107l-7.479 7.479z" />
</svg>
