<?xml version="1.0" encoding="utf-8"?>
<!-- Generated by IcoMoon.io -->
<!DOCTYPE svg PUBLIC "-//W3C//DTD SVG 1.1//EN" "http://www.w3.org/Graphics/SVG/1.1/DTD/svg11.dtd">
<svg version="1.1" xmlns="http://www.w3.org/2000/svg" xmlns:xlink="http://www.w3.org/1999/xlink" width="32" height="32" viewBox="0 0 32 32">
	<path d="M4 20h12l-3 4h-10l-3-3v-8l3-3h10l3 4h-12zM28 14h-12l3-4h10l3 3v8l-3 3h-10l-3-4h12zM14 26h4v6h-4zM6.828 32h-2.828v-2.828l3.172-3.172h2.828v2.828zM28 29.172v2.828h-2.828l-3.172-3.172v-2.828h2.828zM14 2h4v6h-4zM10 5.171v2.829h-2.828l-3.172-3.171v-2.829h2.828zM24.828 8h-2.828v-2.829l3.172-3.171h2.828v2.829z" />
</svg>
