<?xml version="1.0" encoding="utf-8"?>
<!-- Generated by IcoMoon.io -->
<!DOCTYPE svg PUBLIC "-//W3C//DTD SVG 1.1//EN" "http://www.w3.org/Graphics/SVG/1.1/DTD/svg11.dtd">
<svg version="1.1" xmlns="http://www.w3.org/2000/svg" xmlns:xlink="http://www.w3.org/1999/xlink" width="32" height="32" viewBox="0 0 32 32">
	<path d="M30.672 9.672l-4.343-4.343c-0.778-0.778-1.803-1.167-2.828-1.167s-2.051 0.389-2.828 1.167l-8.343 8.343c-1.556 1.556-1.556 4.101 0 5.657l0.172 0.172 1.989-1.989-0.172-0.172c-0.298-0.298-0.343-0.654-0.343-0.84 0-0.186 0.045-0.541 0.343-0.84l8.343-8.343c0.298-0.298 0.654-0.343 0.84-0.343s0.541 0.045 0.84 0.343l4.343 4.343c0.298 0.298 0.343 0.654 0.343 0.84s-0.045 0.541-0.343 0.84l-8.343 8.343c-0.298 0.298-0.654 0.343-0.84 0.343s-0.541-0.045-0.84-0.343l-0.172-0.172-1.989 1.989 0.172 0.172c0.778 0.778 1.803 1.167 2.828 1.167s2.051-0.389 2.828-1.167l8.343-8.343c1.556-1.556 1.556-4.101 0-5.657zM19.672 12.672l-0.172-0.172-1.989 1.989 0.172 0.172c0.298 0.298 0.343 0.654 0.343 0.84s-0.045 0.541-0.343 0.84l-8.343 8.343c-0.298 0.298-0.654 0.343-0.84 0.343-0.186 0-0.541-0.045-0.84-0.343l-4.343-4.343c-0.455-0.455-0.455-1.224-0-1.679l8.343-8.343c0.298-0.298 0.654-0.343 0.84-0.343 0.185 0 0.541 0.045 0.84 0.343l0.172 0.172 1.989-1.989-0.172-0.172c-0.778-0.778-1.803-1.167-2.828-1.167-1.025 0-2.051 0.389-2.828 1.167l-8.343 8.343c-1.556 1.556-1.556 4.101 0 5.657l4.343 4.343c0.778 0.778 1.803 1.167 2.828 1.167 1.025 0 2.051-0.389 2.828-1.167l8.343-8.343c1.556-1.556 1.556-4.101 0-5.657z" />
</svg>
