<?xml version="1.0" encoding="utf-8"?>
<!-- Generated by IcoMoon.io -->
<!DOCTYPE svg PUBLIC "-//W3C//DTD SVG 1.1//EN" "http://www.w3.org/Graphics/SVG/1.1/DTD/svg11.dtd">
<svg version="1.1" xmlns="http://www.w3.org/2000/svg" xmlns:xlink="http://www.w3.org/1999/xlink" width="32" height="32" viewBox="0 0 32 32">
	<path d="M30.141 11.597c-0.913 0-4.029-1.668-4.029-1.668-1.777-0.991-3.79-2.114-6.062-2.114-1.68 0-3.041 0.266-4.050 0.791-1.009-0.525-2.37-0.791-4.050-0.791-2.272 0-4.285 1.123-6.062 2.114 0 0-3.116 1.668-4.029 1.668-1.393 0-2.832 1.853-0.981 3.587 0.994 0.761 1.944 1.71 2.95 2.714 1.469 1.467 2.987 2.983 4.891 4.181 2.253 1.417 4.634 2.105 7.281 2.105 2.646 0 5.028-0.689 7.281-2.105 1.904-1.197 3.422-2.714 4.891-4.181 1.006-1.005 1.956-1.954 2.95-2.714 1.851-1.733 0.413-3.587-0.98-3.587zM16 22.384c-7.018 0-9.977-5.531-14.028-8.63 1.428 1.092 9.28 4.161 14.028 4.161s12.6-3.069 14.028-4.161c-4.050 3.099-7.010 8.63-14.028 8.63zM16 15.016c-5.4 0-14.4-1.627-14.4-1.627l0.282-0.009c3.483-0.201 6.562-3.764 10.068-3.764 3.6 0 4.050 1.35 4.050 1.35s0.45-1.35 4.050-1.35c3.506 0 6.585 3.563 10.068 3.764l0.282 0.009c-0 0-9 1.627-14.4 1.627z" />
</svg>
