<?xml version="1.0" encoding="utf-8"?>
<!-- Generated by IcoMoon.io -->
<!DOCTYPE svg PUBLIC "-//W3C//DTD SVG 1.1//EN" "http://www.w3.org/Graphics/SVG/1.1/DTD/svg11.dtd">
<svg version="1.1" xmlns="http://www.w3.org/2000/svg" xmlns:xlink="http://www.w3.org/1999/xlink" width="32" height="32" viewBox="0 0 32 32">
	<path d="M32 13.755l-0.313-0.010c-3.87-0.224-7.291-4.183-11.187-4.183-4 0-4.5 1.5-4.5 1.5s-0.5-1.5-4.5-1.5c-3.895 0-7.316 3.959-11.187 4.183l-0.313 0.010c0 0 10 1.808 16 1.808s16-1.808 16-1.808zM16 18.438c-5.275 0-14-3.063-15.586-4.276 4.5 3.444 7.789 9.589 15.586 9.589 7.797 0 11.086-6.145 15.586-9.589-1.586 1.214-10.311 4.276-15.586 4.276z" />
</svg>
