<?xml version="1.0" encoding="utf-8"?>
<!-- Generated by IcoMoon.io -->
<!DOCTYPE svg PUBLIC "-//W3C//DTD SVG 1.1//EN" "http://www.w3.org/Graphics/SVG/1.1/DTD/svg11.dtd">
<svg version="1.1" xmlns="http://www.w3.org/2000/svg" xmlns:xlink="http://www.w3.org/1999/xlink" width="32" height="32" viewBox="0 0 32 32">
	<path d="M16 0c-6.627 0-12 5.373-12 12 0 12 12 20 12 20s12-8 12-20c0-6.627-5.373-12-12-12zM20.187 24.773c-1.545 1.818-3.11 3.216-4.187 4.093-1.077-0.877-2.642-2.275-4.187-4.093-1.57-1.848-2.814-3.766-3.699-5.7-1.071-2.343-1.614-4.723-1.614-7.073 0-2.538 0.988-4.923 2.783-6.718s4.18-2.783 6.718-2.783c2.538 0 4.923 0.988 6.718 2.783s2.782 4.18 2.782 6.718c0 2.35-0.543 4.73-1.614 7.073-0.884 1.935-2.129 3.852-3.699 5.7zM16 6c-2.209 0-4 1.791-4 4s1.791 4 4 4c2.209 0 4-1.791 4-4s-1.791-4-4-4zM16 12c-1.105 0-2-0.895-2-2s0.895-2 2-2c1.105 0 2 0.895 2 2s-0.895 2-2 2z" />
</svg>
