<?xml version="1.0" encoding="utf-8"?>
<!-- Generated by IcoMoon.io -->
<!DOCTYPE svg PUBLIC "-//W3C//DTD SVG 1.1//EN" "http://www.w3.org/Graphics/SVG/1.1/DTD/svg11.dtd">
<svg version="1.1" xmlns="http://www.w3.org/2000/svg" xmlns:xlink="http://www.w3.org/1999/xlink" width="32" height="32" viewBox="0 0 32 32">
	<path d="M26 14h-2v-6c0-4.418-3.582-8-8-8s-8 3.582-8 8v6h-2c-1.1 0-2 0.9-2 2v14c0 1.1 0.9 2 2 2h20c1.1 0 2-0.9 2-2v-14c0-1.1-0.9-2-2-2zM16 26c-1.105 0-2-0.895-2-2s0.895-2 2-2 2 0.895 2 2-0.895 2-2 2zM20 14h-8v-6c0-2.206 1.794-4 4-4s4 1.794 4 4v6z" />
</svg>
