<?xml version="1.0" encoding="utf-8"?>
<!-- Generated by IcoMoon.io -->
<!DOCTYPE svg PUBLIC "-//W3C//DTD SVG 1.1//EN" "http://www.w3.org/Graphics/SVG/1.1/DTD/svg11.dtd">
<svg version="1.1" xmlns="http://www.w3.org/2000/svg" xmlns:xlink="http://www.w3.org/1999/xlink" width="32" height="32" viewBox="0 0 32 32">
	<path d="M28 12h-2v-10c0-1.1-0.9-2-2-2h-16c-1.1 0-2 0.9-2 2v10h-2c-1.1 0-2 0.9-2 2v16c0 1.1 0.9 2 2 2h24c1.1 0 2-0.9 2-2v-16c0-1.1-0.9-2-2-2zM18 26h-4l0.87-4.35c-0.525-0.36-0.87-0.965-0.87-1.65 0-1.105 0.895-2 2-2 1.105 0 2 0.895 2 2 0 0.685-0.345 1.29-0.87 1.65l0.87 4.35zM22 12h-12v-8h12v8z" />
</svg>
