<?xml version="1.0" encoding="utf-8"?>
<!-- Generated by IcoMoon.io -->
<!DOCTYPE svg PUBLIC "-//W3C//DTD SVG 1.1//EN" "http://www.w3.org/Graphics/SVG/1.1/DTD/svg11.dtd">
<svg version="1.1" xmlns="http://www.w3.org/2000/svg" xmlns:xlink="http://www.w3.org/1999/xlink" width="32" height="32" viewBox="0 0 32 32">
	<path d="M16 6.5c-3.133 0-5.923 1.463-7.698 3.727l-2.399-1.799c2.322-2.993 5.984-4.927 10.097-4.927v-3.5l5 5-5 5v-3.5zM16 25.5c3.133 0 5.923-1.463 7.698-3.727l2.399 1.799c-2.323 2.993-5.984 4.927-10.097 4.927v3.5l-5-5 5-5v3.5zM6.3 16c0 3.136 1.56 5.922 3.96 7.653l-1.8 2.399c-3.128-2.279-5.161-5.936-5.161-10.053h-3.3l5-5 5 5h-3.7zM28.7 16h3.3l-5 5-5-5h3.7c0-3.136-1.56-5.922-3.96-7.653l1.8-2.399c3.128 2.279 5.161 5.936 5.161 10.053z" />
</svg>
