<?xml version="1.0" encoding="utf-8"?>
<!-- Generated by IcoMoon.io -->
<!DOCTYPE svg PUBLIC "-//W3C//DTD SVG 1.1//EN" "http://www.w3.org/Graphics/SVG/1.1/DTD/svg11.dtd">
<svg version="1.1" xmlns="http://www.w3.org/2000/svg" xmlns:xlink="http://www.w3.org/1999/xlink" width="32" height="32" viewBox="0 0 32 32">
	<path d="M26.859 0.829l-0.144-0.829h-7.716l0.206 1.173c0.698 3.972 2.323 13.642 2.323 17.639 0 3.067-2.48 5.563-5.529 5.563-3.049 0-5.529-2.495-5.529-5.563 0-3.998 1.624-13.668 2.323-17.639l0.206-1.173h-7.716l-0.144 0.829c-0.846 4.888-2.266 13.725-2.266 17.983 0 7.272 5.888 13.188 13.125 13.188 7.237 0 13.125-5.916 13.125-13.188 0-4.258-1.419-13.095-2.266-17.983zM27.125 18.813c0 0.147-0.004 0.292-0.009 0.438h-3.6c0.008-0.145 0.013-0.291 0.013-0.438 0-0.020-0-0.042-0-0.063h3.596c0 0.021 0 0.042 0 0.063zM11.996 29.25c-0.378-0.147-0.745-0.314-1.102-0.5h10.212c-0.357 0.186-0.724 0.353-1.102 0.5h-8.008zM18.341 29.75c-0.755 0.163-1.538 0.25-2.341 0.25s-1.586-0.087-2.341-0.25h4.682zM10.032 28.25c-0.245-0.157-0.484-0.324-0.716-0.5h13.368c-0.232 0.176-0.47 0.343-0.716 0.5h-11.936zM8.703 27.25c-0.184-0.161-0.362-0.328-0.535-0.5h15.664c-0.173 0.172-0.351 0.339-0.535 0.5h-14.595zM4.875 18.813c0-0.020 0-0.042 0-0.063h3.596c-0 0.021-0 0.042-0 0.063 0 0.147 0.005 0.293 0.013 0.438h-3.6c-0.006-0.145-0.009-0.291-0.009-0.438zM9.641 8c-0.013 0.083-0.025 0.167-0.038 0.25h-3.635c0.012-0.083 0.025-0.167 0.037-0.25h3.636zM9.528 8.75c-0.025 0.167-0.049 0.333-0.074 0.5h-3.632c0.024-0.167 0.048-0.333 0.072-0.5h3.633zM9.381 9.75c-0.024 0.167-0.048 0.334-0.072 0.5h-3.628c0.023-0.166 0.046-0.333 0.070-0.5h3.63zM9.24 10.75c-0.023 0.167-0.046 0.334-0.069 0.5h-3.625c0.022-0.166 0.044-0.333 0.067-0.5h3.627zM9.104 11.75c-0.022 0.167-0.044 0.334-0.065 0.5h-3.621c0.021-0.166 0.042-0.333 0.063-0.5h3.623zM8.975 12.75c-0.021 0.168-0.042 0.335-0.062 0.5h-3.617c0.019-0.165 0.039-0.332 0.060-0.5h3.619zM8.854 13.75c-0.020 0.168-0.039 0.335-0.057 0.5h-3.613c0.018-0.165 0.036-0.332 0.055-0.5h3.615zM8.743 14.75c-0.018 0.169-0.035 0.335-0.051 0.5h-3.609c0.016-0.165 0.032-0.331 0.049-0.5h3.611zM8.644 15.75c-0.016 0.17-0.030 0.336-0.044 0.5h-3.604c0.013-0.164 0.027-0.331 0.042-0.5h3.606zM8.56 16.75c-0.013 0.17-0.024 0.337-0.034 0.5h-3.6c0.009-0.163 0.020-0.33 0.032-0.5h3.602zM8.499 17.75c-0.008 0.172-0.014 0.339-0.019 0.5h-3.597c0.004-0.161 0.010-0.328 0.018-0.5h3.598zM8.529 19.75c0.021 0.168 0.047 0.335 0.079 0.5h-3.642c-0.021-0.166-0.038-0.332-0.052-0.5h3.615zM8.722 20.75c0.045 0.169 0.095 0.336 0.15 0.5h-3.731c-0.037-0.165-0.070-0.332-0.099-0.5h3.68zM9.062 21.75c0.072 0.17 0.149 0.337 0.232 0.5h-3.882c-0.053-0.165-0.103-0.332-0.148-0.5h3.797zM9.575 22.75c0.104 0.171 0.216 0.338 0.333 0.5h-4.119c-0.071-0.165-0.138-0.331-0.202-0.5h3.987zM10.302 23.75c0.149 0.174 0.307 0.34 0.471 0.5h-4.493c-0.091-0.164-0.178-0.331-0.261-0.5h4.283zM11.342 24.75c0.227 0.18 0.464 0.347 0.711 0.5h-5.147c-0.115-0.163-0.225-0.33-0.331-0.5h4.767zM13.005 25.75c0.516 0.226 1.062 0.395 1.63 0.5h-6.937c-0.144-0.163-0.284-0.329-0.419-0.5h5.726zM17.366 26.25c0.568-0.105 1.114-0.274 1.63-0.5h5.726c-0.135 0.171-0.274 0.337-0.419 0.5h-6.937zM19.947 25.25c0.247-0.153 0.484-0.32 0.711-0.5h4.767c-0.106 0.17-0.216 0.337-0.331 0.5h-5.147zM21.227 24.25c0.164-0.16 0.322-0.326 0.471-0.5h4.283c-0.083 0.169-0.17 0.336-0.262 0.5h-4.492zM22.093 23.25c0.117-0.162 0.229-0.329 0.333-0.5h3.987c-0.063 0.169-0.13 0.335-0.201 0.5h-4.119zM23.501 17.75h3.598c0.008 0.172 0.013 0.339 0.018 0.5h-3.597c-0.005-0.161-0.011-0.328-0.019-0.5zM23.474 17.25c-0.010-0.163-0.022-0.33-0.034-0.5h3.602c0.012 0.17 0.023 0.337 0.032 0.5h-3.6zM23.4 16.25c-0.014-0.164-0.028-0.33-0.044-0.5h3.606c0.015 0.169 0.029 0.336 0.042 0.5h-3.604zM23.308 15.25c-0.016-0.165-0.033-0.331-0.051-0.5h3.611c0.017 0.169 0.034 0.335 0.049 0.5h-3.609zM23.203 14.25c-0.018-0.165-0.037-0.332-0.057-0.5h3.615c0.019 0.168 0.037 0.335 0.055 0.5h-3.613zM23.087 13.25c-0.020-0.165-0.041-0.332-0.062-0.5h3.619c0.020 0.168 0.040 0.335 0.060 0.5h-3.617zM22.961 12.25c-0.021-0.166-0.043-0.333-0.065-0.5h3.623c0.022 0.167 0.043 0.334 0.063 0.5h-3.621zM22.829 11.25c-0.023-0.166-0.045-0.333-0.069-0.5h3.627c0.023 0.167 0.045 0.334 0.067 0.5h-3.625zM22.69 10.25c-0.024-0.166-0.047-0.333-0.072-0.5h3.63c0.023 0.167 0.047 0.334 0.070 0.5h-3.628zM22.546 9.25c-0.024-0.167-0.049-0.333-0.074-0.5h3.633c0.024 0.167 0.048 0.333 0.072 0.5h-3.632zM22.397 8.25c-0.013-0.083-0.025-0.167-0.038-0.25h3.636c0.012 0.083 0.025 0.167 0.037 0.25h-3.635zM22.705 22.25c0.083-0.163 0.161-0.33 0.232-0.5h3.797c-0.046 0.168-0.095 0.335-0.148 0.5h-3.882zM23.128 21.25c0.056-0.164 0.106-0.331 0.151-0.5h3.68c-0.029 0.168-0.063 0.335-0.099 0.5h-3.731zM23.392 20.25c0.032-0.165 0.058-0.332 0.079-0.5h3.614c-0.014 0.168-0.031 0.334-0.052 0.5h-3.642z" />
</svg>
