<?xml version="1.0" encoding="utf-8"?>
<!-- Generated by IcoMoon.io -->
<!DOCTYPE svg PUBLIC "-//W3C//DTD SVG 1.1//EN" "http://www.w3.org/Graphics/SVG/1.1/DTD/svg11.dtd">
<svg version="1.1" xmlns="http://www.w3.org/2000/svg" xmlns:xlink="http://www.w3.org/1999/xlink" width="32" height="32" viewBox="0 0 32 32">
	<path d="M26.859 0.829l-0.144-0.829h-7.716l0.206 1.173c0.698 3.972 2.323 13.642 2.323 17.639 0 3.067-2.48 5.563-5.529 5.563-3.049 0-5.529-2.495-5.529-5.563 0-3.998 1.624-13.668 2.323-17.639l0.206-1.173h-7.716l-0.144 0.829c-0.846 4.888-2.266 13.725-2.266 17.983 0 7.272 5.888 13.188 13.125 13.188 7.237 0 13.125-5.916 13.125-13.188 0-4.258-1.419-13.095-2.266-17.983zM21.38 2h3.651c0.295 1.728 0.64 3.831 0.964 6h-3.636c-0.326-2.144-0.675-4.239-0.979-6zM10.62 2c-0.304 1.76-0.652 3.856-0.979 6h-3.636c0.324-2.169 0.669-4.271 0.964-6h3.651zM16 30c-6.134 0-11.125-5.019-11.125-11.188 0-2.108 0.369-5.428 0.841-8.813h3.629c-0.492 3.439-0.874 6.772-0.874 8.813 0 4.17 3.377 7.563 7.529 7.563 4.151 0 7.529-3.392 7.529-7.563 0-2.041-0.383-5.373-0.874-8.813h3.629c0.472 3.384 0.841 6.704 0.841 8.813 0 6.169-4.991 11.188-11.125 11.188z" />
</svg>
