<?xml version="1.0" encoding="utf-8"?>
<!-- Generated by IcoMoon.io -->
<!DOCTYPE svg PUBLIC "-//W3C//DTD SVG 1.1//EN" "http://www.w3.org/Graphics/SVG/1.1/DTD/svg11.dtd">
<svg version="1.1" xmlns="http://www.w3.org/2000/svg" xmlns:xlink="http://www.w3.org/1999/xlink" width="32" height="32" viewBox="0 0 32 32">
	<path d="M26.859 0.829l-0.144-0.829h-7.716l0.206 1.173c0.698 3.972 2.323 13.642 2.323 17.639 0 3.067-2.48 5.563-5.529 5.563-3.049 0-5.529-2.495-5.529-5.563 0-3.998 1.624-13.668 2.323-17.639l0.206-1.173h-7.716l-0.144 0.829c-0.846 4.888-2.266 13.725-2.266 17.983 0 7.272 5.888 13.188 13.125 13.188 7.237 0 13.125-5.916 13.125-13.188 0-4.258-1.419-13.095-2.266-17.983zM16 30c-6.134 0-11.125-5.019-11.125-11.188 0-2.524 0.529-6.784 1.13-10.813h3.636c-0.625 4.101-1.17 8.377-1.17 10.813 0 4.17 3.377 7.563 7.529 7.563 4.151 0 7.529-3.392 7.529-7.563 0-2.436-0.545-6.711-1.17-10.813h3.636c0.601 4.029 1.13 8.288 1.13 10.813 0 6.169-4.991 11.188-11.125 11.188z" />
</svg>
