<?xml version="1.0" encoding="utf-8"?>
<!-- Generated by IcoMoon.io -->
<!DOCTYPE svg PUBLIC "-//W3C//DTD SVG 1.1//EN" "http://www.w3.org/Graphics/SVG/1.1/DTD/svg11.dtd">
<svg version="1.1" xmlns="http://www.w3.org/2000/svg" xmlns:xlink="http://www.w3.org/1999/xlink" width="32" height="32" viewBox="0 0 32 32">
	<path d="M20 0v4h5.172l-7.657 7.657c-1.581-1.047-3.476-1.657-5.514-1.657-5.523 0-10 4.477-10 10 0 5.523 4.477 10 10 10s10-4.477 10-10c0-2.038-0.61-3.933-1.657-5.514l7.657-7.657v5.172h4v-12h-12zM12 26.6c-3.645 0-6.6-2.955-6.6-6.6s2.955-6.6 6.6-6.6c3.645 0 6.6 2.955 6.6 6.6 0 3.645-2.955 6.6-6.6 6.6z" />
</svg>
