<?xml version="1.0" encoding="utf-8"?>
<!-- Generated by IcoMoon.io -->
<!DOCTYPE svg PUBLIC "-//W3C//DTD SVG 1.1//EN" "http://www.w3.org/Graphics/SVG/1.1/DTD/svg11.dtd">
<svg version="1.1" xmlns="http://www.w3.org/2000/svg" xmlns:xlink="http://www.w3.org/1999/xlink" width="32" height="32" viewBox="0 0 32 32">
	<path d="M20 8h-10c-1.1 0-2 0.9-2 2v8c0 1.1 0.9 2 2 2v0-8h1v18.5c0 0.825 0.675 1.5 1.5 1.5s1.5-0.675 1.5-1.5v-10.5h2v10.5c0 0.825 0.675 1.5 1.5 1.5s1.5-0.675 1.5-1.5v-18.5h1v8c1.1 0 2-0.9 2-2v-8c0-1.1-0.9-2-2-2zM12 4c0-1.657 1.343-3 3-3s3 1.343 3 3c0 1.657-1.343 3-3 3-1.657 0-3-1.343-3-3z" />
</svg>
