<?xml version="1.0" encoding="utf-8"?>
<!-- Generated by IcoMoon.io -->
<!DOCTYPE svg PUBLIC "-//W3C//DTD SVG 1.1//EN" "http://www.w3.org/Graphics/SVG/1.1/DTD/svg11.dtd">
<svg version="1.1" xmlns="http://www.w3.org/2000/svg" xmlns:xlink="http://www.w3.org/1999/xlink" width="32" height="32" viewBox="0 0 32 32">
	<path d="M24 5l-16-4-8 5v26l8-5 16 4 8-5v-26l-8 5zM10 25.439v-21.877l0.25 0.063v21.877l-0.25-0.063zM10.75 25.626v-21.877l0.5 0.125v21.877l-0.5-0.125zM11.75 25.876v-21.877l0.5 0.125v21.877l-0.5-0.125zM12.75 26.126v-21.877l0.5 0.125v21.877l-0.5-0.125zM13.75 26.376v-21.877l0.5 0.125v21.877l-0.5-0.125zM14.75 26.626v-21.877l0.5 0.125v21.877l-0.5-0.125zM15.75 26.876v-21.877l0.5 0.125v21.877l-0.5-0.125zM16.75 27.126v-21.877l0.5 0.125v21.877l-0.5-0.125zM17.75 27.376v-21.877l0.5 0.125v21.877l-0.5-0.125zM18.75 27.626v-21.877l0.5 0.125v21.877l-0.5-0.125zM19.75 27.876v-21.877l0.5 0.125v21.877l-0.5-0.125zM20.75 28.126v-21.877l0.5 0.125v21.877l-0.5-0.125zM22 28.439l-0.25-0.063v-21.877l0.25 0.063v21.877z" />
</svg>
