<?xml version="1.0" encoding="utf-8"?>
<!-- Generated by IcoMoon.io -->
<!DOCTYPE svg PUBLIC "-//W3C//DTD SVG 1.1//EN" "http://www.w3.org/Graphics/SVG/1.1/DTD/svg11.dtd">
<svg version="1.1" xmlns="http://www.w3.org/2000/svg" xmlns:xlink="http://www.w3.org/1999/xlink" width="32" height="32" viewBox="0 0 32 32">
	<path d="M14.25 30.75h17.75v-0.5h-17.25zM15.25 29.75h16.75v-0.5h-16.25zM13.25 31.75h18.75v-0.5h-18.25zM18.25 26.75h13.75v-0.5h-13.25zM17.25 27.75h14.75v-0.5h-14.25zM16.25 28.75h15.75v-0.5h-15.25zM29.343 2.657c-1.623-1.623-3.471-2.657-5.276-2.657-1.235 0-2.451 0.484-3.561 1.595l-15.492 15.391-5.014 13.014 2 2 13.014-5.014 15.392-15.492c2.734-2.734 1.671-6.103-1.063-8.837zM15.009 24.153l-7.162-7.162 12.613-12.531 7.080 7.080-12.531 12.613z" />
</svg>
