<?xml version="1.0" encoding="utf-8"?>
<!-- Generated by IcoMoon.io -->
<!DOCTYPE svg PUBLIC "-//W3C//DTD SVG 1.1//EN" "http://www.w3.org/Graphics/SVG/1.1/DTD/svg11.dtd">
<svg version="1.1" xmlns="http://www.w3.org/2000/svg" xmlns:xlink="http://www.w3.org/1999/xlink" width="32" height="32" viewBox="0 0 32 32">
	<path d="M28 13c0-6.627-5.373-12-12-12s-12 5.373-12 12c0 3.892 1.853 7.351 4.725 9.543l-4.725 9.457 6-4 2 4 2.801-7.059c0.394 0.039 0.794 0.059 1.199 0.059s0.804-0.020 1.199-0.059l2.801 7.059 2-4 6 4-4.725-9.457c2.872-2.192 4.725-5.651 4.725-9.543zM21.657 18.657c-1.511 1.511-3.52 2.343-5.657 2.343-2.137 0-4.146-0.832-5.657-2.343-1.511-1.511-2.343-3.52-2.343-5.657s0.832-4.146 2.343-5.657c1.511-1.511 3.52-2.343 5.657-2.343 2.137 0 4.146 0.832 5.657 2.343 1.511 1.511 2.343 3.52 2.343 5.657s-0.832 4.146-2.343 5.657zM12 10h6v2h-6v6h8v-2h-6v-2h6v-6h-8z" />
</svg>
