<?xml version="1.0" encoding="utf-8"?>
<!-- Generated by IcoMoon.io -->
<!DOCTYPE svg PUBLIC "-//W3C//DTD SVG 1.1//EN" "http://www.w3.org/Graphics/SVG/1.1/DTD/svg11.dtd">
<svg version="1.1" xmlns="http://www.w3.org/2000/svg" xmlns:xlink="http://www.w3.org/1999/xlink" width="32" height="32" viewBox="0 0 32 32">
	<path d="M26 10c0-1.582-1.225-2.878-2.779-2.991 1.018-1.179 0.969-2.961-0.15-4.080-1.119-1.119-2.901-1.168-4.080-0.15-0.113-1.554-1.409-2.779-2.991-2.779s-2.878 1.225-2.991 2.779c-1.179-1.018-2.961-0.969-4.080 0.15-1.119 1.119-1.168 2.901-0.15 4.080-1.553 0.113-2.779 1.409-2.779 2.991s1.225 2.878 2.779 2.991c-1.018 1.179-0.969 2.961 0.15 4.080 0.831 0.831 2.027 1.071 3.071 0.724v14.205l4-4 4 4v-14.205c1.044 0.348 2.24 0.107 3.071-0.724 1.119-1.119 1.168-2.901 0.15-4.080 1.554-0.113 2.779-1.409 2.779-2.991zM16 16c-3.314 0-6-2.686-6-6s2.686-6 6-6 6 2.686 6 6-2.686 6-6 6z" />
</svg>
