<?xml version="1.0" encoding="utf-8"?>
<!-- Generated by IcoMoon.io -->
<!DOCTYPE svg PUBLIC "-//W3C//DTD SVG 1.1//EN" "http://www.w3.org/Graphics/SVG/1.1/DTD/svg11.dtd">
<svg version="1.1" xmlns="http://www.w3.org/2000/svg" xmlns:xlink="http://www.w3.org/1999/xlink" width="32" height="32" viewBox="0 0 32 32">
	<path d="M28 24h-24c-2.2 0-4 1.8-4 4s1.8 4 4 4h24c2.2 0 4-1.8 4-4s-1.8-4-4-4zM28 12h-24c-2.2 0-4 1.8-4 4s1.8 4 4 4h24c2.2 0 4-1.8 4-4s-1.8-4-4-4zM4 8h24c2.2 0 4-1.8 4-4s-1.8-4-4-4h-24c-2.2 0-4 1.8-4 4s1.8 4 4 4z" />
</svg>
