<?xml version="1.0" encoding="utf-8"?>
<!-- Generated by IcoMoon.io -->
<!DOCTYPE svg PUBLIC "-//W3C//DTD SVG 1.1//EN" "http://www.w3.org/Graphics/SVG/1.1/DTD/svg11.dtd">
<svg version="1.1" xmlns="http://www.w3.org/2000/svg" xmlns:xlink="http://www.w3.org/1999/xlink" width="32" height="32" viewBox="0 0 32 32">
	<path d="M26 24h6c0-8.837-7.163-16-16-16s-16 7.163-16 16h2c0-6.627 5.373-12 12-12 3.526 0 6.696 1.52 8.891 3.941l-6.264 5.011c-0.203-0.042-0.413-0.064-0.628-0.064-1.718 0-3.111 1.393-3.111 3.111s1.393 3.111 3.111 3.111c1.718 0 3.111-1.393 3.111-3.111 0-0.215-0.022-0.425-0.063-0.628l4.885-6.107c1.305 1.92 2.067 4.238 2.067 6.735z" />
</svg>
