<?xml version="1.0" encoding="utf-8"?>
<!-- Generated by IcoMoon.io -->
<!DOCTYPE svg PUBLIC "-//W3C//DTD SVG 1.1//EN" "http://www.w3.org/Graphics/SVG/1.1/DTD/svg11.dtd">
<svg version="1.1" xmlns="http://www.w3.org/2000/svg" xmlns:xlink="http://www.w3.org/1999/xlink" width="32" height="32" viewBox="0 0 32 32">
	<path d="M16 24c4.418 0 8-3.582 8-8v-4h-16v4c0 4.418 3.582 8 8 8zM28 10h-2v6c0 5.523-4.477 10-10 10s-10-4.477-10-10v-6h-2l-2 2h2v4c0 5.946 4.325 10.881 10 11.833v2.167l-4 2h12l-4-2v-2.167c5.675-0.952 10-5.887 10-11.833v-4h2l-2-2zM24 8c0-4.418-3.582-8-8-8s-8 3.582-8 8v2h16v-2z" />
</svg>
