<?xml version="1.0" encoding="utf-8"?>
<!-- Generated by IcoMoon.io -->
<!DOCTYPE svg PUBLIC "-//W3C//DTD SVG 1.1//EN" "http://www.w3.org/Graphics/SVG/1.1/DTD/svg11.dtd">
<svg version="1.1" xmlns="http://www.w3.org/2000/svg" xmlns:xlink="http://www.w3.org/1999/xlink" width="32" height="32" viewBox="0 0 32 32">
	<path d="M26.25 14v4c0 2.738-1.066 5.312-3.002 7.248-1.936 1.936-4.51 3.002-7.248 3.002-2.738 0-5.312-1.066-7.248-3.002-1.936-1.936-3.002-4.51-3.002-7.248v-4h-1.75v4c0 5.946 4.325 10.881 10 11.833v0.167h-6v2h16v-2h-6v-0.167c5.675-0.952 10-5.887 10-11.833v-4h-1.75zM16 0c-4.418 0-8 3.582-8 8v10c0 4.418 3.582 8 8 8s8-3.582 8-8v-10c0-4.418-3.582-8-8-8zM21.75 4.972c0.207 0.392 0.376 0.807 0.5 1.241v5.787h-0.5v-7.028zM20.75 3.568c0.178 0.191 0.345 0.393 0.5 0.604v7.828h-0.5v-8.432zM19.75 2.694c0.173 0.123 0.34 0.253 0.5 0.392v8.914h-0.5v-9.306zM18.75 2.111c0.171 0.080 0.338 0.167 0.5 0.261v9.627h-0.5v-9.889zM17.75 1.74c0.17 0.047 0.336 0.102 0.5 0.162v10.098h-0.5v-10.26zM16.75 1.544c0.169 0.020 0.335 0.045 0.5 0.078v10.379h-0.5v-10.457zM15.75 1.505c0.083-0.003 0.166-0.005 0.25-0.005s0.167 0.002 0.25 0.005v10.495h-0.5v-10.495zM14.75 1.621c0.165-0.032 0.331-0.058 0.5-0.078v10.456h-0.5v-10.379zM13.75 1.902c0.164-0.061 0.33-0.115 0.5-0.162v10.26h-0.5v-10.098zM12.75 2.373c0.162-0.094 0.329-0.181 0.5-0.261v9.889h-0.5v-9.627zM11.75 3.086c0.16-0.139 0.327-0.269 0.5-0.392v9.306h-0.5v-8.914zM10.75 4.172c0.155-0.211 0.322-0.413 0.5-0.604v8.432h-0.5v-7.828zM9.75 6.213c0.124-0.434 0.293-0.849 0.5-1.241v7.028h-0.5v-5.787zM22.5 18c0 3.584-2.916 6.5-6.5 6.5s-6.5-2.916-6.5-6.5v-4h13v4z" />
</svg>
