<?xml version="1.0" encoding="utf-8"?>
<!-- Generated by IcoMoon.io -->
<!DOCTYPE svg PUBLIC "-//W3C//DTD SVG 1.1//EN" "http://www.w3.org/Graphics/SVG/1.1/DTD/svg11.dtd">
<svg version="1.1" xmlns="http://www.w3.org/2000/svg" xmlns:xlink="http://www.w3.org/1999/xlink" width="32" height="32" viewBox="0 0 32 32">
	<path d="M20 5c0-2.761-2.239-5-5-5-2.761 0-5 2.239-5 5v10.757l10-10v-0.757zM8.037 17.721c-0.024-0.237-0.037-0.477-0.037-0.721v-3h-2v3c0 0.841 0.116 1.654 0.331 2.426l1.705-1.705zM22 17c0 3.866-3.134 7-7 7-2.082 0-3.951-0.91-5.233-2.353l1.418-1.418c0.917 1.083 2.285 1.771 3.815 1.771 2.761 0 5-2.239 5-5l8.020-13.605-1.414-1.414-6.605 6.605-19.938 20.020 1.414 1.414 6.874-6.956c1.435 1.572 3.419 2.634 5.649 2.881v4.056h-4v2h10v-2h-4v-4.056c4.5-0.497 8-4.312 8-8.944v-3h-2v3z" />
</svg>
