<?xml version="1.0" encoding="utf-8"?>
<!-- Generated by IcoMoon.io -->
<!DOCTYPE svg PUBLIC "-//W3C//DTD SVG 1.1//EN" "http://www.w3.org/Graphics/SVG/1.1/DTD/svg11.dtd">
<svg version="1.1" xmlns="http://www.w3.org/2000/svg" xmlns:xlink="http://www.w3.org/1999/xlink" width="32" height="32" viewBox="0 0 32 32">
	<path d="M14.316 10.503l-14.316 17.497c0 2 2 4 4 4l17.497-14.316c-3.512-0.905-6.276-3.67-7.181-7.181zM18.218 2.472c-1.374 1.436-2.218 3.384-2.218 5.528 0 4.418 3.582 8 8 8 2.145 0 4.092-0.844 5.528-2.218-5.751-1.024-10.286-5.56-11.311-11.311zM26 4h2v2h-2zM24 0c-1.438 0-2.788 0.38-3.954 1.044 0.5 5.794 5.116 10.41 10.91 10.91 0.665-1.166 1.044-2.516 1.044-3.954 0-4.418-3.582-8-8-8zM30 6h-2v2h2v2h-2v-2h-2v-2h-2v-2h-2v-2h2v2h2v-2h2v2h2v2z" />
</svg>
