<?xml version="1.0" encoding="utf-8"?>
<!-- Generated by IcoMoon.io -->
<!DOCTYPE svg PUBLIC "-//W3C//DTD SVG 1.1//EN" "http://www.w3.org/Graphics/SVG/1.1/DTD/svg11.dtd">
<svg version="1.1" xmlns="http://www.w3.org/2000/svg" xmlns:xlink="http://www.w3.org/1999/xlink" width="32" height="32" viewBox="0 0 32 32">
	<path d="M16 29c-1.621 0-3.174-0.299-4.607-0.844-0.87 1.041-1.393 2.381-1.393 3.844h12c0-1.463-0.524-2.803-1.393-3.844-1.433 0.545-2.985 0.844-4.607 0.844zM20 18v4h2.708c-0.111 0.124-0.226 0.245-0.344 0.364-1.7 1.7-3.96 2.636-6.364 2.636s-4.664-0.936-6.364-2.636c-1.7-1.7-2.636-3.96-2.636-6.364 0-2.27 0.897-4.473 2.423-6.137l7.349 5.716 2.456-3.157-15.97-12.421-3.258 2.534 7.050 5.483c-1.86 2.115-3.050 4.947-3.050 7.983 0 6.627 5.373 12 12 12 4.442 0 8.319-2.413 10.394-6h5.606v-4h-12z" />
</svg>
