<?xml version="1.0" encoding="utf-8"?>
<!-- Generated by IcoMoon.io -->
<!DOCTYPE svg PUBLIC "-//W3C//DTD SVG 1.1//EN" "http://www.w3.org/Graphics/SVG/1.1/DTD/svg11.dtd">
<svg version="1.1" xmlns="http://www.w3.org/2000/svg" xmlns:xlink="http://www.w3.org/1999/xlink" width="32" height="32" viewBox="0 0 32 32">
	<path d="M15 2c-3 0-9 1.167-9 6v13.25c0 4.832 4.029 8.75 9 8.75 4.971 0 9-3.918 9-8.75v-13.25c0-4.832-6-6-9-6zM22 21.25c0 1.792-0.721 3.48-2.030 4.753-0.643 0.625-1.392 1.116-2.227 1.46-0.867 0.356-1.79 0.537-2.743 0.537s-1.876-0.181-2.743-0.537c-0.835-0.343-1.584-0.834-2.227-1.46-1.309-1.273-2.030-2.961-2.030-4.753v-7.25h14v7.25zM22 12h-6v-8c1.179 0.102 2.589 0.431 3.763 0.992 0.738 0.353 1.3 0.774 1.67 1.254 0.382 0.494 0.567 1.068 0.567 1.754v4z" />
</svg>
