<?xml version="1.0" encoding="utf-8"?>
<!-- Generated by IcoMoon.io -->
<!DOCTYPE svg PUBLIC "-//W3C//DTD SVG 1.1//EN" "http://www.w3.org/Graphics/SVG/1.1/DTD/svg11.dtd">
<svg version="1.1" xmlns="http://www.w3.org/2000/svg" xmlns:xlink="http://www.w3.org/1999/xlink" width="32" height="32" viewBox="0 0 32 32">
	<path d="M24.86 19.884l-4.8-8c-2.221-3.701-6.962-4.958-10.712-2.895-0.808-1.452-1.348-2.827-1.348-3.989 0-1.093 0.237-2.509 1.365-3.052 0.085-0.041 0.215-0.103 0.342-0.23 0.391-0.391 0.391-1.024 0-1.414-0.329-0.329-0.831-0.381-1.214-0.155-1.608 0.776-2.493 2.499-2.493 4.852 0 1.624 0.691 3.376 1.716 5.174-2.684 2.522-3.347 6.655-1.375 9.942l4.8 8c1.5 2.5 4.15 3.885 6.867 3.885 1.401 0 2.82-0.368 4.108-1.141 3.789-2.273 5.017-7.187 2.744-10.976zM14.754 18.614c-0.286 0.182-0.605 0.269-0.921 0.269-0.568 0-1.124-0.281-1.452-0.796l-2.298-3.611c-0.51-0.801-0.274-1.863 0.527-2.373 0.801-0.51 1.863-0.274 2.373 0.527l2.298 3.611c0.51 0.801 0.274 1.863-0.527 2.373z" />
</svg>
