<?xml version="1.0" encoding="utf-8"?>
<!-- Generated by IcoMoon.io -->
<!DOCTYPE svg PUBLIC "-//W3C//DTD SVG 1.1//EN" "http://www.w3.org/Graphics/SVG/1.1/DTD/svg11.dtd">
<svg version="1.1" xmlns="http://www.w3.org/2000/svg" xmlns:xlink="http://www.w3.org/1999/xlink" width="32" height="32" viewBox="0 0 32 32">
	<path d="M16 0c-8.837 0-16 7.163-16 16s7.163 16 16 16 16-7.163 16-16-7.163-16-16-16zM16 3.551c1.887 0 3.416 1.529 3.416 3.416 0 1.887-1.529 3.416-3.416 3.416-1.887 0-3.416-1.529-3.416-3.416 0-1.887 1.529-3.416 3.416-3.416zM3.611 12.96c0-1.887 1.529-3.416 3.416-3.416 1.887 0 3.416 1.529 3.416 3.416 0 1.887-1.529 3.416-3.416 3.416-1.887-0-3.416-1.53-3.416-3.416zM10.575 26.415c-1.887 0-3.416-1.529-3.416-3.416s1.529-3.416 3.416-3.416c1.887 0 3.416 1.529 3.416 3.416s-1.53 3.416-3.416 3.416zM16 18c-1.105 0-2-0.895-2-2s0.895-2 2-2c1.105 0 2 0.895 2 2 0 1.105-0.895 2-2 2zM21.425 26.436c-1.887 0-3.416-1.529-3.416-3.416s1.529-3.416 3.416-3.416c1.887 0 3.416 1.529 3.416 3.416s-1.529 3.416-3.416 3.416zM24.973 16.397c-1.887 0-3.416-1.529-3.416-3.416 0-1.887 1.529-3.416 3.416-3.416 1.887 0 3.416 1.529 3.416 3.416 0 1.887-1.529 3.416-3.416 3.416z" />
</svg>
