<?xml version="1.0" encoding="utf-8"?>
<!-- Generated by IcoMoon.io -->
<!DOCTYPE svg PUBLIC "-//W3C//DTD SVG 1.1//EN" "http://www.w3.org/Graphics/SVG/1.1/DTD/svg11.dtd">
<svg version="1.1" xmlns="http://www.w3.org/2000/svg" xmlns:xlink="http://www.w3.org/1999/xlink" width="32" height="32" viewBox="0 0 32 32">
	<path d="M26 10h-2v-3c0-2.761-5.373-5-12-5-6.627 0-12 2.239-12 5v18c0 2.761 5.373 5 12 5s12-2.239 12-5v-3h2c3.3 0 6-2.7 6-6s-2.7-6-6-6zM5.502 5.925c1.811-0.597 4.118-0.925 6.498-0.925s4.688 0.329 6.498 0.925c1.156 0.381 1.857 0.789 2.232 1.075-0.375 0.286-1.076 0.694-2.232 1.075-1.811 0.597-4.118 0.925-6.498 0.925s-4.688-0.329-6.498-0.925c-1.156-0.381-1.857-0.789-2.232-1.075 0.375-0.286 1.075-0.694 2.232-1.075zM28.261 17.761c-0.276 0.276-0.872 0.739-1.761 0.739h-2.5v-5h2.5c0.89 0 1.486 0.463 1.761 0.739s0.739 0.871 0.739 1.761-0.463 1.486-0.739 1.761z" />
</svg>
