<?xml version="1.0" encoding="utf-8"?>
<!-- Generated by IcoMoon.io -->
<!DOCTYPE svg PUBLIC "-//W3C//DTD SVG 1.1//EN" "http://www.w3.org/Graphics/SVG/1.1/DTD/svg11.dtd">
<svg version="1.1" xmlns="http://www.w3.org/2000/svg" xmlns:xlink="http://www.w3.org/1999/xlink" width="32" height="32" viewBox="0 0 32 32">
	<path d="M10 6v16.481c-0.909-0.309-1.926-0.481-3-0.481-3.866 0-7 2.239-7 5s3.134 5 7 5 7-2.239 7-5v-9.474l14-3.818v4.773c-0.909-0.309-1.926-0.481-3-0.481-3.866 0-7 2.239-7 5s3.134 5 7 5 7-2.239 7-5v-23l-22 6zM14 14.417v-3.042l14-3.818v3.042l-14 3.818z" />
</svg>
