<?xml version="1.0" encoding="utf-8"?>
<!-- Generated by IcoMoon.io -->
<!DOCTYPE svg PUBLIC "-//W3C//DTD SVG 1.1//EN" "http://www.w3.org/Graphics/SVG/1.1/DTD/svg11.dtd">
<svg version="1.1" xmlns="http://www.w3.org/2000/svg" xmlns:xlink="http://www.w3.org/1999/xlink" width="32" height="32" viewBox="0 0 32 32">
	<path d="M30 0l-18 4v19.501c-1.271-0.926-3.041-1.501-5-1.501-3.866 0-7 2.239-7 5 0 2.761 3.134 5 7 5s7-2.239 7-5v-12.919l16-3.556v8.976c-1.271-0.926-3.041-1.501-5-1.501-3.866 0-7 2.239-7 5 0 2.761 3.134 5 7 5s7-2.239 7-5v-23h-2zM7 29.625c-2.647 0-4.625-1.386-4.625-2.625s1.978-2.625 4.625-2.625 4.625 1.386 4.625 2.625-1.978 2.625-4.625 2.625zM25 25.625c-2.647 0-4.625-1.386-4.625-2.625s1.978-2.625 4.625-2.625 4.625 1.386 4.625 2.625-1.978 2.625-4.625 2.625zM30 7.964l-16 3.556v-3.964l16-3.556v3.964z" />
</svg>
