<?xml version="1.0" encoding="utf-8"?>
<!-- Generated by IcoMoon.io -->
<!DOCTYPE svg PUBLIC "-//W3C//DTD SVG 1.1//EN" "http://www.w3.org/Graphics/SVG/1.1/DTD/svg11.dtd">
<svg version="1.1" xmlns="http://www.w3.org/2000/svg" xmlns:xlink="http://www.w3.org/1999/xlink" width="32" height="32" viewBox="0 0 32 32">
	<path d="M28 6h-24c-2.2 0-4 1.8-4 4v12c0 2.2 1.8 4 4 4h24c2.2 0 4-1.8 4-4v-12c0-2.2-1.8-4-4-4zM10 22h-2l-4-6.667v6.667h-2v-10h2l4 6.667v-6.667h2v10zM18 14h-4v2h4v2h-4v2h4v2l-6 0v-10h6v2zM30 22h-3l-2-4-2 4h-3v-10h2v8l2-4h2l2 4v-8h2v10z" />
</svg>
