<?xml version="1.0" encoding="utf-8"?>
<!-- Generated by IcoMoon.io -->
<!DOCTYPE svg PUBLIC "-//W3C//DTD SVG 1.1//EN" "http://www.w3.org/Graphics/SVG/1.1/DTD/svg11.dtd">
<svg version="1.1" xmlns="http://www.w3.org/2000/svg" xmlns:xlink="http://www.w3.org/1999/xlink" width="32" height="32" viewBox="0 0 32 32">
	<path d="M28.074 2h-24.074v4h-2.926c-0.55 0-1.074 0.391-1.074 0.941v2c0 0.55 0.524 1.059 1.074 1.059h2.926v2h-2.926c-0.55 0-1.074 0.392-1.074 0.941v2c0 0.55 0.524 1.059 1.074 1.059h2.926v2h-2.926c-0.55 0-1.074 0.392-1.074 0.942v2c0 0.55 0.524 1.058 1.074 1.058h2.926v2h-2.926c-0.55 0-1.074 0.392-1.074 0.942v2c0 0.55 0.524 1.058 1.074 1.058h2.926v4h24.074c1.105 0 1.926-0.954 1.926-2.058v-26c0-1.105-0.822-1.942-1.926-1.942zM10 30h-4v-2h1.074c0.55 0 0.926-0.509 0.926-1.058v-2c0-0.55-0.376-0.942-0.926-0.942h-1.074v-2h1.074c0.55 0 0.926-0.509 0.926-1.058v-2c0-0.55-0.376-0.942-0.926-0.942h-1.074v-2h1.074c0.55 0 0.926-0.508 0.926-1.059v-2c0-0.55-0.376-0.941-0.926-0.941h-1.074v-2h1.074c0.55 0 0.926-0.508 0.926-1.059v-2c0-0.55-0.376-0.941-0.926-0.941h-1.074v-2h4v26z" />
</svg>
