<?xml version="1.0" encoding="utf-8"?>
<!-- Generated by IcoMoon.io -->
<!DOCTYPE svg PUBLIC "-//W3C//DTD SVG 1.1//EN" "http://www.w3.org/Graphics/SVG/1.1/DTD/svg11.dtd">
<svg version="1.1" xmlns="http://www.w3.org/2000/svg" xmlns:xlink="http://www.w3.org/1999/xlink" width="32" height="32" viewBox="0 0 32 32">
	<path d="M22 0l-20 4v22l6 6 20-4v-22l-6-6zM21.507 1.628l4.725 4.725-16.465 3.293-4.725-4.725 16.464-3.293zM10 11.13l0.25-0.050v18.941l-0.25 0.050v-18.941zM10.75 10.98l0.5-0.1v18.941l-0.5 0.1v-18.941zM11.75 10.78l0.5-0.1v18.941l-0.5 0.1v-18.941zM12.75 10.58l0.5-0.1v18.941l-0.5 0.1v-18.941zM13.75 10.38l0.5-0.1v18.941l-0.5 0.1v-18.941zM14.75 10.18l0.5-0.1v18.941l-0.5 0.1v-18.941zM15.75 9.98l0.5-0.1v18.941l-0.5 0.1v-18.941zM16.75 9.78l0.5-0.1v18.941l-0.5 0.1v-18.941zM17.75 9.58l0.5-0.1v18.941l-0.5 0.1v-18.941zM18.75 9.38l0.5-0.1v18.941l-0.5 0.1v-18.941zM19.75 9.18l0.5-0.1v18.941l-0.5 0.1v-18.941zM20.75 8.98l0.5-0.1v18.941l-0.5 0.1v-18.941zM21.75 8.78l0.5-0.1v18.941l-0.5 0.1v-18.941zM22.75 8.58l0.5-0.1v18.941l-0.5 0.1v-18.941zM23.75 8.38l0.5-0.1v18.941l-0.5 0.1v-18.941zM24.75 8.18l0.5-0.1v18.941l-0.5 0.1v-18.941zM25.75 7.98l0.25-0.050v18.941l-0.25 0.050v-18.941z" />
</svg>
