<?xml version="1.0" encoding="utf-8"?>
<!-- Generated by IcoMoon.io -->
<!DOCTYPE svg PUBLIC "-//W3C//DTD SVG 1.1//EN" "http://www.w3.org/Graphics/SVG/1.1/DTD/svg11.dtd">
<svg version="1.1" xmlns="http://www.w3.org/2000/svg" xmlns:xlink="http://www.w3.org/1999/xlink" width="32" height="32" viewBox="0 0 32 32">
	<path d="M26 6v-2c0-1.1-0.9-2-2-2h-22c-1.1 0-2 0.9-2 2v6c0 1.1 0.9 2 2 2h22c1.1 0 2-0.9 2-2v-2h4v8h-18v4h-1c-0.552 0-1 0.448-1 1v10c0 0.552 0.448 1 1 1h4c0.552 0 1-0.448 1-1v-10c0-0.552-0.448-1-1-1h-1v-2h18v-12h-6zM2.188 6h-0.188v-2h0.188v2zM3.188 6h-0.5v-2h0.5v2zM4.188 6h-0.5v-2h0.5v2zM5.188 6h-0.5v-2h0.5v2zM6.188 6h-0.5v-2h0.5v2zM7.188 6h-0.5v-2h0.5v2zM8.188 6h-0.5v-2h0.5v2zM9.188 6h-0.5v-2h0.5v2zM10.188 6h-0.5v-2h0.5v2zM11.188 6h-0.5v-2h0.5v2zM12.188 6h-0.5v-2h0.5v2zM13.188 6h-0.5v-2h0.5v2zM14.188 6h-0.5v-2h0.5v2zM15.188 6h-0.5v-2h0.5v2zM16.188 6h-0.5v-2h0.5v2zM17.188 6h-0.5v-2h0.5v2zM18.188 6h-0.5v-2h0.5v2zM19.188 6h-0.5v-2h0.5v2zM20.188 6h-0.5v-2h0.5v2zM21.188 6h-0.5v-2h0.5v2zM22.188 6h-0.5v-2h0.5v2zM23.188 6h-0.5v-2h0.5v2zM24 6h-0.313v-2h0.313v2z" />
</svg>
