<?xml version="1.0" encoding="utf-8"?>
<!-- Generated by IcoMoon.io -->
<!DOCTYPE svg PUBLIC "-//W3C//DTD SVG 1.1//EN" "http://www.w3.org/Graphics/SVG/1.1/DTD/svg11.dtd">
<svg version="1.1" xmlns="http://www.w3.org/2000/svg" xmlns:xlink="http://www.w3.org/1999/xlink" width="32" height="32" viewBox="0 0 32 32">
	<path d="M16 4c-8.837 0-16 6.268-16 14 0 5.184 3.221 9.71 8.006 12.13 2.699 1.334 5.007 0.363 3.384-1.929-0.868-0.867-1.39-1.983-1.39-3.2 0-2.761 2.686-5 6-5s6 2.239 6 5c0 1.218-0.522 2.333-1.39 3.2-1.623 2.293 0.685 3.263 3.384 1.93 4.786-2.42 8.007-6.946 8.007-12.13 0-7.732-7.163-14-16-14zM4 20c-1.105 0-2-0.895-2-2s0.895-2 2-2 2 0.895 2 2-0.895 2-2 2zM8 13.732c-1.435 0.828-3.046 0.725-3.598-0.232-0.552-0.957 0.163-2.404 1.598-3.232s3.046-0.725 3.598 0.232c0.552 0.957-0.163 2.404-1.598 3.232zM16 12c-2.209 0-4-1.343-4-3s1.791-3 4-3c2.209 0 4 1.343 4 3s-1.791 3-4 3zM24 13.732c-1.435-0.828-2.15-2.275-1.598-3.232s2.163-1.060 3.598-0.232 2.15 2.275 1.598 3.232-2.163 1.060-3.598 0.232zM28 20c-1.105 0-2-0.895-2-2s0.895-2 2-2 2 0.895 2 2-0.895 2-2 2z" />
</svg>
