<?xml version="1.0" encoding="utf-8"?>
<!-- Generated by IcoMoon.io -->
<!DOCTYPE svg PUBLIC "-//W3C//DTD SVG 1.1//EN" "http://www.w3.org/Graphics/SVG/1.1/DTD/svg11.dtd">
<svg version="1.1" xmlns="http://www.w3.org/2000/svg" xmlns:xlink="http://www.w3.org/1999/xlink" width="32" height="32" viewBox="0 0 32 32">
	<path d="M16.096 4c-10.284 0-16.096 6.835-16.096 11.834 0 7.618 6.835 11.905 12.519 13.31 5.685 1.405 7.823-1.173 7.732-4.144-0.111-3.609 1.692-3.656 2.97-3.529 1.277 0.128 8.779 1.86 8.779-3.888 0-7.114-5.62-13.583-15.904-13.583zM14 6c1.105 0 2 0.895 2 2s-0.895 2-2 2-2-0.895-2-2 0.895-2 2-2zM5 18.015c-0.561 0-1.015-0.455-1.015-1.015s0.455-1.015 1.015-1.015 1.015 0.455 1.015 1.015-0.455 1.015-1.015 1.015zM8 14c-1.105 0-2-0.895-2-2s0.895-2 2-2 2 0.895 2 2-0.895 2-2 2zM16 22c-2.209 0-4-1.343-4-3s1.791-3 4-3c2.209 0 4 1.343 4 3s-1.791 3-4 3zM23 14c-1.657 0-3-1.343-3-3s1.343-3 3-3 3 1.343 3 3-1.343 3-3 3z" />
</svg>
