<?xml version="1.0" encoding="utf-8"?>
<!-- Generated by IcoMoon.io -->
<!DOCTYPE svg PUBLIC "-//W3C//DTD SVG 1.1//EN" "http://www.w3.org/Graphics/SVG/1.1/DTD/svg11.dtd">
<svg version="1.1" xmlns="http://www.w3.org/2000/svg" xmlns:xlink="http://www.w3.org/1999/xlink" width="32" height="32" viewBox="0 0 32 32">
	<path d="M4 26h2v2h-2zM24 6h2v2h-2zM22 4h2v2h-2zM4 22h2v2h-2zM8 26h2v2h-2zM26 8h2v2h-2zM26 4h2v2h-2zM29.929 2.071c-1.28-1.28-3.047-2.071-5-2.071-0.873 0-1.709 0.159-2.481 0.448-0.954 0.358-1.811 0.915-2.518 1.622l-17.86 17.86c-0.707 0.707-1.265 1.564-1.622 2.518-0.289 0.772-0.448 1.608-0.448 2.481 0 1.953 0.791 3.72 2.071 5s3.047 2.071 5 2.071c0.873 0 1.709-0.159 2.481-0.448 0.954-0.358 1.811-0.915 2.518-1.622l17.859-17.859c0.707-0.707 1.265-1.564 1.622-2.518 0.289-0.772 0.448-1.608 0.448-2.481 0-1.953-0.791-3.72-2.071-5zM12 28h-2v2h-2v-2h-2v2h-2v-2h-2v-2h2v-2h-2v-2h2v-2h2v2h2v2h2v2h2v2zM14 24l-6-6 2-2 6 6-2 2zM22 16l-6-6 2-2 6 6-2 2zM30 6h-2v2h2v2h-2v2h-2v-2h-2v-2h-2v-2h-2v-2h2v-2h2v2h2v-2h2v2h2v2zM6 24h2v2h-2z" />
</svg>
