<?xml version="1.0" encoding="utf-8"?>
<!-- Generated by IcoMoon.io -->
<!DOCTYPE svg PUBLIC "-//W3C//DTD SVG 1.1//EN" "http://www.w3.org/Graphics/SVG/1.1/DTD/svg11.dtd">
<svg version="1.1" xmlns="http://www.w3.org/2000/svg" xmlns:xlink="http://www.w3.org/1999/xlink" width="32" height="32" viewBox="0 0 32 32">
	<path d="M16.698 17.25c-3.916 0-7.667 1.752-10.087 8.804-2.42 7.052 2.92 6.49 6.29 5.033 3.263-1.411 4.505-1.626 8.435 0.242 3.7 1.759 6.862-0.077 5.543-3.929-1.319-3.852-5.764-10.15-10.181-10.15zM9.29 1.362c-2.233 0.534-3.413 3.567-2.636 6.776 0.777 3.209 3.216 5.378 5.449 4.844 0.010-0.002 0.021-0.005 0.031-0.008 2.233-0.534 3.413-3.567 2.636-6.776-0.334-1.381-0.977-2.57-1.778-3.433-1.060-1.142-2.399-1.715-3.671-1.411-0.010 0.002-0.021 0.005-0.031 0.008zM22.223 1.25c-2.247-0.47-4.611 1.77-5.28 5.003-0.384 1.858-0.125 3.64 0.591 4.909 0.53 0.939 1.311 1.596 2.266 1.796 0.008 0.002 0.016 0.003 0.024 0.005 2.247 0.47 4.611-1.77 5.28-5.003 0.669-3.233-0.61-6.235-2.857-6.705-0.008-0.002-0.016-0.003-0.024-0.005zM0.643 17.929c1.234 2.855 3.836 4.478 5.811 3.625 1.13-0.488 1.81-1.681 1.953-3.147 0.107-1.096-0.085-2.345-0.613-3.566-0.001-0.002-0.001-0.003-0.002-0.005-1.234-2.855-3.836-4.478-5.811-3.625-1.975 0.853-2.575 3.859-1.34 6.714 0.001 0.002 0.001 0.003 0.002 0.005zM25.548 21.049c1.124 0.493 2.454 0.181 3.62-0.709 0.878-0.669 1.662-1.665 2.196-2.889 1.242-2.851 0.653-5.864-1.317-6.728-0.009-0.004-0.017-0.007-0.026-0.011-1.97-0.865-4.574 0.746-5.816 3.598-1.242 2.851-0.653 5.864 1.317 6.728 0.009 0.004 0.017 0.007 0.026 0.011z" />
</svg>
