<?xml version="1.0" encoding="utf-8"?>
<!-- Generated by IcoMoon.io -->
<!DOCTYPE svg PUBLIC "-//W3C//DTD SVG 1.1//EN" "http://www.w3.org/Graphics/SVG/1.1/DTD/svg11.dtd">
<svg version="1.1" xmlns="http://www.w3.org/2000/svg" xmlns:xlink="http://www.w3.org/1999/xlink" width="32" height="32" viewBox="0 0 32 32">
	<path d="M23.001 19.874c0.636-1.148 0.999-2.468 0.999-3.874 0-3.229-1.913-6.010-4.667-7.274 1.023-0.916 1.667-2.245 1.667-3.726 0-2.761-2.239-5-5-5-2.761 0-5 2.239-5 5 0 1.481 0.644 2.81 1.667 3.726-2.754 1.264-4.667 4.046-4.667 7.274 0 1.405 0.363 2.726 0.999 3.874-4.184 2.421-6.999 6.945-6.999 12.126h28c0-5.182-2.815-9.705-6.999-12.126z" />
</svg>
