<?xml version="1.0" encoding="utf-8"?>
<!-- Generated by IcoMoon.io -->
<!DOCTYPE svg PUBLIC "-//W3C//DTD SVG 1.1//EN" "http://www.w3.org/Graphics/SVG/1.1/DTD/svg11.dtd">
<svg version="1.1" xmlns="http://www.w3.org/2000/svg" xmlns:xlink="http://www.w3.org/1999/xlink" width="32" height="32" viewBox="0 0 32 32">
	<path d="M16 0c-8.836 0-16 7.163-16 16s7.163 16 16 16c8.837 0 16-7.163 16-16s-7.163-16-16-16zM29 16c0 2.967-0.988 5.782-2.808 8.071l-8.692-8.692v-12.293c2.905 0.332 5.594 1.623 7.692 3.722 2.455 2.455 3.808 5.72 3.808 9.192zM14.5 28.914c-2.41-0.275-4.672-1.212-6.571-2.722l6.571-6.571v9.293zM17.5 19.621l6.571 6.571c-1.899 1.51-4.161 2.447-6.571 2.722v-9.293zM6.808 6.808c2.098-2.098 4.788-3.39 7.692-3.722v12.293l-8.692 8.692c-1.819-2.289-2.808-5.104-2.808-8.071 0-3.472 1.352-6.737 3.808-9.192z" />
</svg>
