<?xml version="1.0" encoding="utf-8"?>
<!-- Generated by IcoMoon.io -->
<!DOCTYPE svg PUBLIC "-//W3C//DTD SVG 1.1//EN" "http://www.w3.org/Graphics/SVG/1.1/DTD/svg11.dtd">
<svg version="1.1" xmlns="http://www.w3.org/2000/svg" xmlns:xlink="http://www.w3.org/1999/xlink" width="32" height="32" viewBox="0 0 32 32">
	<path d="M30 9l-7-7 2-2 7 7zM28 11l-1 11c-9 0-22 10-22 10l-1.66-1.66 8.552-8.552c0.343 0.137 0.717 0.212 1.108 0.212 1.657 0 3-1.343 3-3 0-1.657-1.343-3-3-3-1.657 0-3 1.343-3 3 0 0.392 0.076 0.765 0.212 1.108l-8.552 8.552-1.66-1.66c0 0 10-13 10-22l11-1 7 7z" />
</svg>
