<?xml version="1.0" encoding="utf-8"?>
<!-- Generated by IcoMoon.io -->
<!DOCTYPE svg PUBLIC "-//W3C//DTD SVG 1.1//EN" "http://www.w3.org/Graphics/SVG/1.1/DTD/svg11.dtd">
<svg version="1.1" xmlns="http://www.w3.org/2000/svg" xmlns:xlink="http://www.w3.org/1999/xlink" width="32" height="32" viewBox="0 0 32 32">
	<path d="M20.37 4.889l1.63-4.889h-14l1.63 4.889-4.63 11.111 8 16h4l8-16-4.63-11.111zM19.225 2l-0.667 2h-7.117l-0.667-2h8.45zM16 29.528v-11.699c1.165-0.412 2-1.522 2-2.829 0-1.657-1.343-3-3-3s-3 1.343-3 3c0 1.306 0.835 2.417 2 2.829v11.699l-6.802-13.604 4.135-9.924h7.333l4.135 9.924-6.802 13.603z" />
</svg>
