<?xml version="1.0" encoding="utf-8"?>
<!-- Generated by IcoMoon.io -->
<!DOCTYPE svg PUBLIC "-//W3C//DTD SVG 1.1//EN" "http://www.w3.org/Graphics/SVG/1.1/DTD/svg11.dtd">
<svg version="1.1" xmlns="http://www.w3.org/2000/svg" xmlns:xlink="http://www.w3.org/1999/xlink" width="32" height="32" viewBox="0 0 32 32">
	<path d="M16.127 8.127c-1.325 1.286-3.506 3.446-3.977 3.917-3.676 3.675-12.306 13.914-12.147 19.954 6.040 0.159 16.278-8.472 19.954-12.147 0.471-0.472 2.632-2.653 3.917-3.977l-7.747-7.747zM29.521 6.381l-0.564-0.563 3.043-2.514-3.304-3.304-2.514 3.043-0.564-0.565c-1.743-0.102-4.555 1.586-7.326 3.815l7.414 7.414c0.838-1.043 1.595-2.090 2.214-3.085 0.603 2.28-0.374 6.432-7.365 11.934l0.89 0.889c6.554-4.714 9.712-10.257 7.696-15.21 0.262-0.692 0.411-1.327 0.38-1.855z" />
</svg>
