<?xml version="1.0" encoding="utf-8"?>
<!-- Generated by IcoMoon.io -->
<!DOCTYPE svg PUBLIC "-//W3C//DTD SVG 1.1//EN" "http://www.w3.org/Graphics/SVG/1.1/DTD/svg11.dtd">
<svg version="1.1" xmlns="http://www.w3.org/2000/svg" xmlns:xlink="http://www.w3.org/1999/xlink" width="32" height="32" viewBox="0 0 32 32">
	<path d="M24.815 7.185c-2.544-2.533-3.666-5.545-2.506-6.729 1.16-1.183 4.162-0.090 6.706 2.443 0.014 0.014 0.029 0.029 0.043 0.043 2.544 2.533 3.666 5.546 2.506 6.729-1.16 1.183-4.162 0.089-6.706-2.443-0.014-0.014-0.029-0.029-0.043-0.043zM12.243 25.436l14.102-14.102c0.85 0.476 1.699 0.817 2.51 1.003l-14.856 14.856-14 4.808 4.808-14 14.856-14.856c0.073 0.324 0.171 0.654 0.295 0.99 0.184 0.5 0.423 1.010 0.709 1.519l-14.103 14.103 1.679 1.679 13.791-13.791c0.34 0.418 0.708 0.826 1.101 1.219 0.396 0.396 0.804 0.765 1.218 1.103l-13.79 13.79 1.679 1.679z" />
</svg>
