<?xml version="1.0" encoding="utf-8"?>
<!-- Generated by IcoMoon.io -->
<!DOCTYPE svg PUBLIC "-//W3C//DTD SVG 1.1//EN" "http://www.w3.org/Graphics/SVG/1.1/DTD/svg11.dtd">
<svg version="1.1" xmlns="http://www.w3.org/2000/svg" xmlns:xlink="http://www.w3.org/1999/xlink" width="32" height="32" viewBox="0 0 32 32">
	<path d="M26.524 24.3c1.058 0 3.629-0.127 4.654-1.303 0.515-0.591 0.783-1.488 0.818-2.745 0.022-0.783-0.046-1.714-0.2-2.766l-0.004-0.026c-0.263-1.553-1.003-2.872-2.399-4.275l-0.040-0.038c-1.882-1.724-4.946-3.694-12.050-3.925v-0.023l-2.606 0.001v0.022c-7.104 0.23-10.168 2.201-12.050 3.925l-0.040 0.038c-1.396 1.403-2.136 2.721-2.399 4.275l-0.004 0.026c-0.155 1.052-0.222 1.983-0.2 2.766 0.035 1.256 0.302 2.154 0.818 2.745 1.026 1.176 3.597 1.303 4.655 1.303 1.436 0 2.788-0.217 3.806-0.611 2.045-0.791 2.35-2.117 2.35-2.837 0-0.692-0.206-1.262-0.371-1.72-0.255-0.705-0.273-0.794 0.029-1.14 0.835-0.957 2.717-0.957 4.709-0.958 1.993 0 3.875 0.001 4.71 0.958 0.302 0.346 0.284 0.435 0.029 1.14-0.166 0.458-0.371 1.028-0.371 1.72 0 0.72 0.305 2.046 2.35 2.837 1.018 0.394 2.37 0.611 3.806 0.611 0 0 0 0 0 0zM16 14.659c-2.436 0-4.955 0.001-6.499 1.771-1.231 1.411-0.756 2.724-0.473 3.508 0.123 0.342 0.23 0.637 0.23 0.913 0 0.364-1.335 1.073-3.781 1.073-1.598 0-2.648-0.322-2.873-0.5-0.142-0.191-0.405-1.162-0.051-3.58 0.127-0.737 0.433-1.666 1.72-2.965 1.671-1.524 4.508-3.268 11.618-3.304l0.088-0.001 0.024 0 0.014-0 0.094 0.001c7.111 0.035 9.948 1.78 11.619 3.304 1.286 1.299 1.593 2.227 1.72 2.965 0.354 2.418 0.091 3.389-0.051 3.58-0.226 0.179-1.275 0.5-2.873 0.5-2.447-0-3.782-0.709-3.782-1.073 0-0.276 0.107-0.571 0.23-0.913 0.283-0.784 0.758-2.097-0.473-3.508-1.544-1.771-4.063-1.771-6.499-1.771z" />
</svg>
