<?xml version="1.0" encoding="utf-8"?>
<!-- Generated by IcoMoon.io -->
<!DOCTYPE svg PUBLIC "-//W3C//DTD SVG 1.1//EN" "http://www.w3.org/Graphics/SVG/1.1/DTD/svg11.dtd">
<svg version="1.1" xmlns="http://www.w3.org/2000/svg" xmlns:xlink="http://www.w3.org/1999/xlink" width="32" height="32" viewBox="0 0 32 32">
	<path d="M28.572 6.478c3.329 1.893 3.428 3.919 3.428 5.334v0.212c0 0.324-0.279 0.589-0.62 0.589h-7.509c-0.341 0-0.62-0.265-0.62-0.589v-0.716c0-1.788-1.71-2.073-2.653-2.225-0.944-0.152-3.289-0.299-4.593-0.299-0.002 0-0.003 0-0.004 0-0.002 0-0.003 0-0.005 0-1.304 0-3.649 0.147-4.593 0.299-0.943 0.152-2.653 0.437-2.653 2.225v0.716c0 0.324-0.279 0.589-0.62 0.589h-7.509c-0.341 0-0.62-0.265-0.62-0.589v-0.212c0-1.415 0.099-3.442 3.428-5.334 3.959-2.251 9.621-2.478 12.568-2.478 0.002 0.002 0.003 0.003 0.005 0.005 0.001-0.001 0.002-0.003 0.004-0.005 2.947 0 8.608 0.227 12.568 2.478zM16 12c-1.773 0-5.465 0.133-7.341 2.407-1.876 2.274-6.568 13.593-2.384 13.593 4.185 0 7.841 0 9.725 0 1.884 0 5.54 0 9.725 0 4.184 0-0.508-11.319-2.384-13.593-1.876-2.275-5.569-2.407-7.341-2.407zM16 24c-2.209 0-4-1.791-4-4s1.791-4 4-4c2.209 0 4 1.791 4 4s-1.791 4-4 4z" />
</svg>
