<?xml version="1.0" encoding="utf-8"?>
<!-- Generated by IcoMoon.io -->
<!DOCTYPE svg PUBLIC "-//W3C//DTD SVG 1.1//EN" "http://www.w3.org/Graphics/SVG/1.1/DTD/svg11.dtd">
<svg version="1.1" xmlns="http://www.w3.org/2000/svg" xmlns:xlink="http://www.w3.org/1999/xlink" width="32" height="32" viewBox="0 0 32 32">
	<path d="M25.228 32h-0.378c-2.052 0-5.138-0.959-8.468-2.632-3.253-1.634-6.224-3.676-8.149-5.601-1.926-1.925-3.967-4.896-5.601-8.149-1.673-3.33-2.632-6.416-2.632-8.468v-0.378l0.21-0.315c0.042-0.063 1.035-1.548 2.292-3.057 1.319-1.583 3.039-3.4 4.648-3.4 1.388 0 3.11 1.393 4.012 2.223 0.693 0.637 2.388 2.321 3.16 4.185 0.817 1.972 0.108 3.098-0.388 3.593-0.854 0.854-1.695 1.374-2.371 1.791-1.062 0.657-1.197 0.798-1.197 1.258 0 1.449 1.813 3.262 3.567 5.016 1.754 1.754 3.568 3.568 5.017 3.568 0.46 0 0.602-0.134 1.258-1.197 0.418-0.676 0.937-1.517 1.791-2.371 0.498-0.498 1.159-0.762 1.911-0.762 0.815 0 1.743 0.312 2.759 0.926 0.803 0.486 1.654 1.157 2.46 1.941 0.674 0.655 2.871 2.929 2.871 4.679 0 1.608-1.817 3.329-3.4 4.648-1.509 1.258-2.994 2.251-3.057 2.292l-0.315 0.21zM2.513 7.518c0.115 1.674 0.976 4.238 2.352 6.978 1.497 2.98 3.416 5.785 5.135 7.503 1.719 1.719 4.524 3.638 7.503 5.135 2.74 1.376 5.304 2.237 6.978 2.352 0.487-0.339 1.45-1.027 2.418-1.827 2.277-1.88 2.567-2.702 2.598-2.818-0.057-0.364-0.736-1.562-2.191-2.955-1.495-1.431-2.808-2.084-3.397-2.084-0.075 0-0.123 0.010-0.143 0.030-0.648 0.648-1.047 1.293-1.433 1.917-0.69 1.117-1.472 2.382-3.385 2.382-2.484 0-4.67-2.186-6.784-4.299-2.114-2.114-4.3-4.3-4.3-6.784 0-1.912 1.266-2.695 2.382-3.385 0.624-0.386 1.269-0.784 1.917-1.433 0.037-0.037 0.066-0.268-0.093-0.71-0.331-0.922-1.262-2.185-2.429-3.297-1.264-1.203-2.214-1.678-2.487-1.724-0.117 0.032-0.943 0.325-2.829 2.612-0.796 0.965-1.478 1.919-1.814 2.403zM20 8c-1.401 0-2.633 0.721-3.348 1.812 0.493-0.2 1.032-0.312 1.598-0.312 2.347 0 4.25 1.903 4.25 4.25 0 0.565-0.111 1.104-0.312 1.598 1.091-0.714 1.812-1.947 1.812-3.348 0-2.209-1.791-4-4-4zM21 4c-2.119 0-4.017 0.941-5.301 2.428 1.050-0.591 2.261-0.928 3.551-0.928 4.004 0 7.25 3.246 7.25 7.25 0 1.29-0.337 2.501-0.928 3.551 1.487-1.284 2.428-3.182 2.428-5.301 0-3.866-3.134-7-7-7zM23 0c-2.595 0-4.933 1.099-6.575 2.856 1.405-0.861 3.057-1.357 4.825-1.357 5.109 0 9.25 4.142 9.25 9.251 0 1.77-0.498 3.424-1.36 4.83 1.76-1.643 2.86-3.982 2.86-6.58 0-4.971-4.029-9-9-9z" />
</svg>
