<?xml version="1.0" encoding="utf-8"?>
<!-- Generated by IcoMoon.io -->
<!DOCTYPE svg PUBLIC "-//W3C//DTD SVG 1.1//EN" "http://www.w3.org/Graphics/SVG/1.1/DTD/svg11.dtd">
<svg version="1.1" xmlns="http://www.w3.org/2000/svg" xmlns:xlink="http://www.w3.org/1999/xlink" width="32" height="32" viewBox="0 0 32 32">
	<path d="M20.112 23.197c-0.699 0.39-1.261 0.129-2.048-0.286-0.716-0.547-2.838-2.215-5.077-4.449-1.635-2.068-2.885-4.018-3.461-4.956-0.039-0.104-0.059-0.165-0.059-0.165-0.337-0.842-0.548-1.433-0.083-2.095 0.428-0.608 0.594-0.774 1.14-1.257l-5.487-8.133c-0.663 0.483-1.689 1.569-2.532 2.774-0.784 1.145-1.447 2.412-1.628 3.316 0.956 3.445 3.266 9.868 7.536 14.458l-0.001 0.019c4.108 5.064 10.635 8.214 14.098 9.577 0.917-0.087 2.246-0.615 3.466-1.275 1.287-0.713 2.473-1.622 3.021-2.23l-7.518-6.302c-0.537 0.494-0.719 0.641-1.368 1.004zM12.851 8.041c0.453-0.331 0.332-0.934 0.12-1.265l-4.161-6.37c-0.271-0.331-0.837-0.504-1.328-0.349l-1.715 1.149 5.502 8.117 1.582-1.283zM30.809 24.865l-5.905-4.799c-0.308-0.245-0.895-0.427-1.27-0.012l-1.44 1.441 7.503 6.313 1.321-1.585c0.205-0.473 0.092-1.054-0.209-1.358z" />
</svg>
