<?xml version="1.0" encoding="utf-8"?>
<!-- Generated by IcoMoon.io -->
<!DOCTYPE svg PUBLIC "-//W3C//DTD SVG 1.1//EN" "http://www.w3.org/Graphics/SVG/1.1/DTD/svg11.dtd">
<svg version="1.1" xmlns="http://www.w3.org/2000/svg" xmlns:xlink="http://www.w3.org/1999/xlink" width="32" height="32" viewBox="0 0 32 32">
	<path d="M16 0c-8.837 0-16 7.163-16 16s7.163 16 16 16 16-7.163 16-16-7.163-16-16-16zM9.219 28.25c-0.283-0.157-0.561-0.324-0.832-0.5h15.226c-0.271 0.176-0.548 0.343-0.832 0.5h-13.562zM21.79 28.75c-0.41 0.186-0.83 0.353-1.26 0.5h-9.060c-0.429-0.147-0.85-0.314-1.259-0.5h11.579zM7.667 27.25c-0.217-0.161-0.429-0.327-0.636-0.5h17.937c-0.207 0.173-0.419 0.339-0.636 0.5h-16.666zM5.955 25.75h18.381l0.5 0.5h-18.37c-0.175-0.162-0.345-0.329-0.511-0.5zM18.336 19.75l0.5 0.5h-16.177c-0.053-0.165-0.102-0.332-0.149-0.5h15.826zM2.38 19.25c-0.039-0.165-0.075-0.332-0.108-0.5h15.064l0.5 0.5h-15.456zM19.336 20.75l0.5 0.5h-16.816c-0.067-0.165-0.131-0.332-0.192-0.5h16.508zM20.336 21.75l0.5 0.5h-17.365c-0.082-0.165-0.161-0.332-0.237-0.5h17.102zM21.336 22.75l0.5 0.5h-17.814c-0.1-0.165-0.196-0.331-0.289-0.5h17.603zM22.336 23.75l0.5 0.5h-18.146c-0.12-0.164-0.236-0.331-0.349-0.5h17.995zM23.336 24.75l0.5 0.5h-18.344c-0.144-0.163-0.284-0.33-0.42-0.5h18.264zM16.586 18l0.25 0.25h-14.654c-0.013-0.083-0.027-0.166-0.039-0.25h14.443zM16 2v14h-14c0-7.732 6.268-14 14-14zM13.356 29.75h5.288c-0.856 0.164-1.74 0.25-2.644 0.25-0.904 0-1.788-0.086-2.644-0.25z" />
</svg>
