<?xml version="1.0" encoding="utf-8"?>
<!-- Generated by IcoMoon.io -->
<!DOCTYPE svg PUBLIC "-//W3C//DTD SVG 1.1//EN" "http://www.w3.org/Graphics/SVG/1.1/DTD/svg11.dtd">
<svg version="1.1" xmlns="http://www.w3.org/2000/svg" xmlns:xlink="http://www.w3.org/1999/xlink" width="32" height="32" viewBox="0 0 32 32">
	<path d="M16 0c8.837 0 16 7.163 16 16h-16v-16zM14 0.124c-7.893 0.984-14 7.717-14 15.876 0 8.837 7.163 16 16 16 8.159 0 14.892-6.107 15.876-14h-17.876v-17.876zM11.471 2.75h0.529v0.5h-1.789c0.411-0.187 0.831-0.354 1.259-0.5zM9.219 3.75h2.781v0.5h-3.613c0.272-0.176 0.549-0.343 0.832-0.5zM7.667 4.75h4.333v0.5h-4.968c0.207-0.173 0.419-0.34 0.635-0.5zM6.465 5.75h5.535v0.5h-6.046c0.166-0.171 0.337-0.338 0.511-0.5zM5.492 6.75h6.508v0.5h-6.928c0.136-0.17 0.276-0.336 0.42-0.5zM4.689 7.75h7.311v0.5h-7.66c0.112-0.169 0.229-0.336 0.349-0.5zM4.022 8.75h7.978v0.5h-8.266c0.093-0.168 0.189-0.335 0.288-0.5zM3.472 9.75h8.528v0.5h-8.766c0.076-0.168 0.155-0.335 0.237-0.5zM3.020 10.75h8.98v0.5h-9.171c0.061-0.168 0.124-0.335 0.191-0.5zM2.66 11.75h9.34v0.5h-9.489c0.047-0.168 0.097-0.334 0.15-0.5zM2.382 12.75h9.618v0.5h-9.727c0.034-0.167 0.070-0.334 0.109-0.5zM2.182 13.75h9.818v0.5h-9.89c0.021-0.167 0.044-0.334 0.071-0.5zM2.056 14.75h9.944v0.5h-9.979c0.009-0.167 0.020-0.334 0.035-0.5zM2 16c0-0.083 0.001-0.167 0.003-0.25h9.997v0.5h-9.997c-0.001-0.083-0.003-0.166-0.003-0.25zM2.020 16.75h9.98v0.5h-9.944c-0.015-0.166-0.027-0.333-0.036-0.5zM2.108 17.75h9.892v0.5h-9.82c-0.027-0.166-0.051-0.333-0.072-0.5zM2.269 18.75h9.731v0.5h-9.621c-0.039-0.166-0.076-0.333-0.11-0.5zM16 30c-0.898 0-1.782-0.084-2.648-0.25h5.283c-0.862 0.165-1.744 0.25-2.634 0.25zM20.523 29.25h-9.056c-0.308-0.106-0.614-0.222-0.916-0.349-0.115-0.049-0.229-0.099-0.342-0.151h11.576c-0.412 0.187-0.834 0.354-1.262 0.5zM22.779 28.25h-13.563c-0.284-0.157-0.561-0.324-0.832-0.5h15.228c-0.272 0.177-0.55 0.343-0.833 0.5zM24.333 27.25h-16.669c-0.216-0.16-0.426-0.327-0.633-0.5h17.937c-0.207 0.173-0.419 0.34-0.634 0.5zM25.535 26.25h-19.070c-0.123-0.115-0.245-0.231-0.365-0.351-0.049-0.049-0.098-0.1-0.146-0.149h20.091c-0.166 0.171-0.336 0.337-0.511 0.5zM26.509 25.25h-21.017c-0.144-0.164-0.285-0.33-0.421-0.5h21.858c-0.136 0.17-0.276 0.336-0.42 0.5zM27.311 24.25h-22.624c-0.12-0.164-0.237-0.331-0.349-0.5h23.322c-0.113 0.169-0.229 0.336-0.349 0.5zM27.978 23.25h-23.959c-0.1-0.164-0.195-0.331-0.288-0.5h24.536c-0.093 0.169-0.189 0.335-0.289 0.5zM28.53 22.25h-25.061c-0.082-0.165-0.162-0.331-0.238-0.5h25.536c-0.076 0.168-0.155 0.335-0.237 0.5zM28.981 21.25h-25.963c-0.067-0.166-0.131-0.332-0.192-0.5h26.346c-0.061 0.168-0.125 0.335-0.192 0.5zM29.42 20c-0.025 0.084-0.051 0.167-0.077 0.25h-26.686c-0.053-0.166-0.103-0.332-0.15-0.5h9.493v0.25h17.42z" />
</svg>
