<?xml version="1.0" encoding="utf-8"?>
<!-- Generated by IcoMoon.io -->
<!DOCTYPE svg PUBLIC "-//W3C//DTD SVG 1.1//EN" "http://www.w3.org/Graphics/SVG/1.1/DTD/svg11.dtd">
<svg version="1.1" xmlns="http://www.w3.org/2000/svg" xmlns:xlink="http://www.w3.org/1999/xlink" width="32" height="32" viewBox="0 0 32 32">
	<path d="M14 18v-17.876c-7.893 0.984-14 7.717-14 15.876 0 8.837 7.163 16 16 16 8.159 0 14.892-6.107 15.876-14h-17.876zM25.299 26.465c-2.563 2.279-5.866 3.535-9.299 3.535-1.891 0-3.724-0.37-5.449-1.099-1.667-0.705-3.164-1.715-4.451-3.001-1.286-1.286-2.296-2.784-3.001-4.451-0.73-1.725-1.099-3.558-1.099-5.449 0-3.434 1.255-6.736 3.535-9.299 1.746-1.963 3.989-3.383 6.465-4.12v17.42h17.42c-0.738 2.477-2.157 4.719-4.12 6.465zM16 0c8.837 0 16 7.163 16 16h-16v-16z" />
</svg>
