<?xml version="1.0" encoding="utf-8"?>
<!-- Generated by IcoMoon.io -->
<!DOCTYPE svg PUBLIC "-//W3C//DTD SVG 1.1//EN" "http://www.w3.org/Graphics/SVG/1.1/DTD/svg11.dtd">
<svg version="1.1" xmlns="http://www.w3.org/2000/svg" xmlns:xlink="http://www.w3.org/1999/xlink" width="32" height="32" viewBox="0 0 32 32">
	<path d="M14 0.124v17.876h17.876c-0.984 7.893-7.717 14-15.876 14-8.837 0-16-7.163-16-16 0-8.159 6.107-14.892 14-15.876zM16 0v16h16c0-8.837-7.163-16-16-16zM18 13.75h11.821c0.013 0.083 0.026 0.166 0.038 0.25h-11.859v-0.25zM20.534 2.75c0.308 0.106 0.613 0.222 0.915 0.349 0.115 0.049 0.229 0.099 0.342 0.151h-3.791v-0.5h2.534zM18 2.25v-0.109c0.219 0.031 0.437 0.068 0.653 0.109h-0.653zM22.783 3.75c0.283 0.157 0.561 0.324 0.832 0.5h-5.616v-0.5h4.783zM24.336 4.75c0.215 0.16 0.426 0.327 0.633 0.5h-6.969v-0.5h6.336zM25.535 5.75c0.123 0.115 0.245 0.231 0.365 0.351 0.049 0.049 0.098 0.1 0.146 0.149h-8.046v-0.5h7.535zM26.508 6.75c0.145 0.164 0.285 0.33 0.421 0.5h-8.929v-0.5h8.508zM27.313 7.75c0.12 0.164 0.237 0.331 0.349 0.5h-9.662v-0.5h9.313zM27.981 8.75c0.1 0.164 0.195 0.331 0.288 0.5h-10.269v-0.5h9.981zM28.531 9.75c0.082 0.165 0.162 0.331 0.238 0.5h-10.769v-0.5h10.531zM28.983 10.75c0.067 0.166 0.131 0.332 0.191 0.5h-11.174v-0.5h10.983zM29.344 11.75c0.053 0.166 0.103 0.332 0.149 0.5h-11.493v-0.5h11.344zM29.622 12.75c0.039 0.166 0.076 0.333 0.109 0.5h-11.731v-0.5h11.622z" />
</svg>
