<?xml version="1.0" encoding="utf-8"?>
<!-- Generated by IcoMoon.io -->
<!DOCTYPE svg PUBLIC "-//W3C//DTD SVG 1.1//EN" "http://www.w3.org/Graphics/SVG/1.1/DTD/svg11.dtd">
<svg version="1.1" xmlns="http://www.w3.org/2000/svg" xmlns:xlink="http://www.w3.org/1999/xlink" width="32" height="32" viewBox="0 0 32 32">
	<path d="M14 18h17.876c-0.984 7.893-7.717 14-15.876 14-8.837 0-16-7.163-16-16 0-8.159 6.107-14.892 14-15.876v17.876zM18 2.141v11.859h11.859c-0.169-1.185-0.489-2.34-0.959-3.449-0.705-1.667-1.715-3.164-3.001-4.451-1.286-1.286-2.784-2.296-4.451-3.001-1.109-0.469-2.263-0.79-3.449-0.958zM16 0v0c8.837 0 16 7.163 16 16l-16-16z" />
</svg>
