<?xml version="1.0" encoding="utf-8"?>
<!-- Generated by IcoMoon.io -->
<!DOCTYPE svg PUBLIC "-//W3C//DTD SVG 1.1//EN" "http://www.w3.org/Graphics/SVG/1.1/DTD/svg11.dtd">
<svg version="1.1" xmlns="http://www.w3.org/2000/svg" xmlns:xlink="http://www.w3.org/1999/xlink" width="32" height="32" viewBox="0 0 32 32">
	<path d="M10 32h12l-4-4v-14.536c1.195-0.692 2-1.983 2-3.464 0-2.209-1.791-4-4-4-2.209 0-4 1.791-4 4 0 1.48 0.805 2.772 2 3.464v14.536l-4 4zM22.245 5c1.098 1.37 1.755 3.108 1.755 5s-0.657 3.63-1.755 5l1.561 1.25c1.372-1.712 2.194-3.885 2.194-6.25s-0.822-4.538-2.194-6.25l-1.561 1.25zM8.194 3.75c-1.372 1.712-2.194 3.885-2.194 6.25s0.821 4.538 2.194 6.25l1.561-1.25c-1.098-1.37-1.755-3.108-1.755-5s0.657-3.63 1.755-5l-1.561-1.25zM3.51 0c-2.196 2.739-3.51 6.216-3.51 9.999s1.314 7.26 3.51 9.999l1.561-1.25c-1.921-2.397-3.071-5.439-3.071-8.749s1.15-6.353 3.071-8.749l-1.561-1.25zM28.49 0l-1.561 1.25c1.921 2.397 3.071 5.439 3.071 8.749s-1.15 6.353-3.072 8.749l1.561 1.25c2.196-2.739 3.51-6.216 3.51-9.999s-1.314-7.26-3.51-9.999z" />
</svg>
