<?xml version="1.0" encoding="utf-8"?>
<!-- Generated by IcoMoon.io -->
<!DOCTYPE svg PUBLIC "-//W3C//DTD SVG 1.1//EN" "http://www.w3.org/Graphics/SVG/1.1/DTD/svg11.dtd">
<svg version="1.1" xmlns="http://www.w3.org/2000/svg" xmlns:xlink="http://www.w3.org/1999/xlink" width="32" height="32" viewBox="0 0 32 32">
	<path d="M16 0c-8.837 0-16 7.163-16 16 0 4.418 1.791 8.418 4.686 11.314l1.414-1.414c-2.533-2.534-4.1-6.034-4.1-9.9 0-7.732 6.268-14 14-14s14 6.268 14 14c0 3.866-1.567 7.366-4.101 9.9l1.414 1.414c2.895-2.895 4.686-6.895 4.686-11.314 0-8.837-7.163-16-16-16zM16 0c-8.837 0-16 7.163-16 16 0 4.418 1.791 8.418 4.686 11.314l1.414-1.414c-2.533-2.534-4.1-6.034-4.1-9.9 0-7.732 6.268-14 14-14s14 6.268 14 14c0 3.866-1.567 7.366-4.101 9.9l1.414 1.414c2.895-2.895 4.686-6.895 4.686-11.314 0-8.837-7.163-16-16-16v0zM16 6c-5.523 0-10 4.477-10 10 0 2.761 1.119 5.261 2.929 7.071l1.415-1.415c-1.448-1.448-2.343-3.447-2.343-5.656 0-4.418 3.581-7.999 7.999-7.999 4.418 0 7.999 3.581 7.999 7.999 0 2.209-0.895 4.209-2.343 5.656l1.415 1.415c1.81-1.81 2.929-4.31 2.929-7.071 0-5.523-4.477-10-10-10zM18.828 18.828c0.724-0.724 1.172-1.724 1.172-2.828 0-2.209-1.791-4-4-4-2.209 0-4 1.791-4 4 0 1.105 0.448 2.105 1.172 2.828l1.414-1.414c-0.362-0.362-0.586-0.862-0.586-1.414 0-1.105 0.895-2 2-2s2 0.895 2 2c0 0.552-0.224 1.052-0.586 1.414l1.414 1.414zM15.25 18l-5.25 14h12l-5.25-14z" />
</svg>
