<?xml version="1.0" encoding="utf-8"?>
<!-- Generated by IcoMoon.io -->
<!DOCTYPE svg PUBLIC "-//W3C//DTD SVG 1.1//EN" "http://www.w3.org/Graphics/SVG/1.1/DTD/svg11.dtd">
<svg version="1.1" xmlns="http://www.w3.org/2000/svg" xmlns:xlink="http://www.w3.org/1999/xlink" width="32" height="32" viewBox="0 0 32 32">
	<path d="M28 12h-10.869c0.702-2.528 1.056-3.143 1.056-5.813 0-2.309-1.878-4.188-4.188-4.188-2.309 0-4.188 1.878-4.188 4.188 0 3.249-1.21 4.748-3.597 6.428-0.071 0.050-0.143 0.099-0.216 0.147v-2.763h-6v20h6v-1.781c1.989 0.134 2.535 0.694 3.201 1.378 0.514 0.528 1.154 1.185 2.313 1.665 1.217 0.504 2.801 0.739 4.985 0.739h2.031c1.936 0 3.51-1.602 3.51-3.571 0-0.327-0.044-0.652-0.131-0.966 0.616-0.656 0.968-1.531 0.968-2.463 0-0.327-0.044-0.652-0.131-0.966 0.616-0.656 0.968-1.531 0.968-2.463 0-0.564-0.129-1.097-0.359-1.571h4.645c2.209 0 4-1.791 4-4 0-2.209-1.791-4-4-4zM3 28c-0.552 0-1-0.448-1-1s0.448-1 1-1 1 0.448 1 1-0.448 1-1 1zM27.813 18h-8v2h0.204c0.833 0 1.51 0.705 1.51 1.571 0 0.543-0.265 1.040-0.708 1.331l-0.775 0.508 0.447 0.811c0.13 0.236 0.199 0.506 0.199 0.779 0 0.543-0.265 1.040-0.708 1.331l-0.775 0.508 0.447 0.811c0.13 0.236 0.199 0.506 0.199 0.779 0 0.866-0.677 1.571-1.51 1.571h-2.031c-3.955 0-4.753-1.194-5.597-2.061-0.862-0.885-1.828-1.875-4.715-2.085v-10.449c0.492-0.258 0.959-0.54 1.396-0.847 3.012-2.121 4.604-4.361 4.604-8.371 0-0.999 0.938-1.813 1.938-1.813s1.875 0.813 1.875 1.813c0 2.677-0.388 3.294-1.155 5.813-0.191 0.711-0.373 1.415-0.496 1.979l13.651 0.021c1.103 0 2 0.897 2 2s-0.897 2-2 2z" />
</svg>
