<?xml version="1.0" encoding="utf-8"?>
<!-- Generated by IcoMoon.io -->
<!DOCTYPE svg PUBLIC "-//W3C//DTD SVG 1.1//EN" "http://www.w3.org/Graphics/SVG/1.1/DTD/svg11.dtd">
<svg version="1.1" xmlns="http://www.w3.org/2000/svg" xmlns:xlink="http://www.w3.org/1999/xlink" width="32" height="32" viewBox="0 0 32 32">
	<path d="M29 4h-18c-1.65 0-3 1.35-3 3v3h-5c-1.65 0-3 1.35-3 3v12c0 1.65 1.35 3 3 3h18c1.65 0 3-1.35 3-3v-3h5c1.65 0 3-1.35 3-3v-12c0-1.65-1.35-3-3-3zM22 25c0 0.542-0.458 1-1 1h-18c-0.542 0-1-0.458-1-1v-12c0-0.542 0.458-1 1-1h5v7c0 1.65 1.35 3 3 3h11v3zM30 19c0 0.542-0.458 1-1 1h-18c-0.542 0-1-0.458-1-1v-12c0-0.542 0.458-1 1-1h18c0.542 0 1 0.458 1 1v12z" />
</svg>
