<?xml version="1.0" encoding="utf-8"?>
<!-- Generated by IcoMoon.io -->
<!DOCTYPE svg PUBLIC "-//W3C//DTD SVG 1.1//EN" "http://www.w3.org/Graphics/SVG/1.1/DTD/svg11.dtd">
<svg version="1.1" xmlns="http://www.w3.org/2000/svg" xmlns:xlink="http://www.w3.org/1999/xlink" width="32" height="32" viewBox="0 0 32 32">
	<path d="M31.889 24.003l-0.778-14.006c-0.061-1.098-1.011-1.997-2.111-1.997h-5v-8h-16v8h-5c-1.1 0-2.050 0.899-2.111 1.997l-0.778 14.006c-0.061 1.098 0.789 1.997 1.889 1.997h4.4l-2.4 6h24l-2.4-6h4.4c1.1 0 1.95-0.899 1.889-1.997zM10 2h12v6h-12v-6zM6.954 30l2.4-6h13.292l2.4 6h-18.092zM28 14h-2v-4h2v4z" />
</svg>
