<?xml version="1.0" encoding="utf-8"?>
<!-- Generated by IcoMoon.io -->
<!DOCTYPE svg PUBLIC "-//W3C//DTD SVG 1.1//EN" "http://www.w3.org/Graphics/SVG/1.1/DTD/svg11.dtd">
<svg version="1.1" xmlns="http://www.w3.org/2000/svg" xmlns:xlink="http://www.w3.org/1999/xlink" width="32" height="32" viewBox="0 0 32 32">
	<path d="M29.085 32h-4.904c-1.544 0-2.23-0.619-2.533-1.138-0.46-0.788-0.34-1.813 0.357-3.047 0.758-1.344 1.012-2.425 0.696-2.966-0.296-0.507-1.244-0.786-2.671-0.786-1.427 0-2.375 0.279-2.671 0.786-0.316 0.541-0.062 1.622 0.696 2.965 0.697 1.235 0.817 2.26 0.357 3.048-0.303 0.519-0.989 1.138-2.533 1.138h-4.954c-1.607 0-2.915-1.311-2.915-2.923v-4.321c0-0.175 0.006-0.341 0.011-0.502 0.001-0.039 0.003-0.082 0.004-0.127-0.099 0.049-0.215 0.11-0.351 0.188-0.876 0.498-2.737 1.092-4.058 1.092-1.087 0-1.993-0.411-2.62-1.189-0.669-0.831-0.995-2.018-0.995-3.63 0-1.612 0.325-2.799 0.995-3.63 0.627-0.778 1.533-1.189 2.62-1.189 1.321 0 3.182 0.594 4.058 1.092 0.136 0.077 0.252 0.139 0.351 0.188-0.001-0.045-0.003-0.088-0.004-0.127-0.005-0.161-0.011-0.327-0.011-0.502l-0.025-5.48c0-1.616 1.308-2.928 2.915-2.928h4.962c0.146-0 0.521-0.001 0.765-0.037-0.042-0.143-0.135-0.379-0.338-0.74-1.166-2.066-1.395-4.234-0.681-5.457 0.689-1.179 2.168-1.777 4.398-1.777 2.23 0 3.71 0.598 4.398 1.777 0.714 1.223 0.485 3.391-0.681 5.457-0.204 0.361-0.296 0.597-0.338 0.74 0.244 0.036 0.619 0.036 0.767 0.037h4.91c1.607 0 2.915 1.311 2.915 2.923l0.025 18.142c0 1.613-1.308 2.924-2.915 2.924zM23.377 29.852c0.058 0.046 0.295 0.148 0.804 0.148h4.904c0.505 0 0.915-0.414 0.915-0.923l-0.025-18.142c0-0.51-0.41-0.924-0.915-0.924h-4.912c-0.801-0.001-2.010-0.003-2.569-0.962-0.537-0.921-0.029-2.038 0.4-2.798 0.758-1.344 1.012-2.925 0.696-3.466-0.296-0.507-1.244-0.786-2.671-0.786-1.427 0-2.375 0.279-2.671 0.786-0.316 0.541-0.062 2.122 0.696 3.466 0.429 0.76 0.937 1.877 0.4 2.797-0.559 0.959-1.768 0.961-2.568 0.962h-4.963c-0.505 0-0.915 0.414-0.915 0.923l0.025 5.48c0 0.146 0.005 0.295 0.010 0.44 0.023 0.7 0.048 1.425-0.458 1.947-0.191 0.197-0.53 0.432-1.062 0.432-0 0-0 0-0 0-0.483 0-1.043-0.196-1.815-0.635-0.927-0.528-2.389-0.831-3.068-0.831-0.442 0-1.615 0-1.615 2.82 0 2.819 1.173 2.819 1.615 2.819 0.679 0 2.141-0.303 3.069-0.831 0.772-0.439 1.332-0.635 1.815-0.635 0.533 0 0.872 0.235 1.063 0.432 0.505 0.523 0.481 1.247 0.458 1.947-0.005 0.145-0.010 0.294-0.010 0.435v4.321c0 0.509 0.41 0.923 0.915 0.923h4.954c0.509 0 0.746-0.103 0.804-0.148 0.009-0.055 0.027-0.352-0.37-1.054-1.166-2.066-1.395-3.734-0.681-4.957 0.689-1.179 2.168-1.777 4.398-1.777 2.23 0 3.71 0.598 4.398 1.777 0.714 1.223 0.485 2.891-0.681 4.957-0.397 0.703-0.378 0.999-0.37 1.054z" />
</svg>
