<?xml version="1.0" encoding="utf-8"?>
<!-- Generated by IcoMoon.io -->
<!DOCTYPE svg PUBLIC "-//W3C//DTD SVG 1.1//EN" "http://www.w3.org/Graphics/SVG/1.1/DTD/svg11.dtd">
<svg version="1.1" xmlns="http://www.w3.org/2000/svg" xmlns:xlink="http://www.w3.org/1999/xlink" width="32" height="32" viewBox="0 0 32 32">
	<path d="M29.948 8.008h-5.264c-1.357-0.002-2.709-0.094-1.391-2.421 1.321-2.331 2.254-5.595-3.050-5.595-5.304 0-4.371 3.264-3.050 5.595 1.319 2.327-0.034 2.418-1.391 2.421h-5.746c-1.129 0-2.052 0.924-2.052 2.052v6.387c0 1.36 0.369 2.72-1.962 1.399-2.331-1.321-6.042-2.254-6.042 3.050 0 5.303 3.711 4.371 6.042 3.050 2.331-1.321 1.962 0.039 1.962 1.399v4.611c0 1.129 0.924 2.052 2.052 2.052h5.738c1.36 0 2.72-0.544 1.399-2.875-1.321-2.331-2.254-5.595 3.050-5.595 5.304 0 4.371 3.264 3.050 5.595-1.321 2.331 0.039 2.875 1.399 2.875h5.256c1.129 0 2.052-0.924 2.052-2.052v-19.896c0-1.129-0.923-2.052-2.052-2.052z" />
</svg>
