<?xml version="1.0" encoding="utf-8"?>
<!-- Generated by IcoMoon.io -->
<!DOCTYPE svg PUBLIC "-//W3C//DTD SVG 1.1//EN" "http://www.w3.org/Graphics/SVG/1.1/DTD/svg11.dtd">
<svg version="1.1" xmlns="http://www.w3.org/2000/svg" xmlns:xlink="http://www.w3.org/1999/xlink" width="32" height="32" viewBox="0 0 32 32">
	<path d="M31.385 14.508l-3.387-3.387c-2.608-2.61 0.731-2.402 2.669-4.14 0.010-0.009 0.019-0.018 0.029-0.026 0.045-0.041 0.089-0.083 0.133-0.126 1.562-1.562 1.562-4.095 0-5.657-1.562-1.562-4.095-1.562-5.657 0-0.043 0.043-0.085 0.088-0.126 0.133-0.009 0.010-0.018 0.019-0.026 0.029-1.739 1.939-1.53 5.279-4.142 2.668l-3.385-3.385c-0.82-0.82-2.163-0.82-2.983 0l-3.384 3.384c-0 0-0.001 0.001-0.001 0.001-2.613 2.613-2.403-0.728-4.143-2.667-0.009-0.010-0.018-0.019-0.026-0.029-0.041-0.045-0.083-0.089-0.126-0.133-1.562-1.562-4.095-1.562-5.657 0-1.562 1.562-1.562 4.095 0 5.657 0.043 0.043 0.088 0.085 0.133 0.126 0.010 0.009 0.019 0.018 0.029 0.026 1.939 1.739 5.28 1.53 2.667 4.143-0 0-0.001 0.001-0.001 0.001l-3.384 3.384c-0.82 0.82-0.82 2.163 0 2.983l3.384 3.384c0 0 0 0 0 0 2.613 2.613-0.728 2.403-2.667 4.143-0.010 0.009-0.019 0.018-0.029 0.026-0.045 0.041-0.089 0.083-0.133 0.126-1.562 1.562-1.562 4.095 0 5.657 1.562 1.562 4.095 1.562 5.657 0 0.043-0.043 0.085-0.088 0.126-0.133 0.009-0.010 0.018-0.019 0.026-0.029 1.739-1.939 1.53-5.279 4.142-2.668l3.386 3.386c0.82 0.82 2.163 0.82 2.983 0l3.932-3.932c1.567-2.014-1.401-1.966-3.185-3.565-0.010-0.009-0.019-0.017-0.029-0.026-0.045-0.041-0.089-0.083-0.133-0.126-1.562-1.562-1.562-4.095 0-5.657 1.562-1.562 4.095-1.562 5.657 0 0.043 0.043 0.085 0.088 0.126 0.133 0.009 0.010 0.018 0.019 0.026 0.029 1.6 1.783 1.551 4.751 3.565 3.185l3.932-3.932c0.82-0.82 0.82-2.163 0-2.983z" />
</svg>
