<?xml version="1.0" encoding="utf-8"?>
<!-- Generated by IcoMoon.io -->
<!DOCTYPE svg PUBLIC "-//W3C//DTD SVG 1.1//EN" "http://www.w3.org/Graphics/SVG/1.1/DTD/svg11.dtd">
<svg version="1.1" xmlns="http://www.w3.org/2000/svg" xmlns:xlink="http://www.w3.org/1999/xlink" width="32" height="32" viewBox="0 0 32 32">
	<path d="M16 32c0.84 0 1.629-0.326 2.22-0.917l3.693-3.693 0.045-0.058c0.209-0.268 0.844-1.085 0.608-2.073-0.246-1.027-1.192-1.472-2.107-1.903-0.566-0.267-1.152-0.542-1.59-0.935l-0.021-0.020c-0.028-0.025-0.055-0.051-0.084-0.080-0.981-0.981-0.981-2.577 0-3.558 0.475-0.475 1.107-0.737 1.779-0.737 0.672 0 1.304 0.262 1.777 0.736 0.028 0.028 0.055 0.057 0.086 0.091l0.012 0.014c0.394 0.439 0.67 1.026 0.937 1.593 0.453 0.962 1.016 2.158 2.34 2.159 0 0 0 0 0 0 0.531 0 1.066-0.216 1.636-0.659l0.058-0.045 3.693-3.693c1.224-1.224 1.224-3.217-0-4.441l-3.135-3.135c-0.2-0.2-0.328-0.351-0.41-0.461 0.19-0.106 0.454-0.23 0.666-0.331 0.655-0.308 1.469-0.692 2.165-1.316 0.012-0.011 0.024-0.022 0.037-0.033 0.061-0.055 0.114-0.106 0.162-0.154 0.924-0.924 1.432-2.152 1.432-3.458 0-1.306-0.509-2.534-1.432-3.458-0.924-0.924-2.152-1.432-3.458-1.432-1.306 0-2.534 0.509-3.459 1.433-0.048 0.048-0.097 0.099-0.149 0.156l-0.036 0.040c-0.626 0.698-1.010 1.513-1.318 2.167-0.1 0.213-0.224 0.476-0.331 0.667-0.11-0.082-0.262-0.211-0.462-0.411l-3.134-3.134c-0.592-0.592-1.38-0.917-2.22-0.917-0.84 0-1.629 0.326-2.221 0.917l-3.133 3.134c-0.201 0.201-0.353 0.33-0.463 0.412-0.106-0.19-0.23-0.454-0.331-0.666-0.308-0.655-0.692-1.469-1.318-2.168-0.011-0.013-0.023-0.025-0.032-0.035-0.056-0.062-0.105-0.113-0.154-0.161-0.924-0.924-2.152-1.432-3.458-1.432-1.306 0-2.534 0.509-3.458 1.432-1.907 1.907-1.907 5.010-0.001 6.916 0.048 0.048 0.098 0.096 0.159 0.151 0.012 0.011 0.025 0.023 0.038 0.035 0.698 0.626 1.513 1.010 2.167 1.318 0.213 0.1 0.476 0.224 0.667 0.331-0.082 0.11-0.211 0.262-0.412 0.463l-3.133 3.133c-0.592 0.592-0.917 1.38-0.917 2.221 0 0.84 0.326 1.629 0.917 2.221l3.133 3.133c0.201 0.201 0.33 0.353 0.412 0.463-0.19 0.106-0.454 0.23-0.667 0.331-0.655 0.308-1.469 0.692-2.167 1.318l-0.036 0.032c-0.062 0.057-0.113 0.106-0.161 0.153-1.907 1.907-1.907 5.009 0 6.916 0.924 0.924 2.152 1.432 3.458 1.432 1.306 0 2.534-0.509 3.458-1.432 0.047-0.047 0.095-0.097 0.15-0.158 0.009-0.010 0.019-0.021 0.032-0.035l0.004-0.005c0.626-0.698 1.010-1.513 1.318-2.167 0.1-0.213 0.224-0.476 0.331-0.667 0.11 0.082 0.262 0.211 0.462 0.411l3.134 3.134c0.592 0.592 1.38 0.917 2.221 0.917zM10.044 25.033c-1.324 0-1.887 1.197-2.34 2.159-0.267 0.567-0.543 1.153-0.936 1.592l-0.018 0.020c-0.026 0.028-0.052 0.057-0.080 0.084-0.475 0.475-1.107 0.737-1.779 0.737-0.672 0-1.304-0.262-1.779-0.737-0.981-0.981-0.981-2.577 0.001-3.558 0.027-0.027 0.056-0.054 0.082-0.078l0.023-0.021c0.439-0.392 1.024-0.668 1.59-0.934 0.909-0.428 1.938-0.913 2.131-2.016 0.184-1.054-0.549-1.946-1.209-2.606l-3.133-3.133c-0.143-0.143-0.222-0.335-0.222-0.541 0-0.206 0.079-0.398 0.222-0.541l3.052-3.052 0.051-0.034 0.074-0.091c0.647-0.655 1.345-1.53 1.165-2.561-0.192-1.104-1.222-1.588-2.131-2.016-0.567-0.267-1.154-0.543-1.591-0.936l-0.020-0.019c-0.028-0.026-0.056-0.052-0.084-0.080-0.981-0.981-0.981-2.577-0-3.558 0.475-0.475 1.107-0.737 1.779-0.737 0.672 0 1.304 0.262 1.779 0.737 0.027 0.027 0.054 0.056 0.083 0.087l0.014 0.015c0.394 0.439 0.67 1.026 0.937 1.593 0.453 0.962 1.016 2.159 2.34 2.159 0 0 0 0 0.001 0 0.717-0 1.415-0.376 2.262-1.217l3.153-3.153c0.143-0.143 0.335-0.222 0.541-0.222 0.206 0 0.398 0.079 0.541 0.222l3.134 3.134c0.855 0.855 1.558 1.236 2.28 1.236 0 0 0 0 0 0 1.324-0 1.887-1.197 2.34-2.159 0.267-0.567 0.543-1.154 0.934-1.589l0.020-0.022c0.026-0.029 0.053-0.058 0.080-0.085 0.475-0.475 1.107-0.737 1.779-0.737 0.672 0 1.304 0.262 1.779 0.737 0.475 0.475 0.737 1.107 0.737 1.779 0 0.672-0.262 1.304-0.737 1.779-0.027 0.027-0.055 0.053-0.083 0.079l-0.020 0.018c-0.439 0.394-1.026 0.67-1.593 0.937-0.908 0.428-1.938 0.913-2.131 2.016-0.184 1.053 0.548 1.945 1.206 2.603l3.136 3.136c0.293 0.293 0.293 0.789 0 1.083l-3.57 3.57c-0.106-0.19-0.23-0.452-0.329-0.664-0.308-0.654-0.692-1.469-1.321-2.171l-0.029-0.032c-0.054-0.060-0.104-0.112-0.153-0.161-0.924-0.924-2.152-1.432-3.458-1.432-1.306 0-2.534 0.509-3.458 1.432-1.907 1.907-1.907 5.009-0.002 6.914 0.049 0.049 0.101 0.099 0.163 0.156l0.035 0.032c0.698 0.626 1.513 1.010 2.167 1.318 0.212 0.1 0.474 0.223 0.664 0.329l-3.57 3.57c-0.143 0.143-0.335 0.222-0.541 0.222-0.206 0-0.398-0.079-0.541-0.222l-3.134-3.134c-0.855-0.855-1.558-1.236-2.28-1.236z" />
</svg>
