<?xml version="1.0" encoding="utf-8"?>
<!-- Generated by IcoMoon.io -->
<!DOCTYPE svg PUBLIC "-//W3C//DTD SVG 1.1//EN" "http://www.w3.org/Graphics/SVG/1.1/DTD/svg11.dtd">
<svg version="1.1" xmlns="http://www.w3.org/2000/svg" xmlns:xlink="http://www.w3.org/1999/xlink" width="32" height="32" viewBox="0 0 32 32">
	<path d="M15 2.002l-14.478 21.311 14.478 8.687 14.478-8.687-14.478-21.311zM3.365 22.687l10.635-15.654v22.035l-10.635-6.381zM16 28.75h0.529l-0.529 0.318v-0.318zM16 28.25v-0.5h2.196l-0.833 0.5h-1.363zM16 27.25v-0.5h3.863l-0.833 0.5h-3.029zM16 26.25v-0.5h5.529l-0.833 0.5h-4.696zM16 25.25v-0.5h7.196l-0.833 0.5h-6.363zM16 24.25v-0.5h8.863l-0.833 0.5h-8.029zM16 23.25v-0.5h10.529l-0.833 0.5h-9.696zM16.487 7.75l0.34 0.5h-0.827v-0.5h0.487zM17.167 8.75l0.34 0.5h-1.506v-0.5h1.167zM17.846 9.75l0.34 0.5h-2.186v-0.5h1.846zM18.525 10.75l0.34 0.5h-2.865v-0.5h2.525zM19.205 11.75l0.34 0.5h-3.544v-0.5h3.205zM19.884 12.75l0.34 0.5h-4.224v-0.5h3.884zM20.564 13.75l0.34 0.5h-4.903v-0.5h4.563zM21.243 14.75l0.34 0.5h-5.582v-0.5h5.243zM21.922 15.75l0.34 0.5h-6.262v-0.5h5.922zM22.602 16.75l0.34 0.5h-6.941v-0.5h6.602zM23.281 17.75l0.34 0.5h-7.621v-0.5h7.281zM23.96 18.75l0.34 0.5h-8.3v-0.5h7.96zM24.64 19.75l0.34 0.5h-8.979v-0.5h8.639zM25.319 20.75l0.34 0.5h-9.659v-0.5h9.319zM25.998 21.75l0.34 0.5h-10.338v-0.5h9.998z" />
</svg>
