<?xml version="1.0" encoding="utf-8"?>
<!-- Generated by IcoMoon.io -->
<!DOCTYPE svg PUBLIC "-//W3C//DTD SVG 1.1//EN" "http://www.w3.org/Graphics/SVG/1.1/DTD/svg11.dtd">
<svg version="1.1" xmlns="http://www.w3.org/2000/svg" xmlns:xlink="http://www.w3.org/1999/xlink" width="32" height="32" viewBox="0 0 32 32">
	<path d="M16 30c-3.581 0-7.055-0.31-9.783-0.874-0.073-0.015-0.146-0.030-0.217-0.046v2.042c2.739 0.549 6.216 0.878 10 0.878s7.261-0.329 10-0.878v-2.042c-0.072 0.015-0.144 0.031-0.217 0.046-2.727 0.564-6.202 0.874-9.783 0.874zM24 26.937v-0.937l-1-2h-14l-1 2v0.937c2.353 0.34 5.086 0.535 8 0.535 2.914 0 5.647-0.195 8-0.535zM31.297 8.802c-0.937-0.937-2.457-0.937-3.394 0-0.795 0.795-0.915 2.010-0.361 2.932l-6.104 3.662 1.203-5.679c1.052 0.224 2.162-0.285 2.655-1.296 0.581-1.191 0.086-2.628-1.105-3.209-1.191-0.581-2.628-0.086-3.209 1.105-0.493 1.011-0.211 2.198 0.613 2.89l-3.694 4.397-1.319-5.275c1.044-0.26 1.818-1.204 1.818-2.329 0-1.325-1.075-2.4-2.4-2.4-1.325 0-2.4 1.075-2.4 2.4 0 1.125 0.774 2.068 1.818 2.329l-1.319 5.275-3.694-4.397c0.824-0.692 1.106-1.879 0.613-2.89-0.581-1.191-2.018-1.686-3.209-1.105-1.191 0.581-1.686 2.018-1.105 3.209 0.493 1.011 1.602 1.52 2.655 1.296l1.203 5.679-6.104-3.662c0.554-0.922 0.434-2.137-0.361-2.932-0.937-0.937-2.457-0.937-3.394 0-0.937 0.937-0.937 2.457 0 3.394 0.795 0.795 2.010 0.915 2.932 0.361l5.666 9.443h13.399l5.666-9.443c0.922 0.554 2.137 0.434 2.932-0.361 0.937-0.937 0.937-2.457 0-3.394z" />
</svg>
