<?xml version="1.0" encoding="utf-8"?>
<!-- Generated by IcoMoon.io -->
<!DOCTYPE svg PUBLIC "-//W3C//DTD SVG 1.1//EN" "http://www.w3.org/Graphics/SVG/1.1/DTD/svg11.dtd">
<svg version="1.1" xmlns="http://www.w3.org/2000/svg" xmlns:xlink="http://www.w3.org/1999/xlink" width="32" height="32" viewBox="0 0 32 32">
	<path d="M16 0c-8.837 0-16 7.163-16 16s7.163 16 16 16c8.837 0 16-7.163 16-16s-7.163-16-16-16zM18 26h-4v-4h4v4zM24 14c0 2.206-1.794 4-4 4h-1.996c-0.001 0.001-0.003 0.002-0.004 0.004v1.996h-4v-2c0-2.206 1.794-4 4-4h1.996c0.001-0.001 0.003-0.002 0.004-0.004v-3.993c-0.001-0.001-0.002-0.003-0.004-0.004h-9.996v-4h10c2.206 0 4 1.794 4 4v4z" />
</svg>
