<?xml version="1.0" encoding="utf-8"?>
<!-- Generated by IcoMoon.io -->
<!DOCTYPE svg PUBLIC "-//W3C//DTD SVG 1.1//EN" "http://www.w3.org/Graphics/SVG/1.1/DTD/svg11.dtd">
<svg version="1.1" xmlns="http://www.w3.org/2000/svg" xmlns:xlink="http://www.w3.org/1999/xlink" width="32" height="32" viewBox="0 0 32 32">
	<path d="M20 6c2.206 0 4 1.794 4 4v4c0 2.206-1.794 4-4 4h-1.996c-0.001 0.001-0.003 0.002-0.004 0.004v1.996h-4v-2c0-2.206 1.794-4 4-4h1.996c0.001-0.001 0.003-0.002 0.004-0.004v-3.993c-0.001-0.001-0.002-0.003-0.004-0.004h-9.996v-4h10zM14 22h4v4h-4zM16 3c-3.472 0-6.737 1.352-9.192 3.808s-3.808 5.72-3.808 9.192c0 3.472 1.352 6.737 3.808 9.192 2.455 2.455 5.72 3.808 9.192 3.808 3.472 0 6.737-1.352 9.192-3.808 2.455-2.455 3.808-5.72 3.808-9.192 0-3.472-1.352-6.737-3.808-9.192-2.455-2.455-5.72-3.808-9.192-3.808zM16 0v0c8.837 0 16 7.163 16 16s-7.163 16-16 16c-8.837 0-16-7.163-16-16 0-8.837 7.163-16 16-16z" />
</svg>
