<?xml version="1.0" encoding="utf-8"?>
<!-- Generated by IcoMoon.io -->
<!DOCTYPE svg PUBLIC "-//W3C//DTD SVG 1.1//EN" "http://www.w3.org/Graphics/SVG/1.1/DTD/svg11.dtd">
<svg version="1.1" xmlns="http://www.w3.org/2000/svg" xmlns:xlink="http://www.w3.org/1999/xlink" width="32" height="32" viewBox="0 0 32 32">
	<path d="M2 0h3v32h-3zM12 6h4v4h-4zM16 10v4c2 0 2 2 4 2v-4c-2 0-2-2-4-2zM20 8h4v4h-4zM20 2c-1 0-1.5-0.5-2-1s-1-1-2-1h-10v20h10c1 0 1.5 0.5 2 1s1 1 2 1h10v-20h-10zM28 12h-4v4h4v4h-4v-4h-4v4c-1 0-1.5-0.5-2-1s-1-1-2-1v-4h-4v4h-4v-4h4v-4h-4v-4h4v-4h4v4c1 0 1.5 0.5 2 1s1 1 2 1v-4h4v4h4v4z" />
</svg>
