<?xml version="1.0" encoding="utf-8"?>
<!-- Generated by IcoMoon.io -->
<!DOCTYPE svg PUBLIC "-//W3C//DTD SVG 1.1//EN" "http://www.w3.org/Graphics/SVG/1.1/DTD/svg11.dtd">
<svg version="1.1" xmlns="http://www.w3.org/2000/svg" xmlns:xlink="http://www.w3.org/1999/xlink" width="32" height="32" viewBox="0 0 32 32">
	<path d="M20 10c0-2.209-1.791-4-4-4-2.209 0-4 1.791-4 4 0 1.417 0.738 2.661 1.849 3.372l-5.080 18.628h2.462l0.545-2h8.447l0.546 2h2.462l-5.080-18.628c1.112-0.711 1.849-1.955 1.849-3.372zM18.587 24h-5.175l0.545-2h4.084l0.545 2zM14.504 20l1.496-5.487 1.496 5.487h-2.993zM12.322 28l0.546-2h6.266l0.545 2h-7.357zM20.761 1.204c3.12 1.692 5.239 4.997 5.239 8.796s-2.119 7.104-5.239 8.796c1.377-2.191 2.239-5.321 2.239-8.796 0-3.475-0.862-6.605-2.239-8.796zM26.761 1.204c3.12 1.692 5.239 4.997 5.239 8.796s-2.119 7.104-5.239 8.796c1.377-2.191 2.239-5.321 2.239-8.796 0-3.475-0.862-6.605-2.239-8.796zM11.239 18.796c-3.12-1.692-5.239-4.997-5.239-8.796s2.119-7.104 5.239-8.796c-1.377 2.191-2.239 5.321-2.239 8.796 0 3.475 0.862 6.605 2.239 8.796zM0 10c0-3.799 2.119-7.104 5.239-8.796-1.377 2.191-2.239 5.321-2.239 8.796 0 3.475 0.862 6.605 2.239 8.796-3.12-1.692-5.239-4.997-5.239-8.796z" />
</svg>
