<?xml version="1.0" encoding="utf-8"?>
<!-- Generated by IcoMoon.io -->
<!DOCTYPE svg PUBLIC "-//W3C//DTD SVG 1.1//EN" "http://www.w3.org/Graphics/SVG/1.1/DTD/svg11.dtd">
<svg version="1.1" xmlns="http://www.w3.org/2000/svg" xmlns:xlink="http://www.w3.org/1999/xlink" width="32" height="32" viewBox="0 0 32 32">
	<path d="M11 5c0-2.761 2.239-5 5-5s5 2.239 5 5c0 2.761-2.239 5-5 5-2.761 0-5-2.239-5-5zM31.562 22.751l-8-10c-0.395-0.493-0.975-0.75-1.561-0.75l-0-0-12 0c-0.586 0-1.167 0.257-1.562 0.75l-8 10c-0.525 0.656-0.584 1.571-0.147 2.289 0.368 0.604 1.020 0.96 1.708 0.96 0.13 0 0.262-0.013 0.393-0.039l5.608-1.122v7.16h16v-7.16l5.608 1.122c0.131 0.026 0.262 0.039 0.393 0.039 0.688 0 1.341-0.356 1.708-0.96 0.437-0.718 0.378-1.633-0.147-2.289zM22 20.36l-1.608-0.322c-1.083-0.217-2.137 0.486-2.353 1.569-0.217 1.083 0.486 2.137 1.569 2.353l2.392 0.478v1.56l-6 2-6-2v-1.56l2.392-0.478c1.083-0.217 1.786-1.27 1.569-2.353-0.217-1.083-1.27-1.785-2.353-1.569l-1.608 0.322v-4.36l6 2 6-2v4.36z" />
</svg>
