<?xml version="1.0" encoding="utf-8"?>
<!-- Generated by IcoMoon.io -->
<!DOCTYPE svg PUBLIC "-//W3C//DTD SVG 1.1//EN" "http://www.w3.org/Graphics/SVG/1.1/DTD/svg11.dtd">
<svg version="1.1" xmlns="http://www.w3.org/2000/svg" xmlns:xlink="http://www.w3.org/1999/xlink" width="32" height="32" viewBox="0 0 32 32">
	<path d="M14 24h2v2h-2zM18 24v-2h-2v2h2v2h2v-2zM10 24h2v2h-2zM16 26h2v2h-2zM12 26h2v2h-2zM8 18h2v2h-2zM12 22h2v2h-2zM30 7c0-2.761-6.716-5-15-5s-15 2.239-15 5c0 0.013 0.001 0.027 0.002 0.040l-0.001-0.001c-0.001 1.176 0.471 2.847 1.287 6.109 0 0 0 0.001 0 0.001l3.621 14.486c0.6 2.401 3.116 4.366 5.591 4.366h9c2.475 0 4.991-1.965 5.591-4.366l3.621-14.486c0-0 0-0.001 0-0.001 0.816-3.262 1.287-4.933 1.287-6.109l-0.001 0.001c0-0.013 0.002-0.027 0.002-0.040zM6 20v-2h2v-2h-2v-2h-2v-2h2v2h2v-2h2v2h2v2h2v2h2v2h-2v-2h-2v2h-2v2h-2v-2h-2zM18 16v-2h2v-2h2v2h-2v2l-2-0v2h-2v-2h-2v-2h2v2h2zM22 26h-2v2h-2v2h-2v-2h-2v2h-2v-2h-2v-2h-2v-2h2v-2h2v-2h2v2h2v-2h2v2h2v2h2v2zM24 20h-2v2h-2v-2h-2v-2h2v-2h2v-2h2v2h-2v2h2v2zM26 14h-2v-2h2v2zM27.173 7.661c-0.234 0.145-0.502 0.288-0.799 0.427-0.567 0.265-1.24 0.514-1.993 0.737-2.565 0.758-5.896 1.176-9.381 1.176s-6.816-0.418-9.381-1.176c-0.753-0.222-1.426-0.472-1.993-0.737-0.297-0.139-0.566-0.282-0.799-0.427-0.498-0.31-0.71-0.546-0.792-0.661 0.082-0.114 0.293-0.351 0.792-0.661 0.679-0.422 1.645-0.825 2.792-1.164 2.565-0.758 5.896-1.176 9.381-1.176s6.816 0.417 9.381 1.176c1.147 0.339 2.113 0.742 2.792 1.164 0.498 0.31 0.71 0.546 0.792 0.661-0.082 0.114-0.293 0.351-0.792 0.661zM10 16v2h2v-2h-2v-2h-2v2zM20 18h2v2h-2z" />
</svg>
