<?xml version="1.0" encoding="utf-8"?>
<!-- Generated by IcoMoon.io -->
<!DOCTYPE svg PUBLIC "-//W3C//DTD SVG 1.1//EN" "http://www.w3.org/Graphics/SVG/1.1/DTD/svg11.dtd">
<svg version="1.1" xmlns="http://www.w3.org/2000/svg" xmlns:xlink="http://www.w3.org/1999/xlink" width="32" height="32" viewBox="0 0 32 32">
	<path d="M16 14c-6.627 0-12-2.686-12-6v2c0 1.227 0.737 2.367 2 3.317v14.683c0 2.209 4.477 4 10 4 5.523 0 10-1.791 10-4v-14.683c1.263-0.95 2-2.091 2-3.317v-2c0 3.314-5.373 6-12 6zM12 29.632c-0.648-0.127-1.258-0.284-1.81-0.471-1.484-0.502-2.067-1.042-2.19-1.237v-13.453c1.154 0.517 2.509 0.923 4 1.186v13.974zM18 29.912c-0.65 0.058-1.321 0.088-2 0.088-0.679 0-1.35-0.030-2-0.088v-13.996c0.65 0.055 1.319 0.083 2 0.083s1.349-0.029 2-0.083v13.996zM24 27.925c-0.123 0.195-0.705 0.735-2.19 1.237-0.553 0.187-1.162 0.344-1.81 0.471v-13.974c1.491-0.263 2.846-0.67 4-1.186v13.453zM16 12c6.627 0 12-2.686 12-6s-5.373-6-12-6c-6.627 0-12 2.686-12 6s5.373 6 12 6zM8.409 3.546c1.965-0.983 4.732-1.546 7.591-1.546s5.626 0.564 7.591 1.546c1.486 0.743 2.409 1.683 2.409 2.454s-0.923 1.711-2.409 2.454c-1.965 0.983-4.732 1.546-7.591 1.546s-5.626-0.564-7.591-1.546c-1.486-0.743-2.409-1.683-2.409-2.454s0.923-1.711 2.409-2.454zM14 6h4v2h2v-4h-8v4h2z" />
</svg>
