<?xml version="1.0" encoding="utf-8"?>
<!-- Generated by IcoMoon.io -->
<!DOCTYPE svg PUBLIC "-//W3C//DTD SVG 1.1//EN" "http://www.w3.org/Graphics/SVG/1.1/DTD/svg11.dtd">
<svg version="1.1" xmlns="http://www.w3.org/2000/svg" xmlns:xlink="http://www.w3.org/1999/xlink" width="32" height="32" viewBox="0 0 32 32">
	<path d="M24 8h2v2h-2zM20 12h2v2h-2zM20 16h2v2h-2zM20 20h2v2h-2zM16 16h2v2h-2zM16 20h2v2h-2zM12 20h2v2h-2zM24 12h2v2h-2zM24 16h2v2h-2zM24 20h2v2h-2zM24 24h2v2h-2zM20 24h2v2h-2zM16 24h2v2h-2zM12 24h2v2h-2zM8 24h2v2h-2z" />
</svg>
