<?xml version="1.0" encoding="utf-8"?>
<!-- Generated by IcoMoon.io -->
<!DOCTYPE svg PUBLIC "-//W3C//DTD SVG 1.1//EN" "http://www.w3.org/Graphics/SVG/1.1/DTD/svg11.dtd">
<svg version="1.1" xmlns="http://www.w3.org/2000/svg" xmlns:xlink="http://www.w3.org/1999/xlink" width="32" height="32" viewBox="0 0 32 32">
	<path d="M16 4v-4h-12v4h-4v12h4v16h12v-16h16v-12h-16zM4 14h-2v-8h2v8zM14 4h-4v2h4v2h-4v2h4v2h-4v2h4v2h-4v2h4v2h-4v2h4v2h-4v2h4v4h-8v-28h8v2zM30 14h-2v-4h-2v4h-2v-4h-2v4h-2v-4h-2v4h-2v-8h14v8z" />
</svg>
