<?xml version="1.0" encoding="utf-8"?>
<!-- Generated by IcoMoon.io -->
<!DOCTYPE svg PUBLIC "-//W3C//DTD SVG 1.1//EN" "http://www.w3.org/Graphics/SVG/1.1/DTD/svg11.dtd">
<svg version="1.1" xmlns="http://www.w3.org/2000/svg" xmlns:xlink="http://www.w3.org/1999/xlink" width="32" height="32" viewBox="0 0 32 32">
	<path d="M29 9l-9 3 3-9zM16.5 0h1v2h-1zM18.5 0h1v2h-1zM20.5 0h1v2h-1zM22.5 0h1v2h-1zM24.5 0h1v2h-1zM26.5 0h1v2h-1zM28.563 0h1v2h-1zM4.5 0h1v2h-1zM6.5 0h1v2h-1zM8.5 0h1v2h-1zM10.5 0h1v2h-1zM12.5 0h1v2h-1zM14.5 0h1v2h-1zM9 3l3 9-9-3zM3 23l9-3-3 9zM23 29l-3-9 9 3zM2.5 0h1v2h-1zM16.5 30h1v2h-1zM18.5 30h1v2h-1zM20.5 30h1v2h-1zM22.5 30h1v2h-1zM24.5 30h1v2h-1zM26.5 30h1v2h-1zM28.563 30h1v2h-1zM4.5 30h1v2h-1zM6.5 30h1v2h-1zM8.5 30h1v2h-1zM10.5 30h1v2h-1zM12.5 30h1v2h-1zM14.5 30h1v2h-1zM2.5 30h1v2h-1zM0.031 14.531h2v1h-2zM0.031 12.531h2v1h-2zM0.031 10.531h2v1h-2zM0.031 8.531h2v1h-2zM0.031 6.531h2v1h-2zM0.031 4.531h2v1h-2zM0.031 2.469h2v1h-2zM0.031 26.531h2v1h-2zM0.031 24.531h2v1h-2zM0.031 22.531h2v1h-2zM0.031 20.531h2v1h-2zM0.031 18.531h2v1h-2zM0.031 16.531h2v1h-2zM0.031 28.531h2v1h-2zM30.031 14.531h2v1h-2zM30.031 12.531h2v1h-2zM30.031 10.531h2v1h-2zM30.031 8.531h2v1h-2zM30.031 6.531h2v1h-2zM30.031 4.531h2v1h-2zM30.031 2.469h2v1h-2zM30.031 26.531h2v1h-2zM30.031 24.531h2v1h-2zM30.031 22.531h2v1h-2zM30.031 20.531h2v1h-2zM30.031 18.531h2v1h-2zM30.031 16.531h2v1h-2zM30.031 28.531h2v1h-2zM20 12h-8v8h8v-8zM22 10v0 12h-12v-12h12z" />
</svg>
