<?xml version="1.0" encoding="utf-8"?>
<!-- Generated by IcoMoon.io -->
<!DOCTYPE svg PUBLIC "-//W3C//DTD SVG 1.1//EN" "http://www.w3.org/Graphics/SVG/1.1/DTD/svg11.dtd">
<svg version="1.1" xmlns="http://www.w3.org/2000/svg" xmlns:xlink="http://www.w3.org/1999/xlink" width="32" height="32" viewBox="0 0 32 32">
	<path d="M0 0v32h32v-32h-32zM30 30h-28v-28h28v28zM21 5l9-3-3 9zM10.5 8h1v2h-1zM12.5 8h1v2h-1zM14.5 8h1v2h-1zM16.5 8h1v2h-1zM18.5 8h1v2h-1zM20.5 8h1v2h-1zM10.5 22h1v2h-1zM12.5 22h1v2h-1zM14.5 22h1v2h-1zM16.5 22h1v2h-1zM18.5 22h1v2h-1zM20.5 22h1v2h-1zM8 20.5h2v1h-2zM8 18.5h2v1h-2zM8 16.5h2v1h-2zM8 14.5h2v1h-2zM8 12.5h2v1h-2zM8 10.5h2v1h-2zM22 20.5h2v1h-2zM22 18.5h2v1h-2zM22 16.5h2v1h-2zM22 14.5h2v1h-2zM22 12.5h2v1h-2zM22 10.5h2v1h-2zM5 11l-3-9 9 3zM11 27l-9 3 3-9zM27 21l3 9-9-3z" />
</svg>
