<?xml version="1.0" encoding="utf-8"?>
<!-- Generated by IcoMoon.io -->
<!DOCTYPE svg PUBLIC "-//W3C//DTD SVG 1.1//EN" "http://www.w3.org/Graphics/SVG/1.1/DTD/svg11.dtd">
<svg version="1.1" xmlns="http://www.w3.org/2000/svg" xmlns:xlink="http://www.w3.org/1999/xlink" width="32" height="32" viewBox="0 0 32 32">
	<path d="M24.436 32c-1.701-0-3.824-1.038-4.738-3.356-0.127-0.302-0.267-0.67-0.429-1.094-0.518-1.359-1.3-3.413-2.118-4.264-0.299-0.311-0.531-0.537-0.717-0.719-0.167-0.163-0.308-0.3-0.434-0.439-0.127 0.139-0.267 0.276-0.434 0.439-0.186 0.181-0.418 0.407-0.717 0.719-0.818 0.851-1.601 2.905-2.118 4.265-0.162 0.424-0.301 0.791-0.428 1.094-0.914 2.318-3.038 3.357-4.738 3.357-0.331 0-0.634-0.040-0.898-0.12-1.673-0.503-2.688-2.371-2.526-4.649l0.023-0.263c0.205-1.838 1.325-3.654 3.152-5.113 1.584-1.265 3.457-2.051 4.888-2.051 0.283 0 0.544 0.031 0.782 0.092l0.982-2.013c-1.009-2.526-2.447-6.298-3.57-9.603-0.626-1.841-1.091-3.35-1.381-4.483-0.46-1.793-0.43-2.4-0.245-2.758l0.538-1.040 6.691 13.717 6.69-13.716 0.538 1.040c0.185 0.359 0.215 0.965-0.245 2.758-0.29 1.133-0.755 2.641-1.381 4.482-1.123 3.304-2.561 7.077-3.57 9.603l0.982 2.013c0.238-0.061 0.499-0.092 0.782-0.092 1.431 0 3.304 0.786 4.888 2.051 1.562 1.248 2.607 2.756 3.006 4.316l0.074-0.035 0.096 1.095c0.163 2.278-0.852 4.146-2.525 4.649-0.265 0.079-0.567 0.12-0.898 0.12-0 0-0 0-0 0zM21.678 27.559c1.183 2.147 2.241 2.468 2.766 2.468 0.715 0 1.251-0.577 1.356-1.136 0.069-0.367 0.081-0.745 0.037-1.123-0.177-1.51-1.209-2.806-2.042-3.628-1.146-1.129-2.431-1.879-3.255-2.206-0.082-0.029-0.133-0.033-0.156-0.033-0.016 0-0.022 0.002-0.022 0.002-0.24 0.156-0.527 1.97 1.316 5.655zM11.446 21.935c-0.82 0.328-2.097 1.077-3.235 2.206-0.829 0.822-1.854 2.118-2.030 3.628-0.044 0.377-0.032 0.754 0.037 1.122 0.104 0.558 0.636 1.136 1.347 1.136 0.522 0 1.573-0.321 2.749-2.468 1.832-3.684 1.548-5.497 1.306-5.656 0 0-0 0-0 0-0.001 0-0.008-0.001-0.020-0.001-0.023-0-0.073 0.004-0.155 0.033z" />
</svg>
