<?xml version="1.0" encoding="utf-8"?>
<!-- Generated by IcoMoon.io -->
<!DOCTYPE svg PUBLIC "-//W3C//DTD SVG 1.1//EN" "http://www.w3.org/Graphics/SVG/1.1/DTD/svg11.dtd">
<svg version="1.1" xmlns="http://www.w3.org/2000/svg" xmlns:xlink="http://www.w3.org/1999/xlink" width="32" height="32" viewBox="0 0 32 32">
	<path d="M9.309 0l-0.538 1.040c-0.185 0.359-0.215 0.965 0.245 2.758 0.29 1.133 0.755 2.641 1.381 4.483 0.79 2.325 1.736 4.881 2.579 7.073l1.911-3.918-5.578-11.435zM27.86 27.231l-0.096-1.095-0.074 0.035c-0.399-1.56-1.443-3.068-3.006-4.316-1.584-1.265-3.457-2.051-4.888-2.051-0.283 0-0.544 0.031-0.782 0.092l-0.982-2.013c1.009-2.526 2.447-6.299 3.57-9.603 0.626-1.841 1.090-3.35 1.381-4.482 0.46-1.793 0.43-2.4 0.245-2.758l-0.538-1.040-9.705 19.896c-0.238-0.061-0.499-0.092-0.782-0.092-1.431 0-3.304 0.786-4.888 2.051-1.827 1.459-2.947 3.275-3.152 5.113l-0.023 0.263c-0.163 2.278 0.852 4.146 2.526 4.649 0.265 0.079 0.567 0.12 0.898 0.12 1.7 0 3.824-1.038 4.738-3.356 0.127-0.302 0.267-0.669 0.428-1.094 0.518-1.359 1.301-3.414 2.118-4.265 0.299-0.311 0.531-0.537 0.717-0.719 0.167-0.163 0.308-0.3 0.434-0.439 0.127 0.139 0.267 0.276 0.434 0.439 0.186 0.182 0.418 0.407 0.717 0.719 0.818 0.851 1.6 2.905 2.118 4.264 0.162 0.425 0.302 0.792 0.429 1.094 0.914 2.318 3.038 3.356 4.738 3.356 0 0 0 0 0 0 0.331 0 0.634-0.040 0.898-0.12 1.673-0.503 2.688-2.371 2.525-4.649zM10.314 27.559c-1.176 2.147-2.227 2.468-2.749 2.468-0.711 0-1.243-0.577-1.347-1.136-0.068-0.368-0.081-0.745-0.037-1.122 0.176-1.51 1.201-2.807 2.030-3.628 1.139-1.129 2.416-1.879 3.235-2.206 0.082-0.029 0.132-0.033 0.155-0.033 0.012 0 0.019 0.001 0.020 0.001 0 0 0 0 0-0 0.241 0.159 0.526 1.972-1.306 5.656zM25.8 28.892c-0.105 0.558-0.64 1.136-1.356 1.136-0.526 0-1.583-0.321-2.766-2.468-1.844-3.685-1.556-5.499-1.316-5.655 0 0 0.006-0.002 0.022-0.002 0.023 0 0.073 0.004 0.156 0.033 0.825 0.327 2.109 1.077 3.255 2.206 0.834 0.822 1.865 2.118 2.042 3.628 0.044 0.378 0.032 0.756-0.037 1.123z" />
</svg>
