<?xml version="1.0" encoding="utf-8"?>
<!-- Generated by IcoMoon.io -->
<!DOCTYPE svg PUBLIC "-//W3C//DTD SVG 1.1//EN" "http://www.w3.org/Graphics/SVG/1.1/DTD/svg11.dtd">
<svg version="1.1" xmlns="http://www.w3.org/2000/svg" xmlns:xlink="http://www.w3.org/1999/xlink" width="32" height="32" viewBox="0 0 32 32">
	<path d="M31.703 24.703l-6.806-6.806c-1.298 0.298-2.715-0.058-3.726-1.069-1.011-1.011-1.367-2.428-1.069-3.726l-0.806-0.806c-0.689-0.689-2.401-0.135-4.086 1.235l-9.211-9.211-1-2.321-3.202-2-1.798 1.798 2 3.202 2.321 1 9.211 9.211c-1.37 1.685-1.924 3.396-1.235 4.086 0 0 0 0 0.001 0l0.805 0.805c1.298-0.298 2.715 0.058 3.726 1.069 1.011 1.011 1.367 2.428 1.069 3.726l6.806 6.806c0.811 0.811 3.035-0.099 4.968-2.032 1.933-1.933 2.843-4.157 2.032-4.968zM27.84 27.84c-0.232 0.232-0.536 0.348-0.84 0.348s-0.608-0.116-0.84-0.348l-10-10c-0.464-0.464-0.464-1.216 0-1.679 0.464-0.464 1.216-0.464 1.679 0l10 10c0.464 0.464 0.464 1.216 0 1.679z" />
</svg>
