<?xml version="1.0" encoding="utf-8"?>
<!-- Generated by IcoMoon.io -->
<!DOCTYPE svg PUBLIC "-//W3C//DTD SVG 1.1//EN" "http://www.w3.org/Graphics/SVG/1.1/DTD/svg11.dtd">
<svg version="1.1" xmlns="http://www.w3.org/2000/svg" xmlns:xlink="http://www.w3.org/1999/xlink" width="32" height="32" viewBox="0 0 32 32">
	<path d="M0 2v20h32v-20h-32zM30 20h-28v-16h28v16zM21 24h-10l-1 4-2 2h16l-2-2zM3 14.25h26v0.5h-26zM3 13.25h26v0.5h-26zM3 15.25h26v0.5h-26zM3 12.25h26v0.5h-26zM3 16.25h26v0.5h-26zM3 18.25h26v0.5h-26zM3 17.25h26v0.5h-26zM3 6.25h26v0.5h-26zM3 11.25h26v0.5h-26zM3 7.25h26v0.5h-26zM3 5.25h26v0.5h-26zM3 10.25h26v0.5h-26zM3 9.25h26v0.5h-26zM3 8.25h26v0.5h-26z" />
</svg>
