<?xml version="1.0" encoding="utf-8"?>
<!-- Generated by IcoMoon.io -->
<!DOCTYPE svg PUBLIC "-//W3C//DTD SVG 1.1//EN" "http://www.w3.org/Graphics/SVG/1.1/DTD/svg11.dtd">
<svg version="1.1" xmlns="http://www.w3.org/2000/svg" xmlns:xlink="http://www.w3.org/1999/xlink" width="32" height="32" viewBox="0 0 32 32">
	<path d="M3 14.75h17.813l-0.875-0.5h-16.938zM3 13.75h16.063l-0.875-0.5h-15.188zM3 12.75h14.313l-0.875-0.5h-13.438zM3 11.75h12.563l-0.875-0.5h-11.688zM3 15.75h19.563l-0.875-0.5h-18.688zM3 16.75h21.313l-0.875-0.5h-20.438zM3 17.75h23.063l-0.875-0.5h-22.188zM3 5.75h2.063l-0.875-0.5h-1.188zM3 18.25v0.5h24.813l-0.875-0.5zM3 6.75h3.813l-0.875-0.5h-2.938zM3 7.75h5.563l-0.875-0.5h-4.688zM3 9.75h9.063l-0.875-0.5h-8.188zM3 8.75h7.313l-0.875-0.5h-6.438zM3 10.75h10.813l-0.875-0.5h-9.938zM0 2v20h32v-20h-32zM30 20h-28v-16h28v16zM21 24h-10l-1 4-2 2h16l-2-2z" />
</svg>
