<?xml version="1.0" encoding="utf-8"?>
<!-- Generated by IcoMoon.io -->
<!DOCTYPE svg PUBLIC "-//W3C//DTD SVG 1.1//EN" "http://www.w3.org/Graphics/SVG/1.1/DTD/svg11.dtd">
<svg version="1.1" xmlns="http://www.w3.org/2000/svg" xmlns:xlink="http://www.w3.org/1999/xlink" width="32" height="32" viewBox="0 0 32 32">
	<path d="M31.008 27.231l-7.58-6.447c-0.784-0.705-1.622-1.029-2.299-0.998 1.789-2.096 2.87-4.815 2.87-7.787 0-6.627-5.373-12-12-12-6.627 0-12 5.373-12 12s5.373 12 12 12c2.972 0 5.691-1.081 7.787-2.87-0.031 0.677 0.293 1.515 0.998 2.298l6.447 7.58c1.104 1.226 2.907 1.33 4.007 0.23 1.1-1.1 0.997-2.903-0.23-4.007zM17.954 18.25h-11.908c-0.168-0.16-0.33-0.327-0.485-0.5h12.878c-0.155 0.173-0.317 0.34-0.485 0.5zM9.472 20.25c-0.438-0.134-0.862-0.302-1.268-0.5h7.592c-0.406 0.198-0.829 0.366-1.268 0.5h-5.057zM7.318 19.25c-0.241-0.155-0.473-0.322-0.696-0.5h10.757c-0.223 0.178-0.456 0.345-0.696 0.5h-9.364zM5.146 17.25c-0.125-0.162-0.244-0.329-0.357-0.5h14.423c-0.113 0.171-0.232 0.338-0.357 0.5h-13.709zM4.481 16.25c-0.093-0.163-0.181-0.33-0.263-0.5h15.564c-0.082 0.17-0.17 0.337-0.263 0.5h-15.037zM3.996 15.25c-0.067-0.164-0.129-0.331-0.186-0.5h16.381c-0.057 0.169-0.119 0.336-0.186 0.5h-16.008zM3.659 14.25c-0.045-0.165-0.085-0.331-0.119-0.5h16.922c-0.035 0.169-0.075 0.335-0.119 0.5h-16.683zM3.361 12c0-0.084 0.002-0.167 0.004-0.25h17.27c0.002 0.083 0.004 0.166 0.004 0.25s-0.001 0.167-0.004 0.25h-17.27c-0.002-0.083-0.004-0.166-0.004-0.25zM6.046 5.75h11.907c0.168 0.16 0.33 0.327 0.485 0.5h-12.878c0.155-0.173 0.317-0.34 0.485-0.5zM14.528 3.75c0.438 0.134 0.862 0.301 1.268 0.5h-7.592c0.406-0.199 0.829-0.366 1.268-0.5h5.057zM16.682 4.75c0.241 0.155 0.473 0.322 0.696 0.5h-10.757c0.223-0.178 0.456-0.345 0.696-0.5h9.364zM18.854 6.75c0.125 0.162 0.244 0.329 0.357 0.5h-14.423c0.113-0.171 0.232-0.338 0.357-0.5h13.708zM19.519 7.75c0.093 0.163 0.181 0.33 0.263 0.5h-15.564c0.082-0.17 0.17-0.337 0.263-0.5h15.037zM20.004 8.75c0.067 0.164 0.129 0.331 0.186 0.5h-16.381c0.057-0.169 0.119-0.336 0.186-0.5h16.008zM20.341 9.75c0.044 0.165 0.085 0.331 0.119 0.5h-16.922c0.035-0.169 0.075-0.335 0.119-0.5h16.683zM20.548 10.75c0.024 0.165 0.043 0.332 0.058 0.5h-17.212c0.014-0.168 0.034-0.335 0.058-0.5h17.096zM20.606 12.75c-0.015 0.168-0.034 0.335-0.058 0.5h-17.096c-0.024-0.165-0.043-0.332-0.058-0.5h17.212z" />
</svg>
