<?xml version="1.0" encoding="utf-8"?>
<!-- Generated by IcoMoon.io -->
<!DOCTYPE svg PUBLIC "-//W3C//DTD SVG 1.1//EN" "http://www.w3.org/Graphics/SVG/1.1/DTD/svg11.dtd">
<svg version="1.1" xmlns="http://www.w3.org/2000/svg" xmlns:xlink="http://www.w3.org/1999/xlink" width="32" height="32" viewBox="0 0 32 32">
	<path d="M28.067 29.328l-7.159-10.519c4.091-3.24 5.248-9.105 2.49-13.695-2.995-4.986-9.488-6.604-14.474-3.61-4.985 2.996-6.604 9.489-3.609 14.474 2.701 4.496 8.248 6.253 12.967 4.357l5.946 11.299c0.184 0.351 0.613 0.47 0.952 0.267l2.674-1.608c0.34-0.204 0.435-0.638 0.212-0.966zM18.049 16.689c-3.388 2.035-7.8 0.935-9.836-2.453-2.035-3.387-0.934-7.8 2.453-9.835 3.387-2.036 7.799-0.935 9.834 2.453 2.036 3.387 0.936 7.801-2.452 9.835z" />
</svg>
