<?xml version="1.0" encoding="utf-8"?>
<!-- Generated by IcoMoon.io -->
<!DOCTYPE svg PUBLIC "-//W3C//DTD SVG 1.1//EN" "http://www.w3.org/Graphics/SVG/1.1/DTD/svg11.dtd">
<svg version="1.1" xmlns="http://www.w3.org/2000/svg" xmlns:xlink="http://www.w3.org/1999/xlink" width="32" height="32" viewBox="0 0 32 32">
	<path d="M10 0c5.523 0 10 4.477 10 10 0 2.039-0.611 3.935-1.658 5.516 0-0 0.001-0.001 0.001-0.001l2.199 2.199c1.090-0.601 2.115-0.713 2.639-0.19l8.485 8.485c0.781 0.781 0.148 2.681-1.414 4.243-1.562 1.562-3.462 2.195-4.243 1.414l-8.485-8.485c-0.523-0.523-0.411-1.549 0.19-2.639l-2.199-2.199c0.001-0.001 0.003-0.002 0.004-0.003-1.582 1.049-3.478 1.66-5.518 1.66-5.523 0-10-4.477-10-10s4.477-10 10-10zM4.343 15.657c1.511 1.511 3.52 2.343 5.657 2.343 2.137 0 4.146-0.832 5.657-2.343 1.511-1.511 2.343-3.52 2.343-5.657s-0.832-4.146-2.343-5.657c-1.511-1.511-3.52-2.343-5.657-2.343-2.137 0-4.146 0.832-5.657 2.343-1.511 1.511-2.343 3.52-2.343 5.657s0.832 4.146 2.343 5.657zM16 10c0 0.9-0.198 1.753-0.553 2.519-0.454-4.187-3.779-7.512-7.966-7.966 0.766-0.355 1.619-0.553 2.519-0.553 3.314 0 6 2.686 6 6z" />
</svg>
