<?xml version="1.0" encoding="utf-8"?>
<!-- Generated by IcoMoon.io -->
<!DOCTYPE svg PUBLIC "-//W3C//DTD SVG 1.1//EN" "http://www.w3.org/Graphics/SVG/1.1/DTD/svg11.dtd">
<svg version="1.1" xmlns="http://www.w3.org/2000/svg" xmlns:xlink="http://www.w3.org/1999/xlink" width="32" height="32" viewBox="0 0 32 32">
	<path d="M12 16c0-2.209 1.791-4 4-4s4 1.791 4 4c0 2.209-1.791 4-4 4-2.209 0-4-1.791-4-4zM16 8c2.209 0 4.209 0.895 5.657 2.343l2.828-2.828c-2.172-2.172-5.172-3.515-8.485-3.515-5.225 0-9.669 3.339-11.316 8h-4.684v4h8c0-4.418 3.582-8 8-8zM24 16c0 4.418-3.582 8-8 8-2.209 0-4.209-0.895-5.657-2.343l-2.828 2.828c2.172 2.172 5.172 3.515 8.485 3.515 5.225 0 9.669-3.339 11.316-8h4.684v-4h-8z" />
</svg>
