<?xml version="1.0" encoding="utf-8"?>
<!-- Generated by IcoMoon.io -->
<!DOCTYPE svg PUBLIC "-//W3C//DTD SVG 1.1//EN" "http://www.w3.org/Graphics/SVG/1.1/DTD/svg11.dtd">
<svg version="1.1" xmlns="http://www.w3.org/2000/svg" xmlns:xlink="http://www.w3.org/1999/xlink" width="32" height="32" viewBox="0 0 32 32">
	<path d="M30 0l-14 4-14-4c0 0-0.141 1.616 0 4l14 4.378 14-4.378c0.141-2.384 0-4 0-4zM2.256 6.097c0.75 7.834 3.547 21.007 13.744 25.903 10.197-4.896 12.995-18.069 13.744-25.903l-13.744 5.167-13.744-5.167zM15.296 13.137l0.302 0.113h-10.146c-0.040-0.167-0.079-0.334-0.117-0.5h8.933l1.028 0.387zM6.289 9.75l1.33 0.5h-2.786c-0.029-0.168-0.058-0.335-0.085-0.5h1.542zM8.948 10.75l1.33 0.5h-5.261c-0.033-0.168-0.064-0.334-0.095-0.5h4.026zM11.608 11.75l1.33 0.5h-7.714c-0.036-0.168-0.071-0.334-0.106-0.5h6.49zM27.351 9.133c-0.477 3.098-1.313 6.776-2.778 10.238-2.058 4.862-4.939 8.348-8.573 10.377v-0.498h-0.829c-0.249-0.16-0.494-0.326-0.735-0.5h1.565v-0.5h-2.223c-0.202-0.161-0.4-0.328-0.596-0.5h2.819v-0.5h-3.365c-0.17-0.163-0.338-0.329-0.503-0.5h3.868v-0.5h-4.336c-0.147-0.163-0.291-0.33-0.434-0.5h4.769v-0.5h-5.177c-0.129-0.163-0.256-0.331-0.381-0.5h5.558v-0.5h-5.918c-0.114-0.164-0.226-0.331-0.338-0.5h6.256v-0.5h-6.577c-0.103-0.165-0.204-0.331-0.304-0.5h6.881v-0.5h-7.168c-0.092-0.165-0.183-0.331-0.273-0.5h7.441v-0.5h-7.701c-0.084-0.165-0.166-0.331-0.248-0.5h7.949v-0.5h-8.185c-0.076-0.165-0.15-0.332-0.224-0.5h8.409v-0.5h-8.624c-0.070-0.166-0.138-0.333-0.205-0.5h8.828v-0.5h-9.023c-0.063-0.166-0.126-0.333-0.187-0.5h9.21v-0.5h-9.387c-0.058-0.167-0.115-0.333-0.17-0.5h9.557v-0.5h-9.719c-0.053-0.167-0.105-0.333-0.155-0.5h9.874v-0.5h-10.022c-0.048-0.167-0.096-0.334-0.141-0.5h10.163v-0.5h-10.298c-0.044-0.167-0.087-0.334-0.129-0.5h10.426v-0.349l11.351-4.268z" />
</svg>
