<?xml version="1.0" encoding="utf-8"?>
<!-- Generated by IcoMoon.io -->
<!DOCTYPE svg PUBLIC "-//W3C//DTD SVG 1.1//EN" "http://www.w3.org/Graphics/SVG/1.1/DTD/svg11.dtd">
<svg version="1.1" xmlns="http://www.w3.org/2000/svg" xmlns:xlink="http://www.w3.org/1999/xlink" width="32" height="32" viewBox="0 0 32 32">
	<path d="M8.241 8.866c0.169 5.337 1.452 9.767 3.824 13.193 1.084 1.565 2.403 2.924 3.935 4.055 1.532-1.131 2.851-2.489 3.935-4.055 2.372-3.426 3.655-7.855 3.824-13.193-2.514-0.603-4.985-1.591-7.759-3.093-2.775 1.503-5.245 2.491-7.759 3.093zM28.68 4.568c-4.465-0.311-8.060-1.747-12.679-4.568-4.62 2.821-8.215 4.258-12.68 4.568-1.23 19.459 9.361 25.629 12.68 27.432 3.319-1.802 13.909-7.973 12.679-27.432zM22.401 23.767c-2.217 3.201-4.816 5.002-6.401 5.939-1.586-0.937-4.184-2.738-6.401-5.939-3.094-4.468-4.558-10.311-4.36-17.386 3.525-0.486 6.743-1.704 10.761-4.051 4.018 2.346 7.236 3.565 10.761 4.051 0.198 7.075-1.265 12.918-4.36 17.386z" />
</svg>
