<?xml version="1.0" encoding="utf-8"?>
<!-- Generated by IcoMoon.io -->
<!DOCTYPE svg PUBLIC "-//W3C//DTD SVG 1.1//EN" "http://www.w3.org/Graphics/SVG/1.1/DTD/svg11.dtd">
<svg version="1.1" xmlns="http://www.w3.org/2000/svg" xmlns:xlink="http://www.w3.org/1999/xlink" width="32" height="32" viewBox="0 0 32 32">
	<path d="M11.111 9.125v6.875c0 2.082 0.847 4.11 2.518 6.027 0.82 0.941 1.67 1.658 2.371 2.165 0.701-0.506 1.551-1.223 2.371-2.165 1.671-1.917 2.518-3.945 2.518-6.027v-6.875l-4.889-1.63-4.889 1.63zM16 0l-12 4c0 0 0 6 0 12 0 10 10 16 12 16s12-6 12-16c0-6 0-12 0-12l-12-4zM24 16c0 1.575-0.345 3.13-1.026 4.622-0.605 1.325-1.469 2.602-2.567 3.794-1.685 1.828-3.475 2.958-4.406 3.418-0.931-0.46-2.722-1.59-4.406-3.418-1.099-1.192-1.963-2.469-2.568-3.794-0.681-1.492-1.026-3.047-1.026-4.622v-9.117l8-2.667 8 2.667v9.117z" />
</svg>
