<?xml version="1.0" encoding="utf-8"?>
<!-- Generated by IcoMoon.io -->
<!DOCTYPE svg PUBLIC "-//W3C//DTD SVG 1.1//EN" "http://www.w3.org/Graphics/SVG/1.1/DTD/svg11.dtd">
<svg version="1.1" xmlns="http://www.w3.org/2000/svg" xmlns:xlink="http://www.w3.org/1999/xlink" width="32" height="32" viewBox="0 0 32 32">
	<path d="M28.126 27h-0.252c-0.444 1.725-2.010 3-3.874 3s-3.43-1.275-3.874-3h-0.252c-0.444 1.725-2.010 3-3.874 3s-3.43-1.275-3.874-3h-0.252c-0.444 1.725-2.010 3-3.874 3s-3.43-1.275-3.874-3h-0.252c-0.444 1.725-2.010 3-3.874 3v2c2.209 0 4-1.166 4-3.375 0 2.209 1.791 3.375 4 3.375s4-1.166 4-3.375c0 2.209 1.791 3.375 4 3.375 2.209 0 4-1.166 4-3.375 0 2.209 1.791 3.375 4 3.375s4-1.166 4-3.375c0 2.209 1.791 3.375 4 3.375v-2c-1.864 0-3.43-1.275-3.874-3zM28.126 23h-0.252c-0.444 1.725-2.010 3-3.874 3-1.501 0-2.809-0.827-3.493-2.050 3.98-0.762 9.493-9.95 9.493-9.95l-3.995-1.712c-0.004-0.034-0.009-0.068-0.014-0.101l-1.668-10.213c-0.177-1.086-1.222-1.974-2.322-1.974h-12c-1.1 0-2.145 0.888-2.322 1.974l-1.668 10.213c-0.005 0.033-0.010 0.067-0.014 0.101l-3.995 1.712c0 0 5.513 9.188 9.493 9.949-0.684 1.223-1.992 2.050-3.493 2.050-1.864 0-3.43-1.275-3.874-3h-0.252c-0.444 1.725-2.010 3-3.874 3v2c2.209 0 4-1.166 4-3.375 0 2.209 1.791 3.375 4 3.375s4-1.166 4-3.375c0 2.209 1.791 3.375 4 3.375 2.209 0 4-1.166 4-3.375 0 2.209 1.791 3.375 4 3.375s4-1.166 4-3.375c0 2.209 1.791 3.375 4 3.375v-2c-1.864 0-3.43-1.275-3.874-3zM18 2h4c0.121 0 0.329 0.177 0.348 0.296l1.479 9.059-6.743-2.89 0.915-6.465zM9.652 2.296c0.019-0.119 0.228-0.296 0.348-0.296h4l0.915 6.465-6.743 2.89 1.479-9.059zM16 26c-1.48 0-2.772-0.805-3.464-2h6.928c-0.692 1.195-1.984 2-3.464 2z" />
</svg>
