<?xml version="1.0" encoding="utf-8"?>
<!-- Generated by IcoMoon.io -->
<!DOCTYPE svg PUBLIC "-//W3C//DTD SVG 1.1//EN" "http://www.w3.org/Graphics/SVG/1.1/DTD/svg11.dtd">
<svg version="1.1" xmlns="http://www.w3.org/2000/svg" xmlns:xlink="http://www.w3.org/1999/xlink" width="32" height="32" viewBox="0 0 32 32">
	<path d="M24 22v-4l8 6-8 6v-4h-5.75c-0.789 0-1.564-0.399-2.023-1.041l-9.257-12.96h-6.971v-4h7.75c0.789 0 1.564 0.399 2.023 1.041l3.227 4.518 3.227-4.519c0.459-0.642 1.234-1.040 2.023-1.040h5.75v-4l8 6-8 6v-4h-4.971l-3.571 5 3.571 5h4.971zM6.971 22l2.108-2.952 2.458 3.441-1.764 2.47c-0.459 0.642-1.234 1.041-2.023 1.041h-7.75v-4h6.971z" />
</svg>
