<?xml version="1.0" encoding="utf-8"?>
<!-- Generated by IcoMoon.io -->
<!DOCTYPE svg PUBLIC "-//W3C//DTD SVG 1.1//EN" "http://www.w3.org/Graphics/SVG/1.1/DTD/svg11.dtd">
<svg version="1.1" xmlns="http://www.w3.org/2000/svg" xmlns:xlink="http://www.w3.org/1999/xlink" width="32" height="32" viewBox="0 0 32 32">
	<path d="M32 8l-8-8v6c-4.087 0-7.211 0.975-9.552 2.982-0.164 0.141-0.321 0.284-0.474 0.43 0.86 1.193 1.522 2.422 2.118 3.597 1.51-1.825 3.689-3.008 7.907-3.008v12c-6.764 0-8.285-3.043-10.211-6.894-1.072-2.144-2.181-4.361-4.237-6.124-2.341-2.006-5.465-2.982-9.552-2.982v4c6.764 0 8.285 3.043 10.211 6.894 1.072 2.144 2.181 4.361 4.237 6.124 2.341 2.006 5.465 2.982 9.552 2.982v6l8-8-8-8 8-8zM0 22v4c4.087 0 7.211-0.975 9.552-2.982 0.164-0.141 0.321-0.284 0.474-0.43-0.86-1.193-1.522-2.422-2.118-3.597-1.51 1.825-3.689 3.009-7.907 3.009z" />
</svg>
