<?xml version="1.0" encoding="utf-8"?>
<!-- Generated by IcoMoon.io -->
<!DOCTYPE svg PUBLIC "-//W3C//DTD SVG 1.1//EN" "http://www.w3.org/Graphics/SVG/1.1/DTD/svg11.dtd">
<svg version="1.1" xmlns="http://www.w3.org/2000/svg" xmlns:xlink="http://www.w3.org/1999/xlink" width="32" height="32" viewBox="0 0 32 32">
	<path d="M14 24.828l-6.414-7.414 1.828-1.828 4.586 3.586 8.586-7.586 1.829 1.828zM25.993 4c0.002 0.002 0.005 0.005 0.007 0.007v23.986c-0.002 0.002-0.005 0.005-0.007 0.007h-19.986c-0.003-0.002-0.005-0.005-0.007-0.007v-23.986c0.002-0.003 0.005-0.005 0.007-0.007h-4.007v24c0 2.2 1.8 4 4 4h20c2.2 0 4-1.8 4-4v-24h-4.007zM20 4v-2c0-1.105-0.895-2-2-2h-4c-1.105 0-2 0.895-2 2v2h-4v4h16v-4h-4zM18 4h-4v-2h4v2z" />
</svg>
