<?xml version="1.0" encoding="utf-8"?>
<!-- Generated by IcoMoon.io -->
<!DOCTYPE svg PUBLIC "-//W3C//DTD SVG 1.1//EN" "http://www.w3.org/Graphics/SVG/1.1/DTD/svg11.dtd">
<svg version="1.1" xmlns="http://www.w3.org/2000/svg" xmlns:xlink="http://www.w3.org/1999/xlink" width="32" height="32" viewBox="0 0 32 32">
	<path d="M16 0c-8.837 0-16 6.716-16 15 0 0.159 0.003 0.317 0.008 0.475 6.74 1.63 7.767 1.191 7.992 7.968 1.281 0.31 6.616 0.795 8 0.795 1.384 0 6.719-0.485 8-0.795 0.225-6.777 1.252-6.338 7.992-7.968 0.005-0.158 0.008-0.316 0.008-0.475 0-8.284-7.163-15-16-15zM13 11.333c0 1.467-1.2 2.667-2.667 2.667h-1.667c-1.467 0-2.667-1.2-2.667-2.667v-0.667c0-1.467 1.2-2.667 2.667-2.667h1.667c1.467 0 2.667 1.2 2.667 2.667v0.667zM17.25 20.5h-2.5c-0.688 0-1.114-0.546-0.947-1.213l0.644-2.575c0.167-0.667 0.866-1.213 1.553-1.213s1.386 0.546 1.553 1.213l0.644 2.575c0.167 0.667-0.259 1.213-0.947 1.213zM26 11.333c0 1.467-1.2 2.667-2.667 2.667h-1.667c-1.467 0-2.667-1.2-2.667-2.667v-0.667c0-1.467 1.2-2.667 2.667-2.667h1.667c1.467 0 2.667 1.2 2.667 2.667v0.667zM14 26.689v3.311h4v-3.311c-0.868 0.065-1.6 0.106-2 0.106-0.4 0-1.132-0.041-2-0.106zM20 30l4-0.809v-3.191c-0.645 0.156-2.32 0.357-4 0.517v3.483zM8 29.191l4 0.809v-3.483c-1.68-0.161-3.355-0.361-4-0.517v3.191z" />
</svg>
