<?xml version="1.0" encoding="utf-8"?>
<!-- Generated by IcoMoon.io -->
<!DOCTYPE svg PUBLIC "-//W3C//DTD SVG 1.1//EN" "http://www.w3.org/Graphics/SVG/1.1/DTD/svg11.dtd">
<svg version="1.1" xmlns="http://www.w3.org/2000/svg" xmlns:xlink="http://www.w3.org/1999/xlink" width="32" height="32" viewBox="0 0 32 32">
	<path d="M16 0c-7.732 0-14 5.82-14 13 0 4.418 2.373 8.945 6 11.294v6.234c2.353 0.936 5.086 1.472 8 1.472 2.914 0 5.647-0.536 8-1.472v-6.234c3.627-2.349 6-6.876 6-11.294 0-7.18-6.268-13-14-13zM22.913 22.615l-0.913 0.591v5.908c-0.647 0.201-1.316 0.368-2 0.502v-5.617h-2v5.905c-0.66 0.062-1.328 0.095-2 0.095s-1.34-0.032-2-0.095v-5.905h-2v5.617c-0.684-0.134-1.353-0.301-2-0.502v-5.908l-0.913-0.591c-1.488-0.964-2.76-2.391-3.68-4.128-0.921-1.74-1.408-3.637-1.408-5.487 0-2.91 1.229-5.654 3.461-7.727 1.102-1.023 2.387-1.827 3.82-2.39 1.492-0.586 3.079-0.883 4.718-0.883s3.226 0.297 4.718 0.883c1.433 0.563 2.719 1.367 3.82 2.39 2.232 2.073 3.461 4.817 3.461 7.727 0 1.85-0.487 3.747-1.408 5.487-0.919 1.737-2.192 3.164-3.68 4.128zM8.742 8.588c-1.96 1.019-2.242 2.786-1.478 4.257s2.598 2.211 4.558 1.192c1.96-1.019 2.71-2.704 1.978-4.632-0.588-1.549-3.098-1.836-5.058-0.817zM23.319 8.588c-1.96-1.019-4.47-0.732-5.058 0.817-0.732 1.927 0.018 3.613 1.978 4.632 1.96 1.019 3.794 0.278 4.558-1.192s0.482-3.238-1.478-4.257z" />
</svg>
