<?xml version="1.0" encoding="utf-8"?>
<!-- Generated by IcoMoon.io -->
<!DOCTYPE svg PUBLIC "-//W3C//DTD SVG 1.1//EN" "http://www.w3.org/Graphics/SVG/1.1/DTD/svg11.dtd">
<svg version="1.1" xmlns="http://www.w3.org/2000/svg" xmlns:xlink="http://www.w3.org/1999/xlink" width="32" height="32" viewBox="0 0 32 32">
	<path d="M16 0c-8.837 0-16 7.163-16 16s7.163 16 16 16 16-7.163 16-16-7.163-16-16-16zM16 27c-0.858 0-1.701-0.098-2.516-0.288l-1.929-3.741 2.125-2.925h4.64l2.125 2.925-1.929 3.741c-0.815 0.19-1.658 0.288-2.516 0.288zM11.737 5.854l3.763 1.895v3.615l-3.756 2.729-3.437-1.117-0.638-4.159c0.176-0.204 0.361-0.402 0.553-0.595 1.025-1.025 2.218-1.823 3.515-2.368zM23.778 8.222c0.192 0.193 0.377 0.391 0.553 0.595l-0.638 4.159-3.437 1.117-3.756-2.729v-3.615l3.763-1.895c1.298 0.545 2.49 1.343 3.515 2.368zM7.997 13.926l3.439 1.117 1.434 4.414-2.124 2.924-4.156-0.679c-0.88-1.447-1.412-3.078-1.552-4.789l2.959-2.987zM25.41 21.703l-4.156 0.679-2.124-2.924 1.434-4.414 3.439-1.117 2.959 2.987c-0.14 1.712-0.672 3.343-1.552 4.789zM26.607 5.393c0.855 0.855 1.595 1.797 2.215 2.815l-3.656 0.047c-1.241-1.467-2.827-2.632-4.634-3.37l-1.084-3.488c0.814 0.192 1.613 0.452 2.39 0.78 1.786 0.756 3.39 1.837 4.768 3.215zM5.393 5.393c1.378-1.378 2.982-2.46 4.768-3.215 0.778-0.329 1.576-0.589 2.39-0.78l-1.084 3.488c-1.807 0.737-3.393 1.902-4.634 3.37l-3.656-0.047c0.62-1.018 1.36-1.96 2.215-2.815zM1 16c0-0.413 0.017-0.823 0.050-1.231l2.982 2.108c0.144 1.99 0.773 3.845 1.77 5.449l-1.173 3.457c-1.019-1.181-1.841-2.504-2.45-3.945-0.782-1.849-1.178-3.813-1.178-5.838zM10.207 29.84l2.928-2.185c0.918 0.225 1.878 0.345 2.866 0.345s1.947-0.12 2.866-0.345l2.928 2.185c-1.836 0.769-3.784 1.16-5.793 1.16s-3.958-0.391-5.793-1.16zM29.822 21.838c-0.61 1.441-1.432 2.764-2.451 3.945l-1.173-3.457c0.997-1.603 1.626-3.459 1.77-5.449l2.982-2.108c0.033 0.408 0.050 0.818 0.050 1.231 0 2.025-0.396 3.99-1.178 5.838z" />
</svg>
