<?xml version="1.0" encoding="utf-8"?>
<!-- Generated by IcoMoon.io -->
<!DOCTYPE svg PUBLIC "-//W3C//DTD SVG 1.1//EN" "http://www.w3.org/Graphics/SVG/1.1/DTD/svg11.dtd">
<svg version="1.1" xmlns="http://www.w3.org/2000/svg" xmlns:xlink="http://www.w3.org/1999/xlink" width="32" height="32" viewBox="0 0 32 32">
	<path d="M8 10h2v8h-2zM22 10h2v6h-2zM23.75 2h-15.499c-4.92 2.729-8.25 7.975-8.25 14s3.33 11.271 8.25 14h15.499c4.92-2.729 8.25-7.975 8.25-14s-3.331-11.271-8.25-14zM23.214 28h-14.427c-1.96-1.181-3.61-2.83-4.793-4.795-1.304-2.168-1.994-4.659-1.994-7.205s0.689-5.037 1.994-7.205c1.182-1.965 2.833-3.614 4.793-4.795h14.427c1.96 1.181 3.61 2.83 4.793 4.795 1.304 2.168 1.994 4.659 1.994 7.205 0 2.546-0.689 5.037-1.994 7.205-1.182 1.965-2.833 3.614-4.793 4.795zM16 20c-2.209 0-4 0.895-4 2v4h8v-4c0-1.105-1.791-2-4-2z" />
</svg>
