<?xml version="1.0" encoding="utf-8"?>
<!-- Generated by IcoMoon.io -->
<!DOCTYPE svg PUBLIC "-//W3C//DTD SVG 1.1//EN" "http://www.w3.org/Graphics/SVG/1.1/DTD/svg11.dtd">
<svg version="1.1" xmlns="http://www.w3.org/2000/svg" xmlns:xlink="http://www.w3.org/1999/xlink" width="32" height="32" viewBox="0 0 32 32">
	<path d="M32 12h-12l4.485-4.485c-2.267-2.266-5.28-3.515-8.485-3.515-3.205 0-6.219 1.248-8.485 3.515-2.266 2.267-3.515 5.28-3.515 8.485 0 3.205 1.248 6.219 3.515 8.485 2.267 2.266 5.28 3.515 8.485 3.515 3.205 0 6.219-1.248 8.485-3.515 0.189-0.189 0.371-0.384 0.546-0.583l3.010 2.634c-2.933 3.349-7.239 5.464-12.041 5.464-8.837 0-16-7.163-16-16 0-8.837 7.163-16 16-16 4.418 0 8.418 1.791 11.313 4.687l4.687-4.687v12z" />
</svg>
