<?xml version="1.0" encoding="utf-8"?>
<!-- Generated by IcoMoon.io -->
<!DOCTYPE svg PUBLIC "-//W3C//DTD SVG 1.1//EN" "http://www.w3.org/Graphics/SVG/1.1/DTD/svg11.dtd">
<svg version="1.1" xmlns="http://www.w3.org/2000/svg" xmlns:xlink="http://www.w3.org/1999/xlink" width="32" height="32" viewBox="0 0 32 32">
	<path d="M16 0c6.264 0 11.686 3.6 14.313 8.844l-7.157 3.578c-1.313-2.622-4.025-4.422-7.157-4.422s-5.843 1.8-7.157 4.422l-7.157-3.578c2.627-5.243 8.049-8.844 14.313-8.844zM23.921 22.406c-0.701 0.866-1.543 1.616-2.494 2.216-1.624 1.024-3.5 1.565-5.427 1.565-1.927 0-3.803-0.541-5.427-1.565-0.952-0.6-1.793-1.35-2.494-2.216l-3.299 1.65c1.038 1.444 2.349 2.681 3.867 3.638 2.198 1.386 4.741 2.118 7.354 2.118 2.613 0 5.156-0.733 7.354-2.118 1.518-0.957 2.829-2.194 3.867-3.638l-3.299-1.65zM23.157 19.578v0l7.157 3.578c-2.627 5.243-8.049 8.843-14.313 8.843-6.264 0-11.686-3.6-14.313-8.843l7.156-3.578c1.313 2.622 4.025 4.422 7.157 4.422s5.843-1.8 7.157-4.422z" />
</svg>
