<?xml version="1.0" encoding="utf-8"?>
<!-- Generated by IcoMoon.io -->
<!DOCTYPE svg PUBLIC "-//W3C//DTD SVG 1.1//EN" "http://www.w3.org/Graphics/SVG/1.1/DTD/svg11.dtd">
<svg version="1.1" xmlns="http://www.w3.org/2000/svg" xmlns:xlink="http://www.w3.org/1999/xlink" width="32" height="32" viewBox="0 0 32 32">
	<path d="M31.163 27.471c0 0 0 0 0 0l-0.219-0.222h-0.071c-0.264-0.183-0.568-0.351-0.905-0.5h0.482l-0.494-0.5h-1.555c-0.735-0.161-1.547-0.25-2.401-0.25-0.854 0-1.666 0.089-2.401 0.25 0-0 0-0 0.001-0h-5.303l0.272 0.5h3.463c0 0 0-0 0-0-0.338 0.149-0.642 0.317-0.906 0.5 0 0 0-0 0-0h-2.286l0.272 0.5h1.431c0-0 0-0 0-0-0.147 0.16-0.267 0.327-0.356 0.5 0-0 0-0 0-0h-0.804l0.272 0.5h0.363c0-0 0-0.001 0-0.001-0.014 0.083-0.021 0.166-0.021 0.251 0 0.084 0.007 0.168 0.021 0.25h-0.091l0.188 0.346 0-0c0.553 1.371 2.976 2.404 5.881 2.404 3.314 0 6-1.343 6-3 0-0.558-0.305-1.081-0.837-1.529zM20.672 27.619c0 0-0 0-0 0 0-0 0-0 0-0zM20.086 28.491c-0.001 0.004-0.003 0.008-0.004 0.012 0.001-0.004 0.003-0.008 0.004-0.012zM20.137 28.362c-0.002 0.006-0.005 0.011-0.007 0.017 0.002-0.006 0.005-0.011 0.007-0.017zM20.085 29.505c0.001 0.003 0.002 0.006 0.003 0.009-0.001-0.003-0.002-0.006-0.003-0.009zM20.038 29.337c0 0 0 0.001 0 0.001-0-0-0-0.001-0-0.001zM20.059 29.421c0.001 0.002 0.001 0.005 0.002 0.007-0.001-0.002-0.001-0.005-0.002-0.007zM11.201 26.25c-0.98-0.161-2.063-0.25-3.201-0.25-1.138 0-2.221 0.089-3.201 0.25h-2.492l-0.527 0.5h0.93c0.001-0 0.002-0.001 0.003-0.001-0.452 0.149-0.858 0.317-1.211 0.501h-0.25l-0.527 0.5h0.001c-0.466 0.381-0.726 0.804-0.726 1.25 0 1.657 3.582 3 8 3 4.068 0 7.426-1.139 7.934-2.612l0.001 0 0.066-0.138h-0.029c0.018-0.082 0.028-0.166 0.028-0.25s-0.010-0.168-0.028-0.25c0 0 0 0 0 0h0.268l0.239-0.5h-0.732c-0.119-0.173-0.278-0.34-0.474-0.5h1.445l0.239-0.5h-2.46c0 0 0 0 0 0-0.352-0.183-0.757-0.351-1.207-0.5h3.907l0.239-0.5h-6.236c-0 0 0 0 0 0zM15.828 28.379c-0.003-0.006-0.007-0.011-0.010-0.017 0.003 0.006 0.007 0.011 0.010 0.017zM15.89 28.503c-0.002-0.004-0.004-0.008-0.005-0.012 0.002 0.004 0.004 0.008 0.005 0.012zM14.609 27.309v0 0zM27.009 6.25h-3.602l-0.528 0.5h3.891zM26.53 7.25h-4.179l-0.527 0.5h4.467zM27.966 4.25h-2.45l-0.527 0.5h2.738zM27.487 5.25h-3.026l-0.527 0.5h3.314zM28.445 3.25h-1.873l-0.528 0.5h2.161zM28.923 2.25h-1.297l-0.527 0.5h1.585zM29.88 0.25h-0.144l-0.527 0.5h0.432zM29.402 1.25h-0.721l-0.527 0.5h1.009zM25.573 9.25h-5.331l-0.527 0.5h5.62zM26.052 8.25h-4.755l-0.527 0.5h5.043zM24.616 11.25h-6.484l-0.527 0.5h6.772zM25.094 10.25h-5.908l-0.527 0.5h6.196zM29.461 25.75l-0.494-0.5h-11.052l0.239-0.5h10.318l-0.494-0.5h-9.584l0.239-0.5h8.85l-0.494-0.5h-8.117l0.239-0.5h7.383l-0.494-0.5h-6.649l0.239-0.5h5.916l-0.494-0.5h-5.182l0.239-0.5h4.448l-0.494-0.5h-3.715l0.239-0.5h2.981l-0.494-0.5h-2.247l0.239-0.5h1.514l-0.494-0.5h-0.78l0.239-0.5h0.046l-0.031-0.031 0.224-0.469h-0.688l-0.494-0.5h1.421l0.239-0.5h-2.155l-0.494-0.5h2.889l0.239-0.5h-3.622l-0.494-0.5h4.356l0.239-0.5h-5.090l-0.494-0.5h5.823l0.239-0.5h-6.557l-0.494-0.5h7.291l0.239-0.5h-7.061l-0.498 0.472-0.466-0.472h-5.441l0.272 0.5h5.605l-0.527 0.5h-4.806l0.272 0.5h4.006l-0.527 0.5h-3.206l0.272 0.5h2.406l-0.527 0.5h-1.606l0.272 0.5h0.806l-0.527 0.5h-0.007l0.002 0.004-0.523 0.496h0.793l0.272 0.5h-1.593l-0.527 0.5h2.393l0.272 0.5h-3.192l-0.527 0.5h3.992l0.272 0.5h-4.792l-0.527 0.5h5.592l0.272 0.5h-6.392l-0.527 0.5h7.191l0.272 0.5h-7.991l-0.527 0.5h8.791l0.272 0.5h-9.591l-0.527 0.5h10.391l0.272 0.5h-11.19l-0.527 0.5h11.99l0.272 0.5h-12.79l-0.527 0.5h13.59l0.272 0.5h-14.39l-0.527 0.5h14.842l0.163-0.34 0.185 0.34zM7.131 5.75h2.554l-0.494-0.5h-2.332zM6.042 3.75h1.666l-0.494-0.5h-1.444zM6.587 4.75h2.11l-0.494-0.5h-1.888zM5.498 2.75h1.221l-0.494-0.5h-0.999zM4.742 0.75l-0.494-0.5h-0.111l0.272 0.5zM8.221 7.75h3.442l-0.494-0.5h-3.22zM4.953 1.75h0.777l-0.494-0.5h-0.555zM7.676 6.75h2.998l-0.494-0.5h-2.776zM9.31 9.75h4.331l-0.494-0.5h-4.109zM8.765 8.75h3.886l-0.494-0.5h-3.664zM9.855 10.75h4.775l-0.494-0.5h-4.553zM10.399 11.75h5.219l-0.494-0.5h-4.997z" />
</svg>
