<?xml version="1.0" encoding="utf-8"?>
<!-- Generated by IcoMoon.io -->
<!DOCTYPE svg PUBLIC "-//W3C//DTD SVG 1.1//EN" "http://www.w3.org/Graphics/SVG/1.1/DTD/svg11.dtd">
<svg version="1.1" xmlns="http://www.w3.org/2000/svg" xmlns:xlink="http://www.w3.org/1999/xlink" width="32" height="32" viewBox="0 0 32 32">
	<path d="M27.5 8h-1.5v-1.5c0-1.378-1.122-2.5-2.5-2.5h-1.5v-1.5c0-1.379-1.121-2.5-2.5-2.5h-15c-1.378 0-2.5 1.121-2.5 2.5v19c0 1.379 1.122 2.5 2.5 2.5h1.5v1.5c0 1.379 1.122 2.5 2.5 2.5h1.5v1.5c0 1.378 1.121 2.5 2.5 2.5h15c1.378 0 2.5-1.122 2.5-2.5v-19c0-1.379-1.122-2.5-2.5-2.5zM4.5 22c-0.275 0-0.5-0.225-0.5-0.5v-19c0-0.275 0.225-0.5 0.5-0.5h15c0.275 0 0.5 0.225 0.5 0.5v1.5h-11.5c-1.378 0-2.5 1.122-2.5 2.5v15.5h-1.5zM8.5 26c-0.275 0-0.5-0.225-0.5-0.5v-19c0-0.275 0.225-0.5 0.5-0.5h15c0.275 0 0.5 0.225 0.5 0.5v1.5h-11.5c-1.379 0-2.5 1.121-2.5 2.5v15.5h-1.5zM28 29.5c0 0.275-0.225 0.5-0.5 0.5h-15c-0.275 0-0.5-0.225-0.5-0.5v-19c0-0.275 0.225-0.5 0.5-0.5h15c0.275 0 0.5 0.225 0.5 0.5v19z" />
</svg>
