<?xml version="1.0" encoding="utf-8"?>
<!-- Generated by IcoMoon.io -->
<!DOCTYPE svg PUBLIC "-//W3C//DTD SVG 1.1//EN" "http://www.w3.org/Graphics/SVG/1.1/DTD/svg11.dtd">
<svg version="1.1" xmlns="http://www.w3.org/2000/svg" xmlns:xlink="http://www.w3.org/1999/xlink" width="32" height="32" viewBox="0 0 32 32">
	<path d="M10 2v2.309l-5.238 0.736 0.34 2.421-5.102 1.463 6.615 23.070 20.377-5.843 1.117-0.157h3.891v-24h-22zM7.858 29.758l-5.616-19.586 3.115-0.893 2.745 19.533 5.994-0.842-6.238 1.789zM9.645 26.765l-2.836-20.177 3.191-0.448v19.86h5.086l-5.441 0.765zM30 24h-18v-20h18v20zM27.852 10.832c0.096 0.267 0.148 0.61 0.148 1.043 0 5-7 5-7 10 0-5-7-5-7-10 0-0.432 0.052-0.776 0.148-1.043 0.452-1.563 1.643-2.707 3.352-2.707 1.39 0 2.852 1.194 3.5 2.318 0.648-1.123 2.11-2.318 3.5-2.318 1.709 0 2.9 1.144 3.352 2.707z" />
</svg>
