<?xml version="1.0" encoding="utf-8"?>
<!-- Generated by IcoMoon.io -->
<!DOCTYPE svg PUBLIC "-//W3C//DTD SVG 1.1//EN" "http://www.w3.org/Graphics/SVG/1.1/DTD/svg11.dtd">
<svg version="1.1" xmlns="http://www.w3.org/2000/svg" xmlns:xlink="http://www.w3.org/1999/xlink" width="32" height="32" viewBox="0 0 32 32">
	<path d="M10 2v2.309l-5.238 0.736 0.34 2.421-5.102 1.463 6.615 23.070 20.377-5.843 1.117-0.157h3.891v-24h-22zM7.858 29.758l-5.616-19.586 3.115-0.893 2.745 19.533 5.994-0.842-6.238 1.789zM9.645 26.765l-2.836-20.177 3.191-0.448v19.86h5.086l-5.441 0.765zM30 24h-18v-20h18v20zM17 22c-1.657 0-3-1.343-3-3s1.343-3 3-3c0.351 0 0.687 0.061 1 0.171v-8.171l10-2v11c0 1.657-1.343 3-3 3s-3-1.343-3-3c0-1.657 1.343-3 3-3 0.351 0 0.687 0.061 1 0.171v-3.771l-6 1.2v7.4c0 1.657-1.343 3-3 3z" />
</svg>
