<?xml version="1.0" encoding="utf-8"?>
<!-- Generated by IcoMoon.io -->
<!DOCTYPE svg PUBLIC "-//W3C//DTD SVG 1.1//EN" "http://www.w3.org/Graphics/SVG/1.1/DTD/svg11.dtd">
<svg version="1.1" xmlns="http://www.w3.org/2000/svg" xmlns:xlink="http://www.w3.org/1999/xlink" width="32" height="32" viewBox="0 0 32 32">
	<path d="M10 2v2.309l-5.238 0.736 0.34 2.421-5.102 1.463 6.615 23.070 20.377-5.843 1.117-0.157h3.891v-24h-22zM7.858 29.758l-5.616-19.586 3.115-0.893 2.745 19.533 5.994-0.842-6.238 1.789zM9.645 26.765l-2.836-20.177 3.191-0.448v19.86h5.086l-5.441 0.765zM30 24h-18v-20h18v20zM14 15c0-1.657 1.343-3 3-3s3 1.343 3 3c0 1.657-1.343 3-3 3-1.657 0-3-1.343-3-3zM22 15c0-1.657 1.343-3 3-3s3 1.343 3 3c0 1.657-1.343 3-3 3-1.657 0-3-1.343-3-3zM24 9.688c0 0.931-0.424 1.762-1.090 2.313-0.91 0.969-0.91 2-0.91 3v2c0 2 0 4 2 4v1h-6v-1c2 0 2-2 2-4v-2c0-1 0-2.031-0.91-3-0.666-0.55-1.090-1.381-1.090-2.313 0-1.657 1.343-3 3-3 1.657 0 3 1.343 3 3z" />
</svg>
