<?xml version="1.0" encoding="utf-8"?>
<!-- Generated by IcoMoon.io -->
<!DOCTYPE svg PUBLIC "-//W3C//DTD SVG 1.1//EN" "http://www.w3.org/Graphics/SVG/1.1/DTD/svg11.dtd">
<svg version="1.1" xmlns="http://www.w3.org/2000/svg" xmlns:xlink="http://www.w3.org/1999/xlink" width="32" height="32" viewBox="0 0 32 32">
	<path d="M32 10v-6h-22l-2 2v4l-4 4v6l-4 4v6h22l2-2v-4h-22l0.25-0.25h22.179l0.474-0.5h-22.153l0.5-0.5h22.128l0.474-0.5h-22.102l0.5-0.5h22.077l0.474-0.5h-22.051l0.5-0.5h22.026l0.474-0.5h-22l0.25-0.25h22v-6h-22l0.25-0.25h22.048l0.493-0.5h-22.041l0.5-0.5h22.034l0.493-0.5h-22.027l0.5-0.5h22.020l0.493-0.5h-22.014l0.5-0.5h22.007l0.493-0.5h-22l0.25-0.25z" />
</svg>
