<?xml version="1.0" encoding="utf-8"?>
<!-- Generated by IcoMoon.io -->
<!DOCTYPE svg PUBLIC "-//W3C//DTD SVG 1.1//EN" "http://www.w3.org/Graphics/SVG/1.1/DTD/svg11.dtd">
<svg version="1.1" xmlns="http://www.w3.org/2000/svg" xmlns:xlink="http://www.w3.org/1999/xlink" width="32" height="32" viewBox="0 0 32 32">
	<path d="M16 2.5l2.534-2.5 1.637 3.161 3.183-1.595 0.58 3.513 3.52-0.533-0.534 3.52 3.513 0.58-1.595 3.183 3.161 1.637-2.5 2.534 2.5 2.534-3.161 1.637 1.595 3.183-3.513 0.58 0.534 3.52-3.52-0.533-0.58 3.513-3.183-1.595-1.637 3.161-2.534-2.5-2.534 2.5-1.637-3.161-3.183 1.595-0.58-3.513-3.52 0.533 0.534-3.52-3.513-0.58 1.595-3.183-3.161-1.637 2.501-2.534-2.501-2.534 3.161-1.637-1.595-3.183 3.513-0.58-0.534-3.52 3.52 0.533 0.58-3.513 3.183 1.595 1.637-3.161z" />
</svg>
