<?xml version="1.0" encoding="utf-8"?>
<!-- Generated by IcoMoon.io -->
<!DOCTYPE svg PUBLIC "-//W3C//DTD SVG 1.1//EN" "http://www.w3.org/Graphics/SVG/1.1/DTD/svg11.dtd">
<svg version="1.1" xmlns="http://www.w3.org/2000/svg" xmlns:xlink="http://www.w3.org/1999/xlink" width="32" height="32" viewBox="0 0 32 32">
	<path d="M30.5 6c0.825 0 1.5-0.675 1.5-1.5v-3c0-0.825-0.675-1.5-1.5-1.5h-3c-0.825 0-1.5 0.675-1.5 1.5v0.5h-20v-0.5c0-0.825-0.675-1.5-1.5-1.5h-3c-0.825 0-1.5 0.675-1.5 1.5v3c0 0.825 0.675 1.5 1.5 1.5h0.5v20h-0.5c-0.825 0-1.5 0.675-1.5 1.5v3c0 0.825 0.675 1.5 1.5 1.5h3c0.825 0 1.5-0.675 1.5-1.5v-0.5h20v0.5c0 0.825 0.675 1.5 1.5 1.5h3c0.825 0 1.5-0.675 1.5-1.5v-3c0-0.825-0.675-1.5-1.5-1.5h-0.5v-20h0.5zM28 2h2v2h-2v-2zM2 2h2v2h-2v-2zM4 30h-2v-2h2v2zM30 30h-2v-2h2v2zM28 26h-0.5c-0.825 0-1.5 0.675-1.5 1.5v0.5h-20v-0.5c0-0.825-0.675-1.5-1.5-1.5h-0.5v-20h0.5c0.825 0 1.5-0.675 1.5-1.5v-0.5h20v0.5c0 0.825 0.675 1.5 1.5 1.5h0.5v20zM8 8h4v16h-4zM14 16h4v8h-4zM20 12h4v12h-4z" />
</svg>
