<?xml version="1.0" encoding="utf-8"?>
<!-- Generated by IcoMoon.io -->
<!DOCTYPE svg PUBLIC "-//W3C//DTD SVG 1.1//EN" "http://www.w3.org/Graphics/SVG/1.1/DTD/svg11.dtd">
<svg version="1.1" xmlns="http://www.w3.org/2000/svg" xmlns:xlink="http://www.w3.org/1999/xlink" width="32" height="32" viewBox="0 0 32 32">
	<path d="M25.063 7.307c3.846 2.774 4.224 11.475 4.981 14.123l-7.16 2.837c-0.729-4.792-6.9-8.385-7.152-13.681-0.252-5.296 5.485-6.053 9.331-3.279zM29.413 31.644c-5.716 2.078-6.053-5.611-6.053-5.611l7.44-3.026c0 0 3.468 6.872-1.387 8.637zM0.067 5.97c0.758-4.681 5.35-8.203 8.916-4.28 3.566 3.923 1.744 10.828 4.617 14.731l-7.069 3.057c-1.338-2.407-7.222-8.827-6.464-13.508zM14.199 26.255c-4.681 2.184-7.088-5.127-7.088-5.127l7.401-3.121c0 0 5.199 5.676-0.312 8.248z" />
</svg>
