<?xml version="1.0" encoding="utf-8"?>
<!-- Generated by IcoMoon.io -->
<!DOCTYPE svg PUBLIC "-//W3C//DTD SVG 1.1//EN" "http://www.w3.org/Graphics/SVG/1.1/DTD/svg11.dtd">
<svg version="1.1" xmlns="http://www.w3.org/2000/svg" xmlns:xlink="http://www.w3.org/1999/xlink" width="32" height="32" viewBox="0 0 32 32">
	<path d="M30 16v2h-5.685c1.064 1.43 1.685 3.15 1.685 5 0 4.971-4.477 9-10 9-5.147 0-9.385-3.5-9.938-8h4.062c0.219 0.885 0.725 1.711 1.481 2.391 1.153 1.038 2.714 1.609 4.395 1.609 1.681 0 3.242-0.572 4.395-1.609 1.035-0.931 1.605-2.136 1.605-3.391 0-1.255-0.57-2.459-1.605-3.391-1.153-1.038-2.714-1.609-4.395-1.609h-14v-2h28zM16 14h-8.315c-1.064-1.43-1.685-3.15-1.685-5 0-4.971 4.477-9 10-9 5.147 0 9.385 3.5 9.938 8h-4.062c-0.219-0.885-0.725-1.711-1.481-2.391-1.153-1.038-2.714-1.609-4.395-1.609-1.681 0-3.242 0.572-4.395 1.609-1.035 0.931-1.605 2.136-1.605 3.391 0 1.255 0.57 2.459 1.605 3.391 1.153 1.038 2.714 1.609 4.395 1.609z" />
</svg>
