<?xml version="1.0" encoding="utf-8"?>
<!-- Generated by IcoMoon.io -->
<!DOCTYPE svg PUBLIC "-//W3C//DTD SVG 1.1//EN" "http://www.w3.org/Graphics/SVG/1.1/DTD/svg11.dtd">
<svg version="1.1" xmlns="http://www.w3.org/2000/svg" xmlns:xlink="http://www.w3.org/1999/xlink" width="32" height="32" viewBox="0 0 32 32">
	<path d="M31.896 10.825c-1.971-0.23-4.862-0.361-6.012-0.361-1.15 0-4.895 0.131-5.979 0.657-1.076 0.522-2.153 1.27-3.905 1.281-1.751-0.011-2.829-0.759-3.905-1.281-1.084-0.525-4.829-0.657-5.979-0.657-1.15 0-4.041 0.131-6.012 0.361 0 0-0.235 1.816 0 2.398 1.013 0.599 1.069 3.428 1.949 5.865 0.88 2.437 4.992 2.437 5.906 2.437 0.914 0 3.174 0.151 4.277-0.61 1.102-0.761 2.060-4.472 2.323-5.556 0.223-0.922 1.136-0.965 1.404-0.957 0 0.003 0 0.004 0 0.004s0.014-0.001 0.037-0.003c0.024 0.001 0.037 0.003 0.037 0.003s0-0.002 0-0.004c0.268-0.008 1.18 0.035 1.404 0.957 0.263 1.084 1.221 4.796 2.323 5.556 1.102 0.761 3.363 0.61 4.277 0.61 0.914 0 5.026 0 5.906-2.437 0.88-2.437 0.935-5.266 1.949-5.865 0.234-0.582-0-2.398-0-2.398z" />
</svg>
