<?xml version="1.0" encoding="utf-8"?>
<!-- Generated by IcoMoon.io -->
<!DOCTYPE svg PUBLIC "-//W3C//DTD SVG 1.1//EN" "http://www.w3.org/Graphics/SVG/1.1/DTD/svg11.dtd">
<svg version="1.1" xmlns="http://www.w3.org/2000/svg" xmlns:xlink="http://www.w3.org/1999/xlink" width="32" height="32" viewBox="0 0 32 32">
	<path d="M14 2c0-1.105 0.895-2 2-2 1.105 0 2 0.895 2 2 0 1.105-0.895 2-2 2-1.105 0-2-0.895-2-2zM14 30c0-1.105 0.895-2 2-2 1.105 0 2 0.895 2 2 0 1.105-0.895 2-2 2-1.105 0-2-0.895-2-2zM28 16c0-1.105 0.895-2 2-2s2 0.895 2 2c0 1.105-0.895 2-2 2-1.105 0-2-0.895-2-2zM0 16c0-1.105 0.895-2 2-2s2 0.895 2 2c0 1.105-0.895 2-2 2-1.105 0-2-0.895-2-2zM24 6c0-1.105 0.895-2 2-2s2 0.895 2 2c0 1.105-0.895 2-2 2-1.105 0-2-0.895-2-2zM4 26c0-1.105 0.895-2 2-2s2 0.895 2 2c0 1.105-0.895 2-2 2-1.105 0-2-0.895-2-2zM24 26c0-1.105 0.895-2 2-2s2 0.895 2 2c0 1.105-0.895 2-2 2-1.105 0-2-0.895-2-2zM4 6c0-1.105 0.895-2 2-2s2 0.895 2 2c0 1.105-0.895 2-2 2-1.105 0-2-0.895-2-2zM16 12c-2.206 0-4 1.794-4 4 0 2.206 1.794 4 4 4 2.206 0 4-1.794 4-4 0-2.206-1.794-4-4-4zM16 8v0c4.418 0 8 3.582 8 8s-3.582 8-8 8c-4.418 0-8-3.582-8-8 0-4.418 3.582-8 8-8z" />
</svg>
