<?xml version="1.0" encoding="utf-8"?>
<!-- Generated by IcoMoon.io -->
<!DOCTYPE svg PUBLIC "-//W3C//DTD SVG 1.1//EN" "http://www.w3.org/Graphics/SVG/1.1/DTD/svg11.dtd">
<svg version="1.1" xmlns="http://www.w3.org/2000/svg" xmlns:xlink="http://www.w3.org/1999/xlink" width="32" height="32" viewBox="0 0 32 32">
	<path d="M28.748 16l2.85-3.56-4.113-1.971 1.023-4.444-4.561 0.009-1.006-4.448-4.105 1.987-2.837-3.571-2.837 3.571-4.105-1.987-1.006 4.448-4.561-0.009 1.023 4.444-4.113 1.971 2.85 3.56-2.85 3.56 4.113 1.971-1.023 4.445 4.561-0.009 1.006 4.448 4.105-1.987 2.837 3.571 2.837-3.571 4.105 1.987 1.006-4.448 4.561 0.009-1.023-4.445 4.113-1.971-2.851-3.56zM16 26.281c-5.485 0-9.932-4.603-9.932-10.281s4.447-10.281 9.932-10.281c5.485 0 9.932 4.603 9.932 10.281 0 5.678-4.447 10.281-9.932 10.281zM8 16c0-4.418 3.582-8 8-8s8 3.582 8 8c0 4.418-3.582 8-8 8-4.418 0-8-3.582-8-8z" />
</svg>
