<?xml version="1.0" encoding="utf-8"?>
<!-- Generated by IcoMoon.io -->
<!DOCTYPE svg PUBLIC "-//W3C//DTD SVG 1.1//EN" "http://www.w3.org/Graphics/SVG/1.1/DTD/svg11.dtd">
<svg version="1.1" xmlns="http://www.w3.org/2000/svg" xmlns:xlink="http://www.w3.org/1999/xlink" width="32" height="32" viewBox="0 0 32 32">
	<path d="M6.063 26l1.8-6h8.274l1.8 6h3.551l-6-20h-6.976l-6 20h3.551zM10.863 10h2.274l1.8 6h-5.874l1.8-6zM26.375 4c1.994 0 3.625 1.35 3.625 3s-1.631 3-3.625 3h-0.75c-1.57 0-2.915-0.838-3.416-2h4.166c0.915 0 1.625-0.538 1.625-1s-0.71-1-1.625-1h-0.75c-1.994 0-3.625-1.35-3.625-3s1.631-3 3.625-3h0.75c1.57 0 2.915 0.838 3.416 2h-4.166c-0.915 0-1.625 0.538-1.625 1s0.71 1 1.625 1h0.75zM22 26l5-8 5 8z" />
</svg>
