<?xml version="1.0" encoding="utf-8"?>
<!-- Generated by IcoMoon.io -->
<!DOCTYPE svg PUBLIC "-//W3C//DTD SVG 1.1//EN" "http://www.w3.org/Graphics/SVG/1.1/DTD/svg11.dtd">
<svg version="1.1" xmlns="http://www.w3.org/2000/svg" xmlns:xlink="http://www.w3.org/1999/xlink" width="32" height="32" viewBox="0 0 32 32">
	<path d="M31.27 15.232l-7.473-7.465c-0.974-0.972-2.896-1.768-4.273-1.768h-17.021c-1.377 0-2.503 1.125-2.503 2.5v17c0 1.375 1.126 2.5 2.503 2.5h17.021c1.377 0 3.299-0.796 4.273-1.768l7.474-7.465c0.974-0.972 0.974-2.563 0-3.535zM23 20c-1.657 0-3-1.343-3-3s1.343-3 3-3 3 1.343 3 3-1.343 3-3 3z" />
</svg>
