<?xml version="1.0" encoding="utf-8"?>
<!-- Generated by IcoMoon.io -->
<!DOCTYPE svg PUBLIC "-//W3C//DTD SVG 1.1//EN" "http://www.w3.org/Graphics/SVG/1.1/DTD/svg11.dtd">
<svg version="1.1" xmlns="http://www.w3.org/2000/svg" xmlns:xlink="http://www.w3.org/1999/xlink" width="32" height="32" viewBox="0 0 32 32">
	<path d="M19.524 8h-17.021c-0.273 0-0.503 0.229-0.503 0.5v17c0 0.271 0.23 0.5 0.503 0.5h17.021c0.845 0 2.262-0.586 2.86-1.183l7.473-7.464c0.125-0.125 0.143-0.274 0.143-0.353s-0.019-0.228-0.143-0.353l-7.473-7.464c-0.598-0.597-2.014-1.183-2.86-1.183zM19.524 6v0c1.377 0 3.299 0.795 4.273 1.768l7.474 7.465c0.973 0.972 0.973 2.563 0 3.535l-7.474 7.465c-0.974 0.972-2.896 1.768-4.273 1.768h-17.021c-1.377 0-2.503-1.125-2.503-2.5v-17c0-1.375 1.126-2.5 2.503-2.5h17.021zM18 17c0-1.657 1.343-3 3-3s3 1.343 3 3c0 1.657-1.343 3-3 3-1.657 0-3-1.343-3-3z" />
</svg>
