<?xml version="1.0" encoding="utf-8"?>
<!-- Generated by IcoMoon.io -->
<!DOCTYPE svg PUBLIC "-//W3C//DTD SVG 1.1//EN" "http://www.w3.org/Graphics/SVG/1.1/DTD/svg11.dtd">
<svg version="1.1" xmlns="http://www.w3.org/2000/svg" xmlns:xlink="http://www.w3.org/1999/xlink" width="32" height="32" viewBox="0 0 32 32">
	<path d="M12 16h2v4h-2zM16 22h2v4h-2zM25.028 8.939l-7.222-7.879c-0.535-0.583-1.591-1.061-2.347-1.061h-0.917c-0.756 0-1.813 0.477-2.347 1.061l-7.222 7.879c-0.535 0.583-0.972 1.736-0.972 2.561v19c0 0.825 0.619 1.5 1.375 1.5h19.25c0.756 0 1.375-0.675 1.375-1.5v-19c0-0.825-0.438-1.977-0.972-2.561zM20 16h-4v4h4v8h-4v2h-2v-2h-4v-2h4v-4h-4v-8h4v-2h2v2h4v2zM16.563 5c0 0.863-0.7 1.563-1.563 1.563s-1.563-0.7-1.563-1.563 0.7-1.563 1.563-1.563 1.563 0.7 1.563 1.563z" />
</svg>
