<?xml version="1.0" encoding="utf-8"?>
<!-- Generated by IcoMoon.io -->
<!DOCTYPE svg PUBLIC "-//W3C//DTD SVG 1.1//EN" "http://www.w3.org/Graphics/SVG/1.1/DTD/svg11.dtd">
<svg version="1.1" xmlns="http://www.w3.org/2000/svg" xmlns:xlink="http://www.w3.org/1999/xlink" width="32" height="32" viewBox="0 0 32 32">
	<path d="M16 0c-8.837 0-16 7.163-16 16s7.163 16 16 16 16-7.163 16-16-7.163-16-16-16zM24.485 24.485c-1.788 1.788-4.041 2.941-6.485 3.349v-5.834h-4v5.834c-2.445-0.408-4.697-1.561-6.485-3.349-1.788-1.788-2.941-4.041-3.349-6.485h5.834v-4h-5.834c0.408-2.445 1.561-4.697 3.349-6.485 1.788-1.788 4.040-2.941 6.485-3.349v5.835h4v-5.835c2.445 0.408 4.697 1.561 6.485 3.349 1.788 1.788 2.941 4.040 3.349 6.485h-5.834v4h5.834c-0.408 2.445-1.561 4.697-3.349 6.485z" />
</svg>
