<?xml version="1.0" encoding="utf-8"?>
<!-- Generated by IcoMoon.io -->
<!DOCTYPE svg PUBLIC "-//W3C//DTD SVG 1.1//EN" "http://www.w3.org/Graphics/SVG/1.1/DTD/svg11.dtd">
<svg version="1.1" xmlns="http://www.w3.org/2000/svg" xmlns:xlink="http://www.w3.org/1999/xlink" width="32" height="32" viewBox="0 0 32 32">
	<path d="M16 0c-8.822 0-16 7.177-16 16 0 8.823 7.178 16 16 16 8.822 0 16-7.177 16-16 0-8.823-7.178-16-16-16zM16 28.444c-6.862 0-12.444-5.583-12.444-12.444 0-6.862 5.583-12.444 12.444-12.444s12.444 5.583 12.444 12.444c0 6.862-5.583 12.444-12.444 12.444zM16 7.111c-4.901 0-8.889 3.988-8.889 8.889 0 4.901 3.988 8.889 8.889 8.889s8.889-3.988 8.889-8.889c0-4.901-3.988-8.889-8.889-8.889zM16 21.333c-2.941 0-5.333-2.392-5.333-5.333 0-2.941 2.392-5.333 5.333-5.333 2.941 0 5.333 2.392 5.333 5.333 0 2.941-2.392 5.333-5.333 5.333zM14 16c0-1.105 0.895-2 2-2s2 0.895 2 2c0 1.105-0.895 2-2 2-1.105 0-2-0.895-2-2z" />
</svg>
