<?xml version="1.0" encoding="utf-8"?>
<!-- Generated by IcoMoon.io -->
<!DOCTYPE svg PUBLIC "-//W3C//DTD SVG 1.1//EN" "http://www.w3.org/Graphics/SVG/1.1/DTD/svg11.dtd">
<svg version="1.1" xmlns="http://www.w3.org/2000/svg" xmlns:xlink="http://www.w3.org/1999/xlink" width="32" height="32" viewBox="0 0 32 32">
	<path d="M18 21.616v-11.616c0-1.105-0.895-2-2-2-1.105 0-2 0.895-2 2v11.616c-0.679 0.571-1.111 1.426-1.111 2.383 0 1.718 1.393 3.111 3.111 3.111 1.718 0 3.111-1.393 3.111-3.111 0-0.957-0.432-1.812-1.111-2.383zM22 18.707v-12.307c0-3.52-2.7-6.4-6-6.4-3.3 0-6 2.88-6 6.4v12.307c-1.245 1.41-2.001 3.263-2.001 5.292 0 4.419 3.582 8.001 8.001 8.001 4.419 0 8.001-3.582 8.001-8.001 0-2.029-0.756-3.882-2.001-5.292zM16 30c-3.314 0-6.001-2.687-6.001-6.001 0-1.777 0.773-3.374 2.001-4.473v-13.127c0-1.192 0.434-2.312 1.222-3.152 0.754-0.805 1.741-1.248 2.778-1.248 1.037 0 2.024 0.443 2.778 1.248 0.788 0.84 1.221 1.96 1.221 3.152v13.126c1.228 1.099 2.001 2.695 2.001 4.473 0 3.314-2.687 6.001-6.001 6.001z" />
</svg>
