<?xml version="1.0" encoding="utf-8"?>
<!-- Generated by IcoMoon.io -->
<!DOCTYPE svg PUBLIC "-//W3C//DTD SVG 1.1//EN" "http://www.w3.org/Graphics/SVG/1.1/DTD/svg11.dtd">
<svg version="1.1" xmlns="http://www.w3.org/2000/svg" xmlns:xlink="http://www.w3.org/1999/xlink" width="32" height="32" viewBox="0 0 32 32">
	<path d="M3 14c-2.281 0-1-6 1-6-1 0 0-5 2-5 0-2 2-3 4-3 8.448 0 5.477 2.114 14 3v16c-7.529 2.258-15 7.919-15 13-1.656 0-6-2 0-12 0 0-5 0-6 0-3 0-2-6 0-6zM26 19v-16h-2v-1h4c1.1 0 2 1.35 2 3v12c0 1.65-0.9 3-2 3h-4v-1h2z" />
</svg>
