<?xml version="1.0" encoding="utf-8"?>
<!-- Generated by IcoMoon.io -->
<!DOCTYPE svg PUBLIC "-//W3C//DTD SVG 1.1//EN" "http://www.w3.org/Graphics/SVG/1.1/DTD/svg11.dtd">
<svg version="1.1" xmlns="http://www.w3.org/2000/svg" xmlns:xlink="http://www.w3.org/1999/xlink" width="32" height="32" viewBox="0 0 32 32">
	<path d="M1 13c0 1.029 0.561 1.936 1.416 2.476-0.264 0.447-0.416 0.967-0.416 1.524 0 1.657 1.343 3 3 3h5.869c-0.702 2.528-1.056 5.143-1.056 7.813 0 2.309 1.879 4.188 4.188 4.188 2.309 0 4.188-1.878 4.188-4.188 0-3.249 1.21-5.748 3.597-7.428 0.656-0.462 1.398-0.859 2.216-1.19v2.805h8v-20h-8v1.969c-1.872-0.123-2.78-0.591-3.662-1.047-0.878-0.453-1.785-0.922-3.338-0.922h-10c-1.657 0-3 1.343-3 3 0 0.391 0.075 0.763 0.211 1.106-1.274 0.346-2.211 1.511-2.211 2.894 0 0.556 0.152 1.077 0.416 1.524-0.855 0.54-1.416 1.448-1.416 2.476zM29 4c0.552 0 1 0.448 1 1s-0.448 1-1 1-1-0.448-1-1 0.448-1 1-1zM4.25 12h1.75v-2h-1c-0.551 0-1-0.449-1-1s0.449-1 1-1h2v-2c-0.551 0-1-0.449-1-1s0.449-1 1-1h10c1.067 0 1.634 0.293 2.42 0.699 0.992 0.512 2.2 1.135 4.58 1.273v10.694c-1.342 0.451-2.545 1.045-3.583 1.776-3.012 2.12-4.604 5.361-4.604 9.37 0 0.999-0.813 1.813-1.813 1.813s-1.813-0.813-1.813-1.813c0-2.677 0.388-5.294 1.155-7.813 0.194-0.719 0.377-1.432 0.501-2h-8.843c-0.551 0-1-0.449-1-1s0.449-1 1-1h1v-2h-1.75c-0.678 0-1.25-0.458-1.25-1s0.572-1 1.25-1z" />
</svg>
