<?xml version="1.0" encoding="utf-8"?>
<!-- Generated by IcoMoon.io -->
<!DOCTYPE svg PUBLIC "-//W3C//DTD SVG 1.1//EN" "http://www.w3.org/Graphics/SVG/1.1/DTD/svg11.dtd">
<svg version="1.1" xmlns="http://www.w3.org/2000/svg" xmlns:xlink="http://www.w3.org/1999/xlink" width="32" height="32" viewBox="0 0 32 32">
	<path d="M31 21c0-1.029-0.561-1.936-1.416-2.477 0.264-0.447 0.416-0.967 0.416-1.523 0-1.657-1.343-3-3-3h-5.869c0.702-2.528 1.056-5.143 1.056-7.813 0-2.309-1.878-4.188-4.188-4.188-2.309 0-4.188 1.878-4.188 4.188 0 3.249-1.21 5.748-3.597 7.428-0.656 0.462-1.398 0.859-2.216 1.19v-2.806h-8v20h8v-1.969c1.872 0.123 2.78 0.591 3.662 1.047 0.878 0.453 1.785 0.922 3.338 0.922h10c1.657 0 3-1.343 3-3 0-0.391-0.075-0.763-0.211-1.105 1.274-0.346 2.211-1.511 2.211-2.895 0-0.556-0.152-1.077-0.416-1.523 0.855-0.54 1.416-1.448 1.416-2.477zM3 30c-0.552 0-1-0.448-1-1s0.448-1 1-1 1 0.448 1 1-0.448 1-1 1zM27.75 22h-1.75v2h1c0.551 0 1 0.449 1 1s-0.449 1-1 1h-2v2c0.551 0 1 0.449 1 1s-0.449 1-1 1h-10c-1.066 0-1.634-0.293-2.42-0.699-0.992-0.512-2.2-1.135-4.58-1.273v-10.694c1.342-0.451 2.545-1.045 3.583-1.776 3.012-2.12 4.604-5.361 4.604-9.37 0-0.999 0.813-1.813 1.813-1.813s1.813 0.813 1.813 1.813c0 2.677-0.388 5.294-1.155 7.813-0.194 0.719-0.377 1.432-0.501 2h8.843c0.551 0 1 0.449 1 1s-0.449 1-1 1h-1v2h1.75c0.678 0 1.25 0.458 1.25 1s-0.572 1-1.25 1z" />
</svg>
