<?xml version="1.0" encoding="utf-8"?>
<!-- Generated by IcoMoon.io -->
<!DOCTYPE svg PUBLIC "-//W3C//DTD SVG 1.1//EN" "http://www.w3.org/Graphics/SVG/1.1/DTD/svg11.dtd">
<svg version="1.1" xmlns="http://www.w3.org/2000/svg" xmlns:xlink="http://www.w3.org/1999/xlink" width="32" height="32" viewBox="0 0 32 32">
	<path d="M30.637 19c0.834-0.734 1.363-1.808 1.363-3 0-2.2-1.8-4-4-4h-10c-2.2 0-4-1.8-4-4v-4c0-2.2-1.8-4-4-4s-4 1.8-4 4v4c0 2.2-1.35 4-3 4s-3 1.8-3 4v8c0 4.418 3.582 8 8 8h18c2.2 0 4-1.8 4-4 0-0.822-0.252-1.588-0.681-2.226 1.557-0.548 2.681-2.036 2.681-3.774 0-1.192-0.529-2.266-1.363-3zM15.363 25c-0.834 0.734-1.363 1.808-1.363 3 0 0.727 0.198 1.411 0.541 2h-6.541c-3.308 0-6-2.692-6-6v-8c0-1.221 0.657-2 1-2 1.422 0 2.777-0.72 3.719-1.975 0.826-1.102 1.281-2.531 1.281-4.025v-4c0-0.53 0.209-1.031 0.589-1.411 0.38-0.38 0.881-0.589 1.411-0.589s1.031 0.209 1.411 0.589c0.38 0.38 0.589 0.881 0.589 1.411v4c0 2.258 1.254 4.228 3.102 5.251-0.682 0.718-1.102 1.686-1.102 2.749 0 1.192 0.529 2.266 1.363 3-0.834 0.734-1.363 1.808-1.363 3s0.529 2.266 1.363 3zM27.411 29.411c-0.38 0.38-0.881 0.589-1.411 0.589h-8c-0.53 0-1.031-0.209-1.411-0.589-0.38-0.38-0.589-0.881-0.589-1.411s0.209-1.031 0.589-1.411c0.38-0.38 0.881-0.589 1.411-0.589h8c0.53 0 1.031 0.209 1.411 0.589 0.38 0.38 0.589 0.881 0.589 1.411s-0.209 1.031-0.589 1.411zM29.411 23.411c-0.38 0.38-0.881 0.589-1.411 0.589h-10c-0.53 0-1.031-0.209-1.411-0.589-0.38-0.38-0.589-0.881-0.589-1.411s0.209-1.031 0.589-1.411c0.38-0.38 0.881-0.589 1.411-0.589h10c0.53 0 1.031 0.209 1.411 0.589 0.38 0.38 0.589 0.881 0.589 1.411s-0.209 1.031-0.589 1.411zM29.411 17.411c-0.38 0.38-0.881 0.589-1.411 0.589h-10c-0.53 0-1.031-0.209-1.411-0.589-0.38-0.38-0.589-0.881-0.589-1.411 0-0.53 0.209-1.031 0.589-1.411 0.38-0.38 0.881-0.589 1.411-0.589h10c0.53 0 1.031 0.209 1.411 0.589 0.38 0.38 0.589 0.881 0.589 1.411 0 0.53-0.209 1.031-0.589 1.411z" />
</svg>
