<?xml version="1.0" encoding="utf-8"?>
<!-- Generated by IcoMoon.io -->
<!DOCTYPE svg PUBLIC "-//W3C//DTD SVG 1.1//EN" "http://www.w3.org/Graphics/SVG/1.1/DTD/svg11.dtd">
<svg version="1.1" xmlns="http://www.w3.org/2000/svg" xmlns:xlink="http://www.w3.org/1999/xlink" width="40" height="32" viewBox="0 0 40 32">
	<path d="M15.392 22.017l4.59 4.59-3.646 4.682c-0.668 0.874-1.851 0.952-2.629 0.175l-3.172-3.172c-0.778-0.778-0.699-1.961 0.175-2.629l4.682-3.646zM39.797 8.203l-4.797 4.797-6-6 4.797-4.797c-0.578-0.133-1.179-0.203-1.797-0.203-4.418 0-8 3.582-8 8 0 1.594 0.466 3.078 1.269 4.325l-4.466 3.478-6.803-6.803 9-9h-10l-4.439 4.439-0.439-0.439h-2.121v2.121l0.439 0.439-6.439 6.439 5 5 6-6 18 18 3-3-7.803-7.803 3.478-4.466c1.247 0.803 2.732 1.269 4.325 1.269 4.418 0 8-3.582 8-8 0-0.618-0.070-1.22-0.203-1.797z" />
</svg>
