<?xml version="1.0" encoding="utf-8"?>
<!-- Generated by IcoMoon.io -->
<!DOCTYPE svg PUBLIC "-//W3C//DTD SVG 1.1//EN" "http://www.w3.org/Graphics/SVG/1.1/DTD/svg11.dtd">
<svg version="1.1" xmlns="http://www.w3.org/2000/svg" xmlns:xlink="http://www.w3.org/1999/xlink" width="32" height="32" viewBox="0 0 32 32">
	<path d="M26 17v-2.625c0-1.313-1-2.375-2.25-2.375h-1.75v-6l2-4h-8l2 4v6h-10v-4h-8v18h2c0 2.209 1.791 4 4 4s4-1.791 4-4c0 2.209 1.791 4 4 4s4-1.791 4-4c0 2.209 1.791 4 4 4s4-1.791 4-4h6l-6-9zM6 28c-1.105 0-2-0.895-2-2s0.895-2 2-2 2 0.895 2 2-0.895 2-2 2zM14 28c-1.105 0-2-0.895-2-2s0.895-2 2-2 2 0.895 2 2-0.895 2-2 2zM22 28c-1.105 0-2-0.895-2-2s0.895-2 2-2 2 0.895 2 2-0.895 2-2 2z" />
</svg>
