<?xml version="1.0" encoding="utf-8"?>
<!-- Generated by IcoMoon.io -->
<!DOCTYPE svg PUBLIC "-//W3C//DTD SVG 1.1//EN" "http://www.w3.org/Graphics/SVG/1.1/DTD/svg11.dtd">
<svg version="1.1" xmlns="http://www.w3.org/2000/svg" xmlns:xlink="http://www.w3.org/1999/xlink" width="32" height="32" viewBox="0 0 32 32">
	<path d="M16 2.658l6.106 5.342h-4.572l6.857 6h-6.857l6.857 6h-4.571l6.857 6h-8.582l0.256 2.228c0.072 0.63 0.144 1.223 0.237 1.772h-5.174c0.093-0.549 0.165-1.142 0.237-1.772l0.255-2.228h-8.582l6.857-6h-4.571l6.857-6h-6.857l6.857-6h-4.571l6.106-5.342M16 0l-11.429 10h4.571l-6.857 6h6.857l-6.857 6h4.571l-6.857 6h11.663c-0.253 2.203-0.502 4-1.663 4 1.796 0 10.204 0 12 0-1.161 0-1.41-1.797-1.663-4h11.663l-6.857-6h4.571l-6.857-6h6.857l-6.857-6h4.572l-11.429-10z" />
</svg>
