<?xml version="1.0" encoding="utf-8"?>
<!-- Generated by IcoMoon.io -->
<!DOCTYPE svg PUBLIC "-//W3C//DTD SVG 1.1//EN" "http://www.w3.org/Graphics/SVG/1.1/DTD/svg11.dtd">
<svg version="1.1" xmlns="http://www.w3.org/2000/svg" xmlns:xlink="http://www.w3.org/1999/xlink" width="32" height="32" viewBox="0 0 32 32">
	<path d="M16 0c-8.837 0-16 7.163-16 16s7.163 16 16 16 16-7.163 16-16-7.163-16-16-16zM25.195 11.284c0.009 0.203 0.014 0.408 0.014 0.614 0 6.269-4.772 13.499-13.499 13.499-2.679 0-5.173-0.785-7.273-2.132 0.371 0.044 0.749 0.066 1.132 0.066 2.223 0 4.268-0.759 5.892-2.031-2.076-0.038-3.828-1.41-4.432-3.295 0.29 0.055 0.587 0.085 0.893 0.085 0.433 0 0.852-0.058 1.25-0.166-2.17-0.436-3.806-2.354-3.806-4.652 0-0.020 0-0.040 0-0.060 0.64 0.355 1.371 0.569 2.149 0.593-1.273-0.851-2.111-2.303-2.111-3.949 0-0.869 0.234-1.684 0.642-2.385 2.34 2.87 5.836 4.759 9.779 4.957-0.081-0.347-0.123-0.709-0.123-1.081 0-2.62 2.124-4.744 4.744-4.744 1.365 0 2.598 0.576 3.463 1.498 1.081-0.213 2.096-0.608 3.013-1.151-0.354 1.108-1.107 2.038-2.086 2.625 0.96-0.115 1.874-0.37 2.725-0.747-0.636 0.951-1.44 1.787-2.367 2.456z" />
</svg>
