<?xml version="1.0" encoding="utf-8"?>
<!-- Generated by IcoMoon.io -->
<!DOCTYPE svg PUBLIC "-//W3C//DTD SVG 1.1//EN" "http://www.w3.org/Graphics/SVG/1.1/DTD/svg11.dtd">
<svg version="1.1" xmlns="http://www.w3.org/2000/svg" xmlns:xlink="http://www.w3.org/1999/xlink" width="32" height="32" viewBox="0 0 32 32">
	<path d="M17.996 2.124c7.895 0.982 14.004 7.716 14.004 15.876h-0.536c-0.692-1.195-1.983-2-3.464-2-1.48 0-2.772 0.805-3.463 2h-1.073c-0.692-1.195-1.983-2-3.463-2-0.729 0-1.412 0.195-2 0.536v10.464c0 2.757-2.243 5-5 5s-5-2.243-5-5c0-1.105 0.895-2 2-2 1.105 0 2 0.895 2 2 0 0.551 0.449 1 1 1 0.551 0 1-0.449 1-1v-10.464c-0.588-0.341-1.271-0.536-2-0.536-1.48 0-2.772 0.805-3.464 2h-1.073c-0.692-1.195-1.983-2-3.464-2s-2.772 0.805-3.464 2h-0.536c0-8.161 6.11-14.894 14.004-15.876-0.002-0.041-0.004-0.082-0.004-0.124 0-1.105 0.895-2 2-2 1.105 0 2 0.895 2 2 0 0.042-0.002 0.083-0.004 0.124z" />
</svg>
