<?xml version="1.0" encoding="utf-8"?>
<!-- Generated by IcoMoon.io -->
<!DOCTYPE svg PUBLIC "-//W3C//DTD SVG 1.1//EN" "http://www.w3.org/Graphics/SVG/1.1/DTD/svg11.dtd">
<svg version="1.1" xmlns="http://www.w3.org/2000/svg" xmlns:xlink="http://www.w3.org/1999/xlink" width="32" height="32" viewBox="0 0 32 32">
	<path d="M22 8v-8h-22v22h8v10h24v-24h-10zM20 10.25h-10v-0.25h10v0.25zM28 12.25h-6v-0.25h6v0.25zM10 19.75h10v0.25h-10v-0.25zM4 17.75h4v0.25h-4v-0.25zM8 11.75v0.5h-4v-0.5h4zM4 11.25v-0.5h4v0.5h-4zM8 12.75v0.5h-4v-0.5h4zM10 16.25v-0.5h10v0.5h-10zM20 16.75v0.5h-10v-0.5h10zM10 15.25v-0.5h10v0.5h-10zM10 14.25v-0.5h10v0.5h-10zM10 13.25v-0.5h10v0.5h-10zM8 13.75v0.5h-4v-0.5h4zM8 14.75v0.5h-4v-0.5h4zM8 15.75v0.5h-4v-0.5h4zM8 16.75v0.5h-4v-0.5h4zM10 17.75h10v0.5h-10v-0.5zM20 18.75v0.5h-10v-0.5h10zM12 28v-0.25h16v0.25h-16zM12 27.25v-0.5h16v0.5h-16zM12 26.25v-0.5h16v0.5h-16zM12 25.25v-0.5h16v0.5h-16zM12 24.25v-0.5h16v0.5h-16zM12 23.25v-0.5h16v0.5h-16zM12 22.25v-0.25h10v-0.25h6v0.5h-16zM22 21.25v-0.5h6v0.5h-6zM22 20.25v-0.5h6v0.5h-6zM22 19.25v-0.5h6v0.5h-6zM22 18.25v-0.5h6v0.5h-6zM22 17.25v-0.5h6v0.5h-6zM22 16.25v-0.5h6v0.5h-6zM22 15.25v-0.5h6v0.5h-6zM22 14.25v-0.5h6v0.5h-6zM22 13.25v-0.5h6v0.5h-6zM20 12.25h-10v-0.5h10v0.5zM10 11.25v-0.5h10v0.5h-10zM8 10.25h-4v-0.5h4v0.5zM18 4v0.25h-14v-0.25h14zM18 4.75v0.5h-14v-0.5h14zM18 5.75v0.5h-14v-0.5h14zM18 6.75v0.5h-14v-0.5h14zM18 7.75v0.25h-10v0.25h-4v-0.5h14zM8 8.75v0.5h-4v-0.5h4z" />
</svg>
