<?xml version="1.0" encoding="utf-8"?>
<!-- Generated by IcoMoon.io -->
<!DOCTYPE svg PUBLIC "-//W3C//DTD SVG 1.1//EN" "http://www.w3.org/Graphics/SVG/1.1/DTD/svg11.dtd">
<svg version="1.1" xmlns="http://www.w3.org/2000/svg" xmlns:xlink="http://www.w3.org/1999/xlink" width="32" height="32" viewBox="0 0 32 32">
	<path d="M14 20h4v-8h7l-9-8-9 8h7zM20 16.189v1.039c4.661 0.549 8 2.030 8 3.772 0 2.209-5.373 4-12 4-6.627 0-12-1.791-12-4 0-1.742 3.339-3.223 8-3.772v-1.039c-6.901 0.666-12 3.015-12 5.811 0 3.314 7.163 6 16 6s16-2.686 16-6c0-2.796-5.099-5.145-12-5.811z" />
</svg>
