<?xml version="1.0" encoding="utf-8"?>
<!-- Generated by IcoMoon.io -->
<!DOCTYPE svg PUBLIC "-//W3C//DTD SVG 1.1//EN" "http://www.w3.org/Graphics/SVG/1.1/DTD/svg11.dtd">
<svg version="1.1" xmlns="http://www.w3.org/2000/svg" xmlns:xlink="http://www.w3.org/1999/xlink" width="32" height="32" viewBox="0 0 32 32">
	<path d="M6 12c0-2.209 1.791-4 4-4s4 1.791 4 4c0 2.209-1.791 4-4 4-2.209 0-4-1.791-4-4zM18 6c0-2.209 1.791-4 4-4s4 1.791 4 4c0 2.209-1.791 4-4 4-2.209 0-4-1.791-4-4zM10 18c-5.523 0-10 5.373-10 12h3c0-1.279 0.207-2.515 0.615-3.674 0.385-1.091 0.929-2.064 1.618-2.891 1.309-1.57 3.001-2.435 4.766-2.435s3.458 0.865 4.766 2.435c0.689 0.827 1.234 1.8 1.618 2.891 0.408 1.158 0.615 2.394 0.615 3.674h3c0-6.627-4.477-12-10-12zM22 12c-2.943 0-5.589 1.526-7.419 3.954 0.225 0.097 0.448 0.202 0.669 0.314 0.68 0.345 1.328 0.753 1.94 1.221 0.015-0.018 0.029-0.036 0.044-0.054 1.309-1.57 3.001-2.435 4.766-2.435 1.765 0 3.458 0.865 4.766 2.435 0.689 0.827 1.234 1.8 1.618 2.891 0.408 1.158 0.615 2.394 0.615 3.674h3c0-6.627-4.477-12-10-12z" />
</svg>
