<?xml version="1.0" encoding="utf-8"?>
<!-- Generated by IcoMoon.io -->
<!DOCTYPE svg PUBLIC "-//W3C//DTD SVG 1.1//EN" "http://www.w3.org/Graphics/SVG/1.1/DTD/svg11.dtd">
<svg version="1.1" xmlns="http://www.w3.org/2000/svg" xmlns:xlink="http://www.w3.org/1999/xlink" width="32" height="32" viewBox="0 0 32 32">
	<path d="M12.932 29h-9.743c0.288-1.229 0.891-2.575 1.711-3.766 1.296-1.882 2.912-3.113 4.551-3.466 0.691-0.149 1.184-0.76 1.184-1.466v-1.072c0-0.539-0.29-1.037-0.758-1.304-1.859-1.057-3.060-3.383-3.060-5.926 0-3.584 2.325-6.5 5.182-6.5 2.857 0 5.182 2.916 5.182 6.5 0 0.287-0.016 0.572-0.046 0.852 0.939-0.543 1.959-0.96 3.039-1.227-0.078-2.348-0.887-4.553-2.299-6.243-1.552-1.858-3.639-2.882-5.876-2.882s-4.324 1.023-5.876 2.882c-1.487 1.78-2.306 4.131-2.306 6.618 0 1.79 0.429 3.533 1.242 5.041 0.507 0.941 1.147 1.765 1.891 2.441-1.687 0.812-3.25 2.203-4.521 4.050-1.522 2.21-2.43 4.815-2.43 6.967 0 0.828 0.672 1.5 1.5 1.5h13.995c-1.014-0.846-1.882-1.861-2.563-3zM23 14c-4.971 0-9 4.029-9 9s4.029 9 9 9 9-4.029 9-9-4.029-9-9-9zM26.767 17.553l-3.767 3.767-3.767-3.767c1.070-0.743 2.369-1.179 3.767-1.179s2.697 0.436 3.767 1.178zM16.375 23c0-1.398 0.436-2.697 1.178-3.767l3.767 3.767-3.767 3.767c-0.743-1.070-1.179-2.369-1.179-3.767zM19.233 28.447l3.767-3.767 3.767 3.767c-1.070 0.743-2.369 1.179-3.767 1.179s-2.697-0.436-3.767-1.178zM28.447 26.767l-3.767-3.767 3.767-3.767c0.743 1.070 1.179 2.369 1.179 3.767s-0.436 2.697-1.178 3.767z" />
</svg>
