<?xml version="1.0" encoding="utf-8"?>
<!-- Generated by IcoMoon.io -->
<!DOCTYPE svg PUBLIC "-//W3C//DTD SVG 1.1//EN" "http://www.w3.org/Graphics/SVG/1.1/DTD/svg11.dtd">
<svg version="1.1" xmlns="http://www.w3.org/2000/svg" xmlns:xlink="http://www.w3.org/1999/xlink" width="34" height="32" viewBox="0 0 34 32">
	<path d="M13.625 23c0 1.793 0.418 3.49 1.16 5h-14.785v-3.579c2.605-2.411 7.007-4.218 8.537-4.461 0.691-0.11 0.707-2.010 0.707-2.010 0 0-2.030-2.010-2.473-4.713-1.19 0-1.925-2.873-0.735-3.884-0.050-1.064-1.53-8.354 5.964-8.354 7.494 0 6.014 7.29 5.964 8.354 1.191 1.011 0.455 3.884-0.735 3.884-0.133 0.814-0.411 1.564-0.733 2.216-0.639 0.719-1.188 1.518-1.63 2.382-0.069 0.075-0.11 0.115-0.11 0.115 0 0 0 0.037 0.003 0.1-0.726 1.497-1.134 3.176-1.134 4.949zM25 14c-4.971 0-9 4.029-9 9s4.029 9 9 9 9-4.029 9-9-4.029-9-9-9zM30 24h-10v-2h10v2z" />
</svg>
