<?xml version="1.0" encoding="utf-8"?>
<!-- Generated by IcoMoon.io -->
<!DOCTYPE svg PUBLIC "-//W3C//DTD SVG 1.1//EN" "http://www.w3.org/Graphics/SVG/1.1/DTD/svg11.dtd">
<svg version="1.1" xmlns="http://www.w3.org/2000/svg" xmlns:xlink="http://www.w3.org/1999/xlink" width="32" height="32" viewBox="0 0 32 32">
	<path d="M16 18c4.418 0 8-3.582 8-8s-3.582-8-8-8-8 3.582-8 8 3.582 8 8 8zM10 10c0-0.084 0.002-0.167 0.006-0.25h11.989c0.003 0.083 0.006 0.166 0.006 0.25s-0.002 0.167-0.006 0.25h-11.989c-0.003-0.083-0.006-0.166-0.006-0.25zM11.769 5.75h8.462c0.159 0.158 0.309 0.325 0.449 0.5h-9.36c0.14-0.175 0.29-0.342 0.449-0.5zM12.339 5.25c0.239-0.185 0.493-0.352 0.759-0.5h5.804c0.266 0.148 0.52 0.315 0.759 0.5h-7.322zM21.041 6.75c0.105 0.162 0.201 0.328 0.29 0.5h-10.663c0.089-0.172 0.186-0.338 0.29-0.5h10.083zM21.562 7.75c0.066 0.163 0.126 0.33 0.178 0.5h-11.479c0.052-0.17 0.111-0.337 0.178-0.5h11.124zM21.869 8.75c0.035 0.164 0.063 0.331 0.085 0.5h-11.906c0.021-0.169 0.050-0.336 0.085-0.5h11.737zM21.953 10.75c-0.021 0.169-0.050 0.336-0.085 0.5h-11.737c-0.035-0.164-0.063-0.331-0.085-0.5h11.906zM21.739 11.75c-0.052 0.17-0.111 0.337-0.178 0.5h-11.124c-0.066-0.163-0.126-0.33-0.178-0.5h11.479zM21.332 12.75c-0.089 0.172-0.186 0.338-0.29 0.5h-10.083c-0.104-0.162-0.201-0.328-0.29-0.5h10.663zM20.231 14.25h-8.462c-0.159-0.158-0.309-0.325-0.449-0.5h9.36c-0.14 0.175-0.29 0.342-0.449 0.5zM19.661 14.75c-0.239 0.185-0.493 0.352-0.759 0.5h-5.804c-0.266-0.148-0.52-0.315-0.759-0.5h7.322zM14.286 15.75h3.429c-0.543 0.162-1.119 0.25-1.714 0.25s-1.171-0.088-1.714-0.25zM17.715 4.25h-3.429c0.543-0.162 1.119-0.25 1.715-0.25s1.171 0.088 1.714 0.25zM24 20h-16c-4.418 0-8 3.582-8 8v2h32v-2c0-4.418-3.582-8-8-8zM3.769 23.75h24.462c0.159 0.158 0.309 0.325 0.449 0.5h-25.36c0.14-0.175 0.29-0.342 0.449-0.5zM4.339 23.25c0.239-0.185 0.493-0.352 0.759-0.5h21.804c0.266 0.148 0.52 0.315 0.759 0.5h-23.322zM29.041 24.75c0.105 0.162 0.201 0.328 0.29 0.5h-26.663c0.089-0.172 0.186-0.338 0.29-0.5h26.083zM29.562 25.75c0.066 0.163 0.126 0.33 0.178 0.5h-27.479c0.052-0.17 0.111-0.337 0.178-0.5h27.124zM29.869 26.75c0.035 0.164 0.063 0.331 0.085 0.5h-27.906c0.021-0.169 0.050-0.336 0.085-0.5h27.737zM24 22c0.596 0 1.171 0.088 1.715 0.25h-19.429c0.543-0.162 1.119-0.25 1.714-0.25h16zM2 28c0-0.084 0.002-0.167 0.006-0.25h27.989c0.003 0.083 0.006 0.166 0.006 0.25h-28z" />
</svg>
