<?xml version="1.0" encoding="utf-8"?>
<!-- Generated by IcoMoon.io -->
<!DOCTYPE svg PUBLIC "-//W3C//DTD SVG 1.1//EN" "http://www.w3.org/Graphics/SVG/1.1/DTD/svg11.dtd">
<svg version="1.1" xmlns="http://www.w3.org/2000/svg" xmlns:xlink="http://www.w3.org/1999/xlink" width="32" height="32" viewBox="0 0 32 32">
	<path d="M30.5 32h-21c-0.828 0-1.5-0.672-1.5-1.5 0-2.152 0.908-4.756 2.43-6.967 1.272-1.847 2.834-3.238 4.521-4.050-0.744-0.676-1.384-1.501-1.891-2.441-0.813-1.508-1.242-3.252-1.242-5.041 0-2.488 0.819-4.838 2.306-6.618 1.552-1.858 3.639-2.881 5.876-2.881s4.324 1.023 5.876 2.882c1.487 1.78 2.306 4.131 2.306 6.618 0 1.79-0.43 3.533-1.242 5.041-0.507 0.941-1.147 1.765-1.891 2.441 1.687 0.812 3.25 2.203 4.521 4.050 1.521 2.21 2.43 4.815 2.43 6.967 0 0.828-0.672 1.5-1.5 1.5zM11.19 29h17.62c-0.288-1.229-0.891-2.575-1.711-3.766-1.295-1.882-2.912-3.113-4.551-3.466-0.691-0.149-1.184-0.76-1.184-1.466v-1.072c0-0.539 0.29-1.037 0.758-1.304 1.859-1.057 3.060-3.383 3.060-5.926 0-3.584-2.325-6.5-5.182-6.5s-5.182 2.916-5.182 6.5c0 2.543 1.201 4.869 3.060 5.926 0.469 0.267 0.758 0.764 0.758 1.304v1.072c0 0.707-0.493 1.317-1.184 1.466-1.639 0.353-3.256 1.584-4.551 3.466-0.82 1.191-1.423 2.537-1.711 3.766zM6.16 27h-2.97c0.288-1.229 0.891-2.575 1.711-3.766 1.296-1.882 2.912-3.113 4.551-3.466 0.691-0.149 1.184-0.76 1.184-1.466v-1.072c0-0.539-0.29-1.037-0.758-1.304-1.859-1.057-3.060-3.383-3.060-5.926 0-3.584 2.325-6.5 5.182-6.5 0.195 0 0.388 0.014 0.578 0.041 0.824-0.917 1.757-1.662 2.77-2.219-1.037-0.538-2.172-0.822-3.348-0.822-2.237 0-4.324 1.023-5.876 2.882-1.487 1.78-2.306 4.131-2.306 6.618 0 1.79 0.429 3.533 1.242 5.041 0.507 0.941 1.147 1.765 1.891 2.441-1.687 0.812-3.25 2.203-4.521 4.050-1.522 2.21-2.43 4.815-2.43 6.967 0 0.828 0.672 1.5 1.5 1.5h4.137c0.046-0.97 0.225-1.982 0.523-3z" />
</svg>
