<?xml version="1.0" encoding="utf-8"?>
<!-- Generated by IcoMoon.io -->
<!DOCTYPE svg PUBLIC "-//W3C//DTD SVG 1.1//EN" "http://www.w3.org/Graphics/SVG/1.1/DTD/svg11.dtd">
<svg version="1.1" xmlns="http://www.w3.org/2000/svg" xmlns:xlink="http://www.w3.org/1999/xlink" width="32" height="32" viewBox="0 0 32 32">
	<path d="M28 6h-24c-2.2 0-4 1.8-4 4v14c0 2.2 1.8 4 4 4h24c2.2 0 4-1.8 4-4v-14c0-2.2-1.8-4-4-4zM4 24c0-4.418 2.239-8 5-8-1.657 0-3-1.343-3-3s1.343-3 3-3 3 1.343 3 3-1.343 3-3 3 5 3.582 5 8h-10zM28 24h-10v-2h10v2zM28 18h-10v-2h10v2zM28 12h-10v-2h10v2z" />
</svg>
