<?xml version="1.0" encoding="utf-8"?>
<!-- Generated by IcoMoon.io -->
<!DOCTYPE svg PUBLIC "-//W3C//DTD SVG 1.1//EN" "http://www.w3.org/Graphics/SVG/1.1/DTD/svg11.dtd">
<svg version="1.1" xmlns="http://www.w3.org/2000/svg" xmlns:xlink="http://www.w3.org/1999/xlink" width="34" height="32" viewBox="0 0 34 32">
	<path d="M27.814 28.814c-0.384 0-0.768-0.146-1.061-0.439-0.586-0.586-0.586-1.535 0-2.121 2.739-2.739 4.247-6.38 4.247-10.253 0-3.873-1.508-7.514-4.247-10.253-0.586-0.586-0.586-1.536 0-2.121 0.586-0.586 1.536-0.586 2.121 0 3.305 3.305 5.126 7.7 5.126 12.374 0 4.674-1.82 9.069-5.126 12.374-0.293 0.293-0.677 0.439-1.061 0.439zM22.485 25.985c-0.384 0-0.768-0.146-1.061-0.439-0.586-0.586-0.586-1.535 0-2.121 4.094-4.094 4.094-10.755 0-14.849-0.586-0.586-0.586-1.536 0-2.121 0.586-0.586 1.536-0.586 2.121 0 2.55 2.55 3.954 5.94 3.954 9.546 0 3.606-1.404 6.996-3.954 9.546-0.293 0.293-0.677 0.439-1.061 0.439zM17.157 23.157c-0.384 0-0.768-0.146-1.061-0.439-0.586-0.586-0.586-1.535 0-2.121 2.534-2.534 2.534-6.658 0-9.192-0.586-0.586-0.586-1.536 0-2.121 0.586-0.586 1.535-0.586 2.121 0 3.704 3.704 3.704 9.731 0 13.435-0.293 0.293-0.677 0.439-1.061 0.439zM13.38 1.997c-0.238 0-0.527 0.149-0.838 0.461l-7.542 7.542h-5v12h5l7.542 7.542c0.311 0.311 0.601 0.461 0.839 0.461 0.374 0 0.62-0.371 0.62-1.065v-25.875c-0-0.694-0.246-1.065-0.62-1.065zM10 22.757l-3.757-3.757h-2.243v-6h2.243l3.757-3.757v13.515z" />
</svg>
