<?xml version="1.0" encoding="utf-8"?>
<!-- Generated by IcoMoon.io -->
<!DOCTYPE svg PUBLIC "-//W3C//DTD SVG 1.1//EN" "http://www.w3.org/Graphics/SVG/1.1/DTD/svg11.dtd">
<svg version="1.1" xmlns="http://www.w3.org/2000/svg" xmlns:xlink="http://www.w3.org/1999/xlink" width="32" height="32" viewBox="0 0 32 32">
	<path d="M31.561 28.617l-13.659-27.222c-0.523-0.93-1.213-1.395-1.903-1.395s-1.379 0.465-1.903 1.395l-13.659 27.222c-1.046 1.86-0.156 3.383 1.978 3.383h27.166c2.134 0 3.025-1.522 1.978-3.383zM16 28c-1.105 0-2-0.895-2-2 0-1.105 0.895-2 2-2 1.105 0 2 0.895 2 2 0 1.105-0.895 2-2 2zM17.375 22h-2.75l-0.625-8c0-1.105 0.895-2 2-2s2 0.895 2 2l-0.625 8z" />
</svg>
