<?xml version="1.0" encoding="utf-8"?>
<!-- Generated by IcoMoon.io -->
<!DOCTYPE svg PUBLIC "-//W3C//DTD SVG 1.1//EN" "http://www.w3.org/Graphics/SVG/1.1/DTD/svg11.dtd">
<svg version="1.1" xmlns="http://www.w3.org/2000/svg" xmlns:xlink="http://www.w3.org/1999/xlink" width="32" height="32" viewBox="0 0 32 32">
	<path d="M16 4.96l-10.776 23.040h21.552l-10.776-23.040zM16 0v0c0.69 0 1.379 0.465 1.903 1.395l13.659 27.222c1.047 1.86 0.156 3.383-1.978 3.383h-27.166c-2.135 0-3.025-1.522-1.978-3.383l13.659-27.222c0.523-0.93 1.213-1.395 1.903-1.395zM14 24c0-1.105 0.895-2 2-2s2 0.895 2 2c0 1.105-0.895 2-2 2-1.105 0-2-0.895-2-2zM16 12c1.105 0 2 0.895 2 2l-0.625 6h-2.75l-0.625-6c0-1.105 0.895-2 2-2z" />
</svg>
