<?xml version="1.0" encoding="utf-8"?>
<!-- Generated by IcoMoon.io -->
<!DOCTYPE svg PUBLIC "-//W3C//DTD SVG 1.1//EN" "http://www.w3.org/Graphics/SVG/1.1/DTD/svg11.dtd">
<svg version="1.1" xmlns="http://www.w3.org/2000/svg" xmlns:xlink="http://www.w3.org/1999/xlink" width="32" height="32" viewBox="0 0 32 32">
	<path d="M18 14h4v4h-8v-8h4zM28 16c0-4.442-2.413-8.319-6-10.394v-5.606h-12v5.606c-3.587 2.075-6 5.953-6 10.394 0 4.442 2.413 8.319 6 10.394v5.606h12v-5.606c3.587-2.075 6-5.953 6-10.394zM16 24c-4.418 0-8-3.582-8-8s3.582-8 8-8 8 3.582 8 8-3.582 8-8 8z" />
</svg>
