<?xml version="1.0" encoding="utf-8"?>
<!-- Generated by IcoMoon.io -->
<!DOCTYPE svg PUBLIC "-//W3C//DTD SVG 1.1//EN" "http://www.w3.org/Graphics/SVG/1.1/DTD/svg11.dtd">
<svg version="1.1" xmlns="http://www.w3.org/2000/svg" xmlns:xlink="http://www.w3.org/1999/xlink" width="32" height="32" viewBox="0 0 32 32">
	<path d="M26 10h4v12c0 1.078-0.212 2.126-0.63 3.115-0.403 0.953-0.979 1.808-1.713 2.542-0.733 0.733-1.589 1.31-2.542 1.713-0.989 0.418-2.037 0.63-3.115 0.63-1.078 0-2.126-0.212-3.115-0.63-0.953-0.403-1.808-0.979-2.542-1.713-0.733-0.733-1.31-1.589-1.713-2.542-0.418-0.989-0.63-2.037-0.63-3.115v-12c0-2.209-1.791-4-4-4s-4 1.791-4 4v12h-4v-12c0-1.078 0.212-2.126 0.63-3.115 0.403-0.953 0.979-1.808 1.713-2.542 0.733-0.733 1.589-1.31 2.542-1.713 0.989-0.418 2.037-0.63 3.115-0.63 1.078 0 2.126 0.212 3.115 0.63 0.953 0.403 1.808 0.979 2.542 1.713 0.733 0.733 1.31 1.589 1.713 2.542 0.418 0.989 0.63 2.037 0.63 3.115v12c0 2.209 1.791 4 4 4s4-1.791 4-4v-12z" />
</svg>
