<?xml version="1.0" encoding="utf-8"?>
<!-- Generated by IcoMoon.io -->
<!DOCTYPE svg PUBLIC "-//W3C//DTD SVG 1.1//EN" "http://www.w3.org/Graphics/SVG/1.1/DTD/svg11.dtd">
<svg version="1.1" xmlns="http://www.w3.org/2000/svg" xmlns:xlink="http://www.w3.org/1999/xlink" width="36" height="32" viewBox="0 0 36 32">
	<path d="M32 8h4v16c0 3.308-2.692 6-6 6-3.308 0-6-2.692-6-6v-16c0-1.103-0.897-2-2-2s-2 0.897-2 2v16c0 3.308-2.692 6-6 6s-6-2.692-6-6v-16c0-1.103-0.897-2-2-2s-2 0.897-2 2v16h-4v-16c0-3.308 2.692-6 6-6s6 2.692 6 6v16c0 1.103 0.897 2 2 2s2-0.897 2-2v-16c0-3.308 2.692-6 6-6s6 2.692 6 6v16c0 1.103 0.897 2 2 2s2-0.897 2-2v-16z" />
</svg>
