<?xml version="1.0" encoding="utf-8"?>
<!-- Generated by IcoMoon.io -->
<!DOCTYPE svg PUBLIC "-//W3C//DTD SVG 1.1//EN" "http://www.w3.org/Graphics/SVG/1.1/DTD/svg11.dtd">
<svg version="1.1" xmlns="http://www.w3.org/2000/svg" xmlns:xlink="http://www.w3.org/1999/xlink" width="32" height="32" viewBox="0 0 32 32">
	<path d="M27.844 9.252c2.385 0.581 4.156 2.731 4.156 5.296 0 3.007-2.433 5.446-5.438 5.451v0h-20.508c-3.344 0-6.054-2.712-6.054-6.058 0-3.345 2.71-6.058 6.054-6.058 0.369 0 0.73 0.035 1.080 0.098-0.028-0.194-0.043-0.391-0.043-0.592 0-2.308 1.87-4.179 4.176-4.179 1.344 0 2.54 0.636 3.303 1.624 1.362-1.726 3.471-2.835 5.839-2.835 4.044 0 7.332 3.23 7.433 7.252zM7 22c0 0 3 4 3 7 0 1.657-1.343 3-3 3-1.657 0-3-1.343-3-3s3-7 3-7zM25 22c0 0 3 4 3 7 0 1.657-1.343 3-3 3-1.657 0-3-1.343-3-3s3-7 3-7zM16 20c0 0 3 4 3 7 0 1.657-1.343 3-3 3-1.657 0-3-1.343-3-3s3-7 3-7z" />
</svg>
