<?xml version="1.0" encoding="utf-8"?>
<!-- Generated by IcoMoon.io -->
<!DOCTYPE svg PUBLIC "-//W3C//DTD SVG 1.1//EN" "http://www.w3.org/Graphics/SVG/1.1/DTD/svg11.dtd">
<svg version="1.1" xmlns="http://www.w3.org/2000/svg" xmlns:xlink="http://www.w3.org/1999/xlink" width="32" height="32" viewBox="0 0 32 32">
	<path d="M27.844 9.252c2.385 0.581 4.156 2.731 4.156 5.296 0 3.007-2.433 5.446-5.438 5.451v0h-20.508c-3.344 0-6.054-2.712-6.054-6.058 0-3.345 2.71-6.058 6.054-6.058 0.369 0 0.73 0.035 1.080 0.098-0.028-0.194-0.043-0.391-0.043-0.592 0-2.308 1.87-4.179 4.176-4.179 1.344 0 2.54 0.636 3.303 1.624 1.362-1.726 3.471-2.835 5.839-2.835 4.044 0 7.332 3.23 7.433 7.252zM27.999 25.255c0.010 0.156-0.053 0.265-0.187 0.328l-3.464 1.417 3.464 1.431c0.134 0.053 0.197 0.158 0.187 0.314-0.009 0.156-0.124 0.408-0.345 0.755-0.221 0.357-0.401 0.575-0.539 0.655-0.139 0.080-0.266 0.080-0.381 0l-3.062-2.072 0.402 3.503c0.029 0.134-0.034 0.236-0.187 0.307-0.153 0.071-0.45 0.107-0.891 0.107-0.441 0-0.738-0.036-0.891-0.107-0.154-0.071-0.216-0.174-0.188-0.307l0.403-3.503-3.048 2.072c-0.115 0.080-0.245 0.080-0.388 0-0.144-0.080-0.326-0.299-0.546-0.655-0.221-0.348-0.333-0.599-0.338-0.755-0.005-0.156 0.060-0.26 0.194-0.314l3.464-1.431-3.464-1.417c-0.135-0.062-0.199-0.172-0.194-0.328 0.005-0.156 0.117-0.408 0.338-0.755 0.22-0.347 0.402-0.561 0.546-0.641 0.144-0.080 0.273-0.080 0.388 0l3.048 2.058-0.403-3.489c-0.029-0.143 0.034-0.249 0.188-0.32 0.153-0.072 0.45-0.108 0.891-0.108 0.441 0 0.738 0.036 0.891 0.108 0.153 0.071 0.216 0.178 0.187 0.32l-0.402 3.489 3.062-2.058c0.115-0.080 0.242-0.080 0.381 0 0.139 0.080 0.318 0.299 0.539 0.655 0.221 0.338 0.335 0.586 0.345 0.742zM13.999 25.255c0.010 0.156-0.053 0.265-0.187 0.328l-3.464 1.417 3.464 1.431c0.134 0.053 0.197 0.158 0.187 0.314-0.009 0.156-0.124 0.408-0.345 0.755-0.221 0.357-0.4 0.575-0.539 0.655-0.139 0.080-0.266 0.080-0.381 0l-3.062-2.072 0.402 3.503c0.029 0.134-0.034 0.236-0.187 0.307-0.153 0.071-0.45 0.107-0.891 0.107-0.441 0-0.738-0.036-0.891-0.107-0.154-0.071-0.216-0.174-0.188-0.307l0.403-3.503-3.048 2.072c-0.115 0.080-0.245 0.080-0.388 0-0.144-0.080-0.326-0.299-0.546-0.655-0.221-0.348-0.333-0.599-0.338-0.755-0.005-0.156 0.060-0.26 0.194-0.314l3.464-1.431-3.464-1.417c-0.135-0.062-0.199-0.172-0.194-0.328 0.005-0.156 0.117-0.408 0.338-0.755 0.22-0.347 0.402-0.561 0.546-0.641 0.144-0.080 0.273-0.080 0.388 0l3.048 2.058-0.403-3.489c-0.029-0.143 0.034-0.249 0.188-0.32 0.153-0.072 0.45-0.108 0.891-0.108 0.441 0 0.738 0.036 0.891 0.108 0.153 0.071 0.216 0.178 0.187 0.32l-0.402 3.489 3.062-2.058c0.115-0.080 0.242-0.080 0.381 0 0.139 0.080 0.318 0.299 0.539 0.655 0.221 0.338 0.335 0.586 0.345 0.742z" />
</svg>
