<?xml version="1.0" encoding="utf-8"?>
<!-- Generated by IcoMoon.io -->
<!DOCTYPE svg PUBLIC "-//W3C//DTD SVG 1.1//EN" "http://www.w3.org/Graphics/SVG/1.1/DTD/svg11.dtd">
<svg version="1.1" xmlns="http://www.w3.org/2000/svg" xmlns:xlink="http://www.w3.org/1999/xlink" width="32" height="32" viewBox="0 0 32 32">
	<path d="M21 10c-1.657 0-3-1.343-3-3s1.343-3 3-3 3 1.343 3 3c0 0.144-0.011 0.286-0.030 0.424l1.98 0.283c0.033-0.231 0.051-0.467 0.051-0.707 0-2.761-2.239-5-5-5s-5 2.239-5 5 2.239 5 5 5h11v-2h-11zM4 24c0 3.314 2.686 6 6 6s6-2.686 6-6c0-0.502-0.062-0.989-0.178-1.455l-1.941 0.485c0.078 0.311 0.119 0.636 0.119 0.97 0 2.209-1.791 4-4 4s-4-1.791-4-4 1.791-4 4-4h22v-2h-22c-3.314 0-6 2.686-6 6zM2 9c0-2.761 2.239-5 5-5s5 2.239 5 5c0 0.738-0.161 1.438-0.448 2.069l1.822 0.828c0.402-0.883 0.626-1.864 0.626-2.897 0-3.866-3.134-7-7-7s-7 3.134-7 7c0 3.866 3.134 7 7 7h25v-2h-25c-2.761 0-5-2.239-5-5z" />
</svg>
