<?xml version="1.0" encoding="utf-8"?>
<!-- Generated by IcoMoon.io -->
<!DOCTYPE svg PUBLIC "-//W3C//DTD SVG 1.1//EN" "http://www.w3.org/Graphics/SVG/1.1/DTD/svg11.dtd">
<svg version="1.1" xmlns="http://www.w3.org/2000/svg" xmlns:xlink="http://www.w3.org/1999/xlink" width="32" height="32" viewBox="0 0 32 32">
	<path d="M25.336 13.844l-3.879-3.879c-0.004-0.004-0.009 0.009-0.013 0.005-1.409-1.409-1.991-1.969-3.401-1.969h-4c-1.41 0-1.992 0.56-3.401 1.969l-0.044 0.004-3.91 3.87c-0.813 0.848-0.676 2.121 0.031 2.828l5.824-5.791-4.645 9.119h4.102v9.965c0 0.829 0.672 1.5 1.5 1.5 0.828 0 1.5-0.671 1.5-1.5v-9.965h2v9.965c0 0.829 0.672 1.5 1.5 1.5s1.5-0.671 1.5-1.5v-9.965h4.043l-4.586-9.189 5.879 5.865c0.707-0.707 0.848-1.984-0-2.832zM13.026 4c0-1.657 1.343-3 3-3s3 1.343 3 3c0 1.657-1.343 3-3 3-1.657 0-3-1.343-3-3z" />
</svg>
