<?xml version="1.0" encoding="utf-8"?>
<!-- Generated by IcoMoon.io -->
<!DOCTYPE svg PUBLIC "-//W3C//DTD SVG 1.1//EN" "http://www.w3.org/Graphics/SVG/1.1/DTD/svg11.dtd">
<svg version="1.1" xmlns="http://www.w3.org/2000/svg" xmlns:xlink="http://www.w3.org/1999/xlink" width="32" height="32" viewBox="0 0 32 32">
	<path d="M26.277 32c0 0 0 0 0 0-0.793 0-1.549-0.352-2.075-0.966l-11.067-12.912c-1.163 0.494-2.426 0.753-3.697 0.753-5.204 0-9.438-4.234-9.438-9.438 0-0.932 0.136-1.854 0.405-2.741l0.484-1.597 6.055 6.055c0.164 0.164 0.384 0.254 0.619 0.254s0.455-0.090 0.619-0.254l2.973-2.973c0.341-0.341 0.341-0.896 0-1.237l-6.055-6.055 1.597-0.484c0.887-0.269 1.809-0.405 2.741-0.405 5.204 0 9.438 4.234 9.438 9.438 0 1.271-0.259 2.534-0.753 3.697l12.912 11.067c0.593 0.508 0.935 1.208 0.964 1.972 0.029 0.764-0.259 1.488-0.81 2.040l-2.973 2.973c-0.524 0.524-1.212 0.812-1.937 0.812zM13.634 15.631l12.087 14.101c0.148 0.173 0.346 0.268 0.557 0.268 0.135 0 0.335-0.039 0.523-0.226l2.973-2.973c0.153-0.153 0.234-0.349 0.226-0.549-0.008-0.201-0.103-0.389-0.267-0.53l-14.101-12.087 0.377-0.707c0.568-1.067 0.868-2.273 0.868-3.489 0-4.101-3.336-7.438-7.438-7.438-0.13 0-0.259 0.003-0.388 0.010l3.52 3.52c1.121 1.121 1.121 2.945 0 4.066l-2.973 2.973c-0.542 0.542-1.264 0.84-2.033 0.84-0.769 0-1.491-0.298-2.033-0.84l-3.52-3.519c-0.007 0.129-0.010 0.259-0.010 0.388 0 4.101 3.336 7.438 7.437 7.438 1.216 0 2.422-0.3 3.489-0.868l0.708-0.377z" />
</svg>
