<?xml version="1.0" encoding="utf-8"?>
<!-- Generated by IcoMoon.io -->
<!DOCTYPE svg PUBLIC "-//W3C//DTD SVG 1.1//EN" "http://www.w3.org/Graphics/SVG/1.1/DTD/svg11.dtd">
<svg version="1.1" xmlns="http://www.w3.org/2000/svg" xmlns:xlink="http://www.w3.org/1999/xlink" width="32" height="32" viewBox="0 0 32 32">
	<path d="M31.743 4.257l-3.743 3.743-4-4 3.743-3.743c-0.552-0.167-1.137-0.257-1.743-0.257-3.314 0-6 2.686-6 6 0 0.606 0.090 1.191 0.257 1.743l-12.515 12.515c-0.552-0.167-1.136-0.257-1.743-0.257-3.314 0-6 2.686-6 6 0 0.606 0.090 1.191 0.257 1.743l3.743-3.743 4 4-3.743 3.743c0.552 0.167 1.137 0.257 1.743 0.257 3.314 0 6-2.686 6-6 0-0.606-0.090-1.191-0.257-1.743l12.515-12.515c0.552 0.167 1.137 0.257 1.743 0.257 3.314 0 6-2.686 6-6 0-0.606-0.090-1.191-0.257-1.743z" />
</svg>
