<?xml version="1.0" encoding="utf-8"?>
<!-- Generated by IcoMoon.io -->
<!DOCTYPE svg PUBLIC "-//W3C//DTD SVG 1.1//EN" "http://www.w3.org/Graphics/SVG/1.1/DTD/svg11.dtd">
<svg version="1.1" xmlns="http://www.w3.org/2000/svg" xmlns:xlink="http://www.w3.org/1999/xlink" width="32" height="32" viewBox="0 0 32 32">
	<path d="M6 10h10v2h-10zM19.923 17.433c1.306-1.809 2.077-4.031 2.077-6.433 0-6.075-4.925-11-11-11s-11 4.925-11 11 4.925 11 11 11c2.402 0 4.624-0.77 6.433-2.077l10.567 12.077 4-4-12.077-10.567zM11 19c-4.418 0-8-3.582-8-8s3.582-8 8-8 8 3.582 8 8-3.582 8-8 8z" />
</svg>
