<?xml version="1.0" encoding="utf-8"?>
<!-- Generator: Adobe Illustrator 15.1.0, SVG Export Plug-In . SVG Version: 6.00 Build 0)  -->
<!DOCTYPE svg PUBLIC "-//W3C//DTD SVG 1.1//EN" "http://www.w3.org/Graphics/SVG/1.1/DTD/svg11.dtd">
<svg version="1.1" id="Layer_1" xmlns="http://www.w3.org/2000/svg" xmlns:xlink="http://www.w3.org/1999/xlink" x="0px" y="0px"
	 width="982.524px" height="94.857px" viewBox="0 0 982.524 94.857" enable-background="new 0 0 982.524 94.857"
	 xml:space="preserve">
<g>
	<g>
		<path fill="#FFFFFF" d="M44.754,94.738h-15.46c-0.838,0-1.518-0.681-1.518-1.519V17.305H1.519C0.68,17.305,0,16.626,0,15.787
			V1.637c0-0.839,0.68-1.519,1.519-1.519H72.53c0.839,0,1.519,0.68,1.519,1.519v14.15c0,0.839-0.679,1.518-1.519,1.518H46.273
			v75.915C46.273,94.057,45.593,94.738,44.754,94.738z M30.812,91.702h12.424V15.787c0-0.839,0.679-1.519,1.518-1.519h26.258V3.155
			H3.037v11.113h26.257c0.838,0,1.519,0.68,1.519,1.519V91.702z"/>
	</g>
	<g>
		<path fill="#FFFFFF" d="M220.711,94.738h-65.903c-0.838,0-1.518-0.681-1.518-1.519V1.637c0-0.839,0.68-1.519,1.518-1.519h64.331
			c0.838,0,1.518,0.68,1.518,1.519V16.18c0,0.838-0.68,1.518-1.518,1.518h-47.352V38.9h42.373c0.838,0,1.518,0.679,1.518,1.518
			v13.757c0,0.838-0.68,1.52-1.518,1.52h-42.373v21.463h48.924c0.838,0,1.518,0.68,1.518,1.519v14.543
			C222.229,94.057,221.549,94.738,220.711,94.738z M156.327,91.702h62.866V80.195h-48.924c-0.839,0-1.518-0.681-1.518-1.519V54.176
			c0-0.838,0.679-1.519,1.518-1.519h42.373v-10.72h-42.373c-0.839,0-1.518-0.68-1.518-1.519V16.18c0-0.839,0.679-1.519,1.518-1.519
			h47.352V3.155h-61.293V91.702z"/>
	</g>
	<g>
		<path fill="#FFFFFF" d="M383.324,94.738c-0.007,0-0.013,0-0.02,0h-19.653c-0.492,0-0.953-0.239-1.238-0.639l-21.426-30.15h-18.005
			v29.271c0,0.838-0.68,1.519-1.52,1.519h-15.459c-0.839,0-1.519-0.681-1.519-1.519V1.637c0-0.839,0.68-1.519,1.519-1.519h34.065
			c14.257,0,24.667,2.489,30.939,7.398c6.386,4.997,9.623,13.025,9.623,23.862c0,15.007-6.341,24.874-18.857,29.359l22.639,31.424
			c0.266,0.273,0.431,0.647,0.431,1.059C384.842,94.057,384.163,94.738,383.324,94.738z M364.435,91.702h15.904l-22.243-30.874
			c-0.288-0.399-0.364-0.913-0.206-1.377c0.159-0.466,0.533-0.825,1.004-0.966c12.582-3.751,18.699-12.618,18.699-27.107
			c0-9.854-2.846-17.078-8.458-21.471c-5.725-4.48-15.504-6.752-29.067-6.752h-32.546v88.547h12.423V62.43
			c0-0.838,0.679-1.519,1.518-1.519h20.309c0.492,0,0.954,0.238,1.238,0.639L364.435,91.702z M340.723,49.927h-19.261
			c-0.838,0-1.518-0.678-1.518-1.517V15.656c0-0.839,0.679-1.519,1.518-1.519h19.653c8.693,0,14.632,1.181,18.156,3.61
			c3.652,2.518,5.505,7.082,5.505,13.565c0,6.418-1.765,11.192-5.245,14.187C356.071,48.48,349.919,49.927,340.723,49.927z
			 M322.981,46.892h17.741c8.32,0,13.981-1.243,16.827-3.694c2.78-2.393,4.189-6.391,4.189-11.886c0-5.425-1.41-9.148-4.191-11.065
			c-2.958-2.039-8.487-3.073-16.433-3.073h-18.134V46.892z"/>
	</g>
	<g>
		<path fill="#FFFFFF" d="M544.214,94.738c-0.004,0.001-0.012,0.001-0.021,0h-19.651c-0.492,0-0.954-0.239-1.238-0.639
			l-21.428-30.15h-18.004v29.271c0,0.838-0.68,1.519-1.519,1.519h-15.46c-0.839,0-1.519-0.681-1.519-1.519V1.637
			c0-0.839,0.68-1.519,1.519-1.519h34.065c14.258,0,24.667,2.489,30.939,7.398c6.384,4.997,9.621,13.025,9.621,23.862
			c0,15.007-6.34,24.874-18.855,29.359l22.641,31.424c0.266,0.273,0.429,0.647,0.429,1.059
			C545.732,94.057,545.053,94.738,544.214,94.738z M525.325,91.702h15.903l-22.243-30.874c-0.287-0.399-0.364-0.913-0.206-1.377
			c0.158-0.466,0.533-0.825,1.004-0.966c12.583-3.75,18.699-12.617,18.699-27.107c0-9.854-2.845-17.079-8.458-21.471
			c-5.724-4.48-15.503-6.752-29.066-6.752h-32.547v88.547h12.424V62.43c0-0.838,0.679-1.519,1.519-1.519h20.307
			c0.492,0,0.953,0.238,1.238,0.639L525.325,91.702z M501.612,49.927h-19.259c-0.839,0-1.519-0.678-1.519-1.517V15.656
			c0-0.839,0.679-1.519,1.519-1.519h19.653c8.692,0,14.631,1.181,18.156,3.609c3.652,2.519,5.505,7.083,5.505,13.566
			c0,6.418-1.765,11.192-5.244,14.187C516.961,48.48,510.808,49.927,501.612,49.927z M483.872,46.892h17.741
			c8.32,0,13.982-1.243,16.83-3.694c2.778-2.393,4.187-6.391,4.187-11.886c0-5.425-1.409-9.148-4.19-11.065
			c-2.959-2.039-8.487-3.073-16.433-3.073h-18.134V46.892z"/>
	</g>
	<g>
		<path fill="#FFFFFF" d="M712.311,94.738c-0.006,0.001-0.014,0.001-0.021,0h-16.508c-0.603,0-1.146-0.356-1.391-0.906
			l-8.772-19.926h-43.874l-8.772,19.926c-0.243,0.55-0.789,0.906-1.391,0.906h-16.508c-0.514,0-0.992-0.26-1.273-0.689
			c-0.278-0.429-0.323-0.972-0.116-1.441l40.353-91.583c0.244-0.551,0.788-0.906,1.391-0.906h16.51c0.602,0,1.146,0.355,1.389,0.906
			l40.261,91.372c0.153,0.238,0.241,0.52,0.241,0.823C713.828,94.057,713.149,94.738,712.311,94.738z M696.772,91.702h13.188
			L670.946,3.155h-14.528l-39.016,88.547h13.189l8.772-19.927c0.243-0.551,0.788-0.907,1.391-0.907h45.855
			c0.602,0,1.146,0.356,1.389,0.907L696.772,91.702z M680.321,59.625h-33.279c-0.513,0-0.991-0.259-1.271-0.688
			c-0.28-0.431-0.324-0.974-0.116-1.442l16.64-37.734c0.241-0.55,0.786-0.905,1.388-0.905c0.603,0,1.147,0.355,1.39,0.905
			l16.64,37.734c0.207,0.469,0.163,1.012-0.116,1.442C681.312,59.366,680.836,59.625,680.321,59.625z M649.372,56.589h28.621
			l-14.312-32.453L649.372,56.589z"/>
	</g>
	<g>
		<path fill="#FFFFFF" d="M805.968,94.738h-15.46c-0.837,0-1.519-0.681-1.519-1.519V1.637c0-0.839,0.682-1.519,1.519-1.519h15.46
			c0.838,0,1.519,0.68,1.519,1.519v91.583C807.486,94.057,806.806,94.738,805.968,94.738z M792.027,91.702h12.422V3.155h-12.422
			V91.702z"/>
	</g>
	<g>
		<path fill="#FFFFFF" d="M981.007,94.738h-16.77c-0.469,0-0.912-0.218-1.199-0.587l-49.166-63.32v62.389
			c0,0.838-0.681,1.519-1.519,1.519h-15.461c-0.838,0-1.518-0.681-1.518-1.519V1.637c0-0.839,0.68-1.519,1.518-1.519h15.461
			c0.469,0,0.91,0.216,1.198,0.586l50.477,64.899V1.637c0-0.839,0.681-1.519,1.519-1.519h15.46c0.839,0,1.518,0.68,1.518,1.519
			v91.583C982.524,94.057,981.846,94.738,981.007,94.738z M964.98,91.702h14.508V3.155h-12.423v66.874
			c0,0.649-0.413,1.227-1.026,1.437c-0.61,0.21-1.294,0.008-1.69-0.504L911.611,3.155h-13.199v88.547h12.423V26.4
			c0-0.649,0.413-1.227,1.026-1.437c0.61-0.211,1.294-0.008,1.691,0.505L964.98,91.702z"/>
	</g>
</g>
</svg>
