<?xml version="1.0" encoding="utf-8"?>
<!-- Generator: Adobe Illustrator 15.1.0, SVG Export Plug-In . SVG Version: 6.00 Build 0)  -->
<!DOCTYPE svg PUBLIC "-//W3C//DTD SVG 1.1//EN" "http://www.w3.org/Graphics/SVG/1.1/DTD/svg11.dtd">
<svg version="1.1" id="Layer_1" xmlns="http://www.w3.org/2000/svg" xmlns:xlink="http://www.w3.org/1999/xlink" x="0px" y="0px"
	 width="1000px" height="94.857px" viewBox="0 0 1000 94.857" enable-background="new 0 0 1000 94.857" xml:space="preserve">
<g>
	<g>
		<path fill="#FFFFFF" d="M45.574,94.857H28.315V15.923H0V0h73.888v15.923H45.574V94.857z M29.813,93.36h14.263V14.425H72.39V1.498
			H1.498v12.927h28.315V93.36z"/>
	</g>
	<g>
		<path fill="#FFFFFF" d="M224.945,94.857h-68.679V0h67.077v16.323h-49.819v23.211h44.743v15.522h-44.743v23.478h51.421V94.857z
			 M157.764,93.36h65.684V80.032h-51.421V53.558h44.743V41.032h-44.743V14.825h49.818V1.498h-64.081V93.36z"/>
	</g>
	<g>
		<path fill="#FFFFFF" d="M391.408,94.857h-21.883L347.22,63.471h-19.567v31.387h-17.258V0h35.476
			c14.351,0,24.796,2.48,31.046,7.371c6.306,4.936,9.504,12.908,9.504,23.696c0,15.316-6.628,25.243-19.702,29.521L391.408,94.857z
			 M370.298,93.36h18.185L364.28,59.767l1.009-0.301c13.211-3.938,19.633-13.227,19.633-28.398c0-10.304-3.004-17.88-8.93-22.517
			c-5.98-4.68-16.115-7.053-30.123-7.053h-33.978V93.36h14.263V61.973h21.838L370.298,93.36z M346.537,49.179h-20.382V14.292h20.783
			c8.695,0,14.601,1.157,18.056,3.538c3.494,2.411,5.266,6.842,5.266,13.171c0,6.3-1.706,10.962-5.069,13.857
			C361.814,47.766,355.712,49.179,346.537,49.179z M327.653,47.681h18.884c8.679,0,14.626-1.332,17.676-3.958
			c3.018-2.598,4.548-6.878,4.548-12.722c0-5.808-1.554-9.824-4.618-11.938c-3.152-2.171-8.941-3.273-17.206-3.273h-19.285V47.681z"
			/>
	</g>
	<g>
		<path fill="#FFFFFF" d="M555.421,94.857h-21.884l-22.305-31.387h-19.566v31.387h-17.258V0h35.475
			c14.352,0,24.797,2.48,31.046,7.371c6.308,4.936,9.505,12.908,9.505,23.696c0,15.315-6.628,25.242-19.702,29.521L555.421,94.857z
			 M534.31,93.36h18.186l-24.202-33.593l1.01-0.301c13.211-3.938,19.633-13.227,19.633-28.398c0-10.304-3.004-17.88-8.93-22.517
			c-5.979-4.68-16.114-7.053-30.123-7.053h-33.977V93.36h14.262V61.973h21.837L534.31,93.36z M510.551,49.179h-20.383V14.292h20.783
			c8.695,0,14.602,1.157,18.057,3.538c3.493,2.412,5.265,6.843,5.265,13.171c0,6.299-1.705,10.962-5.069,13.857
			C525.827,47.766,519.727,49.179,510.551,49.179z M491.666,47.681h18.885c8.68,0,14.625-1.332,17.676-3.958
			c3.018-2.598,4.549-6.878,4.549-12.722c0-5.807-1.554-9.823-4.618-11.938c-3.151-2.171-8.94-3.273-17.206-3.273h-19.285V47.681z"
			/>
	</g>
	<g>
		<path fill="#FFFFFF" d="M726.466,94.857H708l-9.349-21.236h-45.771l-9.35,21.236h-18.465L666.863,0h17.806L726.466,94.857z
			 M708.978,93.36h15.191L683.692,1.498H667.84L627.363,93.36h15.191l9.35-21.237h47.724L708.978,93.36z M693.877,59.063h-36.222
			l18.111-41.072L693.877,59.063z M659.952,57.565h31.628l-15.813-35.862L659.952,57.565z"/>
	</g>
	<g>
		<path fill="#FFFFFF" d="M821.562,94.857h-17.257V0h17.257V94.857z M805.803,93.36h14.262V1.498h-14.262V93.36z"/>
	</g>
	<g>
		<path fill="#FFFFFF" d="M1000,94.857h-18.211l-0.226-0.29l-51.55-66.391v66.68h-17.258V0h16.876l0.225,0.289l52.886,67.997V0H1000
			V94.857z M982.522,93.36h15.979V1.498h-14.263v71.154L928.898,1.498h-14.645V93.36h14.263V23.806L982.522,93.36z"/>
	</g>
</g>
</svg>
